<svg xmlns="http://www.w3.org/2000/svg" xmlns:xlink="http://www.w3.org/1999/xlink" width="1920" height="800">\n<path  d="M 0 0
L 1920 0
L 1920 800
L 0 800
L 0 0" style="stroke-width:0;stroke:none;fill:rgba(255,255,255,1.0)"/><path  d="M 921 44
L 951 44" style="stroke-width:3;stroke:rgba(84,112,198,1.0);fill:rgba(84,112,198,1.0)"/><circle cx="936" cy="44" r="5" style="stroke-width:3;stroke:rgba(84,112,198,1.0);fill:rgba(84,112,198,1.0)"/><path  d="" style="stroke-width:3;stroke:rgba(84,112,198,1.0);fill:rgba(84,112,198,1.0)"/><text x="953" y="50" style="stroke-width:0;stroke:none;fill:rgba(70,70,70,1.0);font-size:15.3px;font-family:'Roboto Medium',sans-serif">Average</text><text x="10" y="17" style="stroke-width:0;stroke:none;fill:rgba(70,70,70,1.0);font-size:15.3px;font-family:'Roboto Medium',sans-serif">15.64G ns</text><text x="10" y="127" style="stroke-width:0;stroke:none;fill:rgba(70,70,70,1.0);font-size:15.3px;font-family:'Roboto Medium',sans-serif">15.15G ns</text><text x="10" y="237" style="stroke-width:0;stroke:none;fill:rgba(70,70,70,1.0);font-size:15.3px;font-family:'Roboto Medium',sans-serif">14.66G ns</text><text x="10" y="347" style="stroke-width:0;stroke:none;fill:rgba(70,70,70,1.0);font-size:15.3px;font-family:'Roboto Medium',sans-serif">14.17G ns</text><text x="10" y="457" style="stroke-width:0;stroke:none;fill:rgba(70,70,70,1.0);font-size:15.3px;font-family:'Roboto Medium',sans-serif">13.68G ns</text><text x="10" y="567" style="stroke-width:0;stroke:none;fill:rgba(70,70,70,1.0);font-size:15.3px;font-family:'Roboto Medium',sans-serif">13.19G ns</text><text x="10" y="677" style="stroke-width:0;stroke:none;fill:rgba(70,70,70,1.0);font-size:15.3px;font-family:'Roboto Medium',sans-serif">12.70G ns</text><path  d="M 90 10
L 1870 10" style="stroke-width:1;stroke:rgba(224,230,242,1.0);fill:none"/><path  d="M 90 120
L 1870 120" style="stroke-width:1;stroke:rgba(224,230,242,1.0);fill:none"/><path  d="M 90 230
L 1870 230" style="stroke-width:1;stroke:rgba(224,230,242,1.0);fill:none"/><path  d="M 90 340
L 1870 340" style="stroke-width:1;stroke:rgba(224,230,242,1.0);fill:none"/><path  d="M 90 450
L 1870 450" style="stroke-width:1;stroke:rgba(224,230,242,1.0);fill:none"/><path  d="M 90 560
L 1870 560" style="stroke-width:1;stroke:rgba(224,230,242,1.0);fill:none"/><path  d="M 90 675
L 90 670" style="stroke-width:1;stroke:rgba(110,112,121,1.0);fill:none"/><path  d="M 1870 675
L 1870 670" style="stroke-width:1;stroke:rgba(110,112,121,1.0);fill:none"/><path  d="M 90 670
L 1870 670" style="stroke-width:1;stroke:rgba(110,112,121,1.0);fill:none"/><text x="973" y="758" style="stroke-width:0;stroke:none;fill:rgba(70,70,70,1.0);font-size:12.8px;font-family:'Roboto Medium',sans-serif" transform="rotate(272.15,973,758)">RadixSortMSD</text><path  d="M 100 231
L 1860 231
L 1860 669
L 100 669
L 100 231" style="stroke-width:0;stroke:none;fill:rgba(84,112,198,1.0)"/><path  d="M 977 223
A 15 15 330.00 1 1 983 223
L 980 209
Z" style="stroke-width:0;stroke:none;fill:rgba(84,112,198,1.0)"/><path  d="M 965 209
Q980,246 995,209
Z" style="stroke-width:0;stroke:none;fill:rgba(84,112,198,1.0)"/><text x="963" y="214" style="stroke-width:0;stroke:none;fill:rgba(238,238,238,1.0);font-size:10.2px;font-family:'Roboto Medium',sans-serif">14.66G</text><path  d="M 977 223
A 15 15 330.00 1 1 983 223
L 980 209
Z" style="stroke-width:0;stroke:none;fill:rgba(84,112,198,1.0)"/><path  d="M 965 209
Q980,246 995,209
Z" style="stroke-width:0;stroke:none;fill:rgba(84,112,198,1.0)"/><text x="963" y="214" style="stroke-width:0;stroke:none;fill:rgba(238,238,238,1.0);font-size:10.2px;font-family:'Roboto Medium',sans-serif">14.66G</text><circle cx="93" cy="231" r="3" style="stroke-width:1;stroke:rgba(84,112,198,1.0);fill:rgba(84,112,198,1.0)"/><path stroke-dasharray="4.0, 2.0" d="" style="stroke-width:1;stroke:rgba(84,112,198,1.0);fill:rgba(84,112,198,1.0)"/><path stroke-dasharray="4.0, 2.0" d="M 99 231
L 1852 231" style="stroke-width:1;stroke:rgba(84,112,198,1.0);fill:rgba(84,112,198,1.0)"/><path stroke-dasharray="4.0, 2.0" d="M 1852 226
L 1868 231
L 1852 236
L 1857 231
L 1852 226" style="stroke-width:1;stroke:rgba(84,112,198,1.0);fill:rgba(84,112,198,1.0)"/><text x="1870" y="235" style="stroke-width:0;stroke:none;fill:rgba(70,70,70,1.0);font-size:12.8px;font-family:'Roboto Medium',sans-serif">14.66G</text></svg>