<svg xmlns="http://www.w3.org/2000/svg" xmlns:xlink="http://www.w3.org/1999/xlink" width="1920" height="800">\n<path  d="M 0 0
L 1920 0
L 1920 800
L 0 800
L 0 0" style="stroke-width:0;stroke:none;fill:rgba(255,255,255,1.0)"/><path  d="M 921 44
L 951 44" style="stroke-width:3;stroke:rgba(84,112,198,1.0);fill:rgba(84,112,198,1.0)"/><circle cx="936" cy="44" r="5" style="stroke-width:3;stroke:rgba(84,112,198,1.0);fill:rgba(84,112,198,1.0)"/><path  d="" style="stroke-width:3;stroke:rgba(84,112,198,1.0);fill:rgba(84,112,198,1.0)"/><text x="953" y="50" style="stroke-width:0;stroke:none;fill:rgba(70,70,70,1.0);font-size:15.3px;font-family:'Roboto Medium',sans-serif">Average</text><text x="10" y="17" style="stroke-width:0;stroke:none;fill:rgba(70,70,70,1.0);font-size:15.3px;font-family:'Roboto Medium',sans-serif">293.82M ns</text><text x="10" y="127" style="stroke-width:0;stroke:none;fill:rgba(70,70,70,1.0);font-size:15.3px;font-family:'Roboto Medium',sans-serif">244.85M ns</text><text x="10" y="237" style="stroke-width:0;stroke:none;fill:rgba(70,70,70,1.0);font-size:15.3px;font-family:'Roboto Medium',sans-serif">195.88M ns</text><text x="10" y="347" style="stroke-width:0;stroke:none;fill:rgba(70,70,70,1.0);font-size:15.3px;font-family:'Roboto Medium',sans-serif">146.91M ns</text><text x="19" y="457" style="stroke-width:0;stroke:none;fill:rgba(70,70,70,1.0);font-size:15.3px;font-family:'Roboto Medium',sans-serif">97.94M ns</text><text x="19" y="567" style="stroke-width:0;stroke:none;fill:rgba(70,70,70,1.0);font-size:15.3px;font-family:'Roboto Medium',sans-serif">48.97M ns</text><text x="63" y="677" style="stroke-width:0;stroke:none;fill:rgba(70,70,70,1.0);font-size:15.3px;font-family:'Roboto Medium',sans-serif">0 ns</text><path  d="M 102 10
L 1870 10" style="stroke-width:1;stroke:rgba(224,230,242,1.0);fill:none"/><path  d="M 102 120
L 1870 120" style="stroke-width:1;stroke:rgba(224,230,242,1.0);fill:none"/><path  d="M 102 230
L 1870 230" style="stroke-width:1;stroke:rgba(224,230,242,1.0);fill:none"/><path  d="M 102 340
L 1870 340" style="stroke-width:1;stroke:rgba(224,230,242,1.0);fill:none"/><path  d="M 102 450
L 1870 450" style="stroke-width:1;stroke:rgba(224,230,242,1.0);fill:none"/><path  d="M 102 560
L 1870 560" style="stroke-width:1;stroke:rgba(224,230,242,1.0);fill:none"/><path  d="M 102 675
L 102 670" style="stroke-width:1;stroke:rgba(110,112,121,1.0);fill:none"/><path  d="M 182 675
L 182 670" style="stroke-width:1;stroke:rgba(110,112,121,1.0);fill:none"/><path  d="M 262 675
L 262 670" style="stroke-width:1;stroke:rgba(110,112,121,1.0);fill:none"/><path  d="M 343 675
L 343 670" style="stroke-width:1;stroke:rgba(110,112,121,1.0);fill:none"/><path  d="M 423 675
L 423 670" style="stroke-width:1;stroke:rgba(110,112,121,1.0);fill:none"/><path  d="M 503 675
L 503 670" style="stroke-width:1;stroke:rgba(110,112,121,1.0);fill:none"/><path  d="M 584 675
L 584 670" style="stroke-width:1;stroke:rgba(110,112,121,1.0);fill:none"/><path  d="M 664 675
L 664 670" style="stroke-width:1;stroke:rgba(110,112,121,1.0);fill:none"/><path  d="M 744 675
L 744 670" style="stroke-width:1;stroke:rgba(110,112,121,1.0);fill:none"/><path  d="M 825 675
L 825 670" style="stroke-width:1;stroke:rgba(110,112,121,1.0);fill:none"/><path  d="M 905 675
L 905 670" style="stroke-width:1;stroke:rgba(110,112,121,1.0);fill:none"/><path  d="M 986 675
L 986 670" style="stroke-width:1;stroke:rgba(110,112,121,1.0);fill:none"/><path  d="M 1066 675
L 1066 670" style="stroke-width:1;stroke:rgba(110,112,121,1.0);fill:none"/><path  d="M 1146 675
L 1146 670" style="stroke-width:1;stroke:rgba(110,112,121,1.0);fill:none"/><path  d="M 1227 675
L 1227 670" style="stroke-width:1;stroke:rgba(110,112,121,1.0);fill:none"/><path  d="M 1307 675
L 1307 670" style="stroke-width:1;stroke:rgba(110,112,121,1.0);fill:none"/><path  d="M 1387 675
L 1387 670" style="stroke-width:1;stroke:rgba(110,112,121,1.0);fill:none"/><path  d="M 1468 675
L 1468 670" style="stroke-width:1;stroke:rgba(110,112,121,1.0);fill:none"/><path  d="M 1548 675
L 1548 670" style="stroke-width:1;stroke:rgba(110,112,121,1.0);fill:none"/><path  d="M 1628 675
L 1628 670" style="stroke-width:1;stroke:rgba(110,112,121,1.0);fill:none"/><path  d="M 1709 675
L 1709 670" style="stroke-width:1;stroke:rgba(110,112,121,1.0);fill:none"/><path  d="M 1789 675
L 1789 670" style="stroke-width:1;stroke:rgba(110,112,121,1.0);fill:none"/><path  d="M 1870 675
L 1870 670" style="stroke-width:1;stroke:rgba(110,112,121,1.0);fill:none"/><path  d="M 102 670
L 1870 670" style="stroke-width:1;stroke:rgba(110,112,121,1.0);fill:none"/><text x="135" y="779" style="stroke-width:0;stroke:none;fill:rgba(70,70,70,1.0);font-size:12.8px;font-family:'Roboto Medium',sans-serif" transform="rotate(272.15,135,779)">AdaptiveSort</text><text x="215" y="779" style="stroke-width:0;stroke:none;fill:rgba(70,70,70,1.0);font-size:12.8px;font-family:'Roboto Medium',sans-serif" transform="rotate(272.15,215,779)">AmericanFlagSort</text><text x="295" y="779" style="stroke-width:0;stroke:none;fill:rgba(70,70,70,1.0);font-size:12.8px;font-family:'Roboto Medium',sans-serif" transform="rotate(272.15,295,779)">BurstSort</text><text x="376" y="779" style="stroke-width:0;stroke:none;fill:rgba(70,70,70,1.0);font-size:12.8px;font-family:'Roboto Medium',sans-serif" transform="rotate(272.15,376,779)">CascadeSort</text><text x="456" y="779" style="stroke-width:0;stroke:none;fill:rgba(70,70,70,1.0);font-size:12.8px;font-family:'Roboto Medium',sans-serif" transform="rotate(272.15,456,779)">CombSort</text><text x="536" y="779" style="stroke-width:0;stroke:none;fill:rgba(70,70,70,1.0);font-size:12.8px;font-family:'Roboto Medium',sans-serif" transform="rotate(272.15,536,779)">CountingSort</text><text x="617" y="779" style="stroke-width:0;stroke:none;fill:rgba(70,70,70,1.0);font-size:12.8px;font-family:'Roboto Medium',sans-serif" transform="rotate(272.15,617,779)">FlashSort</text><text x="698" y="779" style="stroke-width:0;stroke:none;fill:rgba(70,70,70,1.0);font-size:12.8px;font-family:'Roboto Medium',sans-serif" transform="rotate(272.15,698,779)">GrailSort</text><text x="777" y="779" style="stroke-width:0;stroke:none;fill:rgba(70,70,70,1.0);font-size:12.8px;font-family:'Roboto Medium',sans-serif" transform="rotate(272.15,777,779)">HeapSort</text><text x="858" y="779" style="stroke-width:0;stroke:none;fill:rgba(70,70,70,1.0);font-size:12.8px;font-family:'Roboto Medium',sans-serif" transform="rotate(272.15,858,779)">HybridSortSonnet</text><text x="939" y="779" style="stroke-width:0;stroke:none;fill:rgba(70,70,70,1.0);font-size:12.8px;font-family:'Roboto Medium',sans-serif" transform="rotate(272.15,939,779)">IntroSort</text><text x="1019" y="779" style="stroke-width:0;stroke:none;fill:rgba(70,70,70,1.0);font-size:12.8px;font-family:'Roboto Medium',sans-serif" transform="rotate(272.15,1019,779)">MergeSort</text><text x="1099" y="779" style="stroke-width:0;stroke:none;fill:rgba(70,70,70,1.0);font-size:12.8px;font-family:'Roboto Medium',sans-serif" transform="rotate(272.15,1099,779)">PigeonholeSort</text><text x="1179" y="779" style="stroke-width:0;stroke:none;fill:rgba(70,70,70,1.0);font-size:12.8px;font-family:'Roboto Medium',sans-serif" transform="rotate(272.15,1179,779)">PostmanSort</text><text x="1260" y="779" style="stroke-width:0;stroke:none;fill:rgba(70,70,70,1.0);font-size:12.8px;font-family:'Roboto Medium',sans-serif" transform="rotate(272.15,1260,779)">RadixSortLSD</text><text x="1340" y="779" style="stroke-width:0;stroke:none;fill:rgba(70,70,70,1.0);font-size:12.8px;font-family:'Roboto Medium',sans-serif" transform="rotate(272.15,1340,779)">RadixSortMSD</text><text x="1420" y="779" style="stroke-width:0;stroke:none;fill:rgba(70,70,70,1.0);font-size:12.8px;font-family:'Roboto Medium',sans-serif" transform="rotate(272.15,1420,779)">SampleSort</text><text x="1501" y="779" style="stroke-width:0;stroke:none;fill:rgba(70,70,70,1.0);font-size:12.8px;font-family:'Roboto Medium',sans-serif" transform="rotate(272.15,1501,779)">SpreadSort</text><text x="1582" y="779" style="stroke-width:0;stroke:none;fill:rgba(70,70,70,1.0);font-size:12.8px;font-family:'Roboto Medium',sans-serif" transform="rotate(272.15,1582,779)">StdSort</text><text x="1662" y="779" style="stroke-width:0;stroke:none;fill:rgba(70,70,70,1.0);font-size:12.8px;font-family:'Roboto Medium',sans-serif" transform="rotate(272.15,1662,779)">TimSort</text><text x="1742" y="779" style="stroke-width:0;stroke:none;fill:rgba(70,70,70,1.0);font-size:12.8px;font-family:'Roboto Medium',sans-serif" transform="rotate(272.15,1742,779)">TournamentSort</text><text x="1822" y="779" style="stroke-width:0;stroke:none;fill:rgba(70,70,70,1.0);font-size:12.8px;font-family:'Roboto Medium',sans-serif" transform="rotate(272.15,1822,779)">WeaveMergeSort</text><path  d="M 112 11
L 172 11
L 172 669
L 112 669
L 112 11" style="stroke-width:0;stroke:none;fill:rgba(84,112,198,1.0)"/><path  d="M 192 22
L 252 22
L 252 669
L 192 669
L 192 22" style="stroke-width:0;stroke:none;fill:rgba(84,112,198,1.0)"/><path  d="M 272 558
L 332 558
L 332 669
L 272 669
L 272 558" style="stroke-width:0;stroke:none;fill:rgba(84,112,198,1.0)"/><path  d="M 353 536
L 413 536
L 413 669
L 353 669
L 353 536" style="stroke-width:0;stroke:none;fill:rgba(84,112,198,1.0)"/><path  d="M 433 525
L 493 525
L 493 669
L 433 669
L 433 525" style="stroke-width:0;stroke:none;fill:rgba(84,112,198,1.0)"/><path  d="M 513 572
L 573 572
L 573 669
L 513 669
L 513 572" style="stroke-width:0;stroke:none;fill:rgba(84,112,198,1.0)"/><path  d="M 594 539
L 654 539
L 654 669
L 594 669
L 594 539" style="stroke-width:0;stroke:none;fill:rgba(84,112,198,1.0)"/><path  d="M 674 559
L 734 559
L 734 669
L 674 669
L 674 559" style="stroke-width:0;stroke:none;fill:rgba(84,112,198,1.0)"/><path  d="M 754 428
L 814 428
L 814 669
L 754 669
L 754 428" style="stroke-width:0;stroke:none;fill:rgba(84,112,198,1.0)"/><path  d="M 835 422
L 895 422
L 895 669
L 835 669
L 835 422" style="stroke-width:0;stroke:none;fill:rgba(84,112,198,1.0)"/><path  d="M 915 594
L 975 594
L 975 669
L 915 669
L 915 594" style="stroke-width:0;stroke:none;fill:rgba(84,112,198,1.0)"/><path  d="M 996 494
L 1056 494
L 1056 669
L 996 669
L 996 494" style="stroke-width:0;stroke:none;fill:rgba(84,112,198,1.0)"/><path  d="M 1076 413
L 1136 413
L 1136 669
L 1076 669
L 1076 413" style="stroke-width:0;stroke:none;fill:rgba(84,112,198,1.0)"/><path  d="M 1156 484
L 1216 484
L 1216 669
L 1156 669
L 1156 484" style="stroke-width:0;stroke:none;fill:rgba(84,112,198,1.0)"/><path  d="M 1237 211
L 1297 211
L 1297 669
L 1237 669
L 1237 211" style="stroke-width:0;stroke:none;fill:rgba(84,112,198,1.0)"/><path  d="M 1317 523
L 1377 523
L 1377 669
L 1317 669
L 1317 523" style="stroke-width:0;stroke:none;fill:rgba(84,112,198,1.0)"/><path  d="M 1397 598
L 1457 598
L 1457 669
L 1397 669
L 1397 598" style="stroke-width:0;stroke:none;fill:rgba(84,112,198,1.0)"/><path  d="M 1478 582
L 1538 582
L 1538 669
L 1478 669
L 1478 582" style="stroke-width:0;stroke:none;fill:rgba(84,112,198,1.0)"/><path  d="M 1558 584
L 1618 584
L 1618 669
L 1558 669
L 1558 584" style="stroke-width:0;stroke:none;fill:rgba(84,112,198,1.0)"/><path  d="M 1638 431
L 1698 431
L 1698 669
L 1638 669
L 1638 431" style="stroke-width:0;stroke:none;fill:rgba(84,112,198,1.0)"/><path  d="M 1719 344
L 1779 344
L 1779 669
L 1719 669
L 1719 344" style="stroke-width:0;stroke:none;fill:rgba(84,112,198,1.0)"/><path  d="M 1799 558
L 1859 558
L 1859 669
L 1799 669
L 1799 558" style="stroke-width:0;stroke:none;fill:rgba(84,112,198,1.0)"/><path  d="M 139 3
A 15 15 330.00 1 1 145 3
L 142 -11
Z" style="stroke-width:0;stroke:none;fill:rgba(84,112,198,1.0)"/><path  d="M 127 -11
Q142,26 157,-11
Z" style="stroke-width:0;stroke:none;fill:rgba(84,112,198,1.0)"/><text x="122" y="-6" style="stroke-width:0;stroke:none;fill:rgba(238,238,238,1.0);font-size:10.2px;font-family:'Roboto Medium',sans-serif">293.51M</text><path  d="M 1424 590
A 15 15 330.00 1 1 1430 590
L 1427 576
Z" style="stroke-width:0;stroke:none;fill:rgba(84,112,198,1.0)"/><path  d="M 1412 576
Q1427,613 1442,576
Z" style="stroke-width:0;stroke:none;fill:rgba(84,112,198,1.0)"/><text x="1409" y="581" style="stroke-width:0;stroke:none;fill:rgba(238,238,238,1.0);font-size:10.2px;font-family:'Roboto Medium',sans-serif">32.27M</text><circle cx="105" cy="454" r="3" style="stroke-width:1;stroke:rgba(84,112,198,1.0);fill:rgba(84,112,198,1.0)"/><path stroke-dasharray="4.0, 2.0" d="" style="stroke-width:1;stroke:rgba(84,112,198,1.0);fill:rgba(84,112,198,1.0)"/><path stroke-dasharray="4.0, 2.0" d="M 111 454
L 1852 454" style="stroke-width:1;stroke:rgba(84,112,198,1.0);fill:rgba(84,112,198,1.0)"/><path stroke-dasharray="4.0, 2.0" d="M 1852 449
L 1868 454
L 1852 459
L 1857 454
L 1852 449" style="stroke-width:1;stroke:rgba(84,112,198,1.0);fill:rgba(84,112,198,1.0)"/><text x="1870" y="458" style="stroke-width:0;stroke:none;fill:rgba(70,70,70,1.0);font-size:12.8px;font-family:'Roboto Medium',sans-serif">96.37M</text></svg>