<svg xmlns="http://www.w3.org/2000/svg" xmlns:xlink="http://www.w3.org/1999/xlink" width="1920" height="800">\n<path  d="M 0 0
L 1920 0
L 1920 800
L 0 800
L 0 0" style="stroke-width:0;stroke:none;fill:rgba(255,255,255,1.0)"/><path  d="M 921 44
L 951 44" style="stroke-width:3;stroke:rgba(84,112,198,1.0);fill:rgba(84,112,198,1.0)"/><circle cx="936" cy="44" r="5" style="stroke-width:3;stroke:rgba(84,112,198,1.0);fill:rgba(84,112,198,1.0)"/><path  d="" style="stroke-width:3;stroke:rgba(84,112,198,1.0);fill:rgba(84,112,198,1.0)"/><text x="953" y="50" style="stroke-width:0;stroke:none;fill:rgba(70,70,70,1.0);font-size:15.3px;font-family:'Roboto Medium',sans-serif">Average</text><text x="10" y="17" style="stroke-width:0;stroke:none;fill:rgba(70,70,70,1.0);font-size:15.3px;font-family:'Roboto Medium',sans-serif">17.52k ns</text><text x="19" y="127" style="stroke-width:0;stroke:none;fill:rgba(70,70,70,1.0);font-size:15.3px;font-family:'Roboto Medium',sans-serif">14.6k ns</text><text x="10" y="237" style="stroke-width:0;stroke:none;fill:rgba(70,70,70,1.0);font-size:15.3px;font-family:'Roboto Medium',sans-serif">11.68k ns</text><text x="19" y="347" style="stroke-width:0;stroke:none;fill:rgba(70,70,70,1.0);font-size:15.3px;font-family:'Roboto Medium',sans-serif">8.76k ns</text><text x="19" y="457" style="stroke-width:0;stroke:none;fill:rgba(70,70,70,1.0);font-size:15.3px;font-family:'Roboto Medium',sans-serif">5.84k ns</text><text x="19" y="567" style="stroke-width:0;stroke:none;fill:rgba(70,70,70,1.0);font-size:15.3px;font-family:'Roboto Medium',sans-serif">2.92k ns</text><text x="49" y="677" style="stroke-width:0;stroke:none;fill:rgba(70,70,70,1.0);font-size:15.3px;font-family:'Roboto Medium',sans-serif">0 ns</text><path  d="M 88 10
L 1870 10" style="stroke-width:1;stroke:rgba(224,230,242,1.0);fill:none"/><path  d="M 88 120
L 1870 120" style="stroke-width:1;stroke:rgba(224,230,242,1.0);fill:none"/><path  d="M 88 230
L 1870 230" style="stroke-width:1;stroke:rgba(224,230,242,1.0);fill:none"/><path  d="M 88 340
L 1870 340" style="stroke-width:1;stroke:rgba(224,230,242,1.0);fill:none"/><path  d="M 88 450
L 1870 450" style="stroke-width:1;stroke:rgba(224,230,242,1.0);fill:none"/><path  d="M 88 560
L 1870 560" style="stroke-width:1;stroke:rgba(224,230,242,1.0);fill:none"/><path  d="M 88 675
L 88 670" style="stroke-width:1;stroke:rgba(110,112,121,1.0);fill:none"/><path  d="M 125 675
L 125 670" style="stroke-width:1;stroke:rgba(110,112,121,1.0);fill:none"/><path  d="M 162 675
L 162 670" style="stroke-width:1;stroke:rgba(110,112,121,1.0);fill:none"/><path  d="M 199 675
L 199 670" style="stroke-width:1;stroke:rgba(110,112,121,1.0);fill:none"/><path  d="M 236 675
L 236 670" style="stroke-width:1;stroke:rgba(110,112,121,1.0);fill:none"/><path  d="M 273 675
L 273 670" style="stroke-width:1;stroke:rgba(110,112,121,1.0);fill:none"/><path  d="M 310 675
L 310 670" style="stroke-width:1;stroke:rgba(110,112,121,1.0);fill:none"/><path  d="M 347 675
L 347 670" style="stroke-width:1;stroke:rgba(110,112,121,1.0);fill:none"/><path  d="M 385 675
L 385 670" style="stroke-width:1;stroke:rgba(110,112,121,1.0);fill:none"/><path  d="M 422 675
L 422 670" style="stroke-width:1;stroke:rgba(110,112,121,1.0);fill:none"/><path  d="M 459 675
L 459 670" style="stroke-width:1;stroke:rgba(110,112,121,1.0);fill:none"/><path  d="M 496 675
L 496 670" style="stroke-width:1;stroke:rgba(110,112,121,1.0);fill:none"/><path  d="M 533 675
L 533 670" style="stroke-width:1;stroke:rgba(110,112,121,1.0);fill:none"/><path  d="M 570 675
L 570 670" style="stroke-width:1;stroke:rgba(110,112,121,1.0);fill:none"/><path  d="M 607 675
L 607 670" style="stroke-width:1;stroke:rgba(110,112,121,1.0);fill:none"/><path  d="M 644 675
L 644 670" style="stroke-width:1;stroke:rgba(110,112,121,1.0);fill:none"/><path  d="M 682 675
L 682 670" style="stroke-width:1;stroke:rgba(110,112,121,1.0);fill:none"/><path  d="M 719 675
L 719 670" style="stroke-width:1;stroke:rgba(110,112,121,1.0);fill:none"/><path  d="M 756 675
L 756 670" style="stroke-width:1;stroke:rgba(110,112,121,1.0);fill:none"/><path  d="M 793 675
L 793 670" style="stroke-width:1;stroke:rgba(110,112,121,1.0);fill:none"/><path  d="M 830 675
L 830 670" style="stroke-width:1;stroke:rgba(110,112,121,1.0);fill:none"/><path  d="M 867 675
L 867 670" style="stroke-width:1;stroke:rgba(110,112,121,1.0);fill:none"/><path  d="M 904 675
L 904 670" style="stroke-width:1;stroke:rgba(110,112,121,1.0);fill:none"/><path  d="M 941 675
L 941 670" style="stroke-width:1;stroke:rgba(110,112,121,1.0);fill:none"/><path  d="M 979 675
L 979 670" style="stroke-width:1;stroke:rgba(110,112,121,1.0);fill:none"/><path  d="M 1016 675
L 1016 670" style="stroke-width:1;stroke:rgba(110,112,121,1.0);fill:none"/><path  d="M 1053 675
L 1053 670" style="stroke-width:1;stroke:rgba(110,112,121,1.0);fill:none"/><path  d="M 1090 675
L 1090 670" style="stroke-width:1;stroke:rgba(110,112,121,1.0);fill:none"/><path  d="M 1127 675
L 1127 670" style="stroke-width:1;stroke:rgba(110,112,121,1.0);fill:none"/><path  d="M 1164 675
L 1164 670" style="stroke-width:1;stroke:rgba(110,112,121,1.0);fill:none"/><path  d="M 1201 675
L 1201 670" style="stroke-width:1;stroke:rgba(110,112,121,1.0);fill:none"/><path  d="M 1238 675
L 1238 670" style="stroke-width:1;stroke:rgba(110,112,121,1.0);fill:none"/><path  d="M 1276 675
L 1276 670" style="stroke-width:1;stroke:rgba(110,112,121,1.0);fill:none"/><path  d="M 1313 675
L 1313 670" style="stroke-width:1;stroke:rgba(110,112,121,1.0);fill:none"/><path  d="M 1350 675
L 1350 670" style="stroke-width:1;stroke:rgba(110,112,121,1.0);fill:none"/><path  d="M 1387 675
L 1387 670" style="stroke-width:1;stroke:rgba(110,112,121,1.0);fill:none"/><path  d="M 1424 675
L 1424 670" style="stroke-width:1;stroke:rgba(110,112,121,1.0);fill:none"/><path  d="M 1461 675
L 1461 670" style="stroke-width:1;stroke:rgba(110,112,121,1.0);fill:none"/><path  d="M 1498 675
L 1498 670" style="stroke-width:1;stroke:rgba(110,112,121,1.0);fill:none"/><path  d="M 1535 675
L 1535 670" style="stroke-width:1;stroke:rgba(110,112,121,1.0);fill:none"/><path  d="M 1573 675
L 1573 670" style="stroke-width:1;stroke:rgba(110,112,121,1.0);fill:none"/><path  d="M 1610 675
L 1610 670" style="stroke-width:1;stroke:rgba(110,112,121,1.0);fill:none"/><path  d="M 1647 675
L 1647 670" style="stroke-width:1;stroke:rgba(110,112,121,1.0);fill:none"/><path  d="M 1684 675
L 1684 670" style="stroke-width:1;stroke:rgba(110,112,121,1.0);fill:none"/><path  d="M 1721 675
L 1721 670" style="stroke-width:1;stroke:rgba(110,112,121,1.0);fill:none"/><path  d="M 1758 675
L 1758 670" style="stroke-width:1;stroke:rgba(110,112,121,1.0);fill:none"/><path  d="M 1795 675
L 1795 670" style="stroke-width:1;stroke:rgba(110,112,121,1.0);fill:none"/><path  d="M 1832 675
L 1832 670" style="stroke-width:1;stroke:rgba(110,112,121,1.0);fill:none"/><path  d="M 1870 675
L 1870 670" style="stroke-width:1;stroke:rgba(110,112,121,1.0);fill:none"/><path  d="M 88 670
L 1870 670" style="stroke-width:1;stroke:rgba(110,112,121,1.0);fill:none"/><text x="99" y="786" style="stroke-width:0;stroke:none;fill:rgba(70,70,70,1.0);font-size:12.8px;font-family:'Roboto Medium',sans-serif" transform="rotate(272.15,99,786)">AdaptiveSort</text><text x="136" y="786" style="stroke-width:0;stroke:none;fill:rgba(70,70,70,1.0);font-size:12.8px;font-family:'Roboto Medium',sans-serif" transform="rotate(272.15,136,786)">AmericanFlagSort</text><text x="173" y="786" style="stroke-width:0;stroke:none;fill:rgba(70,70,70,1.0);font-size:12.8px;font-family:'Roboto Medium',sans-serif" transform="rotate(272.15,173,786)">BeadSortInspired</text><text x="210" y="786" style="stroke-width:0;stroke:none;fill:rgba(70,70,70,1.0);font-size:12.8px;font-family:'Roboto Medium',sans-serif" transform="rotate(272.15,210,786)">BitonicSort</text><text x="247" y="786" style="stroke-width:0;stroke:none;fill:rgba(70,70,70,1.0);font-size:12.8px;font-family:'Roboto Medium',sans-serif" transform="rotate(272.15,247,786)">BitonicSortAny</text><text x="284" y="786" style="stroke-width:0;stroke:none;fill:rgba(70,70,70,1.0);font-size:12.8px;font-family:'Roboto Medium',sans-serif" transform="rotate(272.15,284,786)">BlockSort</text><text x="321" y="786" style="stroke-width:0;stroke:none;fill:rgba(70,70,70,1.0);font-size:12.8px;font-family:'Roboto Medium',sans-serif" transform="rotate(272.15,321,786)">BubbleSortEarly</text><text x="359" y="786" style="stroke-width:0;stroke:none;fill:rgba(70,70,70,1.0);font-size:12.8px;font-family:'Roboto Medium',sans-serif" transform="rotate(272.15,359,786)">BucketSort</text><text x="396" y="786" style="stroke-width:0;stroke:none;fill:rgba(70,70,70,1.0);font-size:12.8px;font-family:'Roboto Medium',sans-serif" transform="rotate(272.15,396,786)">BurstSort</text><text x="433" y="786" style="stroke-width:0;stroke:none;fill:rgba(70,70,70,1.0);font-size:12.8px;font-family:'Roboto Medium',sans-serif" transform="rotate(272.15,433,786)">CascadeSort</text><text x="469" y="786" style="stroke-width:0;stroke:none;fill:rgba(70,70,70,1.0);font-size:12.8px;font-family:'Roboto Medium',sans-serif" transform="rotate(272.15,469,786)">CocktailShakerSort</text><text x="507" y="786" style="stroke-width:0;stroke:none;fill:rgba(70,70,70,1.0);font-size:12.8px;font-family:'Roboto Medium',sans-serif" transform="rotate(272.15,507,786)">CombSort</text><text x="544" y="786" style="stroke-width:0;stroke:none;fill:rgba(70,70,70,1.0);font-size:12.8px;font-family:'Roboto Medium',sans-serif" transform="rotate(272.15,544,786)">CountingSort</text><text x="581" y="786" style="stroke-width:0;stroke:none;fill:rgba(70,70,70,1.0);font-size:12.8px;font-family:'Roboto Medium',sans-serif" transform="rotate(272.15,581,786)">CubeSort</text><text x="618" y="786" style="stroke-width:0;stroke:none;fill:rgba(70,70,70,1.0);font-size:12.8px;font-family:'Roboto Medium',sans-serif" transform="rotate(272.15,618,786)">CycleSortOpt</text><text x="656" y="786" style="stroke-width:0;stroke:none;fill:rgba(70,70,70,1.0);font-size:12.8px;font-family:'Roboto Medium',sans-serif" transform="rotate(272.15,656,786)">ExchangeSort</text><text x="693" y="786" style="stroke-width:0;stroke:none;fill:rgba(70,70,70,1.0);font-size:12.8px;font-family:'Roboto Medium',sans-serif" transform="rotate(272.15,693,786)">FlashSort</text><text x="730" y="786" style="stroke-width:0;stroke:none;fill:rgba(70,70,70,1.0);font-size:12.8px;font-family:'Roboto Medium',sans-serif" transform="rotate(272.15,730,786)">GallopingSort</text><text x="767" y="786" style="stroke-width:0;stroke:none;fill:rgba(70,70,70,1.0);font-size:12.8px;font-family:'Roboto Medium',sans-serif" transform="rotate(272.15,767,786)">GnomeSort</text><text x="805" y="786" style="stroke-width:0;stroke:none;fill:rgba(70,70,70,1.0);font-size:12.8px;font-family:'Roboto Medium',sans-serif" transform="rotate(272.15,805,786)">GrailSort</text><text x="841" y="786" style="stroke-width:0;stroke:none;fill:rgba(70,70,70,1.0);font-size:12.8px;font-family:'Roboto Medium',sans-serif" transform="rotate(272.15,841,786)">HeapSort</text><text x="878" y="786" style="stroke-width:0;stroke:none;fill:rgba(70,70,70,1.0);font-size:12.8px;font-family:'Roboto Medium',sans-serif" transform="rotate(272.15,878,786)">HybridSortSonnet</text><text x="915" y="786" style="stroke-width:0;stroke:none;fill:rgba(70,70,70,1.0);font-size:12.8px;font-family:'Roboto Medium',sans-serif" transform="rotate(272.15,915,786)">InsertionSort</text><text x="954" y="786" style="stroke-width:0;stroke:none;fill:rgba(70,70,70,1.0);font-size:12.8px;font-family:'Roboto Medium',sans-serif" transform="rotate(272.15,954,786)">IntroSort</text><text x="990" y="786" style="stroke-width:0;stroke:none;fill:rgba(70,70,70,1.0);font-size:12.8px;font-family:'Roboto Medium',sans-serif" transform="rotate(272.15,990,786)">JupiterSort</text><text x="1027" y="786" style="stroke-width:0;stroke:none;fill:rgba(70,70,70,1.0);font-size:12.8px;font-family:'Roboto Medium',sans-serif" transform="rotate(272.15,1027,786)">LibrarySort</text><text x="1064" y="786" style="stroke-width:0;stroke:none;fill:rgba(70,70,70,1.0);font-size:12.8px;font-family:'Roboto Medium',sans-serif" transform="rotate(272.15,1064,786)">MergeSort</text><text x="1101" y="786" style="stroke-width:0;stroke:none;fill:rgba(70,70,70,1.0);font-size:12.8px;font-family:'Roboto Medium',sans-serif" transform="rotate(272.15,1101,786)">OddEvenSort</text><text x="1138" y="786" style="stroke-width:0;stroke:none;fill:rgba(70,70,70,1.0);font-size:12.8px;font-family:'Roboto Medium',sans-serif" transform="rotate(272.15,1138,786)">PancakeSort</text><text x="1175" y="786" style="stroke-width:0;stroke:none;fill:rgba(70,70,70,1.0);font-size:12.8px;font-family:'Roboto Medium',sans-serif" transform="rotate(272.15,1175,786)">PatienceSort</text><text x="1212" y="786" style="stroke-width:0;stroke:none;fill:rgba(70,70,70,1.0);font-size:12.8px;font-family:'Roboto Medium',sans-serif" transform="rotate(272.15,1212,786)">PigeonholeSort</text><text x="1250" y="786" style="stroke-width:0;stroke:none;fill:rgba(70,70,70,1.0);font-size:12.8px;font-family:'Roboto Medium',sans-serif" transform="rotate(272.15,1250,786)">PostmanSort</text><text x="1287" y="786" style="stroke-width:0;stroke:none;fill:rgba(70,70,70,1.0);font-size:12.8px;font-family:'Roboto Medium',sans-serif" transform="rotate(272.15,1287,786)">QuickSort</text><text x="1324" y="786" style="stroke-width:0;stroke:none;fill:rgba(70,70,70,1.0);font-size:12.8px;font-family:'Roboto Medium',sans-serif" transform="rotate(272.15,1324,786)">RadixSortLSD</text><text x="1361" y="786" style="stroke-width:0;stroke:none;fill:rgba(70,70,70,1.0);font-size:12.8px;font-family:'Roboto Medium',sans-serif" transform="rotate(272.15,1361,786)">RadixSortMSD</text><text x="1398" y="786" style="stroke-width:0;stroke:none;fill:rgba(70,70,70,1.0);font-size:12.8px;font-family:'Roboto Medium',sans-serif" transform="rotate(272.15,1398,786)">SampleSort</text><text x="1435" y="786" style="stroke-width:0;stroke:none;fill:rgba(70,70,70,1.0);font-size:12.8px;font-family:'Roboto Medium',sans-serif" transform="rotate(272.15,1435,786)">SelectionSort</text><text x="1473" y="786" style="stroke-width:0;stroke:none;fill:rgba(70,70,70,1.0);font-size:12.8px;font-family:'Roboto Medium',sans-serif" transform="rotate(272.15,1473,786)">ShellSort</text><text x="1509" y="786" style="stroke-width:0;stroke:none;fill:rgba(70,70,70,1.0);font-size:12.8px;font-family:'Roboto Medium',sans-serif" transform="rotate(272.15,1509,786)">SmoothSort</text><text x="1547" y="786" style="stroke-width:0;stroke:none;fill:rgba(70,70,70,1.0);font-size:12.8px;font-family:'Roboto Medium',sans-serif" transform="rotate(272.15,1547,786)">SpreadSort</text><text x="1584" y="786" style="stroke-width:0;stroke:none;fill:rgba(70,70,70,1.0);font-size:12.8px;font-family:'Roboto Medium',sans-serif" transform="rotate(272.15,1584,786)">StrandSort</text><text x="1622" y="786" style="stroke-width:0;stroke:none;fill:rgba(70,70,70,1.0);font-size:12.8px;font-family:'Roboto Medium',sans-serif" transform="rotate(272.15,1622,786)">TimSort</text><text x="1658" y="786" style="stroke-width:0;stroke:none;fill:rgba(70,70,70,1.0);font-size:12.8px;font-family:'Roboto Medium',sans-serif" transform="rotate(272.15,1658,786)">TournamentSort</text><text x="1695" y="786" style="stroke-width:0;stroke:none;fill:rgba(70,70,70,1.0);font-size:12.8px;font-family:'Roboto Medium',sans-serif" transform="rotate(272.15,1695,786)">TreeAVLSort</text><text x="1733" y="786" style="stroke-width:0;stroke:none;fill:rgba(70,70,70,1.0);font-size:12.8px;font-family:'Roboto Medium',sans-serif" transform="rotate(272.15,1733,786)">TreeSort</text><text x="1769" y="786" style="stroke-width:0;stroke:none;fill:rgba(70,70,70,1.0);font-size:12.8px;font-family:'Roboto Medium',sans-serif" transform="rotate(272.15,1769,786)">WeaveMergeSort</text><text x="1807" y="786" style="stroke-width:0;stroke:none;fill:rgba(70,70,70,1.0);font-size:12.8px;font-family:'Roboto Medium',sans-serif" transform="rotate(272.15,1807,786)">WikiSort</text><text x="1844" y="786" style="stroke-width:0;stroke:none;fill:rgba(70,70,70,1.0);font-size:12.8px;font-family:'Roboto Medium',sans-serif" transform="rotate(272.15,1844,786)">slices.Sort</text><path  d="M 93 634
L 120 634
L 120 669
L 93 669
L 93 634" style="stroke-width:0;stroke:none;fill:rgba(84,112,198,1.0)"/><path  d="M 130 515
L 157 515
L 157 669
L 130 669
L 130 515" style="stroke-width:0;stroke:none;fill:rgba(84,112,198,1.0)"/><path  d="M 167 401
L 194 401
L 194 669
L 167 669
L 167 401" style="stroke-width:0;stroke:none;fill:rgba(84,112,198,1.0)"/><path  d="M 204 502
L 231 502
L 231 669
L 204 669
L 204 502" style="stroke-width:0;stroke:none;fill:rgba(84,112,198,1.0)"/><path  d="M 241 347
L 268 347
L 268 669
L 241 669
L 241 347" style="stroke-width:0;stroke:none;fill:rgba(84,112,198,1.0)"/><path  d="M 278 596
L 305 596
L 305 669
L 278 669
L 278 596" style="stroke-width:0;stroke:none;fill:rgba(84,112,198,1.0)"/><path  d="M 315 461
L 342 461
L 342 669
L 315 669
L 315 461" style="stroke-width:0;stroke:none;fill:rgba(84,112,198,1.0)"/><path  d="M 352 512
L 379 512
L 379 669
L 352 669
L 352 512" style="stroke-width:0;stroke:none;fill:rgba(84,112,198,1.0)"/><path  d="M 390 575
L 417 575
L 417 669
L 390 669
L 390 575" style="stroke-width:0;stroke:none;fill:rgba(84,112,198,1.0)"/><path  d="M 427 461
L 454 461
L 454 669
L 427 669
L 427 461" style="stroke-width:0;stroke:none;fill:rgba(84,112,198,1.0)"/><path  d="M 464 488
L 491 488
L 491 669
L 464 669
L 464 488" style="stroke-width:0;stroke:none;fill:rgba(84,112,198,1.0)"/><path  d="M 501 607
L 528 607
L 528 669
L 501 669
L 501 607" style="stroke-width:0;stroke:none;fill:rgba(84,112,198,1.0)"/><path  d="M 538 624
L 565 624
L 565 669
L 538 669
L 538 624" style="stroke-width:0;stroke:none;fill:rgba(84,112,198,1.0)"/><path  d="M 575 544
L 602 544
L 602 669
L 575 669
L 575 544" style="stroke-width:0;stroke:none;fill:rgba(84,112,198,1.0)"/><path  d="M 612 356
L 639 356
L 639 669
L 612 669
L 612 356" style="stroke-width:0;stroke:none;fill:rgba(84,112,198,1.0)"/><path  d="M 649 476
L 676 476
L 676 669
L 649 669
L 649 476" style="stroke-width:0;stroke:none;fill:rgba(84,112,198,1.0)"/><path  d="M 687 585
L 714 585
L 714 669
L 687 669
L 687 585" style="stroke-width:0;stroke:none;fill:rgba(84,112,198,1.0)"/><path  d="M 724 593
L 751 593
L 751 669
L 724 669
L 724 593" style="stroke-width:0;stroke:none;fill:rgba(84,112,198,1.0)"/><path  d="M 761 490
L 788 490
L 788 669
L 761 669
L 761 490" style="stroke-width:0;stroke:none;fill:rgba(84,112,198,1.0)"/><path  d="M 798 514
L 825 514
L 825 669
L 798 669
L 798 514" style="stroke-width:0;stroke:none;fill:rgba(84,112,198,1.0)"/><path  d="M 835 543
L 862 543
L 862 669
L 835 669
L 835 543" style="stroke-width:0;stroke:none;fill:rgba(84,112,198,1.0)"/><path  d="M 872 636
L 899 636
L 899 669
L 872 669
L 872 636" style="stroke-width:0;stroke:none;fill:rgba(84,112,198,1.0)"/><path  d="M 909 614
L 936 614
L 936 669
L 909 669
L 909 614" style="stroke-width:0;stroke:none;fill:rgba(84,112,198,1.0)"/><path  d="M 946 506
L 973 506
L 973 669
L 946 669
L 946 506" style="stroke-width:0;stroke:none;fill:rgba(84,112,198,1.0)"/><path  d="M 984 469
L 1011 469
L 1011 669
L 984 669
L 984 469" style="stroke-width:0;stroke:none;fill:rgba(84,112,198,1.0)"/><path  d="M 1021 411
L 1048 411
L 1048 669
L 1021 669
L 1021 411" style="stroke-width:0;stroke:none;fill:rgba(84,112,198,1.0)"/><path  d="M 1058 219
L 1085 219
L 1085 669
L 1058 669
L 1058 219" style="stroke-width:0;stroke:none;fill:rgba(84,112,198,1.0)"/><path  d="M 1095 496
L 1122 496
L 1122 669
L 1095 669
L 1095 496" style="stroke-width:0;stroke:none;fill:rgba(84,112,198,1.0)"/><path  d="M 1132 412
L 1159 412
L 1159 669
L 1132 669
L 1132 412" style="stroke-width:0;stroke:none;fill:rgba(84,112,198,1.0)"/><path  d="M 1169 217
L 1196 217
L 1196 669
L 1169 669
L 1169 217" style="stroke-width:0;stroke:none;fill:rgba(84,112,198,1.0)"/><path  d="M 1206 421
L 1233 421
L 1233 669
L 1206 669
L 1206 421" style="stroke-width:0;stroke:none;fill:rgba(84,112,198,1.0)"/><path  d="M 1243 220
L 1270 220
L 1270 669
L 1243 669
L 1243 220" style="stroke-width:0;stroke:none;fill:rgba(84,112,198,1.0)"/><path  d="M 1281 390
L 1308 390
L 1308 669
L 1281 669
L 1281 390" style="stroke-width:0;stroke:none;fill:rgba(84,112,198,1.0)"/><path  d="M 1318 547
L 1345 547
L 1345 669
L 1318 669
L 1318 547" style="stroke-width:0;stroke:none;fill:rgba(84,112,198,1.0)"/><path  d="M 1355 640
L 1382 640
L 1382 669
L 1355 669
L 1355 640" style="stroke-width:0;stroke:none;fill:rgba(84,112,198,1.0)"/><path  d="M 1392 652
L 1419 652
L 1419 669
L 1392 669
L 1392 652" style="stroke-width:0;stroke:none;fill:rgba(84,112,198,1.0)"/><path  d="M 1429 468
L 1456 468
L 1456 669
L 1429 669
L 1429 468" style="stroke-width:0;stroke:none;fill:rgba(84,112,198,1.0)"/><path  d="M 1466 620
L 1493 620
L 1493 669
L 1466 669
L 1466 620" style="stroke-width:0;stroke:none;fill:rgba(84,112,198,1.0)"/><path  d="M 1503 518
L 1530 518
L 1530 669
L 1503 669
L 1503 518" style="stroke-width:0;stroke:none;fill:rgba(84,112,198,1.0)"/><path  d="M 1540 620
L 1567 620
L 1567 669
L 1540 669
L 1540 620" style="stroke-width:0;stroke:none;fill:rgba(84,112,198,1.0)"/><path  d="M 1578 90
L 1605 90
L 1605 669
L 1578 669
L 1578 90" style="stroke-width:0;stroke:none;fill:rgba(84,112,198,1.0)"/><path  d="M 1615 613
L 1642 613
L 1642 669
L 1615 669
L 1615 613" style="stroke-width:0;stroke:none;fill:rgba(84,112,198,1.0)"/><path  d="M 1652 500
L 1679 500
L 1679 669
L 1652 669
L 1652 500" style="stroke-width:0;stroke:none;fill:rgba(84,112,198,1.0)"/><path  d="M 1689 319
L 1716 319
L 1716 669
L 1689 669
L 1689 319" style="stroke-width:0;stroke:none;fill:rgba(84,112,198,1.0)"/><path  d="M 1726 57
L 1753 57
L 1753 669
L 1726 669
L 1726 57" style="stroke-width:0;stroke:none;fill:rgba(84,112,198,1.0)"/><path  d="M 1763 609
L 1790 609
L 1790 669
L 1763 669
L 1763 609" style="stroke-width:0;stroke:none;fill:rgba(84,112,198,1.0)"/><path  d="M 1800 421
L 1827 421
L 1827 669
L 1800 669
L 1800 421" style="stroke-width:0;stroke:none;fill:rgba(84,112,198,1.0)"/><path  d="M 1837 652
L 1864 652
L 1864 669
L 1837 669
L 1837 652" style="stroke-width:0;stroke:none;fill:rgba(84,112,198,1.0)"/><path  d="M 1736 49
A 15 15 330.00 1 1 1742 49
L 1739 35
Z" style="stroke-width:0;stroke:none;fill:rgba(84,112,198,1.0)"/><path  d="M 1724 35
Q1739,72 1754,35
Z" style="stroke-width:0;stroke:none;fill:rgba(84,112,198,1.0)"/><text x="1723" y="40" style="stroke-width:0;stroke:none;fill:rgba(238,238,238,1.0);font-size:10.2px;font-family:'Roboto Medium',sans-serif">16.28k</text><path  d="M 1847 644
A 15 15 330.00 1 1 1853 644
L 1850 630
Z" style="stroke-width:0;stroke:none;fill:rgba(84,112,198,1.0)"/><path  d="M 1835 630
Q1850,667 1865,630
Z" style="stroke-width:0;stroke:none;fill:rgba(84,112,198,1.0)"/><text x="1834" y="635" style="stroke-width:0;stroke:none;fill:rgba(238,238,238,1.0);font-size:10.2px;font-family:'Roboto Medium',sans-serif">487.88</text><circle cx="91" cy="482" r="3" style="stroke-width:1;stroke:rgba(84,112,198,1.0);fill:rgba(84,112,198,1.0)"/><path stroke-dasharray="4.0, 2.0" d="" style="stroke-width:1;stroke:rgba(84,112,198,1.0);fill:rgba(84,112,198,1.0)"/><path stroke-dasharray="4.0, 2.0" d="M 97 482
L 1852 482" style="stroke-width:1;stroke:rgba(84,112,198,1.0);fill:rgba(84,112,198,1.0)"/><path stroke-dasharray="4.0, 2.0" d="M 1852 477
L 1868 482
L 1852 487
L 1857 482
L 1852 477" style="stroke-width:1;stroke:rgba(84,112,198,1.0);fill:rgba(84,112,198,1.0)"/><text x="1870" y="486" style="stroke-width:0;stroke:none;fill:rgba(70,70,70,1.0);font-size:12.8px;font-family:'Roboto Medium',sans-serif">4.99k</text></svg>