<svg xmlns="http://www.w3.org/2000/svg" xmlns:xlink="http://www.w3.org/1999/xlink" width="1000" height="800">\n<path  d="M 0 0
L 1000 0
L 1000 800
L 0 800
L 0 0" style="stroke-width:0;stroke:none;fill:rgba(255,255,255,1.0)"/><path  d="M 459 44
L 489 44" style="stroke-width:3;stroke:rgba(84,112,198,1.0);fill:rgba(84,112,198,1.0)"/><circle cx="474" cy="44" r="5" style="stroke-width:3;stroke:rgba(84,112,198,1.0);fill:rgba(84,112,198,1.0)"/><path  d="" style="stroke-width:3;stroke:rgba(84,112,198,1.0);fill:rgba(84,112,198,1.0)"/><text x="491" y="50" style="stroke-width:0;stroke:none;fill:rgba(70,70,70,1.0);font-size:15.3px;font-family:'Roboto Medium',sans-serif">1000000</text><text x="10" y="35" style="stroke-width:0;stroke:none;fill:rgba(70,70,70,1.0);font-size:25.6px;font-family:'Roboto Medium',sans-serif">AdaptiveSort</text><text x="10" y="77" style="stroke-width:0;stroke:none;fill:rgba(70,70,70,1.0);font-size:15.3px;font-family:'Roboto Medium',sans-serif">97.14M ns</text><text x="10" y="177" style="stroke-width:0;stroke:none;fill:rgba(70,70,70,1.0);font-size:15.3px;font-family:'Roboto Medium',sans-serif">80.95M ns</text><text x="10" y="277" style="stroke-width:0;stroke:none;fill:rgba(70,70,70,1.0);font-size:15.3px;font-family:'Roboto Medium',sans-serif">64.76M ns</text><text x="10" y="377" style="stroke-width:0;stroke:none;fill:rgba(70,70,70,1.0);font-size:15.3px;font-family:'Roboto Medium',sans-serif">48.57M ns</text><text x="10" y="477" style="stroke-width:0;stroke:none;fill:rgba(70,70,70,1.0);font-size:15.3px;font-family:'Roboto Medium',sans-serif">32.38M ns</text><text x="10" y="577" style="stroke-width:0;stroke:none;fill:rgba(70,70,70,1.0);font-size:15.3px;font-family:'Roboto Medium',sans-serif">16.19M ns</text><text x="54" y="677" style="stroke-width:0;stroke:none;fill:rgba(70,70,70,1.0);font-size:15.3px;font-family:'Roboto Medium',sans-serif">0 ns</text><path  d="M 93 70
L 950 70" style="stroke-width:1;stroke:rgba(224,230,242,1.0);fill:none"/><path  d="M 93 170
L 950 170" style="stroke-width:1;stroke:rgba(224,230,242,1.0);fill:none"/><path  d="M 93 270
L 950 270" style="stroke-width:1;stroke:rgba(224,230,242,1.0);fill:none"/><path  d="M 93 370
L 950 370" style="stroke-width:1;stroke:rgba(224,230,242,1.0);fill:none"/><path  d="M 93 470
L 950 470" style="stroke-width:1;stroke:rgba(224,230,242,1.0);fill:none"/><path  d="M 93 570
L 950 570" style="stroke-width:1;stroke:rgba(224,230,242,1.0);fill:none"/><path  d="M 93 675
L 93 670" style="stroke-width:1;stroke:rgba(110,112,121,1.0);fill:none"/><path  d="M 135 675
L 135 670" style="stroke-width:1;stroke:rgba(110,112,121,1.0);fill:none"/><path  d="M 178 675
L 178 670" style="stroke-width:1;stroke:rgba(110,112,121,1.0);fill:none"/><path  d="M 221 675
L 221 670" style="stroke-width:1;stroke:rgba(110,112,121,1.0);fill:none"/><path  d="M 264 675
L 264 670" style="stroke-width:1;stroke:rgba(110,112,121,1.0);fill:none"/><path  d="M 307 675
L 307 670" style="stroke-width:1;stroke:rgba(110,112,121,1.0);fill:none"/><path  d="M 350 675
L 350 670" style="stroke-width:1;stroke:rgba(110,112,121,1.0);fill:none"/><path  d="M 392 675
L 392 670" style="stroke-width:1;stroke:rgba(110,112,121,1.0);fill:none"/><path  d="M 435 675
L 435 670" style="stroke-width:1;stroke:rgba(110,112,121,1.0);fill:none"/><path  d="M 478 675
L 478 670" style="stroke-width:1;stroke:rgba(110,112,121,1.0);fill:none"/><path  d="M 521 675
L 521 670" style="stroke-width:1;stroke:rgba(110,112,121,1.0);fill:none"/><path  d="M 564 675
L 564 670" style="stroke-width:1;stroke:rgba(110,112,121,1.0);fill:none"/><path  d="M 607 675
L 607 670" style="stroke-width:1;stroke:rgba(110,112,121,1.0);fill:none"/><path  d="M 650 675
L 650 670" style="stroke-width:1;stroke:rgba(110,112,121,1.0);fill:none"/><path  d="M 692 675
L 692 670" style="stroke-width:1;stroke:rgba(110,112,121,1.0);fill:none"/><path  d="M 735 675
L 735 670" style="stroke-width:1;stroke:rgba(110,112,121,1.0);fill:none"/><path  d="M 778 675
L 778 670" style="stroke-width:1;stroke:rgba(110,112,121,1.0);fill:none"/><path  d="M 821 675
L 821 670" style="stroke-width:1;stroke:rgba(110,112,121,1.0);fill:none"/><path  d="M 864 675
L 864 670" style="stroke-width:1;stroke:rgba(110,112,121,1.0);fill:none"/><path  d="M 907 675
L 907 670" style="stroke-width:1;stroke:rgba(110,112,121,1.0);fill:none"/><path  d="M 950 675
L 950 670" style="stroke-width:1;stroke:rgba(110,112,121,1.0);fill:none"/><path  d="M 93 670
L 950 670" style="stroke-width:1;stroke:rgba(110,112,121,1.0);fill:none"/><text x="108" y="770" style="stroke-width:0;stroke:none;fill:rgba(70,70,70,1.0);font-size:12.8px;font-family:'Roboto Medium',sans-serif" transform="rotate(272.15,108,770)">AllZero</text><text x="149" y="770" style="stroke-width:0;stroke:none;fill:rgba(70,70,70,1.0);font-size:12.8px;font-family:'Roboto Medium',sans-serif" transform="rotate(272.15,149,770)">BackToFront</text><text x="192" y="770" style="stroke-width:0;stroke:none;fill:rgba(70,70,70,1.0);font-size:12.8px;font-family:'Roboto Medium',sans-serif" transform="rotate(272.15,192,770)">FrontToBack</text><text x="235" y="770" style="stroke-width:0;stroke:none;fill:rgba(70,70,70,1.0);font-size:12.8px;font-family:'Roboto Medium',sans-serif" transform="rotate(272.15,235,770)">MiddleToBack</text><text x="278" y="770" style="stroke-width:0;stroke:none;fill:rgba(70,70,70,1.0);font-size:12.8px;font-family:'Roboto Medium',sans-serif" transform="rotate(272.15,278,770)">Mountain</text><text x="321" y="770" style="stroke-width:0;stroke:none;fill:rgba(70,70,70,1.0);font-size:12.8px;font-family:'Roboto Medium',sans-serif" transform="rotate(272.15,321,770)">NearlyReversed</text><text x="364" y="770" style="stroke-width:0;stroke:none;fill:rgba(70,70,70,1.0);font-size:12.8px;font-family:'Roboto Medium',sans-serif" transform="rotate(272.15,364,770)">NearlySorted</text><text x="407" y="770" style="stroke-width:0;stroke:none;fill:rgba(70,70,70,1.0);font-size:12.8px;font-family:'Roboto Medium',sans-serif" transform="rotate(272.15,407,770)">Plateau</text><text x="449" y="770" style="stroke-width:0;stroke:none;fill:rgba(70,70,70,1.0);font-size:12.8px;font-family:'Roboto Medium',sans-serif" transform="rotate(272.15,449,770)">PushMiddle</text><text x="493" y="770" style="stroke-width:0;stroke:none;fill:rgba(70,70,70,1.0);font-size:12.8px;font-family:'Roboto Medium',sans-serif" transform="rotate(272.15,493,770)">Random</text><text x="535" y="770" style="stroke-width:0;stroke:none;fill:rgba(70,70,70,1.0);font-size:12.8px;font-family:'Roboto Medium',sans-serif" transform="rotate(272.15,535,770)">RandomMaxN</text><text x="578" y="770" style="stroke-width:0;stroke:none;fill:rgba(70,70,70,1.0);font-size:12.8px;font-family:'Roboto Medium',sans-serif" transform="rotate(272.15,578,770)">RandomMod16</text><text x="621" y="770" style="stroke-width:0;stroke:none;fill:rgba(70,70,70,1.0);font-size:12.8px;font-family:'Roboto Medium',sans-serif" transform="rotate(272.15,621,770)">RandomMod8</text><text x="664" y="770" style="stroke-width:0;stroke:none;fill:rgba(70,70,70,1.0);font-size:12.8px;font-family:'Roboto Medium',sans-serif" transform="rotate(272.15,664,770)">RepeatedMod16</text><text x="706" y="770" style="stroke-width:0;stroke:none;fill:rgba(70,70,70,1.0);font-size:12.8px;font-family:'Roboto Medium',sans-serif" transform="rotate(272.15,706,770)">RepeatedMod8</text><text x="749" y="770" style="stroke-width:0;stroke:none;fill:rgba(70,70,70,1.0);font-size:12.8px;font-family:'Roboto Medium',sans-serif" transform="rotate(272.15,749,770)">Reversed</text><text x="793" y="770" style="stroke-width:0;stroke:none;fill:rgba(70,70,70,1.0);font-size:12.8px;font-family:'Roboto Medium',sans-serif" transform="rotate(272.15,793,770)">Rotated</text><text x="835" y="770" style="stroke-width:0;stroke:none;fill:rgba(70,70,70,1.0);font-size:12.8px;font-family:'Roboto Medium',sans-serif" transform="rotate(272.15,835,770)">SmallHills</text><text x="879" y="770" style="stroke-width:0;stroke:none;fill:rgba(70,70,70,1.0);font-size:12.8px;font-family:'Roboto Medium',sans-serif" transform="rotate(272.15,879,770)">Sorted</text><text x="922" y="770" style="stroke-width:0;stroke:none;fill:rgba(70,70,70,1.0);font-size:12.8px;font-family:'Roboto Medium',sans-serif" transform="rotate(272.15,922,770)">Valley</text><path  d="M 98 661
L 130 661
L 130 669
L 98 669
L 98 661" style="stroke-width:0;stroke:none;fill:rgba(84,112,198,1.0)"/><path  d="M 140 653
L 172 653
L 172 669
L 140 669
L 140 653" style="stroke-width:0;stroke:none;fill:rgba(84,112,198,1.0)"/><path  d="M 183 650
L 215 650
L 215 669
L 183 669
L 183 650" style="stroke-width:0;stroke:none;fill:rgba(84,112,198,1.0)"/><path  d="M 226 650
L 258 650
L 258 669
L 226 669
L 226 650" style="stroke-width:0;stroke:none;fill:rgba(84,112,198,1.0)"/><path  d="M 269 649
L 301 649
L 301 669
L 269 669
L 269 649" style="stroke-width:0;stroke:none;fill:rgba(84,112,198,1.0)"/><path  d="M 312 446
L 344 446
L 344 669
L 312 669
L 312 446" style="stroke-width:0;stroke:none;fill:rgba(84,112,198,1.0)"/><path  d="M 355 431
L 387 431
L 387 669
L 355 669
L 355 431" style="stroke-width:0;stroke:none;fill:rgba(84,112,198,1.0)"/><path  d="M 397 661
L 429 661
L 429 669
L 397 669
L 397 661" style="stroke-width:0;stroke:none;fill:rgba(84,112,198,1.0)"/><path  d="M 440 650
L 472 650
L 472 669
L 440 669
L 440 650" style="stroke-width:0;stroke:none;fill:rgba(84,112,198,1.0)"/><path  d="M 483 132
L 515 132
L 515 669
L 483 669
L 483 132" style="stroke-width:0;stroke:none;fill:rgba(84,112,198,1.0)"/><path  d="M 526 118
L 558 118
L 558 669
L 526 669
L 526 118" style="stroke-width:0;stroke:none;fill:rgba(84,112,198,1.0)"/><path  d="M 569 340
L 601 340
L 601 669
L 569 669
L 569 340" style="stroke-width:0;stroke:none;fill:rgba(84,112,198,1.0)"/><path  d="M 612 351
L 644 351
L 644 669
L 612 669
L 612 351" style="stroke-width:0;stroke:none;fill:rgba(84,112,198,1.0)"/><path  d="M 655 486
L 687 486
L 687 669
L 655 669
L 655 486" style="stroke-width:0;stroke:none;fill:rgba(84,112,198,1.0)"/><path  d="M 697 474
L 729 474
L 729 669
L 697 669
L 697 474" style="stroke-width:0;stroke:none;fill:rgba(84,112,198,1.0)"/><path  d="M 740 659
L 772 659
L 772 669
L 740 669
L 740 659" style="stroke-width:0;stroke:none;fill:rgba(84,112,198,1.0)"/><path  d="M 783 649
L 815 649
L 815 669
L 783 669
L 783 649" style="stroke-width:0;stroke:none;fill:rgba(84,112,198,1.0)"/><path  d="M 826 524
L 858 524
L 858 669
L 826 669
L 826 524" style="stroke-width:0;stroke:none;fill:rgba(84,112,198,1.0)"/><path  d="M 869 662
L 901 662
L 901 669
L 869 669
L 869 662" style="stroke-width:0;stroke:none;fill:rgba(84,112,198,1.0)"/><path  d="M 912 650
L 944 650
L 944 669
L 912 669
L 912 650" style="stroke-width:0;stroke:none;fill:rgba(84,112,198,1.0)"/><path  d="M 539 110
A 15 15 330.00 1 1 545 110
L 542 96
Z" style="stroke-width:0;stroke:none;fill:rgba(84,112,198,1.0)"/><path  d="M 527 96
Q542,133 557,96
Z" style="stroke-width:0;stroke:none;fill:rgba(84,112,198,1.0)"/><text x="524" y="101" style="stroke-width:0;stroke:none;fill:rgba(238,238,238,1.0);font-size:10.2px;font-family:'Roboto Medium',sans-serif">89.48M</text><path  d="M 882 654
A 15 15 330.00 1 1 888 654
L 885 640
Z" style="stroke-width:0;stroke:none;fill:rgba(84,112,198,1.0)"/><path  d="M 870 640
Q885,677 900,640
Z" style="stroke-width:0;stroke:none;fill:rgba(84,112,198,1.0)"/><text x="870" y="645" style="stroke-width:0;stroke:none;fill:rgba(238,238,238,1.0);font-size:10.2px;font-family:'Roboto Medium',sans-serif">1.43M</text><circle cx="96" cy="525" r="3" style="stroke-width:1;stroke:rgba(84,112,198,1.0);fill:rgba(84,112,198,1.0)"/><path stroke-dasharray="4.0, 2.0" d="" style="stroke-width:1;stroke:rgba(84,112,198,1.0);fill:rgba(84,112,198,1.0)"/><path stroke-dasharray="4.0, 2.0" d="M 102 525
L 932 525" style="stroke-width:1;stroke:rgba(84,112,198,1.0);fill:rgba(84,112,198,1.0)"/><path stroke-dasharray="4.0, 2.0" d="M 932 520
L 948 525
L 932 530
L 937 525
L 932 520" style="stroke-width:1;stroke:rgba(84,112,198,1.0);fill:rgba(84,112,198,1.0)"/><text x="950" y="529" style="stroke-width:0;stroke:none;fill:rgba(70,70,70,1.0);font-size:12.8px;font-family:'Roboto Medium',sans-serif">23.58M</text></svg>