<svg xmlns="http://www.w3.org/2000/svg" xmlns:xlink="http://www.w3.org/1999/xlink" width="1000" height="800">\n<path  d="M 0 0
L 1000 0
L 1000 800
L 0 800
L 0 0" style="stroke-width:0;stroke:none;fill:rgba(255,255,255,1.0)"/><path  d="M 455 44
L 485 44" style="stroke-width:3;stroke:rgba(84,112,198,1.0);fill:rgba(84,112,198,1.0)"/><circle cx="470" cy="44" r="5" style="stroke-width:3;stroke:rgba(84,112,198,1.0);fill:rgba(84,112,198,1.0)"/><path  d="" style="stroke-width:3;stroke:rgba(84,112,198,1.0);fill:rgba(84,112,198,1.0)"/><text x="487" y="50" style="stroke-width:0;stroke:none;fill:rgba(70,70,70,1.0);font-size:15.3px;font-family:'Roboto Medium',sans-serif">10000000</text><text x="10" y="35" style="stroke-width:0;stroke:none;fill:rgba(70,70,70,1.0);font-size:25.6px;font-family:'Roboto Medium',sans-serif">AdaptiveSort</text><text x="30" y="77" style="stroke-width:0;stroke:none;fill:rgba(70,70,70,1.0);font-size:15.3px;font-family:'Roboto Medium',sans-serif">1.16G ns</text><text x="10" y="177" style="stroke-width:0;stroke:none;fill:rgba(70,70,70,1.0);font-size:15.3px;font-family:'Roboto Medium',sans-serif">967.38M ns</text><text x="10" y="277" style="stroke-width:0;stroke:none;fill:rgba(70,70,70,1.0);font-size:15.3px;font-family:'Roboto Medium',sans-serif">773.90M ns</text><text x="10" y="377" style="stroke-width:0;stroke:none;fill:rgba(70,70,70,1.0);font-size:15.3px;font-family:'Roboto Medium',sans-serif">580.42M ns</text><text x="10" y="477" style="stroke-width:0;stroke:none;fill:rgba(70,70,70,1.0);font-size:15.3px;font-family:'Roboto Medium',sans-serif">386.95M ns</text><text x="10" y="577" style="stroke-width:0;stroke:none;fill:rgba(70,70,70,1.0);font-size:15.3px;font-family:'Roboto Medium',sans-serif">193.47M ns</text><text x="63" y="677" style="stroke-width:0;stroke:none;fill:rgba(70,70,70,1.0);font-size:15.3px;font-family:'Roboto Medium',sans-serif">0 ns</text><path  d="M 102 70
L 950 70" style="stroke-width:1;stroke:rgba(224,230,242,1.0);fill:none"/><path  d="M 102 170
L 950 170" style="stroke-width:1;stroke:rgba(224,230,242,1.0);fill:none"/><path  d="M 102 270
L 950 270" style="stroke-width:1;stroke:rgba(224,230,242,1.0);fill:none"/><path  d="M 102 370
L 950 370" style="stroke-width:1;stroke:rgba(224,230,242,1.0);fill:none"/><path  d="M 102 470
L 950 470" style="stroke-width:1;stroke:rgba(224,230,242,1.0);fill:none"/><path  d="M 102 570
L 950 570" style="stroke-width:1;stroke:rgba(224,230,242,1.0);fill:none"/><path  d="M 102 675
L 102 670" style="stroke-width:1;stroke:rgba(110,112,121,1.0);fill:none"/><path  d="M 144 675
L 144 670" style="stroke-width:1;stroke:rgba(110,112,121,1.0);fill:none"/><path  d="M 186 675
L 186 670" style="stroke-width:1;stroke:rgba(110,112,121,1.0);fill:none"/><path  d="M 229 675
L 229 670" style="stroke-width:1;stroke:rgba(110,112,121,1.0);fill:none"/><path  d="M 271 675
L 271 670" style="stroke-width:1;stroke:rgba(110,112,121,1.0);fill:none"/><path  d="M 314 675
L 314 670" style="stroke-width:1;stroke:rgba(110,112,121,1.0);fill:none"/><path  d="M 356 675
L 356 670" style="stroke-width:1;stroke:rgba(110,112,121,1.0);fill:none"/><path  d="M 398 675
L 398 670" style="stroke-width:1;stroke:rgba(110,112,121,1.0);fill:none"/><path  d="M 441 675
L 441 670" style="stroke-width:1;stroke:rgba(110,112,121,1.0);fill:none"/><path  d="M 483 675
L 483 670" style="stroke-width:1;stroke:rgba(110,112,121,1.0);fill:none"/><path  d="M 526 675
L 526 670" style="stroke-width:1;stroke:rgba(110,112,121,1.0);fill:none"/><path  d="M 568 675
L 568 670" style="stroke-width:1;stroke:rgba(110,112,121,1.0);fill:none"/><path  d="M 610 675
L 610 670" style="stroke-width:1;stroke:rgba(110,112,121,1.0);fill:none"/><path  d="M 653 675
L 653 670" style="stroke-width:1;stroke:rgba(110,112,121,1.0);fill:none"/><path  d="M 695 675
L 695 670" style="stroke-width:1;stroke:rgba(110,112,121,1.0);fill:none"/><path  d="M 738 675
L 738 670" style="stroke-width:1;stroke:rgba(110,112,121,1.0);fill:none"/><path  d="M 780 675
L 780 670" style="stroke-width:1;stroke:rgba(110,112,121,1.0);fill:none"/><path  d="M 822 675
L 822 670" style="stroke-width:1;stroke:rgba(110,112,121,1.0);fill:none"/><path  d="M 865 675
L 865 670" style="stroke-width:1;stroke:rgba(110,112,121,1.0);fill:none"/><path  d="M 907 675
L 907 670" style="stroke-width:1;stroke:rgba(110,112,121,1.0);fill:none"/><path  d="M 950 675
L 950 670" style="stroke-width:1;stroke:rgba(110,112,121,1.0);fill:none"/><path  d="M 102 670
L 950 670" style="stroke-width:1;stroke:rgba(110,112,121,1.0);fill:none"/><text x="117" y="770" style="stroke-width:0;stroke:none;fill:rgba(70,70,70,1.0);font-size:12.8px;font-family:'Roboto Medium',sans-serif" transform="rotate(272.15,117,770)">AllZero</text><text x="158" y="770" style="stroke-width:0;stroke:none;fill:rgba(70,70,70,1.0);font-size:12.8px;font-family:'Roboto Medium',sans-serif" transform="rotate(272.15,158,770)">BackToFront</text><text x="200" y="770" style="stroke-width:0;stroke:none;fill:rgba(70,70,70,1.0);font-size:12.8px;font-family:'Roboto Medium',sans-serif" transform="rotate(272.15,200,770)">FrontToBack</text><text x="243" y="770" style="stroke-width:0;stroke:none;fill:rgba(70,70,70,1.0);font-size:12.8px;font-family:'Roboto Medium',sans-serif" transform="rotate(272.15,243,770)">MiddleToBack</text><text x="285" y="770" style="stroke-width:0;stroke:none;fill:rgba(70,70,70,1.0);font-size:12.8px;font-family:'Roboto Medium',sans-serif" transform="rotate(272.15,285,770)">Mountain</text><text x="328" y="770" style="stroke-width:0;stroke:none;fill:rgba(70,70,70,1.0);font-size:12.8px;font-family:'Roboto Medium',sans-serif" transform="rotate(272.15,328,770)">NearlyReversed</text><text x="370" y="770" style="stroke-width:0;stroke:none;fill:rgba(70,70,70,1.0);font-size:12.8px;font-family:'Roboto Medium',sans-serif" transform="rotate(272.15,370,770)">NearlySorted</text><text x="413" y="770" style="stroke-width:0;stroke:none;fill:rgba(70,70,70,1.0);font-size:12.8px;font-family:'Roboto Medium',sans-serif" transform="rotate(272.15,413,770)">Plateau</text><text x="455" y="770" style="stroke-width:0;stroke:none;fill:rgba(70,70,70,1.0);font-size:12.8px;font-family:'Roboto Medium',sans-serif" transform="rotate(272.15,455,770)">PushMiddle</text><text x="498" y="770" style="stroke-width:0;stroke:none;fill:rgba(70,70,70,1.0);font-size:12.8px;font-family:'Roboto Medium',sans-serif" transform="rotate(272.15,498,770)">Random</text><text x="540" y="770" style="stroke-width:0;stroke:none;fill:rgba(70,70,70,1.0);font-size:12.8px;font-family:'Roboto Medium',sans-serif" transform="rotate(272.15,540,770)">RandomMaxN</text><text x="582" y="770" style="stroke-width:0;stroke:none;fill:rgba(70,70,70,1.0);font-size:12.8px;font-family:'Roboto Medium',sans-serif" transform="rotate(272.15,582,770)">RandomMod16</text><text x="624" y="770" style="stroke-width:0;stroke:none;fill:rgba(70,70,70,1.0);font-size:12.8px;font-family:'Roboto Medium',sans-serif" transform="rotate(272.15,624,770)">RandomMod8</text><text x="667" y="770" style="stroke-width:0;stroke:none;fill:rgba(70,70,70,1.0);font-size:12.8px;font-family:'Roboto Medium',sans-serif" transform="rotate(272.15,667,770)">RepeatedMod16</text><text x="709" y="770" style="stroke-width:0;stroke:none;fill:rgba(70,70,70,1.0);font-size:12.8px;font-family:'Roboto Medium',sans-serif" transform="rotate(272.15,709,770)">RepeatedMod8</text><text x="752" y="770" style="stroke-width:0;stroke:none;fill:rgba(70,70,70,1.0);font-size:12.8px;font-family:'Roboto Medium',sans-serif" transform="rotate(272.15,752,770)">Reversed</text><text x="795" y="770" style="stroke-width:0;stroke:none;fill:rgba(70,70,70,1.0);font-size:12.8px;font-family:'Roboto Medium',sans-serif" transform="rotate(272.15,795,770)">Rotated</text><text x="836" y="770" style="stroke-width:0;stroke:none;fill:rgba(70,70,70,1.0);font-size:12.8px;font-family:'Roboto Medium',sans-serif" transform="rotate(272.15,836,770)">SmallHills</text><text x="880" y="770" style="stroke-width:0;stroke:none;fill:rgba(70,70,70,1.0);font-size:12.8px;font-family:'Roboto Medium',sans-serif" transform="rotate(272.15,880,770)">Sorted</text><text x="922" y="770" style="stroke-width:0;stroke:none;fill:rgba(70,70,70,1.0);font-size:12.8px;font-family:'Roboto Medium',sans-serif" transform="rotate(272.15,922,770)">Valley</text><path  d="M 107 663
L 139 663
L 139 669
L 107 669
L 107 663" style="stroke-width:0;stroke:none;fill:rgba(84,112,198,1.0)"/><path  d="M 149 655
L 181 655
L 181 669
L 149 669
L 149 655" style="stroke-width:0;stroke:none;fill:rgba(84,112,198,1.0)"/><path  d="M 191 653
L 223 653
L 223 669
L 191 669
L 191 653" style="stroke-width:0;stroke:none;fill:rgba(84,112,198,1.0)"/><path  d="M 234 652
L 266 652
L 266 669
L 234 669
L 234 652" style="stroke-width:0;stroke:none;fill:rgba(84,112,198,1.0)"/><path  d="M 276 652
L 308 652
L 308 669
L 276 669
L 276 652" style="stroke-width:0;stroke:none;fill:rgba(84,112,198,1.0)"/><path  d="M 319 426
L 351 426
L 351 669
L 319 669
L 319 426" style="stroke-width:0;stroke:none;fill:rgba(84,112,198,1.0)"/><path  d="M 361 414
L 393 414
L 393 669
L 361 669
L 361 414" style="stroke-width:0;stroke:none;fill:rgba(84,112,198,1.0)"/><path  d="M 403 663
L 435 663
L 435 669
L 403 669
L 403 663" style="stroke-width:0;stroke:none;fill:rgba(84,112,198,1.0)"/><path  d="M 446 653
L 478 653
L 478 669
L 446 669
L 446 653" style="stroke-width:0;stroke:none;fill:rgba(84,112,198,1.0)"/><path  d="M 488 119
L 520 119
L 520 669
L 488 669
L 488 119" style="stroke-width:0;stroke:none;fill:rgba(84,112,198,1.0)"/><path  d="M 531 126
L 563 126
L 563 669
L 531 669
L 531 126" style="stroke-width:0;stroke:none;fill:rgba(84,112,198,1.0)"/><path  d="M 573 314
L 605 314
L 605 669
L 573 669
L 573 314" style="stroke-width:0;stroke:none;fill:rgba(84,112,198,1.0)"/><path  d="M 615 340
L 647 340
L 647 669
L 615 669
L 615 340" style="stroke-width:0;stroke:none;fill:rgba(84,112,198,1.0)"/><path  d="M 658 435
L 690 435
L 690 669
L 658 669
L 658 435" style="stroke-width:0;stroke:none;fill:rgba(84,112,198,1.0)"/><path  d="M 700 446
L 732 446
L 732 669
L 700 669
L 700 446" style="stroke-width:0;stroke:none;fill:rgba(84,112,198,1.0)"/><path  d="M 743 660
L 775 660
L 775 669
L 743 669
L 743 660" style="stroke-width:0;stroke:none;fill:rgba(84,112,198,1.0)"/><path  d="M 785 654
L 817 654
L 817 669
L 785 669
L 785 654" style="stroke-width:0;stroke:none;fill:rgba(84,112,198,1.0)"/><path  d="M 827 526
L 859 526
L 859 669
L 827 669
L 827 526" style="stroke-width:0;stroke:none;fill:rgba(84,112,198,1.0)"/><path  d="M 870 663
L 902 663
L 902 669
L 870 669
L 870 663" style="stroke-width:0;stroke:none;fill:rgba(84,112,198,1.0)"/><path  d="M 912 652
L 944 652
L 944 669
L 912 669
L 912 652" style="stroke-width:0;stroke:none;fill:rgba(84,112,198,1.0)"/><path  d="M 501 111
A 15 15 330.00 1 1 507 111
L 504 97
Z" style="stroke-width:0;stroke:none;fill:rgba(84,112,198,1.0)"/><path  d="M 489 97
Q504,134 519,97
Z" style="stroke-width:0;stroke:none;fill:rgba(84,112,198,1.0)"/><text x="490" y="102" style="stroke-width:0;stroke:none;fill:rgba(238,238,238,1.0);font-size:10.2px;font-family:'Roboto Medium',sans-serif">1.06G</text><path  d="M 416 655
A 15 15 330.00 1 1 422 655
L 419 641
Z" style="stroke-width:0;stroke:none;fill:rgba(84,112,198,1.0)"/><path  d="M 404 641
Q419,678 434,641
Z" style="stroke-width:0;stroke:none;fill:rgba(84,112,198,1.0)"/><text x="401" y="646" style="stroke-width:0;stroke:none;fill:rgba(238,238,238,1.0);font-size:10.2px;font-family:'Roboto Medium',sans-serif">14.67M</text><circle cx="105" cy="518" r="3" style="stroke-width:1;stroke:rgba(84,112,198,1.0);fill:rgba(84,112,198,1.0)"/><path stroke-dasharray="4.0, 2.0" d="" style="stroke-width:1;stroke:rgba(84,112,198,1.0);fill:rgba(84,112,198,1.0)"/><path stroke-dasharray="4.0, 2.0" d="M 111 518
L 932 518" style="stroke-width:1;stroke:rgba(84,112,198,1.0);fill:rgba(84,112,198,1.0)"/><path stroke-dasharray="4.0, 2.0" d="M 932 513
L 948 518
L 932 523
L 937 518
L 932 513" style="stroke-width:1;stroke:rgba(84,112,198,1.0);fill:rgba(84,112,198,1.0)"/><text x="950" y="522" style="stroke-width:0;stroke:none;fill:rgba(70,70,70,1.0);font-size:12.8px;font-family:'Roboto Medium',sans-serif">294.57M</text></svg>