<svg xmlns="http://www.w3.org/2000/svg" xmlns:xlink="http://www.w3.org/1999/xlink" width="1000" height="800">\n<path  d="M 0 0
L 1000 0
L 1000 800
L 0 800
L 0 0" style="stroke-width:0;stroke:none;fill:rgba(255,255,255,1.0)"/><path  d="M 476 44
L 506 44" style="stroke-width:3;stroke:rgba(84,112,198,1.0);fill:rgba(84,112,198,1.0)"/><circle cx="491" cy="44" r="5" style="stroke-width:3;stroke:rgba(84,112,198,1.0);fill:rgba(84,112,198,1.0)"/><path  d="" style="stroke-width:3;stroke:rgba(84,112,198,1.0);fill:rgba(84,112,198,1.0)"/><text x="508" y="50" style="stroke-width:0;stroke:none;fill:rgba(70,70,70,1.0);font-size:15.3px;font-family:'Roboto Medium',sans-serif">100</text><text x="10" y="35" style="stroke-width:0;stroke:none;fill:rgba(70,70,70,1.0);font-size:25.6px;font-family:'Roboto Medium',sans-serif">BitonicSort</text><text x="10" y="77" style="stroke-width:0;stroke:none;fill:rgba(70,70,70,1.0);font-size:15.3px;font-family:'Roboto Medium',sans-serif">7.38k ns</text><text x="10" y="177" style="stroke-width:0;stroke:none;fill:rgba(70,70,70,1.0);font-size:15.3px;font-family:'Roboto Medium',sans-serif">6.56k ns</text><text x="10" y="277" style="stroke-width:0;stroke:none;fill:rgba(70,70,70,1.0);font-size:15.3px;font-family:'Roboto Medium',sans-serif">5.74k ns</text><text x="10" y="377" style="stroke-width:0;stroke:none;fill:rgba(70,70,70,1.0);font-size:15.3px;font-family:'Roboto Medium',sans-serif">4.92k ns</text><text x="19" y="477" style="stroke-width:0;stroke:none;fill:rgba(70,70,70,1.0);font-size:15.3px;font-family:'Roboto Medium',sans-serif">4.1k ns</text><text x="10" y="577" style="stroke-width:0;stroke:none;fill:rgba(70,70,70,1.0);font-size:15.3px;font-family:'Roboto Medium',sans-serif">3.28k ns</text><text x="10" y="677" style="stroke-width:0;stroke:none;fill:rgba(70,70,70,1.0);font-size:15.3px;font-family:'Roboto Medium',sans-serif">2.46k ns</text><path  d="M 79 70
L 950 70" style="stroke-width:1;stroke:rgba(224,230,242,1.0);fill:none"/><path  d="M 79 170
L 950 170" style="stroke-width:1;stroke:rgba(224,230,242,1.0);fill:none"/><path  d="M 79 270
L 950 270" style="stroke-width:1;stroke:rgba(224,230,242,1.0);fill:none"/><path  d="M 79 370
L 950 370" style="stroke-width:1;stroke:rgba(224,230,242,1.0);fill:none"/><path  d="M 79 470
L 950 470" style="stroke-width:1;stroke:rgba(224,230,242,1.0);fill:none"/><path  d="M 79 570
L 950 570" style="stroke-width:1;stroke:rgba(224,230,242,1.0);fill:none"/><path  d="M 79 675
L 79 670" style="stroke-width:1;stroke:rgba(110,112,121,1.0);fill:none"/><path  d="M 122 675
L 122 670" style="stroke-width:1;stroke:rgba(110,112,121,1.0);fill:none"/><path  d="M 166 675
L 166 670" style="stroke-width:1;stroke:rgba(110,112,121,1.0);fill:none"/><path  d="M 209 675
L 209 670" style="stroke-width:1;stroke:rgba(110,112,121,1.0);fill:none"/><path  d="M 253 675
L 253 670" style="stroke-width:1;stroke:rgba(110,112,121,1.0);fill:none"/><path  d="M 296 675
L 296 670" style="stroke-width:1;stroke:rgba(110,112,121,1.0);fill:none"/><path  d="M 340 675
L 340 670" style="stroke-width:1;stroke:rgba(110,112,121,1.0);fill:none"/><path  d="M 383 675
L 383 670" style="stroke-width:1;stroke:rgba(110,112,121,1.0);fill:none"/><path  d="M 427 675
L 427 670" style="stroke-width:1;stroke:rgba(110,112,121,1.0);fill:none"/><path  d="M 470 675
L 470 670" style="stroke-width:1;stroke:rgba(110,112,121,1.0);fill:none"/><path  d="M 514 675
L 514 670" style="stroke-width:1;stroke:rgba(110,112,121,1.0);fill:none"/><path  d="M 558 675
L 558 670" style="stroke-width:1;stroke:rgba(110,112,121,1.0);fill:none"/><path  d="M 601 675
L 601 670" style="stroke-width:1;stroke:rgba(110,112,121,1.0);fill:none"/><path  d="M 645 675
L 645 670" style="stroke-width:1;stroke:rgba(110,112,121,1.0);fill:none"/><path  d="M 688 675
L 688 670" style="stroke-width:1;stroke:rgba(110,112,121,1.0);fill:none"/><path  d="M 732 675
L 732 670" style="stroke-width:1;stroke:rgba(110,112,121,1.0);fill:none"/><path  d="M 775 675
L 775 670" style="stroke-width:1;stroke:rgba(110,112,121,1.0);fill:none"/><path  d="M 819 675
L 819 670" style="stroke-width:1;stroke:rgba(110,112,121,1.0);fill:none"/><path  d="M 862 675
L 862 670" style="stroke-width:1;stroke:rgba(110,112,121,1.0);fill:none"/><path  d="M 906 675
L 906 670" style="stroke-width:1;stroke:rgba(110,112,121,1.0);fill:none"/><path  d="M 950 675
L 950 670" style="stroke-width:1;stroke:rgba(110,112,121,1.0);fill:none"/><path  d="M 79 670
L 950 670" style="stroke-width:1;stroke:rgba(110,112,121,1.0);fill:none"/><text x="94" y="770" style="stroke-width:0;stroke:none;fill:rgba(70,70,70,1.0);font-size:12.8px;font-family:'Roboto Medium',sans-serif" transform="rotate(272.15,94,770)">AllZero</text><text x="137" y="770" style="stroke-width:0;stroke:none;fill:rgba(70,70,70,1.0);font-size:12.8px;font-family:'Roboto Medium',sans-serif" transform="rotate(272.15,137,770)">BackToFront</text><text x="180" y="770" style="stroke-width:0;stroke:none;fill:rgba(70,70,70,1.0);font-size:12.8px;font-family:'Roboto Medium',sans-serif" transform="rotate(272.15,180,770)">FrontToBack</text><text x="224" y="770" style="stroke-width:0;stroke:none;fill:rgba(70,70,70,1.0);font-size:12.8px;font-family:'Roboto Medium',sans-serif" transform="rotate(272.15,224,770)">MiddleToBack</text><text x="267" y="770" style="stroke-width:0;stroke:none;fill:rgba(70,70,70,1.0);font-size:12.8px;font-family:'Roboto Medium',sans-serif" transform="rotate(272.15,267,770)">Mountain</text><text x="311" y="770" style="stroke-width:0;stroke:none;fill:rgba(70,70,70,1.0);font-size:12.8px;font-family:'Roboto Medium',sans-serif" transform="rotate(272.15,311,770)">NearlyReversed</text><text x="354" y="770" style="stroke-width:0;stroke:none;fill:rgba(70,70,70,1.0);font-size:12.8px;font-family:'Roboto Medium',sans-serif" transform="rotate(272.15,354,770)">NearlySorted</text><text x="399" y="770" style="stroke-width:0;stroke:none;fill:rgba(70,70,70,1.0);font-size:12.8px;font-family:'Roboto Medium',sans-serif" transform="rotate(272.15,399,770)">Plateau</text><text x="441" y="770" style="stroke-width:0;stroke:none;fill:rgba(70,70,70,1.0);font-size:12.8px;font-family:'Roboto Medium',sans-serif" transform="rotate(272.15,441,770)">PushMiddle</text><text x="486" y="770" style="stroke-width:0;stroke:none;fill:rgba(70,70,70,1.0);font-size:12.8px;font-family:'Roboto Medium',sans-serif" transform="rotate(272.15,486,770)">Random</text><text x="529" y="770" style="stroke-width:0;stroke:none;fill:rgba(70,70,70,1.0);font-size:12.8px;font-family:'Roboto Medium',sans-serif" transform="rotate(272.15,529,770)">RandomMaxN</text><text x="572" y="770" style="stroke-width:0;stroke:none;fill:rgba(70,70,70,1.0);font-size:12.8px;font-family:'Roboto Medium',sans-serif" transform="rotate(272.15,572,770)">RandomMod16</text><text x="616" y="770" style="stroke-width:0;stroke:none;fill:rgba(70,70,70,1.0);font-size:12.8px;font-family:'Roboto Medium',sans-serif" transform="rotate(272.15,616,770)">RandomMod8</text><text x="659" y="770" style="stroke-width:0;stroke:none;fill:rgba(70,70,70,1.0);font-size:12.8px;font-family:'Roboto Medium',sans-serif" transform="rotate(272.15,659,770)">RepeatedMod16</text><text x="703" y="770" style="stroke-width:0;stroke:none;fill:rgba(70,70,70,1.0);font-size:12.8px;font-family:'Roboto Medium',sans-serif" transform="rotate(272.15,703,770)">RepeatedMod8</text><text x="746" y="770" style="stroke-width:0;stroke:none;fill:rgba(70,70,70,1.0);font-size:12.8px;font-family:'Roboto Medium',sans-serif" transform="rotate(272.15,746,770)">Reversed</text><text x="791" y="770" style="stroke-width:0;stroke:none;fill:rgba(70,70,70,1.0);font-size:12.8px;font-family:'Roboto Medium',sans-serif" transform="rotate(272.15,791,770)">Rotated</text><text x="833" y="770" style="stroke-width:0;stroke:none;fill:rgba(70,70,70,1.0);font-size:12.8px;font-family:'Roboto Medium',sans-serif" transform="rotate(272.15,833,770)">SmallHills</text><text x="878" y="770" style="stroke-width:0;stroke:none;fill:rgba(70,70,70,1.0);font-size:12.8px;font-family:'Roboto Medium',sans-serif" transform="rotate(272.15,878,770)">Sorted</text><text x="922" y="770" style="stroke-width:0;stroke:none;fill:rgba(70,70,70,1.0);font-size:12.8px;font-family:'Roboto Medium',sans-serif" transform="rotate(272.15,922,770)">Valley</text><path  d="M 84 631
L 117 631
L 117 669
L 84 669
L 84 631" style="stroke-width:0;stroke:none;fill:rgba(84,112,198,1.0)"/><path  d="M 127 501
L 160 501
L 160 669
L 127 669
L 127 501" style="stroke-width:0;stroke:none;fill:rgba(84,112,198,1.0)"/><path  d="M 171 435
L 204 435
L 204 669
L 171 669
L 171 435" style="stroke-width:0;stroke:none;fill:rgba(84,112,198,1.0)"/><path  d="M 214 493
L 247 493
L 247 669
L 214 669
L 214 493" style="stroke-width:0;stroke:none;fill:rgba(84,112,198,1.0)"/><path  d="M 258 453
L 291 453
L 291 669
L 258 669
L 258 453" style="stroke-width:0;stroke:none;fill:rgba(84,112,198,1.0)"/><path  d="M 301 392
L 334 392
L 334 669
L 301 669
L 301 392" style="stroke-width:0;stroke:none;fill:rgba(84,112,198,1.0)"/><path  d="M 345 413
L 378 413
L 378 669
L 345 669
L 345 413" style="stroke-width:0;stroke:none;fill:rgba(84,112,198,1.0)"/><path  d="M 388 558
L 421 558
L 421 669
L 388 669
L 388 558" style="stroke-width:0;stroke:none;fill:rgba(84,112,198,1.0)"/><path  d="M 432 550
L 465 550
L 465 669
L 432 669
L 432 550" style="stroke-width:0;stroke:none;fill:rgba(84,112,198,1.0)"/><path  d="M 475 216
L 508 216
L 508 669
L 475 669
L 475 216" style="stroke-width:0;stroke:none;fill:rgba(84,112,198,1.0)"/><path  d="M 519 226
L 552 226
L 552 669
L 519 669
L 519 226" style="stroke-width:0;stroke:none;fill:rgba(84,112,198,1.0)"/><path  d="M 563 184
L 596 184
L 596 669
L 563 669
L 563 184" style="stroke-width:0;stroke:none;fill:rgba(84,112,198,1.0)"/><path  d="M 606 155
L 639 155
L 639 669
L 606 669
L 606 155" style="stroke-width:0;stroke:none;fill:rgba(84,112,198,1.0)"/><path  d="M 650 380
L 683 380
L 683 669
L 650 669
L 650 380" style="stroke-width:0;stroke:none;fill:rgba(84,112,198,1.0)"/><path  d="M 693 432
L 726 432
L 726 669
L 693 669
L 693 432" style="stroke-width:0;stroke:none;fill:rgba(84,112,198,1.0)"/><path  d="M 737 541
L 770 541
L 770 669
L 737 669
L 737 541" style="stroke-width:0;stroke:none;fill:rgba(84,112,198,1.0)"/><path  d="M 780 532
L 813 532
L 813 669
L 780 669
L 780 532" style="stroke-width:0;stroke:none;fill:rgba(84,112,198,1.0)"/><path  d="M 824 384
L 857 384
L 857 669
L 824 669
L 824 384" style="stroke-width:0;stroke:none;fill:rgba(84,112,198,1.0)"/><path  d="M 867 515
L 900 515
L 900 669
L 867 669
L 867 515" style="stroke-width:0;stroke:none;fill:rgba(84,112,198,1.0)"/><path  d="M 911 487
L 944 487
L 944 669
L 911 669
L 911 487" style="stroke-width:0;stroke:none;fill:rgba(84,112,198,1.0)"/><path  d="M 619 147
A 15 15 330.00 1 1 625 147
L 622 133
Z" style="stroke-width:0;stroke:none;fill:rgba(84,112,198,1.0)"/><path  d="M 607 133
Q622,170 637,133
Z" style="stroke-width:0;stroke:none;fill:rgba(84,112,198,1.0)"/><text x="609" y="138" style="stroke-width:0;stroke:none;fill:rgba(238,238,238,1.0);font-size:10.2px;font-family:'Roboto Medium',sans-serif">6.69k</text><path  d="M 97 623
A 15 15 330.00 1 1 103 623
L 100 609
Z" style="stroke-width:0;stroke:none;fill:rgba(84,112,198,1.0)"/><path  d="M 85 609
Q100,646 115,609
Z" style="stroke-width:0;stroke:none;fill:rgba(84,112,198,1.0)"/><text x="87" y="614" style="stroke-width:0;stroke:none;fill:rgba(238,238,238,1.0);font-size:10.2px;font-family:'Roboto Medium',sans-serif">2.78k</text><circle cx="82" cy="424" r="3" style="stroke-width:1;stroke:rgba(84,112,198,1.0);fill:rgba(84,112,198,1.0)"/><path stroke-dasharray="4.0, 2.0" d="" style="stroke-width:1;stroke:rgba(84,112,198,1.0);fill:rgba(84,112,198,1.0)"/><path stroke-dasharray="4.0, 2.0" d="M 88 424
L 932 424" style="stroke-width:1;stroke:rgba(84,112,198,1.0);fill:rgba(84,112,198,1.0)"/><path stroke-dasharray="4.0, 2.0" d="M 932 419
L 948 424
L 932 429
L 937 424
L 932 419" style="stroke-width:1;stroke:rgba(84,112,198,1.0);fill:rgba(84,112,198,1.0)"/><text x="950" y="428" style="stroke-width:0;stroke:none;fill:rgba(70,70,70,1.0);font-size:12.8px;font-family:'Roboto Medium',sans-serif">4.48k</text></svg>