<svg xmlns="http://www.w3.org/2000/svg" xmlns:xlink="http://www.w3.org/1999/xlink" width="1000" height="800">\n<path  d="M 0 0
L 1000 0
L 1000 800
L 0 800
L 0 0" style="stroke-width:0;stroke:none;fill:rgba(255,255,255,1.0)"/><path  d="M 463 44
L 493 44" style="stroke-width:3;stroke:rgba(84,112,198,1.0);fill:rgba(84,112,198,1.0)"/><circle cx="478" cy="44" r="5" style="stroke-width:3;stroke:rgba(84,112,198,1.0);fill:rgba(84,112,198,1.0)"/><path  d="" style="stroke-width:3;stroke:rgba(84,112,198,1.0);fill:rgba(84,112,198,1.0)"/><text x="495" y="50" style="stroke-width:0;stroke:none;fill:rgba(70,70,70,1.0);font-size:15.3px;font-family:'Roboto Medium',sans-serif">100000</text><text x="10" y="35" style="stroke-width:0;stroke:none;fill:rgba(70,70,70,1.0);font-size:25.6px;font-family:'Roboto Medium',sans-serif">BurstSort</text><text x="10" y="77" style="stroke-width:0;stroke:none;fill:rgba(70,70,70,1.0);font-size:15.3px;font-family:'Roboto Medium',sans-serif">7.29M ns</text><text x="10" y="177" style="stroke-width:0;stroke:none;fill:rgba(70,70,70,1.0);font-size:15.3px;font-family:'Roboto Medium',sans-serif">6.25M ns</text><text x="10" y="277" style="stroke-width:0;stroke:none;fill:rgba(70,70,70,1.0);font-size:15.3px;font-family:'Roboto Medium',sans-serif">5.21M ns</text><text x="10" y="377" style="stroke-width:0;stroke:none;fill:rgba(70,70,70,1.0);font-size:15.3px;font-family:'Roboto Medium',sans-serif">4.17M ns</text><text x="10" y="477" style="stroke-width:0;stroke:none;fill:rgba(70,70,70,1.0);font-size:15.3px;font-family:'Roboto Medium',sans-serif">3.12M ns</text><text x="10" y="577" style="stroke-width:0;stroke:none;fill:rgba(70,70,70,1.0);font-size:15.3px;font-family:'Roboto Medium',sans-serif">2.08M ns</text><text x="10" y="677" style="stroke-width:0;stroke:none;fill:rgba(70,70,70,1.0);font-size:15.3px;font-family:'Roboto Medium',sans-serif">1.04M ns</text><path  d="M 85 70
L 950 70" style="stroke-width:1;stroke:rgba(224,230,242,1.0);fill:none"/><path  d="M 85 170
L 950 170" style="stroke-width:1;stroke:rgba(224,230,242,1.0);fill:none"/><path  d="M 85 270
L 950 270" style="stroke-width:1;stroke:rgba(224,230,242,1.0);fill:none"/><path  d="M 85 370
L 950 370" style="stroke-width:1;stroke:rgba(224,230,242,1.0);fill:none"/><path  d="M 85 470
L 950 470" style="stroke-width:1;stroke:rgba(224,230,242,1.0);fill:none"/><path  d="M 85 570
L 950 570" style="stroke-width:1;stroke:rgba(224,230,242,1.0);fill:none"/><path  d="M 85 675
L 85 670" style="stroke-width:1;stroke:rgba(110,112,121,1.0);fill:none"/><path  d="M 128 675
L 128 670" style="stroke-width:1;stroke:rgba(110,112,121,1.0);fill:none"/><path  d="M 171 675
L 171 670" style="stroke-width:1;stroke:rgba(110,112,121,1.0);fill:none"/><path  d="M 214 675
L 214 670" style="stroke-width:1;stroke:rgba(110,112,121,1.0);fill:none"/><path  d="M 258 675
L 258 670" style="stroke-width:1;stroke:rgba(110,112,121,1.0);fill:none"/><path  d="M 301 675
L 301 670" style="stroke-width:1;stroke:rgba(110,112,121,1.0);fill:none"/><path  d="M 344 675
L 344 670" style="stroke-width:1;stroke:rgba(110,112,121,1.0);fill:none"/><path  d="M 387 675
L 387 670" style="stroke-width:1;stroke:rgba(110,112,121,1.0);fill:none"/><path  d="M 431 675
L 431 670" style="stroke-width:1;stroke:rgba(110,112,121,1.0);fill:none"/><path  d="M 474 675
L 474 670" style="stroke-width:1;stroke:rgba(110,112,121,1.0);fill:none"/><path  d="M 517 675
L 517 670" style="stroke-width:1;stroke:rgba(110,112,121,1.0);fill:none"/><path  d="M 560 675
L 560 670" style="stroke-width:1;stroke:rgba(110,112,121,1.0);fill:none"/><path  d="M 604 675
L 604 670" style="stroke-width:1;stroke:rgba(110,112,121,1.0);fill:none"/><path  d="M 647 675
L 647 670" style="stroke-width:1;stroke:rgba(110,112,121,1.0);fill:none"/><path  d="M 690 675
L 690 670" style="stroke-width:1;stroke:rgba(110,112,121,1.0);fill:none"/><path  d="M 733 675
L 733 670" style="stroke-width:1;stroke:rgba(110,112,121,1.0);fill:none"/><path  d="M 777 675
L 777 670" style="stroke-width:1;stroke:rgba(110,112,121,1.0);fill:none"/><path  d="M 820 675
L 820 670" style="stroke-width:1;stroke:rgba(110,112,121,1.0);fill:none"/><path  d="M 863 675
L 863 670" style="stroke-width:1;stroke:rgba(110,112,121,1.0);fill:none"/><path  d="M 906 675
L 906 670" style="stroke-width:1;stroke:rgba(110,112,121,1.0);fill:none"/><path  d="M 950 675
L 950 670" style="stroke-width:1;stroke:rgba(110,112,121,1.0);fill:none"/><path  d="M 85 670
L 950 670" style="stroke-width:1;stroke:rgba(110,112,121,1.0);fill:none"/><text x="100" y="770" style="stroke-width:0;stroke:none;fill:rgba(70,70,70,1.0);font-size:12.8px;font-family:'Roboto Medium',sans-serif" transform="rotate(272.15,100,770)">AllZero</text><text x="142" y="770" style="stroke-width:0;stroke:none;fill:rgba(70,70,70,1.0);font-size:12.8px;font-family:'Roboto Medium',sans-serif" transform="rotate(272.15,142,770)">BackToFront</text><text x="185" y="770" style="stroke-width:0;stroke:none;fill:rgba(70,70,70,1.0);font-size:12.8px;font-family:'Roboto Medium',sans-serif" transform="rotate(272.15,185,770)">FrontToBack</text><text x="229" y="770" style="stroke-width:0;stroke:none;fill:rgba(70,70,70,1.0);font-size:12.8px;font-family:'Roboto Medium',sans-serif" transform="rotate(272.15,229,770)">MiddleToBack</text><text x="272" y="770" style="stroke-width:0;stroke:none;fill:rgba(70,70,70,1.0);font-size:12.8px;font-family:'Roboto Medium',sans-serif" transform="rotate(272.15,272,770)">Mountain</text><text x="315" y="770" style="stroke-width:0;stroke:none;fill:rgba(70,70,70,1.0);font-size:12.8px;font-family:'Roboto Medium',sans-serif" transform="rotate(272.15,315,770)">NearlyReversed</text><text x="358" y="770" style="stroke-width:0;stroke:none;fill:rgba(70,70,70,1.0);font-size:12.8px;font-family:'Roboto Medium',sans-serif" transform="rotate(272.15,358,770)">NearlySorted</text><text x="403" y="770" style="stroke-width:0;stroke:none;fill:rgba(70,70,70,1.0);font-size:12.8px;font-family:'Roboto Medium',sans-serif" transform="rotate(272.15,403,770)">Plateau</text><text x="445" y="770" style="stroke-width:0;stroke:none;fill:rgba(70,70,70,1.0);font-size:12.8px;font-family:'Roboto Medium',sans-serif" transform="rotate(272.15,445,770)">PushMiddle</text><text x="489" y="770" style="stroke-width:0;stroke:none;fill:rgba(70,70,70,1.0);font-size:12.8px;font-family:'Roboto Medium',sans-serif" transform="rotate(272.15,489,770)">Random</text><text x="531" y="770" style="stroke-width:0;stroke:none;fill:rgba(70,70,70,1.0);font-size:12.8px;font-family:'Roboto Medium',sans-serif" transform="rotate(272.15,531,770)">RandomMaxN</text><text x="575" y="770" style="stroke-width:0;stroke:none;fill:rgba(70,70,70,1.0);font-size:12.8px;font-family:'Roboto Medium',sans-serif" transform="rotate(272.15,575,770)">RandomMod16</text><text x="618" y="770" style="stroke-width:0;stroke:none;fill:rgba(70,70,70,1.0);font-size:12.8px;font-family:'Roboto Medium',sans-serif" transform="rotate(272.15,618,770)">RandomMod8</text><text x="661" y="770" style="stroke-width:0;stroke:none;fill:rgba(70,70,70,1.0);font-size:12.8px;font-family:'Roboto Medium',sans-serif" transform="rotate(272.15,661,770)">RepeatedMod16</text><text x="704" y="770" style="stroke-width:0;stroke:none;fill:rgba(70,70,70,1.0);font-size:12.8px;font-family:'Roboto Medium',sans-serif" transform="rotate(272.15,704,770)">RepeatedMod8</text><text x="748" y="770" style="stroke-width:0;stroke:none;fill:rgba(70,70,70,1.0);font-size:12.8px;font-family:'Roboto Medium',sans-serif" transform="rotate(272.15,748,770)">Reversed</text><text x="792" y="770" style="stroke-width:0;stroke:none;fill:rgba(70,70,70,1.0);font-size:12.8px;font-family:'Roboto Medium',sans-serif" transform="rotate(272.15,792,770)">Rotated</text><text x="834" y="770" style="stroke-width:0;stroke:none;fill:rgba(70,70,70,1.0);font-size:12.8px;font-family:'Roboto Medium',sans-serif" transform="rotate(272.15,834,770)">SmallHills</text><text x="878" y="770" style="stroke-width:0;stroke:none;fill:rgba(70,70,70,1.0);font-size:12.8px;font-family:'Roboto Medium',sans-serif" transform="rotate(272.15,878,770)">Sorted</text><text x="922" y="770" style="stroke-width:0;stroke:none;fill:rgba(70,70,70,1.0);font-size:12.8px;font-family:'Roboto Medium',sans-serif" transform="rotate(272.15,922,770)">Valley</text><path  d="M 90 562
L 123 562
L 123 669
L 90 669
L 90 562" style="stroke-width:0;stroke:none;fill:rgba(84,112,198,1.0)"/><path  d="M 133 561
L 166 561
L 166 669
L 133 669
L 133 561" style="stroke-width:0;stroke:none;fill:rgba(84,112,198,1.0)"/><path  d="M 176 551
L 209 551
L 209 669
L 176 669
L 176 551" style="stroke-width:0;stroke:none;fill:rgba(84,112,198,1.0)"/><path  d="M 219 554
L 252 554
L 252 669
L 219 669
L 219 554" style="stroke-width:0;stroke:none;fill:rgba(84,112,198,1.0)"/><path  d="M 263 529
L 296 529
L 296 669
L 263 669
L 263 529" style="stroke-width:0;stroke:none;fill:rgba(84,112,198,1.0)"/><path  d="M 306 467
L 339 467
L 339 669
L 306 669
L 306 467" style="stroke-width:0;stroke:none;fill:rgba(84,112,198,1.0)"/><path  d="M 349 480
L 382 480
L 382 669
L 349 669
L 349 480" style="stroke-width:0;stroke:none;fill:rgba(84,112,198,1.0)"/><path  d="M 392 571
L 425 571
L 425 669
L 392 669
L 392 571" style="stroke-width:0;stroke:none;fill:rgba(84,112,198,1.0)"/><path  d="M 436 550
L 469 550
L 469 669
L 436 669
L 436 550" style="stroke-width:0;stroke:none;fill:rgba(84,112,198,1.0)"/><path  d="M 479 82
L 512 82
L 512 669
L 479 669
L 479 82" style="stroke-width:0;stroke:none;fill:rgba(84,112,198,1.0)"/><path  d="M 522 61
L 555 61
L 555 669
L 522 669
L 522 61" style="stroke-width:0;stroke:none;fill:rgba(84,112,198,1.0)"/><path  d="M 565 270
L 598 270
L 598 669
L 565 669
L 565 270" style="stroke-width:0;stroke:none;fill:rgba(84,112,198,1.0)"/><path  d="M 609 345
L 642 345
L 642 669
L 609 669
L 609 345" style="stroke-width:0;stroke:none;fill:rgba(84,112,198,1.0)"/><path  d="M 652 457
L 685 457
L 685 669
L 652 669
L 652 457" style="stroke-width:0;stroke:none;fill:rgba(84,112,198,1.0)"/><path  d="M 695 455
L 728 455
L 728 669
L 695 669
L 695 455" style="stroke-width:0;stroke:none;fill:rgba(84,112,198,1.0)"/><path  d="M 738 545
L 771 545
L 771 669
L 738 669
L 738 545" style="stroke-width:0;stroke:none;fill:rgba(84,112,198,1.0)"/><path  d="M 782 567
L 815 567
L 815 669
L 782 669
L 782 567" style="stroke-width:0;stroke:none;fill:rgba(84,112,198,1.0)"/><path  d="M 825 530
L 858 530
L 858 669
L 825 669
L 825 530" style="stroke-width:0;stroke:none;fill:rgba(84,112,198,1.0)"/><path  d="M 868 563
L 901 563
L 901 669
L 868 669
L 868 563" style="stroke-width:0;stroke:none;fill:rgba(84,112,198,1.0)"/><path  d="M 911 549
L 944 549
L 944 669
L 911 669
L 911 549" style="stroke-width:0;stroke:none;fill:rgba(84,112,198,1.0)"/><path  d="M 535 53
A 15 15 330.00 1 1 541 53
L 538 39
Z" style="stroke-width:0;stroke:none;fill:rgba(84,112,198,1.0)"/><path  d="M 523 39
Q538,76 553,39
Z" style="stroke-width:0;stroke:none;fill:rgba(84,112,198,1.0)"/><text x="523" y="44" style="stroke-width:0;stroke:none;fill:rgba(238,238,238,1.0);font-size:10.2px;font-family:'Roboto Medium',sans-serif">7.39M</text><path  d="M 405 563
A 15 15 330.00 1 1 411 563
L 408 549
Z" style="stroke-width:0;stroke:none;fill:rgba(84,112,198,1.0)"/><path  d="M 393 549
Q408,586 423,549
Z" style="stroke-width:0;stroke:none;fill:rgba(84,112,198,1.0)"/><text x="393" y="554" style="stroke-width:0;stroke:none;fill:rgba(238,238,238,1.0);font-size:10.2px;font-family:'Roboto Medium',sans-serif">2.08M</text><circle cx="88" cy="462" r="3" style="stroke-width:1;stroke:rgba(84,112,198,1.0);fill:rgba(84,112,198,1.0)"/><path stroke-dasharray="4.0, 2.0" d="" style="stroke-width:1;stroke:rgba(84,112,198,1.0);fill:rgba(84,112,198,1.0)"/><path stroke-dasharray="4.0, 2.0" d="M 94 462
L 932 462" style="stroke-width:1;stroke:rgba(84,112,198,1.0);fill:rgba(84,112,198,1.0)"/><path stroke-dasharray="4.0, 2.0" d="M 932 457
L 948 462
L 932 467
L 937 462
L 932 457" style="stroke-width:1;stroke:rgba(84,112,198,1.0);fill:rgba(84,112,198,1.0)"/><text x="950" y="466" style="stroke-width:0;stroke:none;fill:rgba(70,70,70,1.0);font-size:12.8px;font-family:'Roboto Medium',sans-serif">3.21M</text></svg>