<svg xmlns="http://www.w3.org/2000/svg" xmlns:xlink="http://www.w3.org/1999/xlink" width="1000" height="800">\n<path  d="M 0 0
L 1000 0
L 1000 800
L 0 800
L 0 0" style="stroke-width:0;stroke:none;fill:rgba(255,255,255,1.0)"/><path  d="M 463 44
L 493 44" style="stroke-width:3;stroke:rgba(84,112,198,1.0);fill:rgba(84,112,198,1.0)"/><circle cx="478" cy="44" r="5" style="stroke-width:3;stroke:rgba(84,112,198,1.0);fill:rgba(84,112,198,1.0)"/><path  d="" style="stroke-width:3;stroke:rgba(84,112,198,1.0);fill:rgba(84,112,198,1.0)"/><text x="495" y="50" style="stroke-width:0;stroke:none;fill:rgba(70,70,70,1.0);font-size:15.3px;font-family:'Roboto Medium',sans-serif">100000</text><text x="10" y="35" style="stroke-width:0;stroke:none;fill:rgba(70,70,70,1.0);font-size:25.6px;font-family:'Roboto Medium',sans-serif">GrailSort</text><text x="10" y="77" style="stroke-width:0;stroke:none;fill:rgba(70,70,70,1.0);font-size:15.3px;font-family:'Roboto Medium',sans-serif">7.51M ns</text><text x="10" y="177" style="stroke-width:0;stroke:none;fill:rgba(70,70,70,1.0);font-size:15.3px;font-family:'Roboto Medium',sans-serif">6.43M ns</text><text x="10" y="277" style="stroke-width:0;stroke:none;fill:rgba(70,70,70,1.0);font-size:15.3px;font-family:'Roboto Medium',sans-serif">5.36M ns</text><text x="10" y="377" style="stroke-width:0;stroke:none;fill:rgba(70,70,70,1.0);font-size:15.3px;font-family:'Roboto Medium',sans-serif">4.29M ns</text><text x="10" y="477" style="stroke-width:0;stroke:none;fill:rgba(70,70,70,1.0);font-size:15.3px;font-family:'Roboto Medium',sans-serif">3.21M ns</text><text x="10" y="577" style="stroke-width:0;stroke:none;fill:rgba(70,70,70,1.0);font-size:15.3px;font-family:'Roboto Medium',sans-serif">2.14M ns</text><text x="10" y="677" style="stroke-width:0;stroke:none;fill:rgba(70,70,70,1.0);font-size:15.3px;font-family:'Roboto Medium',sans-serif">1.07M ns</text><path  d="M 85 70
L 950 70" style="stroke-width:1;stroke:rgba(224,230,242,1.0);fill:none"/><path  d="M 85 170
L 950 170" style="stroke-width:1;stroke:rgba(224,230,242,1.0);fill:none"/><path  d="M 85 270
L 950 270" style="stroke-width:1;stroke:rgba(224,230,242,1.0);fill:none"/><path  d="M 85 370
L 950 370" style="stroke-width:1;stroke:rgba(224,230,242,1.0);fill:none"/><path  d="M 85 470
L 950 470" style="stroke-width:1;stroke:rgba(224,230,242,1.0);fill:none"/><path  d="M 85 570
L 950 570" style="stroke-width:1;stroke:rgba(224,230,242,1.0);fill:none"/><path  d="M 85 675
L 85 670" style="stroke-width:1;stroke:rgba(110,112,121,1.0);fill:none"/><path  d="M 128 675
L 128 670" style="stroke-width:1;stroke:rgba(110,112,121,1.0);fill:none"/><path  d="M 171 675
L 171 670" style="stroke-width:1;stroke:rgba(110,112,121,1.0);fill:none"/><path  d="M 214 675
L 214 670" style="stroke-width:1;stroke:rgba(110,112,121,1.0);fill:none"/><path  d="M 258 675
L 258 670" style="stroke-width:1;stroke:rgba(110,112,121,1.0);fill:none"/><path  d="M 301 675
L 301 670" style="stroke-width:1;stroke:rgba(110,112,121,1.0);fill:none"/><path  d="M 344 675
L 344 670" style="stroke-width:1;stroke:rgba(110,112,121,1.0);fill:none"/><path  d="M 387 675
L 387 670" style="stroke-width:1;stroke:rgba(110,112,121,1.0);fill:none"/><path  d="M 431 675
L 431 670" style="stroke-width:1;stroke:rgba(110,112,121,1.0);fill:none"/><path  d="M 474 675
L 474 670" style="stroke-width:1;stroke:rgba(110,112,121,1.0);fill:none"/><path  d="M 517 675
L 517 670" style="stroke-width:1;stroke:rgba(110,112,121,1.0);fill:none"/><path  d="M 560 675
L 560 670" style="stroke-width:1;stroke:rgba(110,112,121,1.0);fill:none"/><path  d="M 604 675
L 604 670" style="stroke-width:1;stroke:rgba(110,112,121,1.0);fill:none"/><path  d="M 647 675
L 647 670" style="stroke-width:1;stroke:rgba(110,112,121,1.0);fill:none"/><path  d="M 690 675
L 690 670" style="stroke-width:1;stroke:rgba(110,112,121,1.0);fill:none"/><path  d="M 733 675
L 733 670" style="stroke-width:1;stroke:rgba(110,112,121,1.0);fill:none"/><path  d="M 777 675
L 777 670" style="stroke-width:1;stroke:rgba(110,112,121,1.0);fill:none"/><path  d="M 820 675
L 820 670" style="stroke-width:1;stroke:rgba(110,112,121,1.0);fill:none"/><path  d="M 863 675
L 863 670" style="stroke-width:1;stroke:rgba(110,112,121,1.0);fill:none"/><path  d="M 906 675
L 906 670" style="stroke-width:1;stroke:rgba(110,112,121,1.0);fill:none"/><path  d="M 950 675
L 950 670" style="stroke-width:1;stroke:rgba(110,112,121,1.0);fill:none"/><path  d="M 85 670
L 950 670" style="stroke-width:1;stroke:rgba(110,112,121,1.0);fill:none"/><text x="100" y="770" style="stroke-width:0;stroke:none;fill:rgba(70,70,70,1.0);font-size:12.8px;font-family:'Roboto Medium',sans-serif" transform="rotate(272.15,100,770)">AllZero</text><text x="142" y="770" style="stroke-width:0;stroke:none;fill:rgba(70,70,70,1.0);font-size:12.8px;font-family:'Roboto Medium',sans-serif" transform="rotate(272.15,142,770)">BackToFront</text><text x="185" y="770" style="stroke-width:0;stroke:none;fill:rgba(70,70,70,1.0);font-size:12.8px;font-family:'Roboto Medium',sans-serif" transform="rotate(272.15,185,770)">FrontToBack</text><text x="229" y="770" style="stroke-width:0;stroke:none;fill:rgba(70,70,70,1.0);font-size:12.8px;font-family:'Roboto Medium',sans-serif" transform="rotate(272.15,229,770)">MiddleToBack</text><text x="272" y="770" style="stroke-width:0;stroke:none;fill:rgba(70,70,70,1.0);font-size:12.8px;font-family:'Roboto Medium',sans-serif" transform="rotate(272.15,272,770)">Mountain</text><text x="315" y="770" style="stroke-width:0;stroke:none;fill:rgba(70,70,70,1.0);font-size:12.8px;font-family:'Roboto Medium',sans-serif" transform="rotate(272.15,315,770)">NearlyReversed</text><text x="358" y="770" style="stroke-width:0;stroke:none;fill:rgba(70,70,70,1.0);font-size:12.8px;font-family:'Roboto Medium',sans-serif" transform="rotate(272.15,358,770)">NearlySorted</text><text x="403" y="770" style="stroke-width:0;stroke:none;fill:rgba(70,70,70,1.0);font-size:12.8px;font-family:'Roboto Medium',sans-serif" transform="rotate(272.15,403,770)">Plateau</text><text x="445" y="770" style="stroke-width:0;stroke:none;fill:rgba(70,70,70,1.0);font-size:12.8px;font-family:'Roboto Medium',sans-serif" transform="rotate(272.15,445,770)">PushMiddle</text><text x="489" y="770" style="stroke-width:0;stroke:none;fill:rgba(70,70,70,1.0);font-size:12.8px;font-family:'Roboto Medium',sans-serif" transform="rotate(272.15,489,770)">Random</text><text x="531" y="770" style="stroke-width:0;stroke:none;fill:rgba(70,70,70,1.0);font-size:12.8px;font-family:'Roboto Medium',sans-serif" transform="rotate(272.15,531,770)">RandomMaxN</text><text x="575" y="770" style="stroke-width:0;stroke:none;fill:rgba(70,70,70,1.0);font-size:12.8px;font-family:'Roboto Medium',sans-serif" transform="rotate(272.15,575,770)">RandomMod16</text><text x="618" y="770" style="stroke-width:0;stroke:none;fill:rgba(70,70,70,1.0);font-size:12.8px;font-family:'Roboto Medium',sans-serif" transform="rotate(272.15,618,770)">RandomMod8</text><text x="661" y="770" style="stroke-width:0;stroke:none;fill:rgba(70,70,70,1.0);font-size:12.8px;font-family:'Roboto Medium',sans-serif" transform="rotate(272.15,661,770)">RepeatedMod16</text><text x="704" y="770" style="stroke-width:0;stroke:none;fill:rgba(70,70,70,1.0);font-size:12.8px;font-family:'Roboto Medium',sans-serif" transform="rotate(272.15,704,770)">RepeatedMod8</text><text x="748" y="770" style="stroke-width:0;stroke:none;fill:rgba(70,70,70,1.0);font-size:12.8px;font-family:'Roboto Medium',sans-serif" transform="rotate(272.15,748,770)">Reversed</text><text x="792" y="770" style="stroke-width:0;stroke:none;fill:rgba(70,70,70,1.0);font-size:12.8px;font-family:'Roboto Medium',sans-serif" transform="rotate(272.15,792,770)">Rotated</text><text x="834" y="770" style="stroke-width:0;stroke:none;fill:rgba(70,70,70,1.0);font-size:12.8px;font-family:'Roboto Medium',sans-serif" transform="rotate(272.15,834,770)">SmallHills</text><text x="878" y="770" style="stroke-width:0;stroke:none;fill:rgba(70,70,70,1.0);font-size:12.8px;font-family:'Roboto Medium',sans-serif" transform="rotate(272.15,878,770)">Sorted</text><text x="922" y="770" style="stroke-width:0;stroke:none;fill:rgba(70,70,70,1.0);font-size:12.8px;font-family:'Roboto Medium',sans-serif" transform="rotate(272.15,922,770)">Valley</text><path  d="M 90 611
L 123 611
L 123 669
L 90 669
L 90 611" style="stroke-width:0;stroke:none;fill:rgba(84,112,198,1.0)"/><path  d="M 133 616
L 166 616
L 166 669
L 133 669
L 133 616" style="stroke-width:0;stroke:none;fill:rgba(84,112,198,1.0)"/><path  d="M 176 603
L 209 603
L 209 669
L 176 669
L 176 603" style="stroke-width:0;stroke:none;fill:rgba(84,112,198,1.0)"/><path  d="M 219 603
L 252 603
L 252 669
L 219 669
L 219 603" style="stroke-width:0;stroke:none;fill:rgba(84,112,198,1.0)"/><path  d="M 263 582
L 296 582
L 296 669
L 263 669
L 263 582" style="stroke-width:0;stroke:none;fill:rgba(84,112,198,1.0)"/><path  d="M 306 492
L 339 492
L 339 669
L 306 669
L 306 492" style="stroke-width:0;stroke:none;fill:rgba(84,112,198,1.0)"/><path  d="M 349 501
L 382 501
L 382 669
L 349 669
L 349 501" style="stroke-width:0;stroke:none;fill:rgba(84,112,198,1.0)"/><path  d="M 392 611
L 425 611
L 425 669
L 392 669
L 392 611" style="stroke-width:0;stroke:none;fill:rgba(84,112,198,1.0)"/><path  d="M 436 613
L 469 613
L 469 669
L 436 669
L 436 613" style="stroke-width:0;stroke:none;fill:rgba(84,112,198,1.0)"/><path  d="M 479 99
L 512 99
L 512 669
L 479 669
L 479 99" style="stroke-width:0;stroke:none;fill:rgba(84,112,198,1.0)"/><path  d="M 522 111
L 555 111
L 555 669
L 522 669
L 522 111" style="stroke-width:0;stroke:none;fill:rgba(84,112,198,1.0)"/><path  d="M 565 394
L 598 394
L 598 669
L 565 669
L 565 394" style="stroke-width:0;stroke:none;fill:rgba(84,112,198,1.0)"/><path  d="M 609 429
L 642 429
L 642 669
L 609 669
L 609 429" style="stroke-width:0;stroke:none;fill:rgba(84,112,198,1.0)"/><path  d="M 652 562
L 685 562
L 685 669
L 652 669
L 652 562" style="stroke-width:0;stroke:none;fill:rgba(84,112,198,1.0)"/><path  d="M 695 569
L 728 569
L 728 669
L 695 669
L 695 569" style="stroke-width:0;stroke:none;fill:rgba(84,112,198,1.0)"/><path  d="M 738 574
L 771 574
L 771 669
L 738 669
L 738 574" style="stroke-width:0;stroke:none;fill:rgba(84,112,198,1.0)"/><path  d="M 782 578
L 815 578
L 815 669
L 782 669
L 782 578" style="stroke-width:0;stroke:none;fill:rgba(84,112,198,1.0)"/><path  d="M 825 601
L 858 601
L 858 669
L 825 669
L 825 601" style="stroke-width:0;stroke:none;fill:rgba(84,112,198,1.0)"/><path  d="M 868 614
L 901 614
L 901 669
L 868 669
L 868 614" style="stroke-width:0;stroke:none;fill:rgba(84,112,198,1.0)"/><path  d="M 911 574
L 944 574
L 944 669
L 911 669
L 911 574" style="stroke-width:0;stroke:none;fill:rgba(84,112,198,1.0)"/><path  d="M 492 91
A 15 15 330.00 1 1 498 91
L 495 77
Z" style="stroke-width:0;stroke:none;fill:rgba(84,112,198,1.0)"/><path  d="M 480 77
Q495,114 510,77
Z" style="stroke-width:0;stroke:none;fill:rgba(84,112,198,1.0)"/><text x="480" y="82" style="stroke-width:0;stroke:none;fill:rgba(238,238,238,1.0);font-size:10.2px;font-family:'Roboto Medium',sans-serif">7.20M</text><path  d="M 146 608
A 15 15 330.00 1 1 152 608
L 149 594
Z" style="stroke-width:0;stroke:none;fill:rgba(84,112,198,1.0)"/><path  d="M 134 594
Q149,631 164,594
Z" style="stroke-width:0;stroke:none;fill:rgba(84,112,198,1.0)"/><text x="134" y="599" style="stroke-width:0;stroke:none;fill:rgba(238,238,238,1.0);font-size:10.2px;font-family:'Roboto Medium',sans-serif">1.65M</text><circle cx="88" cy="517" r="3" style="stroke-width:1;stroke:rgba(84,112,198,1.0);fill:rgba(84,112,198,1.0)"/><path stroke-dasharray="4.0, 2.0" d="" style="stroke-width:1;stroke:rgba(84,112,198,1.0);fill:rgba(84,112,198,1.0)"/><path stroke-dasharray="4.0, 2.0" d="M 94 517
L 932 517" style="stroke-width:1;stroke:rgba(84,112,198,1.0);fill:rgba(84,112,198,1.0)"/><path stroke-dasharray="4.0, 2.0" d="M 932 512
L 948 517
L 932 522
L 937 517
L 932 512" style="stroke-width:1;stroke:rgba(84,112,198,1.0);fill:rgba(84,112,198,1.0)"/><text x="950" y="521" style="stroke-width:0;stroke:none;fill:rgba(70,70,70,1.0);font-size:12.8px;font-family:'Roboto Medium',sans-serif">2.72M</text></svg>