<svg xmlns="http://www.w3.org/2000/svg" xmlns:xlink="http://www.w3.org/1999/xlink" width="1000" height="800">\n<path  d="M 0 0
L 1000 0
L 1000 800
L 0 800
L 0 0" style="stroke-width:0;stroke:none;fill:rgba(255,255,255,1.0)"/><path  d="M 481 44
L 511 44" style="stroke-width:3;stroke:rgba(84,112,198,1.0);fill:rgba(84,112,198,1.0)"/><circle cx="496" cy="44" r="5" style="stroke-width:3;stroke:rgba(84,112,198,1.0);fill:rgba(84,112,198,1.0)"/><path  d="" style="stroke-width:3;stroke:rgba(84,112,198,1.0);fill:rgba(84,112,198,1.0)"/><text x="513" y="50" style="stroke-width:0;stroke:none;fill:rgba(70,70,70,1.0);font-size:15.3px;font-family:'Roboto Medium',sans-serif">10</text><text x="10" y="35" style="stroke-width:0;stroke:none;fill:rgba(70,70,70,1.0);font-size:25.6px;font-family:'Roboto Medium',sans-serif">InsertionSort</text><text x="10" y="77" style="stroke-width:0;stroke:none;fill:rgba(70,70,70,1.0);font-size:15.3px;font-family:'Roboto Medium',sans-serif">240 ns</text><text x="10" y="177" style="stroke-width:0;stroke:none;fill:rgba(70,70,70,1.0);font-size:15.3px;font-family:'Roboto Medium',sans-serif">210 ns</text><text x="10" y="277" style="stroke-width:0;stroke:none;fill:rgba(70,70,70,1.0);font-size:15.3px;font-family:'Roboto Medium',sans-serif">180 ns</text><text x="10" y="377" style="stroke-width:0;stroke:none;fill:rgba(70,70,70,1.0);font-size:15.3px;font-family:'Roboto Medium',sans-serif">150 ns</text><text x="10" y="477" style="stroke-width:0;stroke:none;fill:rgba(70,70,70,1.0);font-size:15.3px;font-family:'Roboto Medium',sans-serif">120 ns</text><text x="19" y="577" style="stroke-width:0;stroke:none;fill:rgba(70,70,70,1.0);font-size:15.3px;font-family:'Roboto Medium',sans-serif">90 ns</text><text x="19" y="677" style="stroke-width:0;stroke:none;fill:rgba(70,70,70,1.0);font-size:15.3px;font-family:'Roboto Medium',sans-serif">60 ns</text><path  d="M 67 70
L 950 70" style="stroke-width:1;stroke:rgba(224,230,242,1.0);fill:none"/><path  d="M 67 170
L 950 170" style="stroke-width:1;stroke:rgba(224,230,242,1.0);fill:none"/><path  d="M 67 270
L 950 270" style="stroke-width:1;stroke:rgba(224,230,242,1.0);fill:none"/><path  d="M 67 370
L 950 370" style="stroke-width:1;stroke:rgba(224,230,242,1.0);fill:none"/><path  d="M 67 470
L 950 470" style="stroke-width:1;stroke:rgba(224,230,242,1.0);fill:none"/><path  d="M 67 570
L 950 570" style="stroke-width:1;stroke:rgba(224,230,242,1.0);fill:none"/><path  d="M 67 675
L 67 670" style="stroke-width:1;stroke:rgba(110,112,121,1.0);fill:none"/><path  d="M 111 675
L 111 670" style="stroke-width:1;stroke:rgba(110,112,121,1.0);fill:none"/><path  d="M 155 675
L 155 670" style="stroke-width:1;stroke:rgba(110,112,121,1.0);fill:none"/><path  d="M 199 675
L 199 670" style="stroke-width:1;stroke:rgba(110,112,121,1.0);fill:none"/><path  d="M 243 675
L 243 670" style="stroke-width:1;stroke:rgba(110,112,121,1.0);fill:none"/><path  d="M 287 675
L 287 670" style="stroke-width:1;stroke:rgba(110,112,121,1.0);fill:none"/><path  d="M 331 675
L 331 670" style="stroke-width:1;stroke:rgba(110,112,121,1.0);fill:none"/><path  d="M 376 675
L 376 670" style="stroke-width:1;stroke:rgba(110,112,121,1.0);fill:none"/><path  d="M 420 675
L 420 670" style="stroke-width:1;stroke:rgba(110,112,121,1.0);fill:none"/><path  d="M 464 675
L 464 670" style="stroke-width:1;stroke:rgba(110,112,121,1.0);fill:none"/><path  d="M 508 675
L 508 670" style="stroke-width:1;stroke:rgba(110,112,121,1.0);fill:none"/><path  d="M 552 675
L 552 670" style="stroke-width:1;stroke:rgba(110,112,121,1.0);fill:none"/><path  d="M 596 675
L 596 670" style="stroke-width:1;stroke:rgba(110,112,121,1.0);fill:none"/><path  d="M 640 675
L 640 670" style="stroke-width:1;stroke:rgba(110,112,121,1.0);fill:none"/><path  d="M 685 675
L 685 670" style="stroke-width:1;stroke:rgba(110,112,121,1.0);fill:none"/><path  d="M 729 675
L 729 670" style="stroke-width:1;stroke:rgba(110,112,121,1.0);fill:none"/><path  d="M 773 675
L 773 670" style="stroke-width:1;stroke:rgba(110,112,121,1.0);fill:none"/><path  d="M 817 675
L 817 670" style="stroke-width:1;stroke:rgba(110,112,121,1.0);fill:none"/><path  d="M 861 675
L 861 670" style="stroke-width:1;stroke:rgba(110,112,121,1.0);fill:none"/><path  d="M 905 675
L 905 670" style="stroke-width:1;stroke:rgba(110,112,121,1.0);fill:none"/><path  d="M 950 675
L 950 670" style="stroke-width:1;stroke:rgba(110,112,121,1.0);fill:none"/><path  d="M 67 670
L 950 670" style="stroke-width:1;stroke:rgba(110,112,121,1.0);fill:none"/><text x="83" y="770" style="stroke-width:0;stroke:none;fill:rgba(70,70,70,1.0);font-size:12.8px;font-family:'Roboto Medium',sans-serif" transform="rotate(272.15,83,770)">AllZero</text><text x="126" y="770" style="stroke-width:0;stroke:none;fill:rgba(70,70,70,1.0);font-size:12.8px;font-family:'Roboto Medium',sans-serif" transform="rotate(272.15,126,770)">BackToFront</text><text x="170" y="770" style="stroke-width:0;stroke:none;fill:rgba(70,70,70,1.0);font-size:12.8px;font-family:'Roboto Medium',sans-serif" transform="rotate(272.15,170,770)">FrontToBack</text><text x="214" y="770" style="stroke-width:0;stroke:none;fill:rgba(70,70,70,1.0);font-size:12.8px;font-family:'Roboto Medium',sans-serif" transform="rotate(272.15,214,770)">MiddleToBack</text><text x="258" y="770" style="stroke-width:0;stroke:none;fill:rgba(70,70,70,1.0);font-size:12.8px;font-family:'Roboto Medium',sans-serif" transform="rotate(272.15,258,770)">Mountain</text><text x="302" y="770" style="stroke-width:0;stroke:none;fill:rgba(70,70,70,1.0);font-size:12.8px;font-family:'Roboto Medium',sans-serif" transform="rotate(272.15,302,770)">NearlyReversed</text><text x="346" y="770" style="stroke-width:0;stroke:none;fill:rgba(70,70,70,1.0);font-size:12.8px;font-family:'Roboto Medium',sans-serif" transform="rotate(272.15,346,770)">NearlySorted</text><text x="392" y="770" style="stroke-width:0;stroke:none;fill:rgba(70,70,70,1.0);font-size:12.8px;font-family:'Roboto Medium',sans-serif" transform="rotate(272.15,392,770)">Plateau</text><text x="435" y="770" style="stroke-width:0;stroke:none;fill:rgba(70,70,70,1.0);font-size:12.8px;font-family:'Roboto Medium',sans-serif" transform="rotate(272.15,435,770)">PushMiddle</text><text x="480" y="770" style="stroke-width:0;stroke:none;fill:rgba(70,70,70,1.0);font-size:12.8px;font-family:'Roboto Medium',sans-serif" transform="rotate(272.15,480,770)">Random</text><text x="523" y="770" style="stroke-width:0;stroke:none;fill:rgba(70,70,70,1.0);font-size:12.8px;font-family:'Roboto Medium',sans-serif" transform="rotate(272.15,523,770)">RandomMaxN</text><text x="567" y="770" style="stroke-width:0;stroke:none;fill:rgba(70,70,70,1.0);font-size:12.8px;font-family:'Roboto Medium',sans-serif" transform="rotate(272.15,567,770)">RandomMod16</text><text x="611" y="770" style="stroke-width:0;stroke:none;fill:rgba(70,70,70,1.0);font-size:12.8px;font-family:'Roboto Medium',sans-serif" transform="rotate(272.15,611,770)">RandomMod8</text><text x="655" y="770" style="stroke-width:0;stroke:none;fill:rgba(70,70,70,1.0);font-size:12.8px;font-family:'Roboto Medium',sans-serif" transform="rotate(272.15,655,770)">RepeatedMod16</text><text x="700" y="770" style="stroke-width:0;stroke:none;fill:rgba(70,70,70,1.0);font-size:12.8px;font-family:'Roboto Medium',sans-serif" transform="rotate(272.15,700,770)">RepeatedMod8</text><text x="744" y="770" style="stroke-width:0;stroke:none;fill:rgba(70,70,70,1.0);font-size:12.8px;font-family:'Roboto Medium',sans-serif" transform="rotate(272.15,744,770)">Reversed</text><text x="789" y="770" style="stroke-width:0;stroke:none;fill:rgba(70,70,70,1.0);font-size:12.8px;font-family:'Roboto Medium',sans-serif" transform="rotate(272.15,789,770)">Rotated</text><text x="832" y="770" style="stroke-width:0;stroke:none;fill:rgba(70,70,70,1.0);font-size:12.8px;font-family:'Roboto Medium',sans-serif" transform="rotate(272.15,832,770)">SmallHills</text><text x="877" y="770" style="stroke-width:0;stroke:none;fill:rgba(70,70,70,1.0);font-size:12.8px;font-family:'Roboto Medium',sans-serif" transform="rotate(272.15,877,770)">Sorted</text><text x="921" y="770" style="stroke-width:0;stroke:none;fill:rgba(70,70,70,1.0);font-size:12.8px;font-family:'Roboto Medium',sans-serif" transform="rotate(272.15,921,770)">Valley</text><path  d="M 72 484
L 106 484
L 106 669
L 72 669
L 72 484" style="stroke-width:0;stroke:none;fill:rgba(84,112,198,1.0)"/><path  d="M 116 437
L 150 437
L 150 669
L 116 669
L 116 437" style="stroke-width:0;stroke:none;fill:rgba(84,112,198,1.0)"/><path  d="M 160 437
L 194 437
L 194 669
L 160 669
L 160 437" style="stroke-width:0;stroke:none;fill:rgba(84,112,198,1.0)"/><path  d="M 204 484
L 238 484
L 238 669
L 204 669
L 204 484" style="stroke-width:0;stroke:none;fill:rgba(84,112,198,1.0)"/><path  d="M 248 350
L 282 350
L 282 669
L 248 669
L 248 350" style="stroke-width:0;stroke:none;fill:rgba(84,112,198,1.0)"/><path  d="M 292 364
L 326 364
L 326 669
L 292 669
L 292 364" style="stroke-width:0;stroke:none;fill:rgba(84,112,198,1.0)"/><path  d="M 336 484
L 370 484
L 370 669
L 336 669
L 336 484" style="stroke-width:0;stroke:none;fill:rgba(84,112,198,1.0)"/><path  d="M 381 417
L 415 417
L 415 669
L 381 669
L 381 417" style="stroke-width:0;stroke:none;fill:rgba(84,112,198,1.0)"/><path  d="M 425 470
L 459 470
L 459 669
L 425 669
L 425 470" style="stroke-width:0;stroke:none;fill:rgba(84,112,198,1.0)"/><path  d="M 469 197
L 503 197
L 503 669
L 469 669
L 469 197" style="stroke-width:0;stroke:none;fill:rgba(84,112,198,1.0)"/><path  d="M 513 317
L 547 317
L 547 669
L 513 669
L 513 317" style="stroke-width:0;stroke:none;fill:rgba(84,112,198,1.0)"/><path  d="M 557 230
L 591 230
L 591 669
L 557 669
L 557 230" style="stroke-width:0;stroke:none;fill:rgba(84,112,198,1.0)"/><path  d="M 601 204
L 635 204
L 635 669
L 601 669
L 601 204" style="stroke-width:0;stroke:none;fill:rgba(84,112,198,1.0)"/><path  d="M 645 564
L 679 564
L 679 669
L 645 669
L 645 564" style="stroke-width:0;stroke:none;fill:rgba(84,112,198,1.0)"/><path  d="M 690 370
L 724 370
L 724 669
L 690 669
L 690 370" style="stroke-width:0;stroke:none;fill:rgba(84,112,198,1.0)"/><path  d="M 734 317
L 768 317
L 768 669
L 734 669
L 734 317" style="stroke-width:0;stroke:none;fill:rgba(84,112,198,1.0)"/><path  d="M 778 404
L 812 404
L 812 669
L 778 669
L 778 404" style="stroke-width:0;stroke:none;fill:rgba(84,112,198,1.0)"/><path  d="M 822 430
L 856 430
L 856 669
L 822 669
L 822 430" style="stroke-width:0;stroke:none;fill:rgba(84,112,198,1.0)"/><path  d="M 866 530
L 900 530
L 900 669
L 866 669
L 866 530" style="stroke-width:0;stroke:none;fill:rgba(84,112,198,1.0)"/><path  d="M 910 350
L 944 350
L 944 669
L 910 669
L 910 350" style="stroke-width:0;stroke:none;fill:rgba(84,112,198,1.0)"/><path  d="M 483 189
A 15 15 330.00 1 1 489 189
L 486 175
Z" style="stroke-width:0;stroke:none;fill:rgba(84,112,198,1.0)"/><path  d="M 471 175
Q486,212 501,175
Z" style="stroke-width:0;stroke:none;fill:rgba(84,112,198,1.0)"/><text x="470" y="180" style="stroke-width:0;stroke:none;fill:rgba(238,238,238,1.0);font-size:10.2px;font-family:'Roboto Medium',sans-serif">202.00</text><path  d="M 659 556
A 15 15 330.00 1 1 665 556
L 662 542
Z" style="stroke-width:0;stroke:none;fill:rgba(84,112,198,1.0)"/><path  d="M 647 542
Q662,579 677,542
Z" style="stroke-width:0;stroke:none;fill:rgba(84,112,198,1.0)"/><text x="649" y="547" style="stroke-width:0;stroke:none;fill:rgba(238,238,238,1.0);font-size:10.2px;font-family:'Roboto Medium',sans-serif">92.00</text><circle cx="70" cy="392" r="3" style="stroke-width:1;stroke:rgba(84,112,198,1.0);fill:rgba(84,112,198,1.0)"/><path stroke-dasharray="4.0, 2.0" d="" style="stroke-width:1;stroke:rgba(84,112,198,1.0);fill:rgba(84,112,198,1.0)"/><path stroke-dasharray="4.0, 2.0" d="M 76 392
L 932 392" style="stroke-width:1;stroke:rgba(84,112,198,1.0);fill:rgba(84,112,198,1.0)"/><path stroke-dasharray="4.0, 2.0" d="M 932 387
L 948 392
L 932 397
L 937 392
L 932 387" style="stroke-width:1;stroke:rgba(84,112,198,1.0);fill:rgba(84,112,198,1.0)"/><text x="950" y="396" style="stroke-width:0;stroke:none;fill:rgba(70,70,70,1.0);font-size:12.8px;font-family:'Roboto Medium',sans-serif">143.5</text></svg>