<svg xmlns="http://www.w3.org/2000/svg" xmlns:xlink="http://www.w3.org/1999/xlink" width="1000" height="800">\n<path  d="M 0 0
L 1000 0
L 1000 800
L 0 800
L 0 0" style="stroke-width:0;stroke:none;fill:rgba(255,255,255,1.0)"/><path  d="M 476 44
L 506 44" style="stroke-width:3;stroke:rgba(84,112,198,1.0);fill:rgba(84,112,198,1.0)"/><circle cx="491" cy="44" r="5" style="stroke-width:3;stroke:rgba(84,112,198,1.0);fill:rgba(84,112,198,1.0)"/><path  d="" style="stroke-width:3;stroke:rgba(84,112,198,1.0);fill:rgba(84,112,198,1.0)"/><text x="508" y="50" style="stroke-width:0;stroke:none;fill:rgba(70,70,70,1.0);font-size:15.3px;font-family:'Roboto Medium',sans-serif">100</text><text x="10" y="35" style="stroke-width:0;stroke:none;fill:rgba(70,70,70,1.0);font-size:25.6px;font-family:'Roboto Medium',sans-serif">PostmanSort</text><text x="10" y="77" style="stroke-width:0;stroke:none;fill:rgba(70,70,70,1.0);font-size:15.3px;font-family:'Roboto Medium',sans-serif">37.24k ns</text><text x="10" y="177" style="stroke-width:0;stroke:none;fill:rgba(70,70,70,1.0);font-size:15.3px;font-family:'Roboto Medium',sans-serif">31.92k ns</text><text x="19" y="277" style="stroke-width:0;stroke:none;fill:rgba(70,70,70,1.0);font-size:15.3px;font-family:'Roboto Medium',sans-serif">26.6k ns</text><text x="10" y="377" style="stroke-width:0;stroke:none;fill:rgba(70,70,70,1.0);font-size:15.3px;font-family:'Roboto Medium',sans-serif">21.28k ns</text><text x="10" y="477" style="stroke-width:0;stroke:none;fill:rgba(70,70,70,1.0);font-size:15.3px;font-family:'Roboto Medium',sans-serif">15.96k ns</text><text x="10" y="577" style="stroke-width:0;stroke:none;fill:rgba(70,70,70,1.0);font-size:15.3px;font-family:'Roboto Medium',sans-serif">10.64k ns</text><text x="19" y="677" style="stroke-width:0;stroke:none;fill:rgba(70,70,70,1.0);font-size:15.3px;font-family:'Roboto Medium',sans-serif">5.32k ns</text><path  d="M 88 70
L 950 70" style="stroke-width:1;stroke:rgba(224,230,242,1.0);fill:none"/><path  d="M 88 170
L 950 170" style="stroke-width:1;stroke:rgba(224,230,242,1.0);fill:none"/><path  d="M 88 270
L 950 270" style="stroke-width:1;stroke:rgba(224,230,242,1.0);fill:none"/><path  d="M 88 370
L 950 370" style="stroke-width:1;stroke:rgba(224,230,242,1.0);fill:none"/><path  d="M 88 470
L 950 470" style="stroke-width:1;stroke:rgba(224,230,242,1.0);fill:none"/><path  d="M 88 570
L 950 570" style="stroke-width:1;stroke:rgba(224,230,242,1.0);fill:none"/><path  d="M 88 675
L 88 670" style="stroke-width:1;stroke:rgba(110,112,121,1.0);fill:none"/><path  d="M 131 675
L 131 670" style="stroke-width:1;stroke:rgba(110,112,121,1.0);fill:none"/><path  d="M 174 675
L 174 670" style="stroke-width:1;stroke:rgba(110,112,121,1.0);fill:none"/><path  d="M 217 675
L 217 670" style="stroke-width:1;stroke:rgba(110,112,121,1.0);fill:none"/><path  d="M 260 675
L 260 670" style="stroke-width:1;stroke:rgba(110,112,121,1.0);fill:none"/><path  d="M 303 675
L 303 670" style="stroke-width:1;stroke:rgba(110,112,121,1.0);fill:none"/><path  d="M 346 675
L 346 670" style="stroke-width:1;stroke:rgba(110,112,121,1.0);fill:none"/><path  d="M 389 675
L 389 670" style="stroke-width:1;stroke:rgba(110,112,121,1.0);fill:none"/><path  d="M 432 675
L 432 670" style="stroke-width:1;stroke:rgba(110,112,121,1.0);fill:none"/><path  d="M 475 675
L 475 670" style="stroke-width:1;stroke:rgba(110,112,121,1.0);fill:none"/><path  d="M 519 675
L 519 670" style="stroke-width:1;stroke:rgba(110,112,121,1.0);fill:none"/><path  d="M 562 675
L 562 670" style="stroke-width:1;stroke:rgba(110,112,121,1.0);fill:none"/><path  d="M 605 675
L 605 670" style="stroke-width:1;stroke:rgba(110,112,121,1.0);fill:none"/><path  d="M 648 675
L 648 670" style="stroke-width:1;stroke:rgba(110,112,121,1.0);fill:none"/><path  d="M 691 675
L 691 670" style="stroke-width:1;stroke:rgba(110,112,121,1.0);fill:none"/><path  d="M 734 675
L 734 670" style="stroke-width:1;stroke:rgba(110,112,121,1.0);fill:none"/><path  d="M 777 675
L 777 670" style="stroke-width:1;stroke:rgba(110,112,121,1.0);fill:none"/><path  d="M 820 675
L 820 670" style="stroke-width:1;stroke:rgba(110,112,121,1.0);fill:none"/><path  d="M 863 675
L 863 670" style="stroke-width:1;stroke:rgba(110,112,121,1.0);fill:none"/><path  d="M 906 675
L 906 670" style="stroke-width:1;stroke:rgba(110,112,121,1.0);fill:none"/><path  d="M 950 675
L 950 670" style="stroke-width:1;stroke:rgba(110,112,121,1.0);fill:none"/><path  d="M 88 670
L 950 670" style="stroke-width:1;stroke:rgba(110,112,121,1.0);fill:none"/><text x="103" y="770" style="stroke-width:0;stroke:none;fill:rgba(70,70,70,1.0);font-size:12.8px;font-family:'Roboto Medium',sans-serif" transform="rotate(272.15,103,770)">AllZero</text><text x="145" y="770" style="stroke-width:0;stroke:none;fill:rgba(70,70,70,1.0);font-size:12.8px;font-family:'Roboto Medium',sans-serif" transform="rotate(272.15,145,770)">BackToFront</text><text x="188" y="770" style="stroke-width:0;stroke:none;fill:rgba(70,70,70,1.0);font-size:12.8px;font-family:'Roboto Medium',sans-serif" transform="rotate(272.15,188,770)">FrontToBack</text><text x="231" y="770" style="stroke-width:0;stroke:none;fill:rgba(70,70,70,1.0);font-size:12.8px;font-family:'Roboto Medium',sans-serif" transform="rotate(272.15,231,770)">MiddleToBack</text><text x="274" y="770" style="stroke-width:0;stroke:none;fill:rgba(70,70,70,1.0);font-size:12.8px;font-family:'Roboto Medium',sans-serif" transform="rotate(272.15,274,770)">Mountain</text><text x="317" y="770" style="stroke-width:0;stroke:none;fill:rgba(70,70,70,1.0);font-size:12.8px;font-family:'Roboto Medium',sans-serif" transform="rotate(272.15,317,770)">NearlyReversed</text><text x="360" y="770" style="stroke-width:0;stroke:none;fill:rgba(70,70,70,1.0);font-size:12.8px;font-family:'Roboto Medium',sans-serif" transform="rotate(272.15,360,770)">NearlySorted</text><text x="404" y="770" style="stroke-width:0;stroke:none;fill:rgba(70,70,70,1.0);font-size:12.8px;font-family:'Roboto Medium',sans-serif" transform="rotate(272.15,404,770)">Plateau</text><text x="446" y="770" style="stroke-width:0;stroke:none;fill:rgba(70,70,70,1.0);font-size:12.8px;font-family:'Roboto Medium',sans-serif" transform="rotate(272.15,446,770)">PushMiddle</text><text x="491" y="770" style="stroke-width:0;stroke:none;fill:rgba(70,70,70,1.0);font-size:12.8px;font-family:'Roboto Medium',sans-serif" transform="rotate(272.15,491,770)">Random</text><text x="533" y="770" style="stroke-width:0;stroke:none;fill:rgba(70,70,70,1.0);font-size:12.8px;font-family:'Roboto Medium',sans-serif" transform="rotate(272.15,533,770)">RandomMaxN</text><text x="576" y="770" style="stroke-width:0;stroke:none;fill:rgba(70,70,70,1.0);font-size:12.8px;font-family:'Roboto Medium',sans-serif" transform="rotate(272.15,576,770)">RandomMod16</text><text x="619" y="770" style="stroke-width:0;stroke:none;fill:rgba(70,70,70,1.0);font-size:12.8px;font-family:'Roboto Medium',sans-serif" transform="rotate(272.15,619,770)">RandomMod8</text><text x="662" y="770" style="stroke-width:0;stroke:none;fill:rgba(70,70,70,1.0);font-size:12.8px;font-family:'Roboto Medium',sans-serif" transform="rotate(272.15,662,770)">RepeatedMod16</text><text x="705" y="770" style="stroke-width:0;stroke:none;fill:rgba(70,70,70,1.0);font-size:12.8px;font-family:'Roboto Medium',sans-serif" transform="rotate(272.15,705,770)">RepeatedMod8</text><text x="748" y="770" style="stroke-width:0;stroke:none;fill:rgba(70,70,70,1.0);font-size:12.8px;font-family:'Roboto Medium',sans-serif" transform="rotate(272.15,748,770)">Reversed</text><text x="792" y="770" style="stroke-width:0;stroke:none;fill:rgba(70,70,70,1.0);font-size:12.8px;font-family:'Roboto Medium',sans-serif" transform="rotate(272.15,792,770)">Rotated</text><text x="834" y="770" style="stroke-width:0;stroke:none;fill:rgba(70,70,70,1.0);font-size:12.8px;font-family:'Roboto Medium',sans-serif" transform="rotate(272.15,834,770)">SmallHills</text><text x="878" y="770" style="stroke-width:0;stroke:none;fill:rgba(70,70,70,1.0);font-size:12.8px;font-family:'Roboto Medium',sans-serif" transform="rotate(272.15,878,770)">Sorted</text><text x="922" y="770" style="stroke-width:0;stroke:none;fill:rgba(70,70,70,1.0);font-size:12.8px;font-family:'Roboto Medium',sans-serif" transform="rotate(272.15,922,770)">Valley</text><path  d="M 93 642
L 126 642
L 126 669
L 93 669
L 93 642" style="stroke-width:0;stroke:none;fill:rgba(84,112,198,1.0)"/><path  d="M 136 601
L 169 601
L 169 669
L 136 669
L 136 601" style="stroke-width:0;stroke:none;fill:rgba(84,112,198,1.0)"/><path  d="M 179 537
L 212 537
L 212 669
L 179 669
L 179 537" style="stroke-width:0;stroke:none;fill:rgba(84,112,198,1.0)"/><path  d="M 222 510
L 255 510
L 255 669
L 222 669
L 222 510" style="stroke-width:0;stroke:none;fill:rgba(84,112,198,1.0)"/><path  d="M 265 582
L 298 582
L 298 669
L 265 669
L 265 582" style="stroke-width:0;stroke:none;fill:rgba(84,112,198,1.0)"/><path  d="M 308 514
L 341 514
L 341 669
L 308 669
L 308 514" style="stroke-width:0;stroke:none;fill:rgba(84,112,198,1.0)"/><path  d="M 351 591
L 384 591
L 384 669
L 351 669
L 351 591" style="stroke-width:0;stroke:none;fill:rgba(84,112,198,1.0)"/><path  d="M 394 594
L 427 594
L 427 669
L 394 669
L 394 594" style="stroke-width:0;stroke:none;fill:rgba(84,112,198,1.0)"/><path  d="M 437 563
L 470 563
L 470 669
L 437 669
L 437 563" style="stroke-width:0;stroke:none;fill:rgba(84,112,198,1.0)"/><path  d="M 480 372
L 513 372
L 513 669
L 480 669
L 480 372" style="stroke-width:0;stroke:none;fill:rgba(84,112,198,1.0)"/><path  d="M 524 511
L 557 511
L 557 669
L 524 669
L 524 511" style="stroke-width:0;stroke:none;fill:rgba(84,112,198,1.0)"/><path  d="M 567 585
L 600 585
L 600 669
L 567 669
L 567 585" style="stroke-width:0;stroke:none;fill:rgba(84,112,198,1.0)"/><path  d="M 610 656
L 643 656
L 643 669
L 610 669
L 610 656" style="stroke-width:0;stroke:none;fill:rgba(84,112,198,1.0)"/><path  d="M 653 575
L 686 575
L 686 669
L 653 669
L 653 575" style="stroke-width:0;stroke:none;fill:rgba(84,112,198,1.0)"/><path  d="M 696 647
L 729 647
L 729 669
L 696 669
L 696 647" style="stroke-width:0;stroke:none;fill:rgba(84,112,198,1.0)"/><path  d="M 739 526
L 772 526
L 772 669
L 739 669
L 739 526" style="stroke-width:0;stroke:none;fill:rgba(84,112,198,1.0)"/><path  d="M 782 597
L 815 597
L 815 669
L 782 669
L 782 597" style="stroke-width:0;stroke:none;fill:rgba(84,112,198,1.0)"/><path  d="M 825 586
L 858 586
L 858 669
L 825 669
L 825 586" style="stroke-width:0;stroke:none;fill:rgba(84,112,198,1.0)"/><path  d="M 868 593
L 901 593
L 901 669
L 868 669
L 868 593" style="stroke-width:0;stroke:none;fill:rgba(84,112,198,1.0)"/><path  d="M 911 132
L 944 132
L 944 669
L 911 669
L 911 132" style="stroke-width:0;stroke:none;fill:rgba(84,112,198,1.0)"/><path  d="M 924 124
A 15 15 330.00 1 1 930 124
L 927 110
Z" style="stroke-width:0;stroke:none;fill:rgba(84,112,198,1.0)"/><path  d="M 912 110
Q927,147 942,110
Z" style="stroke-width:0;stroke:none;fill:rgba(84,112,198,1.0)"/><text x="911" y="115" style="stroke-width:0;stroke:none;fill:rgba(238,238,238,1.0);font-size:10.2px;font-family:'Roboto Medium',sans-serif">33.98k</text><path  d="M 623 648
A 15 15 330.00 1 1 629 648
L 626 634
Z" style="stroke-width:0;stroke:none;fill:rgba(84,112,198,1.0)"/><path  d="M 611 634
Q626,671 641,634
Z" style="stroke-width:0;stroke:none;fill:rgba(84,112,198,1.0)"/><text x="613" y="639" style="stroke-width:0;stroke:none;fill:rgba(238,238,238,1.0);font-size:10.2px;font-family:'Roboto Medium',sans-serif">6.07k</text><circle cx="91" cy="546" r="3" style="stroke-width:1;stroke:rgba(84,112,198,1.0);fill:rgba(84,112,198,1.0)"/><path stroke-dasharray="4.0, 2.0" d="" style="stroke-width:1;stroke:rgba(84,112,198,1.0);fill:rgba(84,112,198,1.0)"/><path stroke-dasharray="4.0, 2.0" d="M 97 546
L 932 546" style="stroke-width:1;stroke:rgba(84,112,198,1.0);fill:rgba(84,112,198,1.0)"/><path stroke-dasharray="4.0, 2.0" d="M 932 541
L 948 546
L 932 551
L 937 546
L 932 541" style="stroke-width:1;stroke:rgba(84,112,198,1.0);fill:rgba(84,112,198,1.0)"/><text x="950" y="550" style="stroke-width:0;stroke:none;fill:rgba(70,70,70,1.0);font-size:12.8px;font-family:'Roboto Medium',sans-serif">11.95k</text></svg>