<svg xmlns="http://www.w3.org/2000/svg" xmlns:xlink="http://www.w3.org/1999/xlink" width="1000" height="800">\n<path  d="M 0 0
L 1000 0
L 1000 800
L 0 800
L 0 0" style="stroke-width:0;stroke:none;fill:rgba(255,255,255,1.0)"/><path  d="M 463 44
L 493 44" style="stroke-width:3;stroke:rgba(84,112,198,1.0);fill:rgba(84,112,198,1.0)"/><circle cx="478" cy="44" r="5" style="stroke-width:3;stroke:rgba(84,112,198,1.0);fill:rgba(84,112,198,1.0)"/><path  d="" style="stroke-width:3;stroke:rgba(84,112,198,1.0);fill:rgba(84,112,198,1.0)"/><text x="495" y="50" style="stroke-width:0;stroke:none;fill:rgba(70,70,70,1.0);font-size:15.3px;font-family:'Roboto Medium',sans-serif">100000</text><text x="10" y="35" style="stroke-width:0;stroke:none;fill:rgba(70,70,70,1.0);font-size:25.6px;font-family:'Roboto Medium',sans-serif">PostmanSort</text><text x="10" y="77" style="stroke-width:0;stroke:none;fill:rgba(70,70,70,1.0);font-size:15.3px;font-family:'Roboto Medium',sans-serif">15.11M ns</text><text x="10" y="177" style="stroke-width:0;stroke:none;fill:rgba(70,70,70,1.0);font-size:15.3px;font-family:'Roboto Medium',sans-serif">12.59M ns</text><text x="10" y="277" style="stroke-width:0;stroke:none;fill:rgba(70,70,70,1.0);font-size:15.3px;font-family:'Roboto Medium',sans-serif">10.07M ns</text><text x="18" y="377" style="stroke-width:0;stroke:none;fill:rgba(70,70,70,1.0);font-size:15.3px;font-family:'Roboto Medium',sans-serif">7.55M ns</text><text x="18" y="477" style="stroke-width:0;stroke:none;fill:rgba(70,70,70,1.0);font-size:15.3px;font-family:'Roboto Medium',sans-serif">5.03M ns</text><text x="18" y="577" style="stroke-width:0;stroke:none;fill:rgba(70,70,70,1.0);font-size:15.3px;font-family:'Roboto Medium',sans-serif">2.51M ns</text><text x="54" y="677" style="stroke-width:0;stroke:none;fill:rgba(70,70,70,1.0);font-size:15.3px;font-family:'Roboto Medium',sans-serif">0 ns</text><path  d="M 93 70
L 950 70" style="stroke-width:1;stroke:rgba(224,230,242,1.0);fill:none"/><path  d="M 93 170
L 950 170" style="stroke-width:1;stroke:rgba(224,230,242,1.0);fill:none"/><path  d="M 93 270
L 950 270" style="stroke-width:1;stroke:rgba(224,230,242,1.0);fill:none"/><path  d="M 93 370
L 950 370" style="stroke-width:1;stroke:rgba(224,230,242,1.0);fill:none"/><path  d="M 93 470
L 950 470" style="stroke-width:1;stroke:rgba(224,230,242,1.0);fill:none"/><path  d="M 93 570
L 950 570" style="stroke-width:1;stroke:rgba(224,230,242,1.0);fill:none"/><path  d="M 93 675
L 93 670" style="stroke-width:1;stroke:rgba(110,112,121,1.0);fill:none"/><path  d="M 135 675
L 135 670" style="stroke-width:1;stroke:rgba(110,112,121,1.0);fill:none"/><path  d="M 178 675
L 178 670" style="stroke-width:1;stroke:rgba(110,112,121,1.0);fill:none"/><path  d="M 221 675
L 221 670" style="stroke-width:1;stroke:rgba(110,112,121,1.0);fill:none"/><path  d="M 264 675
L 264 670" style="stroke-width:1;stroke:rgba(110,112,121,1.0);fill:none"/><path  d="M 307 675
L 307 670" style="stroke-width:1;stroke:rgba(110,112,121,1.0);fill:none"/><path  d="M 350 675
L 350 670" style="stroke-width:1;stroke:rgba(110,112,121,1.0);fill:none"/><path  d="M 392 675
L 392 670" style="stroke-width:1;stroke:rgba(110,112,121,1.0);fill:none"/><path  d="M 435 675
L 435 670" style="stroke-width:1;stroke:rgba(110,112,121,1.0);fill:none"/><path  d="M 478 675
L 478 670" style="stroke-width:1;stroke:rgba(110,112,121,1.0);fill:none"/><path  d="M 521 675
L 521 670" style="stroke-width:1;stroke:rgba(110,112,121,1.0);fill:none"/><path  d="M 564 675
L 564 670" style="stroke-width:1;stroke:rgba(110,112,121,1.0);fill:none"/><path  d="M 607 675
L 607 670" style="stroke-width:1;stroke:rgba(110,112,121,1.0);fill:none"/><path  d="M 650 675
L 650 670" style="stroke-width:1;stroke:rgba(110,112,121,1.0);fill:none"/><path  d="M 692 675
L 692 670" style="stroke-width:1;stroke:rgba(110,112,121,1.0);fill:none"/><path  d="M 735 675
L 735 670" style="stroke-width:1;stroke:rgba(110,112,121,1.0);fill:none"/><path  d="M 778 675
L 778 670" style="stroke-width:1;stroke:rgba(110,112,121,1.0);fill:none"/><path  d="M 821 675
L 821 670" style="stroke-width:1;stroke:rgba(110,112,121,1.0);fill:none"/><path  d="M 864 675
L 864 670" style="stroke-width:1;stroke:rgba(110,112,121,1.0);fill:none"/><path  d="M 907 675
L 907 670" style="stroke-width:1;stroke:rgba(110,112,121,1.0);fill:none"/><path  d="M 950 675
L 950 670" style="stroke-width:1;stroke:rgba(110,112,121,1.0);fill:none"/><path  d="M 93 670
L 950 670" style="stroke-width:1;stroke:rgba(110,112,121,1.0);fill:none"/><text x="108" y="770" style="stroke-width:0;stroke:none;fill:rgba(70,70,70,1.0);font-size:12.8px;font-family:'Roboto Medium',sans-serif" transform="rotate(272.15,108,770)">AllZero</text><text x="149" y="770" style="stroke-width:0;stroke:none;fill:rgba(70,70,70,1.0);font-size:12.8px;font-family:'Roboto Medium',sans-serif" transform="rotate(272.15,149,770)">BackToFront</text><text x="192" y="770" style="stroke-width:0;stroke:none;fill:rgba(70,70,70,1.0);font-size:12.8px;font-family:'Roboto Medium',sans-serif" transform="rotate(272.15,192,770)">FrontToBack</text><text x="235" y="770" style="stroke-width:0;stroke:none;fill:rgba(70,70,70,1.0);font-size:12.8px;font-family:'Roboto Medium',sans-serif" transform="rotate(272.15,235,770)">MiddleToBack</text><text x="278" y="770" style="stroke-width:0;stroke:none;fill:rgba(70,70,70,1.0);font-size:12.8px;font-family:'Roboto Medium',sans-serif" transform="rotate(272.15,278,770)">Mountain</text><text x="321" y="770" style="stroke-width:0;stroke:none;fill:rgba(70,70,70,1.0);font-size:12.8px;font-family:'Roboto Medium',sans-serif" transform="rotate(272.15,321,770)">NearlyReversed</text><text x="364" y="770" style="stroke-width:0;stroke:none;fill:rgba(70,70,70,1.0);font-size:12.8px;font-family:'Roboto Medium',sans-serif" transform="rotate(272.15,364,770)">NearlySorted</text><text x="407" y="770" style="stroke-width:0;stroke:none;fill:rgba(70,70,70,1.0);font-size:12.8px;font-family:'Roboto Medium',sans-serif" transform="rotate(272.15,407,770)">Plateau</text><text x="449" y="770" style="stroke-width:0;stroke:none;fill:rgba(70,70,70,1.0);font-size:12.8px;font-family:'Roboto Medium',sans-serif" transform="rotate(272.15,449,770)">PushMiddle</text><text x="493" y="770" style="stroke-width:0;stroke:none;fill:rgba(70,70,70,1.0);font-size:12.8px;font-family:'Roboto Medium',sans-serif" transform="rotate(272.15,493,770)">Random</text><text x="535" y="770" style="stroke-width:0;stroke:none;fill:rgba(70,70,70,1.0);font-size:12.8px;font-family:'Roboto Medium',sans-serif" transform="rotate(272.15,535,770)">RandomMaxN</text><text x="578" y="770" style="stroke-width:0;stroke:none;fill:rgba(70,70,70,1.0);font-size:12.8px;font-family:'Roboto Medium',sans-serif" transform="rotate(272.15,578,770)">RandomMod16</text><text x="621" y="770" style="stroke-width:0;stroke:none;fill:rgba(70,70,70,1.0);font-size:12.8px;font-family:'Roboto Medium',sans-serif" transform="rotate(272.15,621,770)">RandomMod8</text><text x="664" y="770" style="stroke-width:0;stroke:none;fill:rgba(70,70,70,1.0);font-size:12.8px;font-family:'Roboto Medium',sans-serif" transform="rotate(272.15,664,770)">RepeatedMod16</text><text x="706" y="770" style="stroke-width:0;stroke:none;fill:rgba(70,70,70,1.0);font-size:12.8px;font-family:'Roboto Medium',sans-serif" transform="rotate(272.15,706,770)">RepeatedMod8</text><text x="749" y="770" style="stroke-width:0;stroke:none;fill:rgba(70,70,70,1.0);font-size:12.8px;font-family:'Roboto Medium',sans-serif" transform="rotate(272.15,749,770)">Reversed</text><text x="793" y="770" style="stroke-width:0;stroke:none;fill:rgba(70,70,70,1.0);font-size:12.8px;font-family:'Roboto Medium',sans-serif" transform="rotate(272.15,793,770)">Rotated</text><text x="835" y="770" style="stroke-width:0;stroke:none;fill:rgba(70,70,70,1.0);font-size:12.8px;font-family:'Roboto Medium',sans-serif" transform="rotate(272.15,835,770)">SmallHills</text><text x="879" y="770" style="stroke-width:0;stroke:none;fill:rgba(70,70,70,1.0);font-size:12.8px;font-family:'Roboto Medium',sans-serif" transform="rotate(272.15,879,770)">Sorted</text><text x="922" y="770" style="stroke-width:0;stroke:none;fill:rgba(70,70,70,1.0);font-size:12.8px;font-family:'Roboto Medium',sans-serif" transform="rotate(272.15,922,770)">Valley</text><path  d="M 98 603
L 130 603
L 130 669
L 98 669
L 98 603" style="stroke-width:0;stroke:none;fill:rgba(84,112,198,1.0)"/><path  d="M 140 296
L 172 296
L 172 669
L 140 669
L 140 296" style="stroke-width:0;stroke:none;fill:rgba(84,112,198,1.0)"/><path  d="M 183 284
L 215 284
L 215 669
L 183 669
L 183 284" style="stroke-width:0;stroke:none;fill:rgba(84,112,198,1.0)"/><path  d="M 226 295
L 258 295
L 258 669
L 226 669
L 226 295" style="stroke-width:0;stroke:none;fill:rgba(84,112,198,1.0)"/><path  d="M 269 378
L 301 378
L 301 669
L 269 669
L 269 378" style="stroke-width:0;stroke:none;fill:rgba(84,112,198,1.0)"/><path  d="M 312 286
L 344 286
L 344 669
L 312 669
L 312 286" style="stroke-width:0;stroke:none;fill:rgba(84,112,198,1.0)"/><path  d="M 355 300
L 387 300
L 387 669
L 355 669
L 355 300" style="stroke-width:0;stroke:none;fill:rgba(84,112,198,1.0)"/><path  d="M 397 397
L 429 397
L 429 669
L 397 669
L 397 397" style="stroke-width:0;stroke:none;fill:rgba(84,112,198,1.0)"/><path  d="M 440 305
L 472 305
L 472 669
L 440 669
L 440 305" style="stroke-width:0;stroke:none;fill:rgba(84,112,198,1.0)"/><path  d="M 483 79
L 515 79
L 515 669
L 483 669
L 483 79" style="stroke-width:0;stroke:none;fill:rgba(84,112,198,1.0)"/><path  d="M 526 280
L 558 280
L 558 669
L 526 669
L 526 280" style="stroke-width:0;stroke:none;fill:rgba(84,112,198,1.0)"/><path  d="M 569 566
L 601 566
L 601 669
L 569 669
L 569 566" style="stroke-width:0;stroke:none;fill:rgba(84,112,198,1.0)"/><path  d="M 612 614
L 644 614
L 644 669
L 612 669
L 612 614" style="stroke-width:0;stroke:none;fill:rgba(84,112,198,1.0)"/><path  d="M 655 565
L 687 565
L 687 669
L 655 669
L 655 565" style="stroke-width:0;stroke:none;fill:rgba(84,112,198,1.0)"/><path  d="M 697 608
L 729 608
L 729 669
L 697 669
L 697 608" style="stroke-width:0;stroke:none;fill:rgba(84,112,198,1.0)"/><path  d="M 740 307
L 772 307
L 772 669
L 740 669
L 740 307" style="stroke-width:0;stroke:none;fill:rgba(84,112,198,1.0)"/><path  d="M 783 344
L 815 344
L 815 669
L 783 669
L 783 344" style="stroke-width:0;stroke:none;fill:rgba(84,112,198,1.0)"/><path  d="M 826 362
L 858 362
L 858 669
L 826 669
L 826 362" style="stroke-width:0;stroke:none;fill:rgba(84,112,198,1.0)"/><path  d="M 869 313
L 901 313
L 901 669
L 869 669
L 869 313" style="stroke-width:0;stroke:none;fill:rgba(84,112,198,1.0)"/><path  d="M 912 372
L 944 372
L 944 669
L 912 669
L 912 372" style="stroke-width:0;stroke:none;fill:rgba(84,112,198,1.0)"/><path  d="M 496 71
A 15 15 330.00 1 1 502 71
L 499 57
Z" style="stroke-width:0;stroke:none;fill:rgba(84,112,198,1.0)"/><path  d="M 484 57
Q499,94 514,57
Z" style="stroke-width:0;stroke:none;fill:rgba(84,112,198,1.0)"/><text x="481" y="62" style="stroke-width:0;stroke:none;fill:rgba(238,238,238,1.0);font-size:10.2px;font-family:'Roboto Medium',sans-serif">14.89M</text><path  d="M 625 606
A 15 15 330.00 1 1 631 606
L 628 592
Z" style="stroke-width:0;stroke:none;fill:rgba(84,112,198,1.0)"/><path  d="M 613 592
Q628,629 643,592
Z" style="stroke-width:0;stroke:none;fill:rgba(84,112,198,1.0)"/><text x="613" y="597" style="stroke-width:0;stroke:none;fill:rgba(238,238,238,1.0);font-size:10.2px;font-family:'Roboto Medium',sans-serif">1.41M</text><circle cx="96" cy="378" r="3" style="stroke-width:1;stroke:rgba(84,112,198,1.0);fill:rgba(84,112,198,1.0)"/><path stroke-dasharray="4.0, 2.0" d="" style="stroke-width:1;stroke:rgba(84,112,198,1.0);fill:rgba(84,112,198,1.0)"/><path stroke-dasharray="4.0, 2.0" d="M 102 378
L 932 378" style="stroke-width:1;stroke:rgba(84,112,198,1.0);fill:rgba(84,112,198,1.0)"/><path stroke-dasharray="4.0, 2.0" d="M 932 373
L 948 378
L 932 383
L 937 378
L 932 373" style="stroke-width:1;stroke:rgba(84,112,198,1.0);fill:rgba(84,112,198,1.0)"/><text x="950" y="382" style="stroke-width:0;stroke:none;fill:rgba(70,70,70,1.0);font-size:12.8px;font-family:'Roboto Medium',sans-serif">7.37M</text></svg>