<svg xmlns="http://www.w3.org/2000/svg" xmlns:xlink="http://www.w3.org/1999/xlink" width="1000" height="800">\n<path  d="M 0 0
L 1000 0
L 1000 800
L 0 800
L 0 0" style="stroke-width:0;stroke:none;fill:rgba(255,255,255,1.0)"/><path  d="M 481 44
L 511 44" style="stroke-width:3;stroke:rgba(84,112,198,1.0);fill:rgba(84,112,198,1.0)"/><circle cx="496" cy="44" r="5" style="stroke-width:3;stroke:rgba(84,112,198,1.0);fill:rgba(84,112,198,1.0)"/><path  d="" style="stroke-width:3;stroke:rgba(84,112,198,1.0);fill:rgba(84,112,198,1.0)"/><text x="513" y="50" style="stroke-width:0;stroke:none;fill:rgba(70,70,70,1.0);font-size:15.3px;font-family:'Roboto Medium',sans-serif">10</text><text x="10" y="35" style="stroke-width:0;stroke:none;fill:rgba(70,70,70,1.0);font-size:25.6px;font-family:'Roboto Medium',sans-serif">RadixSortLSD</text><text x="23" y="77" style="stroke-width:0;stroke:none;fill:rgba(70,70,70,1.0);font-size:15.3px;font-family:'Roboto Medium',sans-serif">4k ns</text><text x="10" y="177" style="stroke-width:0;stroke:none;fill:rgba(70,70,70,1.0);font-size:15.3px;font-family:'Roboto Medium',sans-serif">3.6k ns</text><text x="10" y="277" style="stroke-width:0;stroke:none;fill:rgba(70,70,70,1.0);font-size:15.3px;font-family:'Roboto Medium',sans-serif">3.2k ns</text><text x="10" y="377" style="stroke-width:0;stroke:none;fill:rgba(70,70,70,1.0);font-size:15.3px;font-family:'Roboto Medium',sans-serif">2.8k ns</text><text x="10" y="477" style="stroke-width:0;stroke:none;fill:rgba(70,70,70,1.0);font-size:15.3px;font-family:'Roboto Medium',sans-serif">2.4k ns</text><text x="23" y="577" style="stroke-width:0;stroke:none;fill:rgba(70,70,70,1.0);font-size:15.3px;font-family:'Roboto Medium',sans-serif">2k ns</text><text x="10" y="677" style="stroke-width:0;stroke:none;fill:rgba(70,70,70,1.0);font-size:15.3px;font-family:'Roboto Medium',sans-serif">1.6k ns</text><path  d="M 70 70
L 950 70" style="stroke-width:1;stroke:rgba(224,230,242,1.0);fill:none"/><path  d="M 70 170
L 950 170" style="stroke-width:1;stroke:rgba(224,230,242,1.0);fill:none"/><path  d="M 70 270
L 950 270" style="stroke-width:1;stroke:rgba(224,230,242,1.0);fill:none"/><path  d="M 70 370
L 950 370" style="stroke-width:1;stroke:rgba(224,230,242,1.0);fill:none"/><path  d="M 70 470
L 950 470" style="stroke-width:1;stroke:rgba(224,230,242,1.0);fill:none"/><path  d="M 70 570
L 950 570" style="stroke-width:1;stroke:rgba(224,230,242,1.0);fill:none"/><path  d="M 70 675
L 70 670" style="stroke-width:1;stroke:rgba(110,112,121,1.0);fill:none"/><path  d="M 114 675
L 114 670" style="stroke-width:1;stroke:rgba(110,112,121,1.0);fill:none"/><path  d="M 158 675
L 158 670" style="stroke-width:1;stroke:rgba(110,112,121,1.0);fill:none"/><path  d="M 202 675
L 202 670" style="stroke-width:1;stroke:rgba(110,112,121,1.0);fill:none"/><path  d="M 246 675
L 246 670" style="stroke-width:1;stroke:rgba(110,112,121,1.0);fill:none"/><path  d="M 290 675
L 290 670" style="stroke-width:1;stroke:rgba(110,112,121,1.0);fill:none"/><path  d="M 334 675
L 334 670" style="stroke-width:1;stroke:rgba(110,112,121,1.0);fill:none"/><path  d="M 378 675
L 378 670" style="stroke-width:1;stroke:rgba(110,112,121,1.0);fill:none"/><path  d="M 422 675
L 422 670" style="stroke-width:1;stroke:rgba(110,112,121,1.0);fill:none"/><path  d="M 466 675
L 466 670" style="stroke-width:1;stroke:rgba(110,112,121,1.0);fill:none"/><path  d="M 510 675
L 510 670" style="stroke-width:1;stroke:rgba(110,112,121,1.0);fill:none"/><path  d="M 554 675
L 554 670" style="stroke-width:1;stroke:rgba(110,112,121,1.0);fill:none"/><path  d="M 598 675
L 598 670" style="stroke-width:1;stroke:rgba(110,112,121,1.0);fill:none"/><path  d="M 642 675
L 642 670" style="stroke-width:1;stroke:rgba(110,112,121,1.0);fill:none"/><path  d="M 686 675
L 686 670" style="stroke-width:1;stroke:rgba(110,112,121,1.0);fill:none"/><path  d="M 730 675
L 730 670" style="stroke-width:1;stroke:rgba(110,112,121,1.0);fill:none"/><path  d="M 774 675
L 774 670" style="stroke-width:1;stroke:rgba(110,112,121,1.0);fill:none"/><path  d="M 818 675
L 818 670" style="stroke-width:1;stroke:rgba(110,112,121,1.0);fill:none"/><path  d="M 862 675
L 862 670" style="stroke-width:1;stroke:rgba(110,112,121,1.0);fill:none"/><path  d="M 906 675
L 906 670" style="stroke-width:1;stroke:rgba(110,112,121,1.0);fill:none"/><path  d="M 950 675
L 950 670" style="stroke-width:1;stroke:rgba(110,112,121,1.0);fill:none"/><path  d="M 70 670
L 950 670" style="stroke-width:1;stroke:rgba(110,112,121,1.0);fill:none"/><text x="86" y="770" style="stroke-width:0;stroke:none;fill:rgba(70,70,70,1.0);font-size:12.8px;font-family:'Roboto Medium',sans-serif" transform="rotate(272.15,86,770)">AllZero</text><text x="129" y="770" style="stroke-width:0;stroke:none;fill:rgba(70,70,70,1.0);font-size:12.8px;font-family:'Roboto Medium',sans-serif" transform="rotate(272.15,129,770)">BackToFront</text><text x="173" y="770" style="stroke-width:0;stroke:none;fill:rgba(70,70,70,1.0);font-size:12.8px;font-family:'Roboto Medium',sans-serif" transform="rotate(272.15,173,770)">FrontToBack</text><text x="217" y="770" style="stroke-width:0;stroke:none;fill:rgba(70,70,70,1.0);font-size:12.8px;font-family:'Roboto Medium',sans-serif" transform="rotate(272.15,217,770)">MiddleToBack</text><text x="261" y="770" style="stroke-width:0;stroke:none;fill:rgba(70,70,70,1.0);font-size:12.8px;font-family:'Roboto Medium',sans-serif" transform="rotate(272.15,261,770)">Mountain</text><text x="305" y="770" style="stroke-width:0;stroke:none;fill:rgba(70,70,70,1.0);font-size:12.8px;font-family:'Roboto Medium',sans-serif" transform="rotate(272.15,305,770)">NearlyReversed</text><text x="349" y="770" style="stroke-width:0;stroke:none;fill:rgba(70,70,70,1.0);font-size:12.8px;font-family:'Roboto Medium',sans-serif" transform="rotate(272.15,349,770)">NearlySorted</text><text x="394" y="770" style="stroke-width:0;stroke:none;fill:rgba(70,70,70,1.0);font-size:12.8px;font-family:'Roboto Medium',sans-serif" transform="rotate(272.15,394,770)">Plateau</text><text x="437" y="770" style="stroke-width:0;stroke:none;fill:rgba(70,70,70,1.0);font-size:12.8px;font-family:'Roboto Medium',sans-serif" transform="rotate(272.15,437,770)">PushMiddle</text><text x="482" y="770" style="stroke-width:0;stroke:none;fill:rgba(70,70,70,1.0);font-size:12.8px;font-family:'Roboto Medium',sans-serif" transform="rotate(272.15,482,770)">Random</text><text x="525" y="770" style="stroke-width:0;stroke:none;fill:rgba(70,70,70,1.0);font-size:12.8px;font-family:'Roboto Medium',sans-serif" transform="rotate(272.15,525,770)">RandomMaxN</text><text x="569" y="770" style="stroke-width:0;stroke:none;fill:rgba(70,70,70,1.0);font-size:12.8px;font-family:'Roboto Medium',sans-serif" transform="rotate(272.15,569,770)">RandomMod16</text><text x="613" y="770" style="stroke-width:0;stroke:none;fill:rgba(70,70,70,1.0);font-size:12.8px;font-family:'Roboto Medium',sans-serif" transform="rotate(272.15,613,770)">RandomMod8</text><text x="657" y="770" style="stroke-width:0;stroke:none;fill:rgba(70,70,70,1.0);font-size:12.8px;font-family:'Roboto Medium',sans-serif" transform="rotate(272.15,657,770)">RepeatedMod16</text><text x="701" y="770" style="stroke-width:0;stroke:none;fill:rgba(70,70,70,1.0);font-size:12.8px;font-family:'Roboto Medium',sans-serif" transform="rotate(272.15,701,770)">RepeatedMod8</text><text x="745" y="770" style="stroke-width:0;stroke:none;fill:rgba(70,70,70,1.0);font-size:12.8px;font-family:'Roboto Medium',sans-serif" transform="rotate(272.15,745,770)">Reversed</text><text x="790" y="770" style="stroke-width:0;stroke:none;fill:rgba(70,70,70,1.0);font-size:12.8px;font-family:'Roboto Medium',sans-serif" transform="rotate(272.15,790,770)">Rotated</text><text x="833" y="770" style="stroke-width:0;stroke:none;fill:rgba(70,70,70,1.0);font-size:12.8px;font-family:'Roboto Medium',sans-serif" transform="rotate(272.15,833,770)">SmallHills</text><text x="878" y="770" style="stroke-width:0;stroke:none;fill:rgba(70,70,70,1.0);font-size:12.8px;font-family:'Roboto Medium',sans-serif" transform="rotate(272.15,878,770)">Sorted</text><text x="922" y="770" style="stroke-width:0;stroke:none;fill:rgba(70,70,70,1.0);font-size:12.8px;font-family:'Roboto Medium',sans-serif" transform="rotate(272.15,922,770)">Valley</text><path  d="M 75 591
L 109 591
L 109 669
L 75 669
L 75 591" style="stroke-width:0;stroke:none;fill:rgba(84,112,198,1.0)"/><path  d="M 119 334
L 153 334
L 153 669
L 119 669
L 119 334" style="stroke-width:0;stroke:none;fill:rgba(84,112,198,1.0)"/><path  d="M 163 436
L 197 436
L 197 669
L 163 669
L 163 436" style="stroke-width:0;stroke:none;fill:rgba(84,112,198,1.0)"/><path  d="M 207 426
L 241 426
L 241 669
L 207 669
L 207 426" style="stroke-width:0;stroke:none;fill:rgba(84,112,198,1.0)"/><path  d="M 251 376
L 285 376
L 285 669
L 251 669
L 251 376" style="stroke-width:0;stroke:none;fill:rgba(84,112,198,1.0)"/><path  d="M 295 455
L 329 455
L 329 669
L 295 669
L 295 455" style="stroke-width:0;stroke:none;fill:rgba(84,112,198,1.0)"/><path  d="M 339 406
L 373 406
L 373 669
L 339 669
L 339 406" style="stroke-width:0;stroke:none;fill:rgba(84,112,198,1.0)"/><path  d="M 383 412
L 417 412
L 417 669
L 383 669
L 383 412" style="stroke-width:0;stroke:none;fill:rgba(84,112,198,1.0)"/><path  d="M 427 425
L 461 425
L 461 669
L 427 669
L 427 425" style="stroke-width:0;stroke:none;fill:rgba(84,112,198,1.0)"/><path  d="M 471 136
L 505 136
L 505 669
L 471 669
L 471 136" style="stroke-width:0;stroke:none;fill:rgba(84,112,198,1.0)"/><path  d="M 515 427
L 549 427
L 549 669
L 515 669
L 515 427" style="stroke-width:0;stroke:none;fill:rgba(84,112,198,1.0)"/><path  d="M 559 384
L 593 384
L 593 669
L 559 669
L 559 384" style="stroke-width:0;stroke:none;fill:rgba(84,112,198,1.0)"/><path  d="M 603 366
L 637 366
L 637 669
L 603 669
L 603 366" style="stroke-width:0;stroke:none;fill:rgba(84,112,198,1.0)"/><path  d="M 647 242
L 681 242
L 681 669
L 647 669
L 647 242" style="stroke-width:0;stroke:none;fill:rgba(84,112,198,1.0)"/><path  d="M 691 346
L 725 346
L 725 669
L 691 669
L 691 346" style="stroke-width:0;stroke:none;fill:rgba(84,112,198,1.0)"/><path  d="M 735 410
L 769 410
L 769 669
L 735 669
L 735 410" style="stroke-width:0;stroke:none;fill:rgba(84,112,198,1.0)"/><path  d="M 779 444
L 813 444
L 813 669
L 779 669
L 779 444" style="stroke-width:0;stroke:none;fill:rgba(84,112,198,1.0)"/><path  d="M 823 379
L 857 379
L 857 669
L 823 669
L 823 379" style="stroke-width:0;stroke:none;fill:rgba(84,112,198,1.0)"/><path  d="M 867 447
L 901 447
L 901 669
L 867 669
L 867 447" style="stroke-width:0;stroke:none;fill:rgba(84,112,198,1.0)"/><path  d="M 911 395
L 945 395
L 945 669
L 911 669
L 911 395" style="stroke-width:0;stroke:none;fill:rgba(84,112,198,1.0)"/><path  d="M 485 128
A 15 15 330.00 1 1 491 128
L 488 114
Z" style="stroke-width:0;stroke:none;fill:rgba(84,112,198,1.0)"/><path  d="M 473 114
Q488,151 503,114
Z" style="stroke-width:0;stroke:none;fill:rgba(84,112,198,1.0)"/><text x="475" y="119" style="stroke-width:0;stroke:none;fill:rgba(238,238,238,1.0);font-size:10.2px;font-family:'Roboto Medium',sans-serif">3.73k</text><path  d="M 89 583
A 15 15 330.00 1 1 95 583
L 92 569
Z" style="stroke-width:0;stroke:none;fill:rgba(84,112,198,1.0)"/><path  d="M 77 569
Q92,606 107,569
Z" style="stroke-width:0;stroke:none;fill:rgba(84,112,198,1.0)"/><text x="79" y="574" style="stroke-width:0;stroke:none;fill:rgba(238,238,238,1.0);font-size:10.2px;font-family:'Roboto Medium',sans-serif">1.91k</text><circle cx="73" cy="392" r="3" style="stroke-width:1;stroke:rgba(84,112,198,1.0);fill:rgba(84,112,198,1.0)"/><path stroke-dasharray="4.0, 2.0" d="" style="stroke-width:1;stroke:rgba(84,112,198,1.0);fill:rgba(84,112,198,1.0)"/><path stroke-dasharray="4.0, 2.0" d="M 79 392
L 932 392" style="stroke-width:1;stroke:rgba(84,112,198,1.0);fill:rgba(84,112,198,1.0)"/><path stroke-dasharray="4.0, 2.0" d="M 932 387
L 948 392
L 932 397
L 937 392
L 932 387" style="stroke-width:1;stroke:rgba(84,112,198,1.0);fill:rgba(84,112,198,1.0)"/><text x="950" y="396" style="stroke-width:0;stroke:none;fill:rgba(70,70,70,1.0);font-size:12.8px;font-family:'Roboto Medium',sans-serif">2.71k</text></svg>