<svg xmlns="http://www.w3.org/2000/svg" xmlns:xlink="http://www.w3.org/1999/xlink" width="1000" height="800">\n<path  d="M 0 0
L 1000 0
L 1000 800
L 0 800
L 0 0" style="stroke-width:0;stroke:none;fill:rgba(255,255,255,1.0)"/><path  d="M 481 44
L 511 44" style="stroke-width:3;stroke:rgba(84,112,198,1.0);fill:rgba(84,112,198,1.0)"/><circle cx="496" cy="44" r="5" style="stroke-width:3;stroke:rgba(84,112,198,1.0);fill:rgba(84,112,198,1.0)"/><path  d="" style="stroke-width:3;stroke:rgba(84,112,198,1.0);fill:rgba(84,112,198,1.0)"/><text x="513" y="50" style="stroke-width:0;stroke:none;fill:rgba(70,70,70,1.0);font-size:15.3px;font-family:'Roboto Medium',sans-serif">10</text><text x="10" y="35" style="stroke-width:0;stroke:none;fill:rgba(70,70,70,1.0);font-size:25.6px;font-family:'Roboto Medium',sans-serif">SampleSort</text><text x="10" y="77" style="stroke-width:0;stroke:none;fill:rgba(70,70,70,1.0);font-size:15.3px;font-family:'Roboto Medium',sans-serif">70 ns</text><text x="10" y="177" style="stroke-width:0;stroke:none;fill:rgba(70,70,70,1.0);font-size:15.3px;font-family:'Roboto Medium',sans-serif">60 ns</text><text x="10" y="277" style="stroke-width:0;stroke:none;fill:rgba(70,70,70,1.0);font-size:15.3px;font-family:'Roboto Medium',sans-serif">50 ns</text><text x="10" y="377" style="stroke-width:0;stroke:none;fill:rgba(70,70,70,1.0);font-size:15.3px;font-family:'Roboto Medium',sans-serif">40 ns</text><text x="10" y="477" style="stroke-width:0;stroke:none;fill:rgba(70,70,70,1.0);font-size:15.3px;font-family:'Roboto Medium',sans-serif">30 ns</text><text x="10" y="577" style="stroke-width:0;stroke:none;fill:rgba(70,70,70,1.0);font-size:15.3px;font-family:'Roboto Medium',sans-serif">20 ns</text><text x="10" y="677" style="stroke-width:0;stroke:none;fill:rgba(70,70,70,1.0);font-size:15.3px;font-family:'Roboto Medium',sans-serif">10 ns</text><path  d="M 58 70
L 950 70" style="stroke-width:1;stroke:rgba(224,230,242,1.0);fill:none"/><path  d="M 58 170
L 950 170" style="stroke-width:1;stroke:rgba(224,230,242,1.0);fill:none"/><path  d="M 58 270
L 950 270" style="stroke-width:1;stroke:rgba(224,230,242,1.0);fill:none"/><path  d="M 58 370
L 950 370" style="stroke-width:1;stroke:rgba(224,230,242,1.0);fill:none"/><path  d="M 58 470
L 950 470" style="stroke-width:1;stroke:rgba(224,230,242,1.0);fill:none"/><path  d="M 58 570
L 950 570" style="stroke-width:1;stroke:rgba(224,230,242,1.0);fill:none"/><path  d="M 58 675
L 58 670" style="stroke-width:1;stroke:rgba(110,112,121,1.0);fill:none"/><path  d="M 102 675
L 102 670" style="stroke-width:1;stroke:rgba(110,112,121,1.0);fill:none"/><path  d="M 147 675
L 147 670" style="stroke-width:1;stroke:rgba(110,112,121,1.0);fill:none"/><path  d="M 191 675
L 191 670" style="stroke-width:1;stroke:rgba(110,112,121,1.0);fill:none"/><path  d="M 236 675
L 236 670" style="stroke-width:1;stroke:rgba(110,112,121,1.0);fill:none"/><path  d="M 281 675
L 281 670" style="stroke-width:1;stroke:rgba(110,112,121,1.0);fill:none"/><path  d="M 325 675
L 325 670" style="stroke-width:1;stroke:rgba(110,112,121,1.0);fill:none"/><path  d="M 370 675
L 370 670" style="stroke-width:1;stroke:rgba(110,112,121,1.0);fill:none"/><path  d="M 414 675
L 414 670" style="stroke-width:1;stroke:rgba(110,112,121,1.0);fill:none"/><path  d="M 459 675
L 459 670" style="stroke-width:1;stroke:rgba(110,112,121,1.0);fill:none"/><path  d="M 504 675
L 504 670" style="stroke-width:1;stroke:rgba(110,112,121,1.0);fill:none"/><path  d="M 548 675
L 548 670" style="stroke-width:1;stroke:rgba(110,112,121,1.0);fill:none"/><path  d="M 593 675
L 593 670" style="stroke-width:1;stroke:rgba(110,112,121,1.0);fill:none"/><path  d="M 637 675
L 637 670" style="stroke-width:1;stroke:rgba(110,112,121,1.0);fill:none"/><path  d="M 682 675
L 682 670" style="stroke-width:1;stroke:rgba(110,112,121,1.0);fill:none"/><path  d="M 727 675
L 727 670" style="stroke-width:1;stroke:rgba(110,112,121,1.0);fill:none"/><path  d="M 771 675
L 771 670" style="stroke-width:1;stroke:rgba(110,112,121,1.0);fill:none"/><path  d="M 816 675
L 816 670" style="stroke-width:1;stroke:rgba(110,112,121,1.0);fill:none"/><path  d="M 860 675
L 860 670" style="stroke-width:1;stroke:rgba(110,112,121,1.0);fill:none"/><path  d="M 905 675
L 905 670" style="stroke-width:1;stroke:rgba(110,112,121,1.0);fill:none"/><path  d="M 950 675
L 950 670" style="stroke-width:1;stroke:rgba(110,112,121,1.0);fill:none"/><path  d="M 58 670
L 950 670" style="stroke-width:1;stroke:rgba(110,112,121,1.0);fill:none"/><text x="74" y="770" style="stroke-width:0;stroke:none;fill:rgba(70,70,70,1.0);font-size:12.8px;font-family:'Roboto Medium',sans-serif" transform="rotate(272.15,74,770)">AllZero</text><text x="117" y="770" style="stroke-width:0;stroke:none;fill:rgba(70,70,70,1.0);font-size:12.8px;font-family:'Roboto Medium',sans-serif" transform="rotate(272.15,117,770)">BackToFront</text><text x="162" y="770" style="stroke-width:0;stroke:none;fill:rgba(70,70,70,1.0);font-size:12.8px;font-family:'Roboto Medium',sans-serif" transform="rotate(272.15,162,770)">FrontToBack</text><text x="206" y="770" style="stroke-width:0;stroke:none;fill:rgba(70,70,70,1.0);font-size:12.8px;font-family:'Roboto Medium',sans-serif" transform="rotate(272.15,206,770)">MiddleToBack</text><text x="251" y="770" style="stroke-width:0;stroke:none;fill:rgba(70,70,70,1.0);font-size:12.8px;font-family:'Roboto Medium',sans-serif" transform="rotate(272.15,251,770)">Mountain</text><text x="296" y="770" style="stroke-width:0;stroke:none;fill:rgba(70,70,70,1.0);font-size:12.8px;font-family:'Roboto Medium',sans-serif" transform="rotate(272.15,296,770)">NearlyReversed</text><text x="340" y="770" style="stroke-width:0;stroke:none;fill:rgba(70,70,70,1.0);font-size:12.8px;font-family:'Roboto Medium',sans-serif" transform="rotate(272.15,340,770)">NearlySorted</text><text x="386" y="770" style="stroke-width:0;stroke:none;fill:rgba(70,70,70,1.0);font-size:12.8px;font-family:'Roboto Medium',sans-serif" transform="rotate(272.15,386,770)">Plateau</text><text x="429" y="770" style="stroke-width:0;stroke:none;fill:rgba(70,70,70,1.0);font-size:12.8px;font-family:'Roboto Medium',sans-serif" transform="rotate(272.15,429,770)">PushMiddle</text><text x="475" y="770" style="stroke-width:0;stroke:none;fill:rgba(70,70,70,1.0);font-size:12.8px;font-family:'Roboto Medium',sans-serif" transform="rotate(272.15,475,770)">Random</text><text x="519" y="770" style="stroke-width:0;stroke:none;fill:rgba(70,70,70,1.0);font-size:12.8px;font-family:'Roboto Medium',sans-serif" transform="rotate(272.15,519,770)">RandomMaxN</text><text x="563" y="770" style="stroke-width:0;stroke:none;fill:rgba(70,70,70,1.0);font-size:12.8px;font-family:'Roboto Medium',sans-serif" transform="rotate(272.15,563,770)">RandomMod16</text><text x="608" y="770" style="stroke-width:0;stroke:none;fill:rgba(70,70,70,1.0);font-size:12.8px;font-family:'Roboto Medium',sans-serif" transform="rotate(272.15,608,770)">RandomMod8</text><text x="652" y="770" style="stroke-width:0;stroke:none;fill:rgba(70,70,70,1.0);font-size:12.8px;font-family:'Roboto Medium',sans-serif" transform="rotate(272.15,652,770)">RepeatedMod16</text><text x="697" y="770" style="stroke-width:0;stroke:none;fill:rgba(70,70,70,1.0);font-size:12.8px;font-family:'Roboto Medium',sans-serif" transform="rotate(272.15,697,770)">RepeatedMod8</text><text x="742" y="770" style="stroke-width:0;stroke:none;fill:rgba(70,70,70,1.0);font-size:12.8px;font-family:'Roboto Medium',sans-serif" transform="rotate(272.15,742,770)">Reversed</text><text x="787" y="770" style="stroke-width:0;stroke:none;fill:rgba(70,70,70,1.0);font-size:12.8px;font-family:'Roboto Medium',sans-serif" transform="rotate(272.15,787,770)">Rotated</text><text x="831" y="770" style="stroke-width:0;stroke:none;fill:rgba(70,70,70,1.0);font-size:12.8px;font-family:'Roboto Medium',sans-serif" transform="rotate(272.15,831,770)">SmallHills</text><text x="876" y="770" style="stroke-width:0;stroke:none;fill:rgba(70,70,70,1.0);font-size:12.8px;font-family:'Roboto Medium',sans-serif" transform="rotate(272.15,876,770)">Sorted</text><text x="921" y="770" style="stroke-width:0;stroke:none;fill:rgba(70,70,70,1.0);font-size:12.8px;font-family:'Roboto Medium',sans-serif" transform="rotate(272.15,921,770)">Valley</text><path  d="M 63 600
L 97 600
L 97 669
L 63 669
L 63 600" style="stroke-width:0;stroke:none;fill:rgba(84,112,198,1.0)"/><path  d="M 107 526
L 141 526
L 141 669
L 107 669
L 107 526" style="stroke-width:0;stroke:none;fill:rgba(84,112,198,1.0)"/><path  d="M 152 538
L 186 538
L 186 669
L 152 669
L 152 538" style="stroke-width:0;stroke:none;fill:rgba(84,112,198,1.0)"/><path  d="M 196 574
L 230 574
L 230 669
L 196 669
L 196 574" style="stroke-width:0;stroke:none;fill:rgba(84,112,198,1.0)"/><path  d="M 241 488
L 275 488
L 275 669
L 241 669
L 241 488" style="stroke-width:0;stroke:none;fill:rgba(84,112,198,1.0)"/><path  d="M 286 348
L 320 348
L 320 669
L 286 669
L 286 348" style="stroke-width:0;stroke:none;fill:rgba(84,112,198,1.0)"/><path  d="M 330 595
L 364 595
L 364 669
L 330 669
L 330 595" style="stroke-width:0;stroke:none;fill:rgba(84,112,198,1.0)"/><path  d="M 375 596
L 409 596
L 409 669
L 375 669
L 375 596" style="stroke-width:0;stroke:none;fill:rgba(84,112,198,1.0)"/><path  d="M 419 566
L 453 566
L 453 669
L 419 669
L 419 566" style="stroke-width:0;stroke:none;fill:rgba(84,112,198,1.0)"/><path  d="M 464 439
L 498 439
L 498 669
L 464 669
L 464 439" style="stroke-width:0;stroke:none;fill:rgba(84,112,198,1.0)"/><path  d="M 509 475
L 543 475
L 543 669
L 509 669
L 509 475" style="stroke-width:0;stroke:none;fill:rgba(84,112,198,1.0)"/><path  d="M 553 452
L 587 452
L 587 669
L 553 669
L 553 452" style="stroke-width:0;stroke:none;fill:rgba(84,112,198,1.0)"/><path  d="M 598 475
L 632 475
L 632 669
L 598 669
L 598 475" style="stroke-width:0;stroke:none;fill:rgba(84,112,198,1.0)"/><path  d="M 642 593
L 676 593
L 676 669
L 642 669
L 642 593" style="stroke-width:0;stroke:none;fill:rgba(84,112,198,1.0)"/><path  d="M 687 503
L 721 503
L 721 669
L 687 669
L 687 503" style="stroke-width:0;stroke:none;fill:rgba(84,112,198,1.0)"/><path  d="M 732 333
L 766 333
L 766 669
L 732 669
L 732 333" style="stroke-width:0;stroke:none;fill:rgba(84,112,198,1.0)"/><path  d="M 776 438
L 810 438
L 810 669
L 776 669
L 776 438" style="stroke-width:0;stroke:none;fill:rgba(84,112,198,1.0)"/><path  d="M 821 494
L 855 494
L 855 669
L 821 669
L 821 494" style="stroke-width:0;stroke:none;fill:rgba(84,112,198,1.0)"/><path  d="M 865 592
L 899 592
L 899 669
L 865 669
L 865 592" style="stroke-width:0;stroke:none;fill:rgba(84,112,198,1.0)"/><path  d="M 910 442
L 944 442
L 944 669
L 910 669
L 910 442" style="stroke-width:0;stroke:none;fill:rgba(84,112,198,1.0)"/><path  d="M 746 325
A 15 15 330.00 1 1 752 325
L 749 311
Z" style="stroke-width:0;stroke:none;fill:rgba(84,112,198,1.0)"/><path  d="M 734 311
Q749,348 764,311
Z" style="stroke-width:0;stroke:none;fill:rgba(84,112,198,1.0)"/><text x="736" y="316" style="stroke-width:0;stroke:none;fill:rgba(238,238,238,1.0);font-size:10.2px;font-family:'Roboto Medium',sans-serif">43.71</text><path  d="M 77 592
A 15 15 330.00 1 1 83 592
L 80 578
Z" style="stroke-width:0;stroke:none;fill:rgba(84,112,198,1.0)"/><path  d="M 65 578
Q80,615 95,578
Z" style="stroke-width:0;stroke:none;fill:rgba(84,112,198,1.0)"/><text x="67" y="583" style="stroke-width:0;stroke:none;fill:rgba(238,238,238,1.0);font-size:10.2px;font-family:'Roboto Medium',sans-serif">17.07</text><circle cx="61" cy="504" r="3" style="stroke-width:1;stroke:rgba(84,112,198,1.0);fill:rgba(84,112,198,1.0)"/><path stroke-dasharray="4.0, 2.0" d="" style="stroke-width:1;stroke:rgba(84,112,198,1.0);fill:rgba(84,112,198,1.0)"/><path stroke-dasharray="4.0, 2.0" d="M 67 504
L 932 504" style="stroke-width:1;stroke:rgba(84,112,198,1.0);fill:rgba(84,112,198,1.0)"/><path stroke-dasharray="4.0, 2.0" d="M 932 499
L 948 504
L 932 509
L 937 504
L 932 499" style="stroke-width:1;stroke:rgba(84,112,198,1.0);fill:rgba(84,112,198,1.0)"/><text x="950" y="508" style="stroke-width:0;stroke:none;fill:rgba(70,70,70,1.0);font-size:12.8px;font-family:'Roboto Medium',sans-serif">26.69</text></svg>