<svg xmlns="http://www.w3.org/2000/svg" xmlns:xlink="http://www.w3.org/1999/xlink" width="1000" height="800">\n<path  d="M 0 0
L 1000 0
L 1000 800
L 0 800
L 0 0" style="stroke-width:0;stroke:none;fill:rgba(255,255,255,1.0)"/><path  d="M 481 44
L 511 44" style="stroke-width:3;stroke:rgba(84,112,198,1.0);fill:rgba(84,112,198,1.0)"/><circle cx="496" cy="44" r="5" style="stroke-width:3;stroke:rgba(84,112,198,1.0);fill:rgba(84,112,198,1.0)"/><path  d="" style="stroke-width:3;stroke:rgba(84,112,198,1.0);fill:rgba(84,112,198,1.0)"/><text x="513" y="50" style="stroke-width:0;stroke:none;fill:rgba(70,70,70,1.0);font-size:15.3px;font-family:'Roboto Medium',sans-serif">10</text><text x="10" y="35" style="stroke-width:0;stroke:none;fill:rgba(70,70,70,1.0);font-size:25.6px;font-family:'Roboto Medium',sans-serif">TreeAVLSort</text><text x="10" y="77" style="stroke-width:0;stroke:none;fill:rgba(70,70,70,1.0);font-size:15.3px;font-family:'Roboto Medium',sans-serif">3.2k ns</text><text x="10" y="177" style="stroke-width:0;stroke:none;fill:rgba(70,70,70,1.0);font-size:15.3px;font-family:'Roboto Medium',sans-serif">2.8k ns</text><text x="10" y="277" style="stroke-width:0;stroke:none;fill:rgba(70,70,70,1.0);font-size:15.3px;font-family:'Roboto Medium',sans-serif">2.4k ns</text><text x="23" y="377" style="stroke-width:0;stroke:none;fill:rgba(70,70,70,1.0);font-size:15.3px;font-family:'Roboto Medium',sans-serif">2k ns</text><text x="10" y="477" style="stroke-width:0;stroke:none;fill:rgba(70,70,70,1.0);font-size:15.3px;font-family:'Roboto Medium',sans-serif">1.6k ns</text><text x="10" y="577" style="stroke-width:0;stroke:none;fill:rgba(70,70,70,1.0);font-size:15.3px;font-family:'Roboto Medium',sans-serif">1.2k ns</text><text x="13" y="677" style="stroke-width:0;stroke:none;fill:rgba(70,70,70,1.0);font-size:15.3px;font-family:'Roboto Medium',sans-serif">800 ns</text><path  d="M 70 70
L 950 70" style="stroke-width:1;stroke:rgba(224,230,242,1.0);fill:none"/><path  d="M 70 170
L 950 170" style="stroke-width:1;stroke:rgba(224,230,242,1.0);fill:none"/><path  d="M 70 270
L 950 270" style="stroke-width:1;stroke:rgba(224,230,242,1.0);fill:none"/><path  d="M 70 370
L 950 370" style="stroke-width:1;stroke:rgba(224,230,242,1.0);fill:none"/><path  d="M 70 470
L 950 470" style="stroke-width:1;stroke:rgba(224,230,242,1.0);fill:none"/><path  d="M 70 570
L 950 570" style="stroke-width:1;stroke:rgba(224,230,242,1.0);fill:none"/><path  d="M 70 675
L 70 670" style="stroke-width:1;stroke:rgba(110,112,121,1.0);fill:none"/><path  d="M 114 675
L 114 670" style="stroke-width:1;stroke:rgba(110,112,121,1.0);fill:none"/><path  d="M 158 675
L 158 670" style="stroke-width:1;stroke:rgba(110,112,121,1.0);fill:none"/><path  d="M 202 675
L 202 670" style="stroke-width:1;stroke:rgba(110,112,121,1.0);fill:none"/><path  d="M 246 675
L 246 670" style="stroke-width:1;stroke:rgba(110,112,121,1.0);fill:none"/><path  d="M 290 675
L 290 670" style="stroke-width:1;stroke:rgba(110,112,121,1.0);fill:none"/><path  d="M 334 675
L 334 670" style="stroke-width:1;stroke:rgba(110,112,121,1.0);fill:none"/><path  d="M 378 675
L 378 670" style="stroke-width:1;stroke:rgba(110,112,121,1.0);fill:none"/><path  d="M 422 675
L 422 670" style="stroke-width:1;stroke:rgba(110,112,121,1.0);fill:none"/><path  d="M 466 675
L 466 670" style="stroke-width:1;stroke:rgba(110,112,121,1.0);fill:none"/><path  d="M 510 675
L 510 670" style="stroke-width:1;stroke:rgba(110,112,121,1.0);fill:none"/><path  d="M 554 675
L 554 670" style="stroke-width:1;stroke:rgba(110,112,121,1.0);fill:none"/><path  d="M 598 675
L 598 670" style="stroke-width:1;stroke:rgba(110,112,121,1.0);fill:none"/><path  d="M 642 675
L 642 670" style="stroke-width:1;stroke:rgba(110,112,121,1.0);fill:none"/><path  d="M 686 675
L 686 670" style="stroke-width:1;stroke:rgba(110,112,121,1.0);fill:none"/><path  d="M 730 675
L 730 670" style="stroke-width:1;stroke:rgba(110,112,121,1.0);fill:none"/><path  d="M 774 675
L 774 670" style="stroke-width:1;stroke:rgba(110,112,121,1.0);fill:none"/><path  d="M 818 675
L 818 670" style="stroke-width:1;stroke:rgba(110,112,121,1.0);fill:none"/><path  d="M 862 675
L 862 670" style="stroke-width:1;stroke:rgba(110,112,121,1.0);fill:none"/><path  d="M 906 675
L 906 670" style="stroke-width:1;stroke:rgba(110,112,121,1.0);fill:none"/><path  d="M 950 675
L 950 670" style="stroke-width:1;stroke:rgba(110,112,121,1.0);fill:none"/><path  d="M 70 670
L 950 670" style="stroke-width:1;stroke:rgba(110,112,121,1.0);fill:none"/><text x="86" y="770" style="stroke-width:0;stroke:none;fill:rgba(70,70,70,1.0);font-size:12.8px;font-family:'Roboto Medium',sans-serif" transform="rotate(272.15,86,770)">AllZero</text><text x="129" y="770" style="stroke-width:0;stroke:none;fill:rgba(70,70,70,1.0);font-size:12.8px;font-family:'Roboto Medium',sans-serif" transform="rotate(272.15,129,770)">BackToFront</text><text x="173" y="770" style="stroke-width:0;stroke:none;fill:rgba(70,70,70,1.0);font-size:12.8px;font-family:'Roboto Medium',sans-serif" transform="rotate(272.15,173,770)">FrontToBack</text><text x="217" y="770" style="stroke-width:0;stroke:none;fill:rgba(70,70,70,1.0);font-size:12.8px;font-family:'Roboto Medium',sans-serif" transform="rotate(272.15,217,770)">MiddleToBack</text><text x="261" y="770" style="stroke-width:0;stroke:none;fill:rgba(70,70,70,1.0);font-size:12.8px;font-family:'Roboto Medium',sans-serif" transform="rotate(272.15,261,770)">Mountain</text><text x="305" y="770" style="stroke-width:0;stroke:none;fill:rgba(70,70,70,1.0);font-size:12.8px;font-family:'Roboto Medium',sans-serif" transform="rotate(272.15,305,770)">NearlyReversed</text><text x="349" y="770" style="stroke-width:0;stroke:none;fill:rgba(70,70,70,1.0);font-size:12.8px;font-family:'Roboto Medium',sans-serif" transform="rotate(272.15,349,770)">NearlySorted</text><text x="394" y="770" style="stroke-width:0;stroke:none;fill:rgba(70,70,70,1.0);font-size:12.8px;font-family:'Roboto Medium',sans-serif" transform="rotate(272.15,394,770)">Plateau</text><text x="437" y="770" style="stroke-width:0;stroke:none;fill:rgba(70,70,70,1.0);font-size:12.8px;font-family:'Roboto Medium',sans-serif" transform="rotate(272.15,437,770)">PushMiddle</text><text x="482" y="770" style="stroke-width:0;stroke:none;fill:rgba(70,70,70,1.0);font-size:12.8px;font-family:'Roboto Medium',sans-serif" transform="rotate(272.15,482,770)">Random</text><text x="525" y="770" style="stroke-width:0;stroke:none;fill:rgba(70,70,70,1.0);font-size:12.8px;font-family:'Roboto Medium',sans-serif" transform="rotate(272.15,525,770)">RandomMaxN</text><text x="569" y="770" style="stroke-width:0;stroke:none;fill:rgba(70,70,70,1.0);font-size:12.8px;font-family:'Roboto Medium',sans-serif" transform="rotate(272.15,569,770)">RandomMod16</text><text x="613" y="770" style="stroke-width:0;stroke:none;fill:rgba(70,70,70,1.0);font-size:12.8px;font-family:'Roboto Medium',sans-serif" transform="rotate(272.15,613,770)">RandomMod8</text><text x="657" y="770" style="stroke-width:0;stroke:none;fill:rgba(70,70,70,1.0);font-size:12.8px;font-family:'Roboto Medium',sans-serif" transform="rotate(272.15,657,770)">RepeatedMod16</text><text x="701" y="770" style="stroke-width:0;stroke:none;fill:rgba(70,70,70,1.0);font-size:12.8px;font-family:'Roboto Medium',sans-serif" transform="rotate(272.15,701,770)">RepeatedMod8</text><text x="745" y="770" style="stroke-width:0;stroke:none;fill:rgba(70,70,70,1.0);font-size:12.8px;font-family:'Roboto Medium',sans-serif" transform="rotate(272.15,745,770)">Reversed</text><text x="790" y="770" style="stroke-width:0;stroke:none;fill:rgba(70,70,70,1.0);font-size:12.8px;font-family:'Roboto Medium',sans-serif" transform="rotate(272.15,790,770)">Rotated</text><text x="833" y="770" style="stroke-width:0;stroke:none;fill:rgba(70,70,70,1.0);font-size:12.8px;font-family:'Roboto Medium',sans-serif" transform="rotate(272.15,833,770)">SmallHills</text><text x="878" y="770" style="stroke-width:0;stroke:none;fill:rgba(70,70,70,1.0);font-size:12.8px;font-family:'Roboto Medium',sans-serif" transform="rotate(272.15,878,770)">Sorted</text><text x="922" y="770" style="stroke-width:0;stroke:none;fill:rgba(70,70,70,1.0);font-size:12.8px;font-family:'Roboto Medium',sans-serif" transform="rotate(272.15,922,770)">Valley</text><path  d="M 75 581
L 109 581
L 109 669
L 75 669
L 75 581" style="stroke-width:0;stroke:none;fill:rgba(84,112,198,1.0)"/><path  d="M 119 612
L 153 612
L 153 669
L 119 669
L 119 612" style="stroke-width:0;stroke:none;fill:rgba(84,112,198,1.0)"/><path  d="M 163 597
L 197 597
L 197 669
L 163 669
L 163 597" style="stroke-width:0;stroke:none;fill:rgba(84,112,198,1.0)"/><path  d="M 207 606
L 241 606
L 241 669
L 207 669
L 207 606" style="stroke-width:0;stroke:none;fill:rgba(84,112,198,1.0)"/><path  d="M 251 597
L 285 597
L 285 669
L 251 669
L 251 597" style="stroke-width:0;stroke:none;fill:rgba(84,112,198,1.0)"/><path  d="M 295 607
L 329 607
L 329 669
L 295 669
L 295 607" style="stroke-width:0;stroke:none;fill:rgba(84,112,198,1.0)"/><path  d="M 339 597
L 373 597
L 373 669
L 339 669
L 339 597" style="stroke-width:0;stroke:none;fill:rgba(84,112,198,1.0)"/><path  d="M 383 589
L 417 589
L 417 669
L 383 669
L 383 589" style="stroke-width:0;stroke:none;fill:rgba(84,112,198,1.0)"/><path  d="M 427 606
L 461 606
L 461 669
L 427 669
L 427 606" style="stroke-width:0;stroke:none;fill:rgba(84,112,198,1.0)"/><path  d="M 471 520
L 505 520
L 505 669
L 471 669
L 471 520" style="stroke-width:0;stroke:none;fill:rgba(84,112,198,1.0)"/><path  d="M 515 548
L 549 548
L 549 669
L 515 669
L 515 548" style="stroke-width:0;stroke:none;fill:rgba(84,112,198,1.0)"/><path  d="M 559 570
L 593 570
L 593 669
L 559 669
L 559 570" style="stroke-width:0;stroke:none;fill:rgba(84,112,198,1.0)"/><path  d="M 603 564
L 637 564
L 637 669
L 603 669
L 603 564" style="stroke-width:0;stroke:none;fill:rgba(84,112,198,1.0)"/><path  d="M 647 599
L 681 599
L 681 669
L 647 669
L 647 599" style="stroke-width:0;stroke:none;fill:rgba(84,112,198,1.0)"/><path  d="M 691 594
L 725 594
L 725 669
L 691 669
L 691 594" style="stroke-width:0;stroke:none;fill:rgba(84,112,198,1.0)"/><path  d="M 735 575
L 769 575
L 769 669
L 735 669
L 735 575" style="stroke-width:0;stroke:none;fill:rgba(84,112,198,1.0)"/><path  d="M 779 568
L 813 568
L 813 669
L 779 669
L 779 568" style="stroke-width:0;stroke:none;fill:rgba(84,112,198,1.0)"/><path  d="M 823 607
L 857 607
L 857 669
L 823 669
L 823 607" style="stroke-width:0;stroke:none;fill:rgba(84,112,198,1.0)"/><path  d="M 867 140
L 901 140
L 901 669
L 867 669
L 867 140" style="stroke-width:0;stroke:none;fill:rgba(84,112,198,1.0)"/><path  d="M 911 584
L 945 584
L 945 669
L 911 669
L 911 584" style="stroke-width:0;stroke:none;fill:rgba(84,112,198,1.0)"/><path  d="M 881 132
A 15 15 330.00 1 1 887 132
L 884 118
Z" style="stroke-width:0;stroke:none;fill:rgba(84,112,198,1.0)"/><path  d="M 869 118
Q884,155 899,118
Z" style="stroke-width:0;stroke:none;fill:rgba(84,112,198,1.0)"/><text x="871" y="123" style="stroke-width:0;stroke:none;fill:rgba(238,238,238,1.0);font-size:10.2px;font-family:'Roboto Medium',sans-serif">2.92k</text><path  d="M 133 604
A 15 15 330.00 1 1 139 604
L 136 590
Z" style="stroke-width:0;stroke:none;fill:rgba(84,112,198,1.0)"/><path  d="M 121 590
Q136,627 151,590
Z" style="stroke-width:0;stroke:none;fill:rgba(84,112,198,1.0)"/><text x="123" y="595" style="stroke-width:0;stroke:none;fill:rgba(238,238,238,1.0);font-size:10.2px;font-family:'Roboto Medium',sans-serif">1.03k</text><circle cx="73" cy="563" r="3" style="stroke-width:1;stroke:rgba(84,112,198,1.0);fill:rgba(84,112,198,1.0)"/><path stroke-dasharray="4.0, 2.0" d="" style="stroke-width:1;stroke:rgba(84,112,198,1.0);fill:rgba(84,112,198,1.0)"/><path stroke-dasharray="4.0, 2.0" d="M 79 563
L 932 563" style="stroke-width:1;stroke:rgba(84,112,198,1.0);fill:rgba(84,112,198,1.0)"/><path stroke-dasharray="4.0, 2.0" d="M 932 558
L 948 563
L 932 568
L 937 563
L 932 558" style="stroke-width:1;stroke:rgba(84,112,198,1.0);fill:rgba(84,112,198,1.0)"/><text x="950" y="567" style="stroke-width:0;stroke:none;fill:rgba(70,70,70,1.0);font-size:12.8px;font-family:'Roboto Medium',sans-serif">1.22k</text></svg>