<?xml version="1.0" encoding="UTF-8"?>
<svg width="1060" height="800" viewBox="0 0 1060 800" xmlns="http://www.w3.org/2000/svg">
  <defs>
    <radialGradient id="bgGradient" cx="50%" cy="50%" r="75%">
      <stop offset="0%" stop-color="#ffffff"/>
      <stop offset="100%" stop-color="#e0e0e0"/>
    </radialGradient>
    <filter id="shadow" x="-20%" y="-20%" width="140%" height="140%">
      <feDropShadow dx="3" dy="3" stdDeviation="3" flood-color="#999" flood-opacity="0.4"/>
    </filter>
    <linearGradient id="barGradient" x1="0" x2="0" y1="0" y2="1">
      <stop offset="0%" stop-color="#1976D2"/>
      <stop offset="100%" stop-color="#2196F3"/>
    </linearGradient>
    <style type="text/css">
      <![CDATA[
        .axis { fill: none; stroke: #424242; stroke-width: 2; }
        .grid { stroke: #cfcfcf; stroke-width: 1; }
        .label { font-family: "Segoe UI", Arial, sans-serif; fill: #424242; }
        .title { font-size: 28px; font-weight: bold; }
        .tick { font-size: 12px; }
      ]]>
    </style>
  </defs>
  <rect width="100%" height="100%" fill="url(#bgGradient)" />

  <line x1="80" y1="80" x2="980" y2="80" class="grid" />
  <text x="70" y="80" class="label tick" text-anchor="end" dy="4">15</text>
  <line x1="80" y1="144" x2="980" y2="144" class="grid" />
  <text x="70" y="144" class="label tick" text-anchor="end" dy="4">14</text>
  <line x1="80" y1="208" x2="980" y2="208" class="grid" />
  <text x="70" y="208" class="label tick" text-anchor="end" dy="4">12</text>
  <line x1="80" y1="272" x2="980" y2="272" class="grid" />
  <text x="70" y="272" class="label tick" text-anchor="end" dy="4">11</text>
  <line x1="80" y1="336" x2="980" y2="336" class="grid" />
  <text x="70" y="336" class="label tick" text-anchor="end" dy="4">9</text>
  <line x1="80" y1="400" x2="980" y2="400" class="grid" />
  <text x="70" y="400" class="label tick" text-anchor="end" dy="4">8</text>
  <line x1="80" y1="464" x2="980" y2="464" class="grid" />
  <text x="70" y="464" class="label tick" text-anchor="end" dy="4">6</text>
  <line x1="80" y1="528" x2="980" y2="528" class="grid" />
  <text x="70" y="528" class="label tick" text-anchor="end" dy="4">5</text>
  <line x1="80" y1="592" x2="980" y2="592" class="grid" />
  <text x="70" y="592" class="label tick" text-anchor="end" dy="4">3</text>
  <line x1="80" y1="656" x2="980" y2="656" class="grid" />
  <text x="70" y="656" class="label tick" text-anchor="end" dy="4">2</text>
  <line x1="80" y1="720" x2="980" y2="720" class="grid" />
  <text x="70" y="720" class="label tick" text-anchor="end" dy="4">0</text>
  <line x1="80" y1="720" x2="80" y2="725" class="grid" />
  <text x="80" y="725" class="label tick" text-anchor="middle" dy="15">0</text>
  <line x1="170" y1="720" x2="170" y2="725" class="grid" />
  <text x="170" y="725" class="label tick" text-anchor="middle" dy="15">30</text>
  <line x1="260" y1="720" x2="260" y2="725" class="grid" />
  <text x="260" y="725" class="label tick" text-anchor="middle" dy="15">60</text>
  <line x1="350" y1="720" x2="350" y2="725" class="grid" />
  <text x="350" y="725" class="label tick" text-anchor="middle" dy="15">90</text>
  <line x1="440" y1="720" x2="440" y2="725" class="grid" />
  <text x="440" y="725" class="label tick" text-anchor="middle" dy="15">120</text>
  <line x1="530" y1="720" x2="530" y2="725" class="grid" />
  <text x="530" y="725" class="label tick" text-anchor="middle" dy="15">150</text>
  <line x1="620" y1="720" x2="620" y2="725" class="grid" />
  <text x="620" y="725" class="label tick" text-anchor="middle" dy="15">180</text>
  <line x1="710" y1="720" x2="710" y2="725" class="grid" />
  <text x="710" y="725" class="label tick" text-anchor="middle" dy="15">210</text>
  <line x1="800" y1="720" x2="800" y2="725" class="grid" />
  <text x="800" y="725" class="label tick" text-anchor="middle" dy="15">240</text>
  <line x1="890" y1="720" x2="890" y2="725" class="grid" />
  <text x="890" y="725" class="label tick" text-anchor="middle" dy="15">270</text>
  <line x1="980" y1="720" x2="980" y2="725" class="grid" />
  <text x="980" y="725" class="label tick" text-anchor="middle" dy="15">300</text>
  <line x1="80" y1="720" x2="980" y2="720" class="axis"/>
  <line x1="80" y1="80" x2="80" y2="720" class="axis"/>
  <rect x="80" y="720" width="2" height="0" fill="url(#barGradient)" filter="url(#shadow)" />
  <rect x="83" y="678" width="2" height="42" fill="url(#barGradient)" filter="url(#shadow)" />
  <rect x="86" y="635" width="2" height="85" fill="url(#barGradient)" filter="url(#shadow)" />
  <rect x="89" y="592" width="2" height="128" fill="url(#barGradient)" filter="url(#shadow)" />
  <rect x="92" y="550" width="2" height="170" fill="url(#barGradient)" filter="url(#shadow)" />
  <rect x="95" y="507" width="2" height="213" fill="url(#barGradient)" filter="url(#shadow)" />
  <rect x="98" y="464" width="2" height="256" fill="url(#barGradient)" filter="url(#shadow)" />
  <rect x="101" y="422" width="2" height="298" fill="url(#barGradient)" filter="url(#shadow)" />
  <rect x="104" y="379" width="2" height="341" fill="url(#barGradient)" filter="url(#shadow)" />
  <rect x="107" y="336" width="2" height="384" fill="url(#barGradient)" filter="url(#shadow)" />
  <rect x="110" y="294" width="2" height="426" fill="url(#barGradient)" filter="url(#shadow)" />
  <rect x="113" y="251" width="2" height="469" fill="url(#barGradient)" filter="url(#shadow)" />
  <rect x="116" y="208" width="2" height="512" fill="url(#barGradient)" filter="url(#shadow)" />
  <rect x="119" y="166" width="2" height="554" fill="url(#barGradient)" filter="url(#shadow)" />
  <rect x="122" y="123" width="2" height="597" fill="url(#barGradient)" filter="url(#shadow)" />
  <rect x="125" y="80" width="2" height="640" fill="url(#barGradient)" filter="url(#shadow)" />
  <rect x="128" y="720" width="2" height="0" fill="url(#barGradient)" filter="url(#shadow)" />
  <rect x="131" y="678" width="2" height="42" fill="url(#barGradient)" filter="url(#shadow)" />
  <rect x="134" y="635" width="2" height="85" fill="url(#barGradient)" filter="url(#shadow)" />
  <rect x="137" y="592" width="2" height="128" fill="url(#barGradient)" filter="url(#shadow)" />
  <rect x="140" y="550" width="2" height="170" fill="url(#barGradient)" filter="url(#shadow)" />
  <rect x="143" y="507" width="2" height="213" fill="url(#barGradient)" filter="url(#shadow)" />
  <rect x="146" y="464" width="2" height="256" fill="url(#barGradient)" filter="url(#shadow)" />
  <rect x="149" y="422" width="2" height="298" fill="url(#barGradient)" filter="url(#shadow)" />
  <rect x="152" y="379" width="2" height="341" fill="url(#barGradient)" filter="url(#shadow)" />
  <rect x="155" y="336" width="2" height="384" fill="url(#barGradient)" filter="url(#shadow)" />
  <rect x="158" y="294" width="2" height="426" fill="url(#barGradient)" filter="url(#shadow)" />
  <rect x="161" y="251" width="2" height="469" fill="url(#barGradient)" filter="url(#shadow)" />
  <rect x="164" y="208" width="2" height="512" fill="url(#barGradient)" filter="url(#shadow)" />
  <rect x="167" y="166" width="2" height="554" fill="url(#barGradient)" filter="url(#shadow)" />
  <rect x="170" y="123" width="2" height="597" fill="url(#barGradient)" filter="url(#shadow)" />
  <rect x="173" y="80" width="2" height="640" fill="url(#barGradient)" filter="url(#shadow)" />
  <rect x="176" y="720" width="2" height="0" fill="url(#barGradient)" filter="url(#shadow)" />
  <rect x="179" y="678" width="2" height="42" fill="url(#barGradient)" filter="url(#shadow)" />
  <rect x="182" y="635" width="2" height="85" fill="url(#barGradient)" filter="url(#shadow)" />
  <rect x="185" y="592" width="2" height="128" fill="url(#barGradient)" filter="url(#shadow)" />
  <rect x="188" y="550" width="2" height="170" fill="url(#barGradient)" filter="url(#shadow)" />
  <rect x="191" y="507" width="2" height="213" fill="url(#barGradient)" filter="url(#shadow)" />
  <rect x="194" y="464" width="2" height="256" fill="url(#barGradient)" filter="url(#shadow)" />
  <rect x="197" y="422" width="2" height="298" fill="url(#barGradient)" filter="url(#shadow)" />
  <rect x="200" y="379" width="2" height="341" fill="url(#barGradient)" filter="url(#shadow)" />
  <rect x="203" y="336" width="2" height="384" fill="url(#barGradient)" filter="url(#shadow)" />
  <rect x="206" y="294" width="2" height="426" fill="url(#barGradient)" filter="url(#shadow)" />
  <rect x="209" y="251" width="2" height="469" fill="url(#barGradient)" filter="url(#shadow)" />
  <rect x="212" y="208" width="2" height="512" fill="url(#barGradient)" filter="url(#shadow)" />
  <rect x="215" y="166" width="2" height="554" fill="url(#barGradient)" filter="url(#shadow)" />
  <rect x="218" y="123" width="2" height="597" fill="url(#barGradient)" filter="url(#shadow)" />
  <rect x="221" y="80" width="2" height="640" fill="url(#barGradient)" filter="url(#shadow)" />
  <rect x="224" y="720" width="2" height="0" fill="url(#barGradient)" filter="url(#shadow)" />
  <rect x="227" y="678" width="2" height="42" fill="url(#barGradient)" filter="url(#shadow)" />
  <rect x="230" y="635" width="2" height="85" fill="url(#barGradient)" filter="url(#shadow)" />
  <rect x="233" y="592" width="2" height="128" fill="url(#barGradient)" filter="url(#shadow)" />
  <rect x="236" y="550" width="2" height="170" fill="url(#barGradient)" filter="url(#shadow)" />
  <rect x="239" y="507" width="2" height="213" fill="url(#barGradient)" filter="url(#shadow)" />
  <rect x="242" y="464" width="2" height="256" fill="url(#barGradient)" filter="url(#shadow)" />
  <rect x="245" y="422" width="2" height="298" fill="url(#barGradient)" filter="url(#shadow)" />
  <rect x="248" y="379" width="2" height="341" fill="url(#barGradient)" filter="url(#shadow)" />
  <rect x="251" y="336" width="2" height="384" fill="url(#barGradient)" filter="url(#shadow)" />
  <rect x="254" y="294" width="2" height="426" fill="url(#barGradient)" filter="url(#shadow)" />
  <rect x="257" y="251" width="2" height="469" fill="url(#barGradient)" filter="url(#shadow)" />
  <rect x="260" y="208" width="2" height="512" fill="url(#barGradient)" filter="url(#shadow)" />
  <rect x="263" y="166" width="2" height="554" fill="url(#barGradient)" filter="url(#shadow)" />
  <rect x="266" y="123" width="2" height="597" fill="url(#barGradient)" filter="url(#shadow)" />
  <rect x="269" y="80" width="2" height="640" fill="url(#barGradient)" filter="url(#shadow)" />
  <rect x="272" y="720" width="2" height="0" fill="url(#barGradient)" filter="url(#shadow)" />
  <rect x="275" y="678" width="2" height="42" fill="url(#barGradient)" filter="url(#shadow)" />
  <rect x="278" y="635" width="2" height="85" fill="url(#barGradient)" filter="url(#shadow)" />
  <rect x="281" y="592" width="2" height="128" fill="url(#barGradient)" filter="url(#shadow)" />
  <rect x="284" y="550" width="2" height="170" fill="url(#barGradient)" filter="url(#shadow)" />
  <rect x="287" y="507" width="2" height="213" fill="url(#barGradient)" filter="url(#shadow)" />
  <rect x="290" y="464" width="2" height="256" fill="url(#barGradient)" filter="url(#shadow)" />
  <rect x="293" y="422" width="2" height="298" fill="url(#barGradient)" filter="url(#shadow)" />
  <rect x="296" y="379" width="2" height="341" fill="url(#barGradient)" filter="url(#shadow)" />
  <rect x="299" y="336" width="2" height="384" fill="url(#barGradient)" filter="url(#shadow)" />
  <rect x="302" y="294" width="2" height="426" fill="url(#barGradient)" filter="url(#shadow)" />
  <rect x="305" y="251" width="2" height="469" fill="url(#barGradient)" filter="url(#shadow)" />
  <rect x="308" y="208" width="2" height="512" fill="url(#barGradient)" filter="url(#shadow)" />
  <rect x="311" y="166" width="2" height="554" fill="url(#barGradient)" filter="url(#shadow)" />
  <rect x="314" y="123" width="2" height="597" fill="url(#barGradient)" filter="url(#shadow)" />
  <rect x="317" y="80" width="2" height="640" fill="url(#barGradient)" filter="url(#shadow)" />
  <rect x="320" y="720" width="2" height="0" fill="url(#barGradient)" filter="url(#shadow)" />
  <rect x="323" y="678" width="2" height="42" fill="url(#barGradient)" filter="url(#shadow)" />
  <rect x="326" y="635" width="2" height="85" fill="url(#barGradient)" filter="url(#shadow)" />
  <rect x="329" y="592" width="2" height="128" fill="url(#barGradient)" filter="url(#shadow)" />
  <rect x="332" y="550" width="2" height="170" fill="url(#barGradient)" filter="url(#shadow)" />
  <rect x="335" y="507" width="2" height="213" fill="url(#barGradient)" filter="url(#shadow)" />
  <rect x="338" y="464" width="2" height="256" fill="url(#barGradient)" filter="url(#shadow)" />
  <rect x="341" y="422" width="2" height="298" fill="url(#barGradient)" filter="url(#shadow)" />
  <rect x="344" y="379" width="2" height="341" fill="url(#barGradient)" filter="url(#shadow)" />
  <rect x="347" y="336" width="2" height="384" fill="url(#barGradient)" filter="url(#shadow)" />
  <rect x="350" y="294" width="2" height="426" fill="url(#barGradient)" filter="url(#shadow)" />
  <rect x="353" y="251" width="2" height="469" fill="url(#barGradient)" filter="url(#shadow)" />
  <rect x="356" y="208" width="2" height="512" fill="url(#barGradient)" filter="url(#shadow)" />
  <rect x="359" y="166" width="2" height="554" fill="url(#barGradient)" filter="url(#shadow)" />
  <rect x="362" y="123" width="2" height="597" fill="url(#barGradient)" filter="url(#shadow)" />
  <rect x="365" y="80" width="2" height="640" fill="url(#barGradient)" filter="url(#shadow)" />
  <rect x="368" y="720" width="2" height="0" fill="url(#barGradient)" filter="url(#shadow)" />
  <rect x="371" y="678" width="2" height="42" fill="url(#barGradient)" filter="url(#shadow)" />
  <rect x="374" y="635" width="2" height="85" fill="url(#barGradient)" filter="url(#shadow)" />
  <rect x="377" y="592" width="2" height="128" fill="url(#barGradient)" filter="url(#shadow)" />
  <rect x="380" y="550" width="2" height="170" fill="url(#barGradient)" filter="url(#shadow)" />
  <rect x="383" y="507" width="2" height="213" fill="url(#barGradient)" filter="url(#shadow)" />
  <rect x="386" y="464" width="2" height="256" fill="url(#barGradient)" filter="url(#shadow)" />
  <rect x="389" y="422" width="2" height="298" fill="url(#barGradient)" filter="url(#shadow)" />
  <rect x="392" y="379" width="2" height="341" fill="url(#barGradient)" filter="url(#shadow)" />
  <rect x="395" y="336" width="2" height="384" fill="url(#barGradient)" filter="url(#shadow)" />
  <rect x="398" y="294" width="2" height="426" fill="url(#barGradient)" filter="url(#shadow)" />
  <rect x="401" y="251" width="2" height="469" fill="url(#barGradient)" filter="url(#shadow)" />
  <rect x="404" y="208" width="2" height="512" fill="url(#barGradient)" filter="url(#shadow)" />
  <rect x="407" y="166" width="2" height="554" fill="url(#barGradient)" filter="url(#shadow)" />
  <rect x="410" y="123" width="2" height="597" fill="url(#barGradient)" filter="url(#shadow)" />
  <rect x="413" y="80" width="2" height="640" fill="url(#barGradient)" filter="url(#shadow)" />
  <rect x="416" y="720" width="2" height="0" fill="url(#barGradient)" filter="url(#shadow)" />
  <rect x="419" y="678" width="2" height="42" fill="url(#barGradient)" filter="url(#shadow)" />
  <rect x="422" y="635" width="2" height="85" fill="url(#barGradient)" filter="url(#shadow)" />
  <rect x="425" y="592" width="2" height="128" fill="url(#barGradient)" filter="url(#shadow)" />
  <rect x="428" y="550" width="2" height="170" fill="url(#barGradient)" filter="url(#shadow)" />
  <rect x="431" y="507" width="2" height="213" fill="url(#barGradient)" filter="url(#shadow)" />
  <rect x="434" y="464" width="2" height="256" fill="url(#barGradient)" filter="url(#shadow)" />
  <rect x="437" y="422" width="2" height="298" fill="url(#barGradient)" filter="url(#shadow)" />
  <rect x="440" y="379" width="2" height="341" fill="url(#barGradient)" filter="url(#shadow)" />
  <rect x="443" y="336" width="2" height="384" fill="url(#barGradient)" filter="url(#shadow)" />
  <rect x="446" y="294" width="2" height="426" fill="url(#barGradient)" filter="url(#shadow)" />
  <rect x="449" y="251" width="2" height="469" fill="url(#barGradient)" filter="url(#shadow)" />
  <rect x="452" y="208" width="2" height="512" fill="url(#barGradient)" filter="url(#shadow)" />
  <rect x="455" y="166" width="2" height="554" fill="url(#barGradient)" filter="url(#shadow)" />
  <rect x="458" y="123" width="2" height="597" fill="url(#barGradient)" filter="url(#shadow)" />
  <rect x="461" y="80" width="2" height="640" fill="url(#barGradient)" filter="url(#shadow)" />
  <rect x="464" y="720" width="2" height="0" fill="url(#barGradient)" filter="url(#shadow)" />
  <rect x="467" y="678" width="2" height="42" fill="url(#barGradient)" filter="url(#shadow)" />
  <rect x="470" y="635" width="2" height="85" fill="url(#barGradient)" filter="url(#shadow)" />
  <rect x="473" y="592" width="2" height="128" fill="url(#barGradient)" filter="url(#shadow)" />
  <rect x="476" y="550" width="2" height="170" fill="url(#barGradient)" filter="url(#shadow)" />
  <rect x="479" y="507" width="2" height="213" fill="url(#barGradient)" filter="url(#shadow)" />
  <rect x="482" y="464" width="2" height="256" fill="url(#barGradient)" filter="url(#shadow)" />
  <rect x="485" y="422" width="2" height="298" fill="url(#barGradient)" filter="url(#shadow)" />
  <rect x="488" y="379" width="2" height="341" fill="url(#barGradient)" filter="url(#shadow)" />
  <rect x="491" y="336" width="2" height="384" fill="url(#barGradient)" filter="url(#shadow)" />
  <rect x="494" y="294" width="2" height="426" fill="url(#barGradient)" filter="url(#shadow)" />
  <rect x="497" y="251" width="2" height="469" fill="url(#barGradient)" filter="url(#shadow)" />
  <rect x="500" y="208" width="2" height="512" fill="url(#barGradient)" filter="url(#shadow)" />
  <rect x="503" y="166" width="2" height="554" fill="url(#barGradient)" filter="url(#shadow)" />
  <rect x="506" y="123" width="2" height="597" fill="url(#barGradient)" filter="url(#shadow)" />
  <rect x="509" y="80" width="2" height="640" fill="url(#barGradient)" filter="url(#shadow)" />
  <rect x="512" y="720" width="2" height="0" fill="url(#barGradient)" filter="url(#shadow)" />
  <rect x="515" y="678" width="2" height="42" fill="url(#barGradient)" filter="url(#shadow)" />
  <rect x="518" y="635" width="2" height="85" fill="url(#barGradient)" filter="url(#shadow)" />
  <rect x="521" y="592" width="2" height="128" fill="url(#barGradient)" filter="url(#shadow)" />
  <rect x="524" y="550" width="2" height="170" fill="url(#barGradient)" filter="url(#shadow)" />
  <rect x="527" y="507" width="2" height="213" fill="url(#barGradient)" filter="url(#shadow)" />
  <rect x="530" y="464" width="2" height="256" fill="url(#barGradient)" filter="url(#shadow)" />
  <rect x="533" y="422" width="2" height="298" fill="url(#barGradient)" filter="url(#shadow)" />
  <rect x="536" y="379" width="2" height="341" fill="url(#barGradient)" filter="url(#shadow)" />
  <rect x="539" y="336" width="2" height="384" fill="url(#barGradient)" filter="url(#shadow)" />
  <rect x="542" y="294" width="2" height="426" fill="url(#barGradient)" filter="url(#shadow)" />
  <rect x="545" y="251" width="2" height="469" fill="url(#barGradient)" filter="url(#shadow)" />
  <rect x="548" y="208" width="2" height="512" fill="url(#barGradient)" filter="url(#shadow)" />
  <rect x="551" y="166" width="2" height="554" fill="url(#barGradient)" filter="url(#shadow)" />
  <rect x="554" y="123" width="2" height="597" fill="url(#barGradient)" filter="url(#shadow)" />
  <rect x="557" y="80" width="2" height="640" fill="url(#barGradient)" filter="url(#shadow)" />
  <rect x="560" y="720" width="2" height="0" fill="url(#barGradient)" filter="url(#shadow)" />
  <rect x="563" y="678" width="2" height="42" fill="url(#barGradient)" filter="url(#shadow)" />
  <rect x="566" y="635" width="2" height="85" fill="url(#barGradient)" filter="url(#shadow)" />
  <rect x="569" y="592" width="2" height="128" fill="url(#barGradient)" filter="url(#shadow)" />
  <rect x="572" y="550" width="2" height="170" fill="url(#barGradient)" filter="url(#shadow)" />
  <rect x="575" y="507" width="2" height="213" fill="url(#barGradient)" filter="url(#shadow)" />
  <rect x="578" y="464" width="2" height="256" fill="url(#barGradient)" filter="url(#shadow)" />
  <rect x="581" y="422" width="2" height="298" fill="url(#barGradient)" filter="url(#shadow)" />
  <rect x="584" y="379" width="2" height="341" fill="url(#barGradient)" filter="url(#shadow)" />
  <rect x="587" y="336" width="2" height="384" fill="url(#barGradient)" filter="url(#shadow)" />
  <rect x="590" y="294" width="2" height="426" fill="url(#barGradient)" filter="url(#shadow)" />
  <rect x="593" y="251" width="2" height="469" fill="url(#barGradient)" filter="url(#shadow)" />
  <rect x="596" y="208" width="2" height="512" fill="url(#barGradient)" filter="url(#shadow)" />
  <rect x="599" y="166" width="2" height="554" fill="url(#barGradient)" filter="url(#shadow)" />
  <rect x="602" y="123" width="2" height="597" fill="url(#barGradient)" filter="url(#shadow)" />
  <rect x="605" y="80" width="2" height="640" fill="url(#barGradient)" filter="url(#shadow)" />
  <rect x="608" y="720" width="2" height="0" fill="url(#barGradient)" filter="url(#shadow)" />
  <rect x="611" y="678" width="2" height="42" fill="url(#barGradient)" filter="url(#shadow)" />
  <rect x="614" y="635" width="2" height="85" fill="url(#barGradient)" filter="url(#shadow)" />
  <rect x="617" y="592" width="2" height="128" fill="url(#barGradient)" filter="url(#shadow)" />
  <rect x="620" y="550" width="2" height="170" fill="url(#barGradient)" filter="url(#shadow)" />
  <rect x="623" y="507" width="2" height="213" fill="url(#barGradient)" filter="url(#shadow)" />
  <rect x="626" y="464" width="2" height="256" fill="url(#barGradient)" filter="url(#shadow)" />
  <rect x="629" y="422" width="2" height="298" fill="url(#barGradient)" filter="url(#shadow)" />
  <rect x="632" y="379" width="2" height="341" fill="url(#barGradient)" filter="url(#shadow)" />
  <rect x="635" y="336" width="2" height="384" fill="url(#barGradient)" filter="url(#shadow)" />
  <rect x="638" y="294" width="2" height="426" fill="url(#barGradient)" filter="url(#shadow)" />
  <rect x="641" y="251" width="2" height="469" fill="url(#barGradient)" filter="url(#shadow)" />
  <rect x="644" y="208" width="2" height="512" fill="url(#barGradient)" filter="url(#shadow)" />
  <rect x="647" y="166" width="2" height="554" fill="url(#barGradient)" filter="url(#shadow)" />
  <rect x="650" y="123" width="2" height="597" fill="url(#barGradient)" filter="url(#shadow)" />
  <rect x="653" y="80" width="2" height="640" fill="url(#barGradient)" filter="url(#shadow)" />
  <rect x="656" y="720" width="2" height="0" fill="url(#barGradient)" filter="url(#shadow)" />
  <rect x="659" y="678" width="2" height="42" fill="url(#barGradient)" filter="url(#shadow)" />
  <rect x="662" y="635" width="2" height="85" fill="url(#barGradient)" filter="url(#shadow)" />
  <rect x="665" y="592" width="2" height="128" fill="url(#barGradient)" filter="url(#shadow)" />
  <rect x="668" y="550" width="2" height="170" fill="url(#barGradient)" filter="url(#shadow)" />
  <rect x="671" y="507" width="2" height="213" fill="url(#barGradient)" filter="url(#shadow)" />
  <rect x="674" y="464" width="2" height="256" fill="url(#barGradient)" filter="url(#shadow)" />
  <rect x="677" y="422" width="2" height="298" fill="url(#barGradient)" filter="url(#shadow)" />
  <rect x="680" y="379" width="2" height="341" fill="url(#barGradient)" filter="url(#shadow)" />
  <rect x="683" y="336" width="2" height="384" fill="url(#barGradient)" filter="url(#shadow)" />
  <rect x="686" y="294" width="2" height="426" fill="url(#barGradient)" filter="url(#shadow)" />
  <rect x="689" y="251" width="2" height="469" fill="url(#barGradient)" filter="url(#shadow)" />
  <rect x="692" y="208" width="2" height="512" fill="url(#barGradient)" filter="url(#shadow)" />
  <rect x="695" y="166" width="2" height="554" fill="url(#barGradient)" filter="url(#shadow)" />
  <rect x="698" y="123" width="2" height="597" fill="url(#barGradient)" filter="url(#shadow)" />
  <rect x="701" y="80" width="2" height="640" fill="url(#barGradient)" filter="url(#shadow)" />
  <rect x="704" y="720" width="2" height="0" fill="url(#barGradient)" filter="url(#shadow)" />
  <rect x="707" y="678" width="2" height="42" fill="url(#barGradient)" filter="url(#shadow)" />
  <rect x="710" y="635" width="2" height="85" fill="url(#barGradient)" filter="url(#shadow)" />
  <rect x="713" y="592" width="2" height="128" fill="url(#barGradient)" filter="url(#shadow)" />
  <rect x="716" y="550" width="2" height="170" fill="url(#barGradient)" filter="url(#shadow)" />
  <rect x="719" y="507" width="2" height="213" fill="url(#barGradient)" filter="url(#shadow)" />
  <rect x="722" y="464" width="2" height="256" fill="url(#barGradient)" filter="url(#shadow)" />
  <rect x="725" y="422" width="2" height="298" fill="url(#barGradient)" filter="url(#shadow)" />
  <rect x="728" y="379" width="2" height="341" fill="url(#barGradient)" filter="url(#shadow)" />
  <rect x="731" y="336" width="2" height="384" fill="url(#barGradient)" filter="url(#shadow)" />
  <rect x="734" y="294" width="2" height="426" fill="url(#barGradient)" filter="url(#shadow)" />
  <rect x="737" y="251" width="2" height="469" fill="url(#barGradient)" filter="url(#shadow)" />
  <rect x="740" y="208" width="2" height="512" fill="url(#barGradient)" filter="url(#shadow)" />
  <rect x="743" y="166" width="2" height="554" fill="url(#barGradient)" filter="url(#shadow)" />
  <rect x="746" y="123" width="2" height="597" fill="url(#barGradient)" filter="url(#shadow)" />
  <rect x="749" y="80" width="2" height="640" fill="url(#barGradient)" filter="url(#shadow)" />
  <rect x="752" y="720" width="2" height="0" fill="url(#barGradient)" filter="url(#shadow)" />
  <rect x="755" y="678" width="2" height="42" fill="url(#barGradient)" filter="url(#shadow)" />
  <rect x="758" y="635" width="2" height="85" fill="url(#barGradient)" filter="url(#shadow)" />
  <rect x="761" y="592" width="2" height="128" fill="url(#barGradient)" filter="url(#shadow)" />
  <rect x="764" y="550" width="2" height="170" fill="url(#barGradient)" filter="url(#shadow)" />
  <rect x="767" y="507" width="2" height="213" fill="url(#barGradient)" filter="url(#shadow)" />
  <rect x="770" y="464" width="2" height="256" fill="url(#barGradient)" filter="url(#shadow)" />
  <rect x="773" y="422" width="2" height="298" fill="url(#barGradient)" filter="url(#shadow)" />
  <rect x="776" y="379" width="2" height="341" fill="url(#barGradient)" filter="url(#shadow)" />
  <rect x="779" y="336" width="2" height="384" fill="url(#barGradient)" filter="url(#shadow)" />
  <rect x="782" y="294" width="2" height="426" fill="url(#barGradient)" filter="url(#shadow)" />
  <rect x="785" y="251" width="2" height="469" fill="url(#barGradient)" filter="url(#shadow)" />
  <rect x="788" y="208" width="2" height="512" fill="url(#barGradient)" filter="url(#shadow)" />
  <rect x="791" y="166" width="2" height="554" fill="url(#barGradient)" filter="url(#shadow)" />
  <rect x="794" y="123" width="2" height="597" fill="url(#barGradient)" filter="url(#shadow)" />
  <rect x="797" y="80" width="2" height="640" fill="url(#barGradient)" filter="url(#shadow)" />
  <rect x="800" y="720" width="2" height="0" fill="url(#barGradient)" filter="url(#shadow)" />
  <rect x="803" y="678" width="2" height="42" fill="url(#barGradient)" filter="url(#shadow)" />
  <rect x="806" y="635" width="2" height="85" fill="url(#barGradient)" filter="url(#shadow)" />
  <rect x="809" y="592" width="2" height="128" fill="url(#barGradient)" filter="url(#shadow)" />
  <rect x="812" y="550" width="2" height="170" fill="url(#barGradient)" filter="url(#shadow)" />
  <rect x="815" y="507" width="2" height="213" fill="url(#barGradient)" filter="url(#shadow)" />
  <rect x="818" y="464" width="2" height="256" fill="url(#barGradient)" filter="url(#shadow)" />
  <rect x="821" y="422" width="2" height="298" fill="url(#barGradient)" filter="url(#shadow)" />
  <rect x="824" y="379" width="2" height="341" fill="url(#barGradient)" filter="url(#shadow)" />
  <rect x="827" y="336" width="2" height="384" fill="url(#barGradient)" filter="url(#shadow)" />
  <rect x="830" y="294" width="2" height="426" fill="url(#barGradient)" filter="url(#shadow)" />
  <rect x="833" y="251" width="2" height="469" fill="url(#barGradient)" filter="url(#shadow)" />
  <rect x="836" y="208" width="2" height="512" fill="url(#barGradient)" filter="url(#shadow)" />
  <rect x="839" y="166" width="2" height="554" fill="url(#barGradient)" filter="url(#shadow)" />
  <rect x="842" y="123" width="2" height="597" fill="url(#barGradient)" filter="url(#shadow)" />
  <rect x="845" y="80" width="2" height="640" fill="url(#barGradient)" filter="url(#shadow)" />
  <rect x="848" y="720" width="2" height="0" fill="url(#barGradient)" filter="url(#shadow)" />
  <rect x="851" y="678" width="2" height="42" fill="url(#barGradient)" filter="url(#shadow)" />
  <rect x="854" y="635" width="2" height="85" fill="url(#barGradient)" filter="url(#shadow)" />
  <rect x="857" y="592" width="2" height="128" fill="url(#barGradient)" filter="url(#shadow)" />
  <rect x="860" y="550" width="2" height="170" fill="url(#barGradient)" filter="url(#shadow)" />
  <rect x="863" y="507" width="2" height="213" fill="url(#barGradient)" filter="url(#shadow)" />
  <rect x="866" y="464" width="2" height="256" fill="url(#barGradient)" filter="url(#shadow)" />
  <rect x="869" y="422" width="2" height="298" fill="url(#barGradient)" filter="url(#shadow)" />
  <rect x="872" y="379" width="2" height="341" fill="url(#barGradient)" filter="url(#shadow)" />
  <rect x="875" y="336" width="2" height="384" fill="url(#barGradient)" filter="url(#shadow)" />
  <rect x="878" y="294" width="2" height="426" fill="url(#barGradient)" filter="url(#shadow)" />
  <rect x="881" y="251" width="2" height="469" fill="url(#barGradient)" filter="url(#shadow)" />
  <rect x="884" y="208" width="2" height="512" fill="url(#barGradient)" filter="url(#shadow)" />
  <rect x="887" y="166" width="2" height="554" fill="url(#barGradient)" filter="url(#shadow)" />
  <rect x="890" y="123" width="2" height="597" fill="url(#barGradient)" filter="url(#shadow)" />
  <rect x="893" y="80" width="2" height="640" fill="url(#barGradient)" filter="url(#shadow)" />
  <rect x="896" y="720" width="2" height="0" fill="url(#barGradient)" filter="url(#shadow)" />
  <rect x="899" y="678" width="2" height="42" fill="url(#barGradient)" filter="url(#shadow)" />
  <rect x="902" y="635" width="2" height="85" fill="url(#barGradient)" filter="url(#shadow)" />
  <rect x="905" y="592" width="2" height="128" fill="url(#barGradient)" filter="url(#shadow)" />
  <rect x="908" y="550" width="2" height="170" fill="url(#barGradient)" filter="url(#shadow)" />
  <rect x="911" y="507" width="2" height="213" fill="url(#barGradient)" filter="url(#shadow)" />
  <rect x="914" y="464" width="2" height="256" fill="url(#barGradient)" filter="url(#shadow)" />
  <rect x="917" y="422" width="2" height="298" fill="url(#barGradient)" filter="url(#shadow)" />
  <rect x="920" y="379" width="2" height="341" fill="url(#barGradient)" filter="url(#shadow)" />
  <rect x="923" y="336" width="2" height="384" fill="url(#barGradient)" filter="url(#shadow)" />
  <rect x="926" y="294" width="2" height="426" fill="url(#barGradient)" filter="url(#shadow)" />
  <rect x="929" y="251" width="2" height="469" fill="url(#barGradient)" filter="url(#shadow)" />
  <rect x="932" y="208" width="2" height="512" fill="url(#barGradient)" filter="url(#shadow)" />
  <rect x="935" y="166" width="2" height="554" fill="url(#barGradient)" filter="url(#shadow)" />
  <rect x="938" y="123" width="2" height="597" fill="url(#barGradient)" filter="url(#shadow)" />
  <rect x="941" y="80" width="2" height="640" fill="url(#barGradient)" filter="url(#shadow)" />
  <rect x="944" y="720" width="2" height="0" fill="url(#barGradient)" filter="url(#shadow)" />
  <rect x="947" y="678" width="2" height="42" fill="url(#barGradient)" filter="url(#shadow)" />
  <rect x="950" y="635" width="2" height="85" fill="url(#barGradient)" filter="url(#shadow)" />
  <rect x="953" y="592" width="2" height="128" fill="url(#barGradient)" filter="url(#shadow)" />
  <rect x="956" y="550" width="2" height="170" fill="url(#barGradient)" filter="url(#shadow)" />
  <rect x="959" y="507" width="2" height="213" fill="url(#barGradient)" filter="url(#shadow)" />
  <rect x="962" y="464" width="2" height="256" fill="url(#barGradient)" filter="url(#shadow)" />
  <rect x="965" y="422" width="2" height="298" fill="url(#barGradient)" filter="url(#shadow)" />
  <rect x="968" y="379" width="2" height="341" fill="url(#barGradient)" filter="url(#shadow)" />
  <rect x="971" y="336" width="2" height="384" fill="url(#barGradient)" filter="url(#shadow)" />
  <rect x="974" y="294" width="2" height="426" fill="url(#barGradient)" filter="url(#shadow)" />
  <rect x="977" y="251" width="2" height="469" fill="url(#barGradient)" filter="url(#shadow)" />
  <text x="530" y="40" class="label title" text-anchor="middle">RepeatedMod16 Distribution</text>
  <text x="530" y="780" class="label" text-anchor="middle">Index</text>
  <text x="30" y="400" class="label" transform="rotate(-90,30,400)" text-anchor="middle">Value</text><rect x="760" y="10" rx="8" stroke="#b0b0b0" width="150" height="90" fill="white" filter="url(#shadow)"/><text x="780" y="35" font-family="Arial" font-size="12" fill="#757575">Minimum: 0</text><text x="780" y="55" font-family="Arial" font-size="12" fill="#757575">Maximum: 15</text><text x="780" y="75" font-family="Arial" font-size="12" fill="#757575">Average: 7</text></svg>