<svg xmlns="http://www.w3.org/2000/svg" xmlns:xlink="http://www.w3.org/1999/xlink" width="1920" height="800">\n<path  d="M 0 0
L 1920 0
L 1920 800
L 0 800
L 0 0" style="stroke-width:0;stroke:none;fill:rgba(255,255,255,1.0)"/><path  d="M 941 44
L 971 44" style="stroke-width:3;stroke:rgba(84,112,198,1.0);fill:rgba(84,112,198,1.0)"/><circle cx="956" cy="44" r="5" style="stroke-width:3;stroke:rgba(84,112,198,1.0);fill:rgba(84,112,198,1.0)"/><path  d="" style="stroke-width:3;stroke:rgba(84,112,198,1.0);fill:rgba(84,112,198,1.0)"/><text x="973" y="50" style="stroke-width:0;stroke:none;fill:rgba(70,70,70,1.0);font-size:15.3px;font-family:'Roboto Medium',sans-serif">10</text><text x="10" y="35" style="stroke-width:0;stroke:none;fill:rgba(70,70,70,1.0);font-size:25.6px;font-family:'Roboto Medium',sans-serif">AllZero</text><text x="10" y="77" style="stroke-width:0;stroke:none;fill:rgba(70,70,70,1.0);font-size:15.3px;font-family:'Roboto Medium',sans-serif">840 ns</text><text x="10" y="177" style="stroke-width:0;stroke:none;fill:rgba(70,70,70,1.0);font-size:15.3px;font-family:'Roboto Medium',sans-serif">700 ns</text><text x="10" y="277" style="stroke-width:0;stroke:none;fill:rgba(70,70,70,1.0);font-size:15.3px;font-family:'Roboto Medium',sans-serif">560 ns</text><text x="10" y="377" style="stroke-width:0;stroke:none;fill:rgba(70,70,70,1.0);font-size:15.3px;font-family:'Roboto Medium',sans-serif">420 ns</text><text x="10" y="477" style="stroke-width:0;stroke:none;fill:rgba(70,70,70,1.0);font-size:15.3px;font-family:'Roboto Medium',sans-serif">280 ns</text><text x="10" y="577" style="stroke-width:0;stroke:none;fill:rgba(70,70,70,1.0);font-size:15.3px;font-family:'Roboto Medium',sans-serif">140 ns</text><text x="28" y="677" style="stroke-width:0;stroke:none;fill:rgba(70,70,70,1.0);font-size:15.3px;font-family:'Roboto Medium',sans-serif">0 ns</text><path  d="M 67 70
L 1870 70" style="stroke-width:1;stroke:rgba(224,230,242,1.0);fill:none"/><path  d="M 67 170
L 1870 170" style="stroke-width:1;stroke:rgba(224,230,242,1.0);fill:none"/><path  d="M 67 270
L 1870 270" style="stroke-width:1;stroke:rgba(224,230,242,1.0);fill:none"/><path  d="M 67 370
L 1870 370" style="stroke-width:1;stroke:rgba(224,230,242,1.0);fill:none"/><path  d="M 67 470
L 1870 470" style="stroke-width:1;stroke:rgba(224,230,242,1.0);fill:none"/><path  d="M 67 570
L 1870 570" style="stroke-width:1;stroke:rgba(224,230,242,1.0);fill:none"/><path  d="M 67 675
L 67 670" style="stroke-width:1;stroke:rgba(110,112,121,1.0);fill:none"/><path  d="M 103 675
L 103 670" style="stroke-width:1;stroke:rgba(110,112,121,1.0);fill:none"/><path  d="M 140 675
L 140 670" style="stroke-width:1;stroke:rgba(110,112,121,1.0);fill:none"/><path  d="M 177 675
L 177 670" style="stroke-width:1;stroke:rgba(110,112,121,1.0);fill:none"/><path  d="M 214 675
L 214 670" style="stroke-width:1;stroke:rgba(110,112,121,1.0);fill:none"/><path  d="M 250 675
L 250 670" style="stroke-width:1;stroke:rgba(110,112,121,1.0);fill:none"/><path  d="M 287 675
L 287 670" style="stroke-width:1;stroke:rgba(110,112,121,1.0);fill:none"/><path  d="M 324 675
L 324 670" style="stroke-width:1;stroke:rgba(110,112,121,1.0);fill:none"/><path  d="M 361 675
L 361 670" style="stroke-width:1;stroke:rgba(110,112,121,1.0);fill:none"/><path  d="M 398 675
L 398 670" style="stroke-width:1;stroke:rgba(110,112,121,1.0);fill:none"/><path  d="M 434 675
L 434 670" style="stroke-width:1;stroke:rgba(110,112,121,1.0);fill:none"/><path  d="M 471 675
L 471 670" style="stroke-width:1;stroke:rgba(110,112,121,1.0);fill:none"/><path  d="M 508 675
L 508 670" style="stroke-width:1;stroke:rgba(110,112,121,1.0);fill:none"/><path  d="M 545 675
L 545 670" style="stroke-width:1;stroke:rgba(110,112,121,1.0);fill:none"/><path  d="M 582 675
L 582 670" style="stroke-width:1;stroke:rgba(110,112,121,1.0);fill:none"/><path  d="M 618 675
L 618 670" style="stroke-width:1;stroke:rgba(110,112,121,1.0);fill:none"/><path  d="M 655 675
L 655 670" style="stroke-width:1;stroke:rgba(110,112,121,1.0);fill:none"/><path  d="M 692 675
L 692 670" style="stroke-width:1;stroke:rgba(110,112,121,1.0);fill:none"/><path  d="M 729 675
L 729 670" style="stroke-width:1;stroke:rgba(110,112,121,1.0);fill:none"/><path  d="M 766 675
L 766 670" style="stroke-width:1;stroke:rgba(110,112,121,1.0);fill:none"/><path  d="M 802 675
L 802 670" style="stroke-width:1;stroke:rgba(110,112,121,1.0);fill:none"/><path  d="M 839 675
L 839 670" style="stroke-width:1;stroke:rgba(110,112,121,1.0);fill:none"/><path  d="M 876 675
L 876 670" style="stroke-width:1;stroke:rgba(110,112,121,1.0);fill:none"/><path  d="M 913 675
L 913 670" style="stroke-width:1;stroke:rgba(110,112,121,1.0);fill:none"/><path  d="M 950 675
L 950 670" style="stroke-width:1;stroke:rgba(110,112,121,1.0);fill:none"/><path  d="M 986 675
L 986 670" style="stroke-width:1;stroke:rgba(110,112,121,1.0);fill:none"/><path  d="M 1023 675
L 1023 670" style="stroke-width:1;stroke:rgba(110,112,121,1.0);fill:none"/><path  d="M 1060 675
L 1060 670" style="stroke-width:1;stroke:rgba(110,112,121,1.0);fill:none"/><path  d="M 1097 675
L 1097 670" style="stroke-width:1;stroke:rgba(110,112,121,1.0);fill:none"/><path  d="M 1134 675
L 1134 670" style="stroke-width:1;stroke:rgba(110,112,121,1.0);fill:none"/><path  d="M 1170 675
L 1170 670" style="stroke-width:1;stroke:rgba(110,112,121,1.0);fill:none"/><path  d="M 1207 675
L 1207 670" style="stroke-width:1;stroke:rgba(110,112,121,1.0);fill:none"/><path  d="M 1244 675
L 1244 670" style="stroke-width:1;stroke:rgba(110,112,121,1.0);fill:none"/><path  d="M 1281 675
L 1281 670" style="stroke-width:1;stroke:rgba(110,112,121,1.0);fill:none"/><path  d="M 1318 675
L 1318 670" style="stroke-width:1;stroke:rgba(110,112,121,1.0);fill:none"/><path  d="M 1354 675
L 1354 670" style="stroke-width:1;stroke:rgba(110,112,121,1.0);fill:none"/><path  d="M 1391 675
L 1391 670" style="stroke-width:1;stroke:rgba(110,112,121,1.0);fill:none"/><path  d="M 1428 675
L 1428 670" style="stroke-width:1;stroke:rgba(110,112,121,1.0);fill:none"/><path  d="M 1465 675
L 1465 670" style="stroke-width:1;stroke:rgba(110,112,121,1.0);fill:none"/><path  d="M 1502 675
L 1502 670" style="stroke-width:1;stroke:rgba(110,112,121,1.0);fill:none"/><path  d="M 1538 675
L 1538 670" style="stroke-width:1;stroke:rgba(110,112,121,1.0);fill:none"/><path  d="M 1575 675
L 1575 670" style="stroke-width:1;stroke:rgba(110,112,121,1.0);fill:none"/><path  d="M 1612 675
L 1612 670" style="stroke-width:1;stroke:rgba(110,112,121,1.0);fill:none"/><path  d="M 1649 675
L 1649 670" style="stroke-width:1;stroke:rgba(110,112,121,1.0);fill:none"/><path  d="M 1686 675
L 1686 670" style="stroke-width:1;stroke:rgba(110,112,121,1.0);fill:none"/><path  d="M 1722 675
L 1722 670" style="stroke-width:1;stroke:rgba(110,112,121,1.0);fill:none"/><path  d="M 1759 675
L 1759 670" style="stroke-width:1;stroke:rgba(110,112,121,1.0);fill:none"/><path  d="M 1796 675
L 1796 670" style="stroke-width:1;stroke:rgba(110,112,121,1.0);fill:none"/><path  d="M 1833 675
L 1833 670" style="stroke-width:1;stroke:rgba(110,112,121,1.0);fill:none"/><path  d="M 1870 675
L 1870 670" style="stroke-width:1;stroke:rgba(110,112,121,1.0);fill:none"/><path  d="M 67 670
L 1870 670" style="stroke-width:1;stroke:rgba(110,112,121,1.0);fill:none"/><text x="78" y="788" style="stroke-width:0;stroke:none;fill:rgba(70,70,70,1.0);font-size:12.8px;font-family:'Roboto Medium',sans-serif" transform="rotate(272.15,78,788)">AdaptiveSort</text><text x="114" y="788" style="stroke-width:0;stroke:none;fill:rgba(70,70,70,1.0);font-size:12.8px;font-family:'Roboto Medium',sans-serif" transform="rotate(272.15,114,788)">AmericanFlagSort</text><text x="151" y="788" style="stroke-width:0;stroke:none;fill:rgba(70,70,70,1.0);font-size:12.8px;font-family:'Roboto Medium',sans-serif" transform="rotate(272.15,151,788)">BeadSortInspired</text><text x="188" y="788" style="stroke-width:0;stroke:none;fill:rgba(70,70,70,1.0);font-size:12.8px;font-family:'Roboto Medium',sans-serif" transform="rotate(272.15,188,788)">BitonicSort</text><text x="225" y="788" style="stroke-width:0;stroke:none;fill:rgba(70,70,70,1.0);font-size:12.8px;font-family:'Roboto Medium',sans-serif" transform="rotate(272.15,225,788)">BitonicSortAny</text><text x="261" y="788" style="stroke-width:0;stroke:none;fill:rgba(70,70,70,1.0);font-size:12.8px;font-family:'Roboto Medium',sans-serif" transform="rotate(272.15,261,788)">BlockSort</text><text x="298" y="788" style="stroke-width:0;stroke:none;fill:rgba(70,70,70,1.0);font-size:12.8px;font-family:'Roboto Medium',sans-serif" transform="rotate(272.15,298,788)">BubbleSortEarly</text><text x="335" y="788" style="stroke-width:0;stroke:none;fill:rgba(70,70,70,1.0);font-size:12.8px;font-family:'Roboto Medium',sans-serif" transform="rotate(272.15,335,788)">BucketSort</text><text x="372" y="788" style="stroke-width:0;stroke:none;fill:rgba(70,70,70,1.0);font-size:12.8px;font-family:'Roboto Medium',sans-serif" transform="rotate(272.15,372,788)">BurstSort</text><text x="409" y="788" style="stroke-width:0;stroke:none;fill:rgba(70,70,70,1.0);font-size:12.8px;font-family:'Roboto Medium',sans-serif" transform="rotate(272.15,409,788)">CascadeSort</text><text x="444" y="788" style="stroke-width:0;stroke:none;fill:rgba(70,70,70,1.0);font-size:12.8px;font-family:'Roboto Medium',sans-serif" transform="rotate(272.15,444,788)">CocktailShakerSort</text><text x="482" y="788" style="stroke-width:0;stroke:none;fill:rgba(70,70,70,1.0);font-size:12.8px;font-family:'Roboto Medium',sans-serif" transform="rotate(272.15,482,788)">CombSort</text><text x="519" y="788" style="stroke-width:0;stroke:none;fill:rgba(70,70,70,1.0);font-size:12.8px;font-family:'Roboto Medium',sans-serif" transform="rotate(272.15,519,788)">CountingSort</text><text x="556" y="788" style="stroke-width:0;stroke:none;fill:rgba(70,70,70,1.0);font-size:12.8px;font-family:'Roboto Medium',sans-serif" transform="rotate(272.15,556,788)">CubeSort</text><text x="593" y="788" style="stroke-width:0;stroke:none;fill:rgba(70,70,70,1.0);font-size:12.8px;font-family:'Roboto Medium',sans-serif" transform="rotate(272.15,593,788)">CycleSort</text><text x="629" y="788" style="stroke-width:0;stroke:none;fill:rgba(70,70,70,1.0);font-size:12.8px;font-family:'Roboto Medium',sans-serif" transform="rotate(272.15,629,788)">ExchangeSort</text><text x="666" y="788" style="stroke-width:0;stroke:none;fill:rgba(70,70,70,1.0);font-size:12.8px;font-family:'Roboto Medium',sans-serif" transform="rotate(272.15,666,788)">FlashSort</text><text x="703" y="788" style="stroke-width:0;stroke:none;fill:rgba(70,70,70,1.0);font-size:12.8px;font-family:'Roboto Medium',sans-serif" transform="rotate(272.15,703,788)">GallopingSort</text><text x="740" y="788" style="stroke-width:0;stroke:none;fill:rgba(70,70,70,1.0);font-size:12.8px;font-family:'Roboto Medium',sans-serif" transform="rotate(272.15,740,788)">GnomeSort</text><text x="778" y="788" style="stroke-width:0;stroke:none;fill:rgba(70,70,70,1.0);font-size:12.8px;font-family:'Roboto Medium',sans-serif" transform="rotate(272.15,778,788)">GrailSort</text><text x="813" y="788" style="stroke-width:0;stroke:none;fill:rgba(70,70,70,1.0);font-size:12.8px;font-family:'Roboto Medium',sans-serif" transform="rotate(272.15,813,788)">HeapSort</text><text x="850" y="788" style="stroke-width:0;stroke:none;fill:rgba(70,70,70,1.0);font-size:12.8px;font-family:'Roboto Medium',sans-serif" transform="rotate(272.15,850,788)">HybridSortSonnet</text><text x="887" y="788" style="stroke-width:0;stroke:none;fill:rgba(70,70,70,1.0);font-size:12.8px;font-family:'Roboto Medium',sans-serif" transform="rotate(272.15,887,788)">InsertionSort</text><text x="925" y="788" style="stroke-width:0;stroke:none;fill:rgba(70,70,70,1.0);font-size:12.8px;font-family:'Roboto Medium',sans-serif" transform="rotate(272.15,925,788)">IntroSort</text><text x="961" y="788" style="stroke-width:0;stroke:none;fill:rgba(70,70,70,1.0);font-size:12.8px;font-family:'Roboto Medium',sans-serif" transform="rotate(272.15,961,788)">JupiterSort</text><text x="997" y="788" style="stroke-width:0;stroke:none;fill:rgba(70,70,70,1.0);font-size:12.8px;font-family:'Roboto Medium',sans-serif" transform="rotate(272.15,997,788)">LibrarySort</text><text x="1034" y="788" style="stroke-width:0;stroke:none;fill:rgba(70,70,70,1.0);font-size:12.8px;font-family:'Roboto Medium',sans-serif" transform="rotate(272.15,1034,788)">MergeSort</text><text x="1071" y="788" style="stroke-width:0;stroke:none;fill:rgba(70,70,70,1.0);font-size:12.8px;font-family:'Roboto Medium',sans-serif" transform="rotate(272.15,1071,788)">OddEvenSort</text><text x="1108" y="788" style="stroke-width:0;stroke:none;fill:rgba(70,70,70,1.0);font-size:12.8px;font-family:'Roboto Medium',sans-serif" transform="rotate(272.15,1108,788)">PancakeSort</text><text x="1145" y="788" style="stroke-width:0;stroke:none;fill:rgba(70,70,70,1.0);font-size:12.8px;font-family:'Roboto Medium',sans-serif" transform="rotate(272.15,1145,788)">PatienceSort</text><text x="1181" y="788" style="stroke-width:0;stroke:none;fill:rgba(70,70,70,1.0);font-size:12.8px;font-family:'Roboto Medium',sans-serif" transform="rotate(272.15,1181,788)">PigeonholeSort</text><text x="1218" y="788" style="stroke-width:0;stroke:none;fill:rgba(70,70,70,1.0);font-size:12.8px;font-family:'Roboto Medium',sans-serif" transform="rotate(272.15,1218,788)">PostmanSort</text><text x="1255" y="788" style="stroke-width:0;stroke:none;fill:rgba(70,70,70,1.0);font-size:12.8px;font-family:'Roboto Medium',sans-serif" transform="rotate(272.15,1255,788)">QuantumSortO3</text><text x="1292" y="788" style="stroke-width:0;stroke:none;fill:rgba(70,70,70,1.0);font-size:12.8px;font-family:'Roboto Medium',sans-serif" transform="rotate(272.15,1292,788)">QuickSort</text><text x="1329" y="788" style="stroke-width:0;stroke:none;fill:rgba(70,70,70,1.0);font-size:12.8px;font-family:'Roboto Medium',sans-serif" transform="rotate(272.15,1329,788)">RadixSortLSD</text><text x="1365" y="788" style="stroke-width:0;stroke:none;fill:rgba(70,70,70,1.0);font-size:12.8px;font-family:'Roboto Medium',sans-serif" transform="rotate(272.15,1365,788)">RadixSortMSD</text><text x="1402" y="788" style="stroke-width:0;stroke:none;fill:rgba(70,70,70,1.0);font-size:12.8px;font-family:'Roboto Medium',sans-serif" transform="rotate(272.15,1402,788)">SampleSort</text><text x="1439" y="788" style="stroke-width:0;stroke:none;fill:rgba(70,70,70,1.0);font-size:12.8px;font-family:'Roboto Medium',sans-serif" transform="rotate(272.15,1439,788)">SelectionSort</text><text x="1477" y="788" style="stroke-width:0;stroke:none;fill:rgba(70,70,70,1.0);font-size:12.8px;font-family:'Roboto Medium',sans-serif" transform="rotate(272.15,1477,788)">ShellSort</text><text x="1512" y="788" style="stroke-width:0;stroke:none;fill:rgba(70,70,70,1.0);font-size:12.8px;font-family:'Roboto Medium',sans-serif" transform="rotate(272.15,1512,788)">SimplePancakeSort</text><text x="1549" y="788" style="stroke-width:0;stroke:none;fill:rgba(70,70,70,1.0);font-size:12.8px;font-family:'Roboto Medium',sans-serif" transform="rotate(272.15,1549,788)">SmoothSort</text><text x="1586" y="788" style="stroke-width:0;stroke:none;fill:rgba(70,70,70,1.0);font-size:12.8px;font-family:'Roboto Medium',sans-serif" transform="rotate(272.15,1586,788)">SpreadSort</text><text x="1624" y="788" style="stroke-width:0;stroke:none;fill:rgba(70,70,70,1.0);font-size:12.8px;font-family:'Roboto Medium',sans-serif" transform="rotate(272.15,1624,788)">StdSort</text><text x="1660" y="788" style="stroke-width:0;stroke:none;fill:rgba(70,70,70,1.0);font-size:12.8px;font-family:'Roboto Medium',sans-serif" transform="rotate(272.15,1660,788)">StrandSort</text><text x="1698" y="788" style="stroke-width:0;stroke:none;fill:rgba(70,70,70,1.0);font-size:12.8px;font-family:'Roboto Medium',sans-serif" transform="rotate(272.15,1698,788)">TimSort</text><text x="1733" y="788" style="stroke-width:0;stroke:none;fill:rgba(70,70,70,1.0);font-size:12.8px;font-family:'Roboto Medium',sans-serif" transform="rotate(272.15,1733,788)">TournamentSort</text><text x="1771" y="788" style="stroke-width:0;stroke:none;fill:rgba(70,70,70,1.0);font-size:12.8px;font-family:'Roboto Medium',sans-serif" transform="rotate(272.15,1771,788)">TreeSort</text><text x="1807" y="788" style="stroke-width:0;stroke:none;fill:rgba(70,70,70,1.0);font-size:12.8px;font-family:'Roboto Medium',sans-serif" transform="rotate(272.15,1807,788)">WeaveMergeSort</text><text x="1845" y="788" style="stroke-width:0;stroke:none;fill:rgba(70,70,70,1.0);font-size:12.8px;font-family:'Roboto Medium',sans-serif" transform="rotate(272.15,1845,788)">WikiSort</text><path  d="M 72 618
L 98 618
L 98 669
L 72 669
L 72 618" style="stroke-width:0;stroke:none;fill:rgba(84,112,198,1.0)"/><path  d="M 108 121
L 134 121
L 134 669
L 108 669
L 108 121" style="stroke-width:0;stroke:none;fill:rgba(84,112,198,1.0)"/><path  d="M 145 643
L 171 643
L 171 669
L 145 669
L 145 643" style="stroke-width:0;stroke:none;fill:rgba(84,112,198,1.0)"/><path  d="M 182 583
L 208 583
L 208 669
L 182 669
L 182 583" style="stroke-width:0;stroke:none;fill:rgba(84,112,198,1.0)"/><path  d="M 219 359
L 245 359
L 245 669
L 219 669
L 219 359" style="stroke-width:0;stroke:none;fill:rgba(84,112,198,1.0)"/><path  d="M 255 603
L 281 603
L 281 669
L 255 669
L 255 603" style="stroke-width:0;stroke:none;fill:rgba(84,112,198,1.0)"/><path  d="M 292 662
L 318 662
L 318 669
L 292 669
L 292 662" style="stroke-width:0;stroke:none;fill:rgba(84,112,198,1.0)"/><path  d="M 329 445
L 355 445
L 355 669
L 329 669
L 329 445" style="stroke-width:0;stroke:none;fill:rgba(84,112,198,1.0)"/><path  d="M 366 563
L 392 563
L 392 669
L 366 669
L 366 563" style="stroke-width:0;stroke:none;fill:rgba(84,112,198,1.0)"/><path  d="M 403 637
L 429 637
L 429 669
L 403 669
L 403 637" style="stroke-width:0;stroke:none;fill:rgba(84,112,198,1.0)"/><path  d="M 439 663
L 465 663
L 465 669
L 439 669
L 439 663" style="stroke-width:0;stroke:none;fill:rgba(84,112,198,1.0)"/><path  d="M 476 643
L 502 643
L 502 669
L 476 669
L 476 643" style="stroke-width:0;stroke:none;fill:rgba(84,112,198,1.0)"/><path  d="M 513 607
L 539 607
L 539 669
L 513 669
L 513 607" style="stroke-width:0;stroke:none;fill:rgba(84,112,198,1.0)"/><path  d="M 550 660
L 576 660
L 576 669
L 550 669
L 550 660" style="stroke-width:0;stroke:none;fill:rgba(84,112,198,1.0)"/><path  d="M 587 639
L 613 639
L 613 669
L 587 669
L 587 639" style="stroke-width:0;stroke:none;fill:rgba(84,112,198,1.0)"/><path  d="M 623 648
L 649 648
L 649 669
L 623 669
L 623 648" style="stroke-width:0;stroke:none;fill:rgba(84,112,198,1.0)"/><path  d="M 660 659
L 686 659
L 686 669
L 660 669
L 660 659" style="stroke-width:0;stroke:none;fill:rgba(84,112,198,1.0)"/><path  d="M 697 665
L 723 665
L 723 669
L 697 669
L 697 665" style="stroke-width:0;stroke:none;fill:rgba(84,112,198,1.0)"/><path  d="M 734 662
L 760 662
L 760 669
L 734 669
L 734 662" style="stroke-width:0;stroke:none;fill:rgba(84,112,198,1.0)"/><path  d="M 771 661
L 797 661
L 797 669
L 771 669
L 771 661" style="stroke-width:0;stroke:none;fill:rgba(84,112,198,1.0)"/><path  d="M 807 645
L 833 645
L 833 669
L 807 669
L 807 645" style="stroke-width:0;stroke:none;fill:rgba(84,112,198,1.0)"/><path  d="M 844 654
L 870 654
L 870 669
L 844 669
L 844 654" style="stroke-width:0;stroke:none;fill:rgba(84,112,198,1.0)"/><path  d="M 881 662
L 907 662
L 907 669
L 881 669
L 881 662" style="stroke-width:0;stroke:none;fill:rgba(84,112,198,1.0)"/><path  d="M 918 644
L 944 644
L 944 669
L 918 669
L 918 644" style="stroke-width:0;stroke:none;fill:rgba(84,112,198,1.0)"/><path  d="M 955 660
L 981 660
L 981 669
L 955 669
L 955 660" style="stroke-width:0;stroke:none;fill:rgba(84,112,198,1.0)"/><path  d="M 991 519
L 1017 519
L 1017 669
L 991 669
L 991 519" style="stroke-width:0;stroke:none;fill:rgba(84,112,198,1.0)"/><path  d="M 1028 348
L 1054 348
L 1054 669
L 1028 669
L 1028 348" style="stroke-width:0;stroke:none;fill:rgba(84,112,198,1.0)"/><path  d="M 1065 662
L 1091 662
L 1091 669
L 1065 669
L 1065 662" style="stroke-width:0;stroke:none;fill:rgba(84,112,198,1.0)"/><path  d="M 1102 623
L 1128 623
L 1128 669
L 1102 669
L 1102 623" style="stroke-width:0;stroke:none;fill:rgba(84,112,198,1.0)"/><path  d="M 1139 455
L 1165 455
L 1165 669
L 1139 669
L 1139 455" style="stroke-width:0;stroke:none;fill:rgba(84,112,198,1.0)"/><path  d="M 1175 487
L 1201 487
L 1201 669
L 1175 669
L 1175 487" style="stroke-width:0;stroke:none;fill:rgba(84,112,198,1.0)"/><path  d="M 1212 614
L 1238 614
L 1238 669
L 1212 669
L 1212 614" style="stroke-width:0;stroke:none;fill:rgba(84,112,198,1.0)"/><path  d="M 1249 613
L 1275 613
L 1275 669
L 1249 669
L 1249 613" style="stroke-width:0;stroke:none;fill:rgba(84,112,198,1.0)"/><path  d="M 1286 622
L 1312 622
L 1312 669
L 1286 669
L 1286 622" style="stroke-width:0;stroke:none;fill:rgba(84,112,198,1.0)"/><path  d="M 1323 275
L 1349 275
L 1349 669
L 1323 669
L 1323 275" style="stroke-width:0;stroke:none;fill:rgba(84,112,198,1.0)"/><path  d="M 1359 637
L 1385 637
L 1385 669
L 1359 669
L 1359 637" style="stroke-width:0;stroke:none;fill:rgba(84,112,198,1.0)"/><path  d="M 1396 659
L 1422 659
L 1422 669
L 1396 669
L 1396 659" style="stroke-width:0;stroke:none;fill:rgba(84,112,198,1.0)"/><path  d="M 1433 633
L 1459 633
L 1459 669
L 1433 669
L 1433 633" style="stroke-width:0;stroke:none;fill:rgba(84,112,198,1.0)"/><path  d="M 1470 653
L 1496 653
L 1496 669
L 1470 669
L 1470 653" style="stroke-width:0;stroke:none;fill:rgba(84,112,198,1.0)"/><path  d="M 1507 617
L 1533 617
L 1533 669
L 1507 669
L 1507 617" style="stroke-width:0;stroke:none;fill:rgba(84,112,198,1.0)"/><path  d="M 1543 603
L 1569 603
L 1569 669
L 1543 669
L 1543 603" style="stroke-width:0;stroke:none;fill:rgba(84,112,198,1.0)"/><path  d="M 1580 657
L 1606 657
L 1606 669
L 1580 669
L 1580 657" style="stroke-width:0;stroke:none;fill:rgba(84,112,198,1.0)"/><path  d="M 1617 659
L 1643 659
L 1643 669
L 1617 669
L 1617 659" style="stroke-width:0;stroke:none;fill:rgba(84,112,198,1.0)"/><path  d="M 1654 619
L 1680 619
L 1680 669
L 1654 669
L 1654 619" style="stroke-width:0;stroke:none;fill:rgba(84,112,198,1.0)"/><path  d="M 1691 630
L 1717 630
L 1717 669
L 1691 669
L 1691 630" style="stroke-width:0;stroke:none;fill:rgba(84,112,198,1.0)"/><path  d="M 1727 576
L 1753 576
L 1753 669
L 1727 669
L 1727 576" style="stroke-width:0;stroke:none;fill:rgba(84,112,198,1.0)"/><path  d="M 1764 290
L 1790 290
L 1790 669
L 1764 669
L 1764 290" style="stroke-width:0;stroke:none;fill:rgba(84,112,198,1.0)"/><path  d="M 1801 632
L 1827 632
L 1827 669
L 1801 669
L 1801 632" style="stroke-width:0;stroke:none;fill:rgba(84,112,198,1.0)"/><path  d="M 1838 462
L 1864 462
L 1864 669
L 1838 669
L 1838 462" style="stroke-width:0;stroke:none;fill:rgba(84,112,198,1.0)"/><path  d="M 118 113
A 15 15 330.00 1 1 124 113
L 121 99
Z" style="stroke-width:0;stroke:none;fill:rgba(84,112,198,1.0)"/><path  d="M 106 99
Q121,136 136,99
Z" style="stroke-width:0;stroke:none;fill:rgba(84,112,198,1.0)"/><text x="105" y="104" style="stroke-width:0;stroke:none;fill:rgba(238,238,238,1.0);font-size:10.2px;font-family:'Roboto Medium',sans-serif">768.74</text><path  d="M 707 657
A 15 15 330.00 1 1 713 657
L 710 643
Z" style="stroke-width:0;stroke:none;fill:rgba(84,112,198,1.0)"/><path  d="M 695 643
Q710,680 725,643
Z" style="stroke-width:0;stroke:none;fill:rgba(84,112,198,1.0)"/><text x="697" y="648" style="stroke-width:0;stroke:none;fill:rgba(238,238,238,1.0);font-size:12.8px;font-family:'Roboto Medium',sans-serif">8.28</text><circle cx="70" cy="583" r="3" style="stroke-width:1;stroke:rgba(84,112,198,1.0);fill:rgba(84,112,198,1.0)"/><path stroke-dasharray="4.0, 2.0" d="" style="stroke-width:1;stroke:rgba(84,112,198,1.0);fill:rgba(84,112,198,1.0)"/><path stroke-dasharray="4.0, 2.0" d="M 76 583
L 1852 583" style="stroke-width:1;stroke:rgba(84,112,198,1.0);fill:rgba(84,112,198,1.0)"/><path stroke-dasharray="4.0, 2.0" d="M 1852 578
L 1868 583
L 1852 588
L 1857 583
L 1852 578" style="stroke-width:1;stroke:rgba(84,112,198,1.0);fill:rgba(84,112,198,1.0)"/><text x="1870" y="587" style="stroke-width:0;stroke:none;fill:rgba(70,70,70,1.0);font-size:12.8px;font-family:'Roboto Medium',sans-serif">122.84</text></svg>