<svg xmlns="http://www.w3.org/2000/svg" xmlns:xlink="http://www.w3.org/1999/xlink" width="1920" height="800">\n<path  d="M 0 0
L 1920 0
L 1920 800
L 0 800
L 0 0" style="stroke-width:0;stroke:none;fill:rgba(255,255,255,1.0)"/><path  d="M 936 44
L 966 44" style="stroke-width:3;stroke:rgba(84,112,198,1.0);fill:rgba(84,112,198,1.0)"/><circle cx="951" cy="44" r="5" style="stroke-width:3;stroke:rgba(84,112,198,1.0);fill:rgba(84,112,198,1.0)"/><path  d="" style="stroke-width:3;stroke:rgba(84,112,198,1.0);fill:rgba(84,112,198,1.0)"/><text x="968" y="50" style="stroke-width:0;stroke:none;fill:rgba(70,70,70,1.0);font-size:15.3px;font-family:'Roboto Medium',sans-serif">100</text><text x="10" y="35" style="stroke-width:0;stroke:none;fill:rgba(70,70,70,1.0);font-size:25.6px;font-family:'Roboto Medium',sans-serif">MiddleToBack</text><text x="10" y="77" style="stroke-width:0;stroke:none;fill:rgba(70,70,70,1.0);font-size:15.3px;font-family:'Roboto Medium',sans-serif">17.04k ns</text><text x="19" y="177" style="stroke-width:0;stroke:none;fill:rgba(70,70,70,1.0);font-size:15.3px;font-family:'Roboto Medium',sans-serif">14.2k ns</text><text x="10" y="277" style="stroke-width:0;stroke:none;fill:rgba(70,70,70,1.0);font-size:15.3px;font-family:'Roboto Medium',sans-serif">11.36k ns</text><text x="19" y="377" style="stroke-width:0;stroke:none;fill:rgba(70,70,70,1.0);font-size:15.3px;font-family:'Roboto Medium',sans-serif">8.52k ns</text><text x="19" y="477" style="stroke-width:0;stroke:none;fill:rgba(70,70,70,1.0);font-size:15.3px;font-family:'Roboto Medium',sans-serif">5.68k ns</text><text x="19" y="577" style="stroke-width:0;stroke:none;fill:rgba(70,70,70,1.0);font-size:15.3px;font-family:'Roboto Medium',sans-serif">2.84k ns</text><text x="49" y="677" style="stroke-width:0;stroke:none;fill:rgba(70,70,70,1.0);font-size:15.3px;font-family:'Roboto Medium',sans-serif">0 ns</text><path  d="M 88 70
L 1870 70" style="stroke-width:1;stroke:rgba(224,230,242,1.0);fill:none"/><path  d="M 88 170
L 1870 170" style="stroke-width:1;stroke:rgba(224,230,242,1.0);fill:none"/><path  d="M 88 270
L 1870 270" style="stroke-width:1;stroke:rgba(224,230,242,1.0);fill:none"/><path  d="M 88 370
L 1870 370" style="stroke-width:1;stroke:rgba(224,230,242,1.0);fill:none"/><path  d="M 88 470
L 1870 470" style="stroke-width:1;stroke:rgba(224,230,242,1.0);fill:none"/><path  d="M 88 570
L 1870 570" style="stroke-width:1;stroke:rgba(224,230,242,1.0);fill:none"/><path  d="M 88 675
L 88 670" style="stroke-width:1;stroke:rgba(110,112,121,1.0);fill:none"/><path  d="M 124 675
L 124 670" style="stroke-width:1;stroke:rgba(110,112,121,1.0);fill:none"/><path  d="M 160 675
L 160 670" style="stroke-width:1;stroke:rgba(110,112,121,1.0);fill:none"/><path  d="M 197 675
L 197 670" style="stroke-width:1;stroke:rgba(110,112,121,1.0);fill:none"/><path  d="M 233 675
L 233 670" style="stroke-width:1;stroke:rgba(110,112,121,1.0);fill:none"/><path  d="M 269 675
L 269 670" style="stroke-width:1;stroke:rgba(110,112,121,1.0);fill:none"/><path  d="M 306 675
L 306 670" style="stroke-width:1;stroke:rgba(110,112,121,1.0);fill:none"/><path  d="M 342 675
L 342 670" style="stroke-width:1;stroke:rgba(110,112,121,1.0);fill:none"/><path  d="M 378 675
L 378 670" style="stroke-width:1;stroke:rgba(110,112,121,1.0);fill:none"/><path  d="M 415 675
L 415 670" style="stroke-width:1;stroke:rgba(110,112,121,1.0);fill:none"/><path  d="M 451 675
L 451 670" style="stroke-width:1;stroke:rgba(110,112,121,1.0);fill:none"/><path  d="M 488 675
L 488 670" style="stroke-width:1;stroke:rgba(110,112,121,1.0);fill:none"/><path  d="M 524 675
L 524 670" style="stroke-width:1;stroke:rgba(110,112,121,1.0);fill:none"/><path  d="M 560 675
L 560 670" style="stroke-width:1;stroke:rgba(110,112,121,1.0);fill:none"/><path  d="M 597 675
L 597 670" style="stroke-width:1;stroke:rgba(110,112,121,1.0);fill:none"/><path  d="M 633 675
L 633 670" style="stroke-width:1;stroke:rgba(110,112,121,1.0);fill:none"/><path  d="M 669 675
L 669 670" style="stroke-width:1;stroke:rgba(110,112,121,1.0);fill:none"/><path  d="M 706 675
L 706 670" style="stroke-width:1;stroke:rgba(110,112,121,1.0);fill:none"/><path  d="M 742 675
L 742 670" style="stroke-width:1;stroke:rgba(110,112,121,1.0);fill:none"/><path  d="M 778 675
L 778 670" style="stroke-width:1;stroke:rgba(110,112,121,1.0);fill:none"/><path  d="M 815 675
L 815 670" style="stroke-width:1;stroke:rgba(110,112,121,1.0);fill:none"/><path  d="M 851 675
L 851 670" style="stroke-width:1;stroke:rgba(110,112,121,1.0);fill:none"/><path  d="M 888 675
L 888 670" style="stroke-width:1;stroke:rgba(110,112,121,1.0);fill:none"/><path  d="M 924 675
L 924 670" style="stroke-width:1;stroke:rgba(110,112,121,1.0);fill:none"/><path  d="M 960 675
L 960 670" style="stroke-width:1;stroke:rgba(110,112,121,1.0);fill:none"/><path  d="M 997 675
L 997 670" style="stroke-width:1;stroke:rgba(110,112,121,1.0);fill:none"/><path  d="M 1033 675
L 1033 670" style="stroke-width:1;stroke:rgba(110,112,121,1.0);fill:none"/><path  d="M 1069 675
L 1069 670" style="stroke-width:1;stroke:rgba(110,112,121,1.0);fill:none"/><path  d="M 1106 675
L 1106 670" style="stroke-width:1;stroke:rgba(110,112,121,1.0);fill:none"/><path  d="M 1142 675
L 1142 670" style="stroke-width:1;stroke:rgba(110,112,121,1.0);fill:none"/><path  d="M 1179 675
L 1179 670" style="stroke-width:1;stroke:rgba(110,112,121,1.0);fill:none"/><path  d="M 1215 675
L 1215 670" style="stroke-width:1;stroke:rgba(110,112,121,1.0);fill:none"/><path  d="M 1251 675
L 1251 670" style="stroke-width:1;stroke:rgba(110,112,121,1.0);fill:none"/><path  d="M 1288 675
L 1288 670" style="stroke-width:1;stroke:rgba(110,112,121,1.0);fill:none"/><path  d="M 1324 675
L 1324 670" style="stroke-width:1;stroke:rgba(110,112,121,1.0);fill:none"/><path  d="M 1360 675
L 1360 670" style="stroke-width:1;stroke:rgba(110,112,121,1.0);fill:none"/><path  d="M 1397 675
L 1397 670" style="stroke-width:1;stroke:rgba(110,112,121,1.0);fill:none"/><path  d="M 1433 675
L 1433 670" style="stroke-width:1;stroke:rgba(110,112,121,1.0);fill:none"/><path  d="M 1469 675
L 1469 670" style="stroke-width:1;stroke:rgba(110,112,121,1.0);fill:none"/><path  d="M 1506 675
L 1506 670" style="stroke-width:1;stroke:rgba(110,112,121,1.0);fill:none"/><path  d="M 1542 675
L 1542 670" style="stroke-width:1;stroke:rgba(110,112,121,1.0);fill:none"/><path  d="M 1579 675
L 1579 670" style="stroke-width:1;stroke:rgba(110,112,121,1.0);fill:none"/><path  d="M 1615 675
L 1615 670" style="stroke-width:1;stroke:rgba(110,112,121,1.0);fill:none"/><path  d="M 1651 675
L 1651 670" style="stroke-width:1;stroke:rgba(110,112,121,1.0);fill:none"/><path  d="M 1688 675
L 1688 670" style="stroke-width:1;stroke:rgba(110,112,121,1.0);fill:none"/><path  d="M 1724 675
L 1724 670" style="stroke-width:1;stroke:rgba(110,112,121,1.0);fill:none"/><path  d="M 1760 675
L 1760 670" style="stroke-width:1;stroke:rgba(110,112,121,1.0);fill:none"/><path  d="M 1797 675
L 1797 670" style="stroke-width:1;stroke:rgba(110,112,121,1.0);fill:none"/><path  d="M 1833 675
L 1833 670" style="stroke-width:1;stroke:rgba(110,112,121,1.0);fill:none"/><path  d="M 1870 675
L 1870 670" style="stroke-width:1;stroke:rgba(110,112,121,1.0);fill:none"/><path  d="M 88 670
L 1870 670" style="stroke-width:1;stroke:rgba(110,112,121,1.0);fill:none"/><text x="99" y="788" style="stroke-width:0;stroke:none;fill:rgba(70,70,70,1.0);font-size:12.8px;font-family:'Roboto Medium',sans-serif" transform="rotate(272.15,99,788)">AdaptiveSort</text><text x="135" y="788" style="stroke-width:0;stroke:none;fill:rgba(70,70,70,1.0);font-size:12.8px;font-family:'Roboto Medium',sans-serif" transform="rotate(272.15,135,788)">AmericanFlagSort</text><text x="171" y="788" style="stroke-width:0;stroke:none;fill:rgba(70,70,70,1.0);font-size:12.8px;font-family:'Roboto Medium',sans-serif" transform="rotate(272.15,171,788)">BeadSortInspired</text><text x="208" y="788" style="stroke-width:0;stroke:none;fill:rgba(70,70,70,1.0);font-size:12.8px;font-family:'Roboto Medium',sans-serif" transform="rotate(272.15,208,788)">BitonicSort</text><text x="244" y="788" style="stroke-width:0;stroke:none;fill:rgba(70,70,70,1.0);font-size:12.8px;font-family:'Roboto Medium',sans-serif" transform="rotate(272.15,244,788)">BitonicSortAny</text><text x="280" y="788" style="stroke-width:0;stroke:none;fill:rgba(70,70,70,1.0);font-size:12.8px;font-family:'Roboto Medium',sans-serif" transform="rotate(272.15,280,788)">BlockSort</text><text x="317" y="788" style="stroke-width:0;stroke:none;fill:rgba(70,70,70,1.0);font-size:12.8px;font-family:'Roboto Medium',sans-serif" transform="rotate(272.15,317,788)">BubbleSortEarly</text><text x="353" y="788" style="stroke-width:0;stroke:none;fill:rgba(70,70,70,1.0);font-size:12.8px;font-family:'Roboto Medium',sans-serif" transform="rotate(272.15,353,788)">BucketSort</text><text x="389" y="788" style="stroke-width:0;stroke:none;fill:rgba(70,70,70,1.0);font-size:12.8px;font-family:'Roboto Medium',sans-serif" transform="rotate(272.15,389,788)">BurstSort</text><text x="426" y="788" style="stroke-width:0;stroke:none;fill:rgba(70,70,70,1.0);font-size:12.8px;font-family:'Roboto Medium',sans-serif" transform="rotate(272.15,426,788)">CascadeSort</text><text x="461" y="788" style="stroke-width:0;stroke:none;fill:rgba(70,70,70,1.0);font-size:12.8px;font-family:'Roboto Medium',sans-serif" transform="rotate(272.15,461,788)">CocktailShakerSort</text><text x="499" y="788" style="stroke-width:0;stroke:none;fill:rgba(70,70,70,1.0);font-size:12.8px;font-family:'Roboto Medium',sans-serif" transform="rotate(272.15,499,788)">CombSort</text><text x="535" y="788" style="stroke-width:0;stroke:none;fill:rgba(70,70,70,1.0);font-size:12.8px;font-family:'Roboto Medium',sans-serif" transform="rotate(272.15,535,788)">CountingSort</text><text x="571" y="788" style="stroke-width:0;stroke:none;fill:rgba(70,70,70,1.0);font-size:12.8px;font-family:'Roboto Medium',sans-serif" transform="rotate(272.15,571,788)">CubeSort</text><text x="608" y="788" style="stroke-width:0;stroke:none;fill:rgba(70,70,70,1.0);font-size:12.8px;font-family:'Roboto Medium',sans-serif" transform="rotate(272.15,608,788)">CycleSort</text><text x="644" y="788" style="stroke-width:0;stroke:none;fill:rgba(70,70,70,1.0);font-size:12.8px;font-family:'Roboto Medium',sans-serif" transform="rotate(272.15,644,788)">ExchangeSort</text><text x="680" y="788" style="stroke-width:0;stroke:none;fill:rgba(70,70,70,1.0);font-size:12.8px;font-family:'Roboto Medium',sans-serif" transform="rotate(272.15,680,788)">FlashSort</text><text x="717" y="788" style="stroke-width:0;stroke:none;fill:rgba(70,70,70,1.0);font-size:12.8px;font-family:'Roboto Medium',sans-serif" transform="rotate(272.15,717,788)">GallopingSort</text><text x="753" y="788" style="stroke-width:0;stroke:none;fill:rgba(70,70,70,1.0);font-size:12.8px;font-family:'Roboto Medium',sans-serif" transform="rotate(272.15,753,788)">GnomeSort</text><text x="790" y="788" style="stroke-width:0;stroke:none;fill:rgba(70,70,70,1.0);font-size:12.8px;font-family:'Roboto Medium',sans-serif" transform="rotate(272.15,790,788)">GrailSort</text><text x="826" y="788" style="stroke-width:0;stroke:none;fill:rgba(70,70,70,1.0);font-size:12.8px;font-family:'Roboto Medium',sans-serif" transform="rotate(272.15,826,788)">HeapSort</text><text x="862" y="788" style="stroke-width:0;stroke:none;fill:rgba(70,70,70,1.0);font-size:12.8px;font-family:'Roboto Medium',sans-serif" transform="rotate(272.15,862,788)">HybridSortSonnet</text><text x="899" y="788" style="stroke-width:0;stroke:none;fill:rgba(70,70,70,1.0);font-size:12.8px;font-family:'Roboto Medium',sans-serif" transform="rotate(272.15,899,788)">InsertionSort</text><text x="936" y="788" style="stroke-width:0;stroke:none;fill:rgba(70,70,70,1.0);font-size:12.8px;font-family:'Roboto Medium',sans-serif" transform="rotate(272.15,936,788)">IntroSort</text><text x="971" y="788" style="stroke-width:0;stroke:none;fill:rgba(70,70,70,1.0);font-size:12.8px;font-family:'Roboto Medium',sans-serif" transform="rotate(272.15,971,788)">JupiterSort</text><text x="1008" y="788" style="stroke-width:0;stroke:none;fill:rgba(70,70,70,1.0);font-size:12.8px;font-family:'Roboto Medium',sans-serif" transform="rotate(272.15,1008,788)">LibrarySort</text><text x="1044" y="788" style="stroke-width:0;stroke:none;fill:rgba(70,70,70,1.0);font-size:12.8px;font-family:'Roboto Medium',sans-serif" transform="rotate(272.15,1044,788)">MergeSort</text><text x="1080" y="788" style="stroke-width:0;stroke:none;fill:rgba(70,70,70,1.0);font-size:12.8px;font-family:'Roboto Medium',sans-serif" transform="rotate(272.15,1080,788)">OddEvenSort</text><text x="1117" y="788" style="stroke-width:0;stroke:none;fill:rgba(70,70,70,1.0);font-size:12.8px;font-family:'Roboto Medium',sans-serif" transform="rotate(272.15,1117,788)">PancakeSort</text><text x="1153" y="788" style="stroke-width:0;stroke:none;fill:rgba(70,70,70,1.0);font-size:12.8px;font-family:'Roboto Medium',sans-serif" transform="rotate(272.15,1153,788)">PatienceSort</text><text x="1190" y="788" style="stroke-width:0;stroke:none;fill:rgba(70,70,70,1.0);font-size:12.8px;font-family:'Roboto Medium',sans-serif" transform="rotate(272.15,1190,788)">PigeonholeSort</text><text x="1226" y="788" style="stroke-width:0;stroke:none;fill:rgba(70,70,70,1.0);font-size:12.8px;font-family:'Roboto Medium',sans-serif" transform="rotate(272.15,1226,788)">PostmanSort</text><text x="1262" y="788" style="stroke-width:0;stroke:none;fill:rgba(70,70,70,1.0);font-size:12.8px;font-family:'Roboto Medium',sans-serif" transform="rotate(272.15,1262,788)">QuantumSortO3</text><text x="1299" y="788" style="stroke-width:0;stroke:none;fill:rgba(70,70,70,1.0);font-size:12.8px;font-family:'Roboto Medium',sans-serif" transform="rotate(272.15,1299,788)">QuickSort</text><text x="1335" y="788" style="stroke-width:0;stroke:none;fill:rgba(70,70,70,1.0);font-size:12.8px;font-family:'Roboto Medium',sans-serif" transform="rotate(272.15,1335,788)">RadixSortLSD</text><text x="1371" y="788" style="stroke-width:0;stroke:none;fill:rgba(70,70,70,1.0);font-size:12.8px;font-family:'Roboto Medium',sans-serif" transform="rotate(272.15,1371,788)">RadixSortMSD</text><text x="1408" y="788" style="stroke-width:0;stroke:none;fill:rgba(70,70,70,1.0);font-size:12.8px;font-family:'Roboto Medium',sans-serif" transform="rotate(272.15,1408,788)">SampleSort</text><text x="1444" y="788" style="stroke-width:0;stroke:none;fill:rgba(70,70,70,1.0);font-size:12.8px;font-family:'Roboto Medium',sans-serif" transform="rotate(272.15,1444,788)">SelectionSort</text><text x="1481" y="788" style="stroke-width:0;stroke:none;fill:rgba(70,70,70,1.0);font-size:12.8px;font-family:'Roboto Medium',sans-serif" transform="rotate(272.15,1481,788)">ShellSort</text><text x="1516" y="788" style="stroke-width:0;stroke:none;fill:rgba(70,70,70,1.0);font-size:12.8px;font-family:'Roboto Medium',sans-serif" transform="rotate(272.15,1516,788)">SimplePancakeSort</text><text x="1553" y="788" style="stroke-width:0;stroke:none;fill:rgba(70,70,70,1.0);font-size:12.8px;font-family:'Roboto Medium',sans-serif" transform="rotate(272.15,1553,788)">SmoothSort</text><text x="1590" y="788" style="stroke-width:0;stroke:none;fill:rgba(70,70,70,1.0);font-size:12.8px;font-family:'Roboto Medium',sans-serif" transform="rotate(272.15,1590,788)">SpreadSort</text><text x="1627" y="788" style="stroke-width:0;stroke:none;fill:rgba(70,70,70,1.0);font-size:12.8px;font-family:'Roboto Medium',sans-serif" transform="rotate(272.15,1627,788)">StdSort</text><text x="1662" y="788" style="stroke-width:0;stroke:none;fill:rgba(70,70,70,1.0);font-size:12.8px;font-family:'Roboto Medium',sans-serif" transform="rotate(272.15,1662,788)">StrandSort</text><text x="1700" y="788" style="stroke-width:0;stroke:none;fill:rgba(70,70,70,1.0);font-size:12.8px;font-family:'Roboto Medium',sans-serif" transform="rotate(272.15,1700,788)">TimSort</text><text x="1735" y="788" style="stroke-width:0;stroke:none;fill:rgba(70,70,70,1.0);font-size:12.8px;font-family:'Roboto Medium',sans-serif" transform="rotate(272.15,1735,788)">TournamentSort</text><text x="1772" y="788" style="stroke-width:0;stroke:none;fill:rgba(70,70,70,1.0);font-size:12.8px;font-family:'Roboto Medium',sans-serif" transform="rotate(272.15,1772,788)">TreeSort</text><text x="1808" y="788" style="stroke-width:0;stroke:none;fill:rgba(70,70,70,1.0);font-size:12.8px;font-family:'Roboto Medium',sans-serif" transform="rotate(272.15,1808,788)">WeaveMergeSort</text><text x="1845" y="788" style="stroke-width:0;stroke:none;fill:rgba(70,70,70,1.0);font-size:12.8px;font-family:'Roboto Medium',sans-serif" transform="rotate(272.15,1845,788)">WikiSort</text><path  d="M 93 656
L 119 656
L 119 669
L 93 669
L 93 656" style="stroke-width:0;stroke:none;fill:rgba(84,112,198,1.0)"/><path  d="M 129 627
L 155 627
L 155 669
L 129 669
L 129 627" style="stroke-width:0;stroke:none;fill:rgba(84,112,198,1.0)"/><path  d="M 165 356
L 191 356
L 191 669
L 165 669
L 165 356" style="stroke-width:0;stroke:none;fill:rgba(84,112,198,1.0)"/><path  d="M 202 560
L 228 560
L 228 669
L 202 669
L 202 560" style="stroke-width:0;stroke:none;fill:rgba(84,112,198,1.0)"/><path  d="M 238 398
L 264 398
L 264 669
L 238 669
L 238 398" style="stroke-width:0;stroke:none;fill:rgba(84,112,198,1.0)"/><path  d="M 274 629
L 300 629
L 300 669
L 274 669
L 274 629" style="stroke-width:0;stroke:none;fill:rgba(84,112,198,1.0)"/><path  d="M 311 663
L 337 663
L 337 669
L 311 669
L 311 663" style="stroke-width:0;stroke:none;fill:rgba(84,112,198,1.0)"/><path  d="M 347 615
L 373 615
L 373 669
L 347 669
L 347 615" style="stroke-width:0;stroke:none;fill:rgba(84,112,198,1.0)"/><path  d="M 383 607
L 409 607
L 409 669
L 383 669
L 383 607" style="stroke-width:0;stroke:none;fill:rgba(84,112,198,1.0)"/><path  d="M 420 655
L 446 655
L 446 669
L 420 669
L 420 655" style="stroke-width:0;stroke:none;fill:rgba(84,112,198,1.0)"/><path  d="M 456 665
L 482 665
L 482 669
L 456 669
L 456 665" style="stroke-width:0;stroke:none;fill:rgba(84,112,198,1.0)"/><path  d="M 493 639
L 519 639
L 519 669
L 493 669
L 493 639" style="stroke-width:0;stroke:none;fill:rgba(84,112,198,1.0)"/><path  d="M 529 648
L 555 648
L 555 669
L 529 669
L 529 648" style="stroke-width:0;stroke:none;fill:rgba(84,112,198,1.0)"/><path  d="M 565 580
L 591 580
L 591 669
L 565 669
L 565 580" style="stroke-width:0;stroke:none;fill:rgba(84,112,198,1.0)"/><path  d="M 602 517
L 628 517
L 628 669
L 602 669
L 602 517" style="stroke-width:0;stroke:none;fill:rgba(84,112,198,1.0)"/><path  d="M 638 591
L 664 591
L 664 669
L 638 669
L 638 591" style="stroke-width:0;stroke:none;fill:rgba(84,112,198,1.0)"/><path  d="M 674 620
L 700 620
L 700 669
L 674 669
L 674 620" style="stroke-width:0;stroke:none;fill:rgba(84,112,198,1.0)"/><path  d="M 711 643
L 737 643
L 737 669
L 711 669
L 711 643" style="stroke-width:0;stroke:none;fill:rgba(84,112,198,1.0)"/><path  d="M 747 665
L 773 665
L 773 669
L 747 669
L 747 665" style="stroke-width:0;stroke:none;fill:rgba(84,112,198,1.0)"/><path  d="M 783 619
L 809 619
L 809 669
L 783 669
L 783 619" style="stroke-width:0;stroke:none;fill:rgba(84,112,198,1.0)"/><path  d="M 820 610
L 846 610
L 846 669
L 820 669
L 820 610" style="stroke-width:0;stroke:none;fill:rgba(84,112,198,1.0)"/><path  d="M 856 658
L 882 658
L 882 669
L 856 669
L 856 658" style="stroke-width:0;stroke:none;fill:rgba(84,112,198,1.0)"/><path  d="M 893 666
L 919 666
L 919 669
L 893 669
L 893 666" style="stroke-width:0;stroke:none;fill:rgba(84,112,198,1.0)"/><path  d="M 929 588
L 955 588
L 955 669
L 929 669
L 929 588" style="stroke-width:0;stroke:none;fill:rgba(84,112,198,1.0)"/><path  d="M 965 553
L 991 553
L 991 669
L 965 669
L 965 553" style="stroke-width:0;stroke:none;fill:rgba(84,112,198,1.0)"/><path  d="M 1002 610
L 1028 610
L 1028 669
L 1002 669
L 1002 610" style="stroke-width:0;stroke:none;fill:rgba(84,112,198,1.0)"/><path  d="M 1038 448
L 1064 448
L 1064 669
L 1038 669
L 1038 448" style="stroke-width:0;stroke:none;fill:rgba(84,112,198,1.0)"/><path  d="M 1074 616
L 1100 616
L 1100 669
L 1074 669
L 1074 616" style="stroke-width:0;stroke:none;fill:rgba(84,112,198,1.0)"/><path  d="M 1111 494
L 1137 494
L 1137 669
L 1111 669
L 1111 494" style="stroke-width:0;stroke:none;fill:rgba(84,112,198,1.0)"/><path  d="M 1147 124
L 1173 124
L 1173 669
L 1147 669
L 1147 124" style="stroke-width:0;stroke:none;fill:rgba(84,112,198,1.0)"/><path  d="M 1184 549
L 1210 549
L 1210 669
L 1184 669
L 1184 549" style="stroke-width:0;stroke:none;fill:rgba(84,112,198,1.0)"/><path  d="M 1220 649
L 1246 649
L 1246 669
L 1220 669
L 1220 649" style="stroke-width:0;stroke:none;fill:rgba(84,112,198,1.0)"/><path  d="M 1256 660
L 1282 660
L 1282 669
L 1256 669
L 1256 660" style="stroke-width:0;stroke:none;fill:rgba(84,112,198,1.0)"/><path  d="M 1293 488
L 1319 488
L 1319 669
L 1293 669
L 1293 488" style="stroke-width:0;stroke:none;fill:rgba(84,112,198,1.0)"/><path  d="M 1329 604
L 1355 604
L 1355 669
L 1329 669
L 1329 604" style="stroke-width:0;stroke:none;fill:rgba(84,112,198,1.0)"/><path  d="M 1365 643
L 1391 643
L 1391 669
L 1365 669
L 1365 643" style="stroke-width:0;stroke:none;fill:rgba(84,112,198,1.0)"/><path  d="M 1402 656
L 1428 656
L 1428 669
L 1402 669
L 1402 656" style="stroke-width:0;stroke:none;fill:rgba(84,112,198,1.0)"/><path  d="M 1438 529
L 1464 529
L 1464 669
L 1438 669
L 1438 529" style="stroke-width:0;stroke:none;fill:rgba(84,112,198,1.0)"/><path  d="M 1474 653
L 1500 653
L 1500 669
L 1474 669
L 1474 653" style="stroke-width:0;stroke:none;fill:rgba(84,112,198,1.0)"/><path  d="M 1511 489
L 1537 489
L 1537 669
L 1511 669
L 1511 489" style="stroke-width:0;stroke:none;fill:rgba(84,112,198,1.0)"/><path  d="M 1547 629
L 1573 629
L 1573 669
L 1547 669
L 1547 629" style="stroke-width:0;stroke:none;fill:rgba(84,112,198,1.0)"/><path  d="M 1584 650
L 1610 650
L 1610 669
L 1584 669
L 1584 650" style="stroke-width:0;stroke:none;fill:rgba(84,112,198,1.0)"/><path  d="M 1620 656
L 1646 656
L 1646 669
L 1620 669
L 1620 656" style="stroke-width:0;stroke:none;fill:rgba(84,112,198,1.0)"/><path  d="M 1656 641
L 1682 641
L 1682 669
L 1656 669
L 1656 641" style="stroke-width:0;stroke:none;fill:rgba(84,112,198,1.0)"/><path  d="M 1693 654
L 1719 654
L 1719 669
L 1693 669
L 1693 654" style="stroke-width:0;stroke:none;fill:rgba(84,112,198,1.0)"/><path  d="M 1729 605
L 1755 605
L 1755 669
L 1729 669
L 1729 605" style="stroke-width:0;stroke:none;fill:rgba(84,112,198,1.0)"/><path  d="M 1765 145
L 1791 145
L 1791 669
L 1765 669
L 1765 145" style="stroke-width:0;stroke:none;fill:rgba(84,112,198,1.0)"/><path  d="M 1802 643
L 1828 643
L 1828 669
L 1802 669
L 1802 643" style="stroke-width:0;stroke:none;fill:rgba(84,112,198,1.0)"/><path  d="M 1838 623
L 1864 623
L 1864 669
L 1838 669
L 1838 623" style="stroke-width:0;stroke:none;fill:rgba(84,112,198,1.0)"/><path  d="M 1157 116
A 15 15 330.00 1 1 1163 116
L 1160 102
Z" style="stroke-width:0;stroke:none;fill:rgba(84,112,198,1.0)"/><path  d="M 1145 102
Q1160,139 1175,102
Z" style="stroke-width:0;stroke:none;fill:rgba(84,112,198,1.0)"/><text x="1144" y="107" style="stroke-width:0;stroke:none;fill:rgba(238,238,238,1.0);font-size:10.2px;font-family:'Roboto Medium',sans-serif">15.51k</text><path  d="M 903 658
A 15 15 330.00 1 1 909 658
L 906 644
Z" style="stroke-width:0;stroke:none;fill:rgba(84,112,198,1.0)"/><path  d="M 891 644
Q906,681 921,644
Z" style="stroke-width:0;stroke:none;fill:rgba(84,112,198,1.0)"/><text x="890" y="649" style="stroke-width:0;stroke:none;fill:rgba(238,238,238,1.0);font-size:10.2px;font-family:'Roboto Medium',sans-serif">129.68</text><circle cx="91" cy="581" r="3" style="stroke-width:1;stroke:rgba(84,112,198,1.0);fill:rgba(84,112,198,1.0)"/><path stroke-dasharray="4.0, 2.0" d="" style="stroke-width:1;stroke:rgba(84,112,198,1.0);fill:rgba(84,112,198,1.0)"/><path stroke-dasharray="4.0, 2.0" d="M 97 581
L 1852 581" style="stroke-width:1;stroke:rgba(84,112,198,1.0);fill:rgba(84,112,198,1.0)"/><path stroke-dasharray="4.0, 2.0" d="M 1852 576
L 1868 581
L 1852 586
L 1857 581
L 1852 576" style="stroke-width:1;stroke:rgba(84,112,198,1.0);fill:rgba(84,112,198,1.0)"/><text x="1870" y="585" style="stroke-width:0;stroke:none;fill:rgba(70,70,70,1.0);font-size:12.8px;font-family:'Roboto Medium',sans-serif">2.53k</text></svg>