<svg xmlns="http://www.w3.org/2000/svg" xmlns:xlink="http://www.w3.org/1999/xlink" width="2400" height="800">\n<path  d="M 0 0
L 2400 0
L 2400 800
L 0 800
L 0 0" style="stroke-width:0;stroke:none;fill:rgba(255,255,255,1.0)"/><path  d="M 1176 44
L 1206 44" style="stroke-width:3;stroke:rgba(84,112,198,1.0);fill:rgba(84,112,198,1.0)"/><circle cx="1191" cy="44" r="5" style="stroke-width:3;stroke:rgba(84,112,198,1.0);fill:rgba(84,112,198,1.0)"/><path  d="" style="stroke-width:3;stroke:rgba(84,112,198,1.0);fill:rgba(84,112,198,1.0)"/><text x="1208" y="50" style="stroke-width:0;stroke:none;fill:rgba(70,70,70,1.0);font-size:15.3px;font-family:'Roboto Medium',sans-serif">100</text><text x="10" y="35" style="stroke-width:0;stroke:none;fill:rgba(70,70,70,1.0);font-size:25.6px;font-family:'Roboto Medium',sans-serif">Mountain</text><text x="23" y="77" style="stroke-width:0;stroke:none;fill:rgba(70,70,70,1.0);font-size:15.3px;font-family:'Roboto Medium',sans-serif">21k ns</text><text x="10" y="177" style="stroke-width:0;stroke:none;fill:rgba(70,70,70,1.0);font-size:15.3px;font-family:'Roboto Medium',sans-serif">17.5k ns</text><text x="23" y="277" style="stroke-width:0;stroke:none;fill:rgba(70,70,70,1.0);font-size:15.3px;font-family:'Roboto Medium',sans-serif">14k ns</text><text x="10" y="377" style="stroke-width:0;stroke:none;fill:rgba(70,70,70,1.0);font-size:15.3px;font-family:'Roboto Medium',sans-serif">10.5k ns</text><text x="32" y="477" style="stroke-width:0;stroke:none;fill:rgba(70,70,70,1.0);font-size:15.3px;font-family:'Roboto Medium',sans-serif">7k ns</text><text x="19" y="577" style="stroke-width:0;stroke:none;fill:rgba(70,70,70,1.0);font-size:15.3px;font-family:'Roboto Medium',sans-serif">3.5k ns</text><text x="40" y="677" style="stroke-width:0;stroke:none;fill:rgba(70,70,70,1.0);font-size:15.3px;font-family:'Roboto Medium',sans-serif">0 ns</text><path  d="M 79 70
L 2350 70" style="stroke-width:1;stroke:rgba(224,230,242,1.0);fill:none"/><path  d="M 79 170
L 2350 170" style="stroke-width:1;stroke:rgba(224,230,242,1.0);fill:none"/><path  d="M 79 270
L 2350 270" style="stroke-width:1;stroke:rgba(224,230,242,1.0);fill:none"/><path  d="M 79 370
L 2350 370" style="stroke-width:1;stroke:rgba(224,230,242,1.0);fill:none"/><path  d="M 79 470
L 2350 470" style="stroke-width:1;stroke:rgba(224,230,242,1.0);fill:none"/><path  d="M 79 570
L 2350 570" style="stroke-width:1;stroke:rgba(224,230,242,1.0);fill:none"/><path  d="M 79 675
L 79 670" style="stroke-width:1;stroke:rgba(110,112,121,1.0);fill:none"/><path  d="M 126 675
L 126 670" style="stroke-width:1;stroke:rgba(110,112,121,1.0);fill:none"/><path  d="M 173 675
L 173 670" style="stroke-width:1;stroke:rgba(110,112,121,1.0);fill:none"/><path  d="M 220 675
L 220 670" style="stroke-width:1;stroke:rgba(110,112,121,1.0);fill:none"/><path  d="M 268 675
L 268 670" style="stroke-width:1;stroke:rgba(110,112,121,1.0);fill:none"/><path  d="M 315 675
L 315 670" style="stroke-width:1;stroke:rgba(110,112,121,1.0);fill:none"/><path  d="M 362 675
L 362 670" style="stroke-width:1;stroke:rgba(110,112,121,1.0);fill:none"/><path  d="M 410 675
L 410 670" style="stroke-width:1;stroke:rgba(110,112,121,1.0);fill:none"/><path  d="M 457 675
L 457 670" style="stroke-width:1;stroke:rgba(110,112,121,1.0);fill:none"/><path  d="M 504 675
L 504 670" style="stroke-width:1;stroke:rgba(110,112,121,1.0);fill:none"/><path  d="M 552 675
L 552 670" style="stroke-width:1;stroke:rgba(110,112,121,1.0);fill:none"/><path  d="M 599 675
L 599 670" style="stroke-width:1;stroke:rgba(110,112,121,1.0);fill:none"/><path  d="M 646 675
L 646 670" style="stroke-width:1;stroke:rgba(110,112,121,1.0);fill:none"/><path  d="M 694 675
L 694 670" style="stroke-width:1;stroke:rgba(110,112,121,1.0);fill:none"/><path  d="M 741 675
L 741 670" style="stroke-width:1;stroke:rgba(110,112,121,1.0);fill:none"/><path  d="M 788 675
L 788 670" style="stroke-width:1;stroke:rgba(110,112,121,1.0);fill:none"/><path  d="M 836 675
L 836 670" style="stroke-width:1;stroke:rgba(110,112,121,1.0);fill:none"/><path  d="M 883 675
L 883 670" style="stroke-width:1;stroke:rgba(110,112,121,1.0);fill:none"/><path  d="M 930 675
L 930 670" style="stroke-width:1;stroke:rgba(110,112,121,1.0);fill:none"/><path  d="M 977 675
L 977 670" style="stroke-width:1;stroke:rgba(110,112,121,1.0);fill:none"/><path  d="M 1025 675
L 1025 670" style="stroke-width:1;stroke:rgba(110,112,121,1.0);fill:none"/><path  d="M 1072 675
L 1072 670" style="stroke-width:1;stroke:rgba(110,112,121,1.0);fill:none"/><path  d="M 1119 675
L 1119 670" style="stroke-width:1;stroke:rgba(110,112,121,1.0);fill:none"/><path  d="M 1167 675
L 1167 670" style="stroke-width:1;stroke:rgba(110,112,121,1.0);fill:none"/><path  d="M 1214 675
L 1214 670" style="stroke-width:1;stroke:rgba(110,112,121,1.0);fill:none"/><path  d="M 1261 675
L 1261 670" style="stroke-width:1;stroke:rgba(110,112,121,1.0);fill:none"/><path  d="M 1309 675
L 1309 670" style="stroke-width:1;stroke:rgba(110,112,121,1.0);fill:none"/><path  d="M 1356 675
L 1356 670" style="stroke-width:1;stroke:rgba(110,112,121,1.0);fill:none"/><path  d="M 1403 675
L 1403 670" style="stroke-width:1;stroke:rgba(110,112,121,1.0);fill:none"/><path  d="M 1451 675
L 1451 670" style="stroke-width:1;stroke:rgba(110,112,121,1.0);fill:none"/><path  d="M 1498 675
L 1498 670" style="stroke-width:1;stroke:rgba(110,112,121,1.0);fill:none"/><path  d="M 1545 675
L 1545 670" style="stroke-width:1;stroke:rgba(110,112,121,1.0);fill:none"/><path  d="M 1593 675
L 1593 670" style="stroke-width:1;stroke:rgba(110,112,121,1.0);fill:none"/><path  d="M 1640 675
L 1640 670" style="stroke-width:1;stroke:rgba(110,112,121,1.0);fill:none"/><path  d="M 1687 675
L 1687 670" style="stroke-width:1;stroke:rgba(110,112,121,1.0);fill:none"/><path  d="M 1734 675
L 1734 670" style="stroke-width:1;stroke:rgba(110,112,121,1.0);fill:none"/><path  d="M 1782 675
L 1782 670" style="stroke-width:1;stroke:rgba(110,112,121,1.0);fill:none"/><path  d="M 1829 675
L 1829 670" style="stroke-width:1;stroke:rgba(110,112,121,1.0);fill:none"/><path  d="M 1876 675
L 1876 670" style="stroke-width:1;stroke:rgba(110,112,121,1.0);fill:none"/><path  d="M 1924 675
L 1924 670" style="stroke-width:1;stroke:rgba(110,112,121,1.0);fill:none"/><path  d="M 1971 675
L 1971 670" style="stroke-width:1;stroke:rgba(110,112,121,1.0);fill:none"/><path  d="M 2018 675
L 2018 670" style="stroke-width:1;stroke:rgba(110,112,121,1.0);fill:none"/><path  d="M 2066 675
L 2066 670" style="stroke-width:1;stroke:rgba(110,112,121,1.0);fill:none"/><path  d="M 2113 675
L 2113 670" style="stroke-width:1;stroke:rgba(110,112,121,1.0);fill:none"/><path  d="M 2160 675
L 2160 670" style="stroke-width:1;stroke:rgba(110,112,121,1.0);fill:none"/><path  d="M 2208 675
L 2208 670" style="stroke-width:1;stroke:rgba(110,112,121,1.0);fill:none"/><path  d="M 2255 675
L 2255 670" style="stroke-width:1;stroke:rgba(110,112,121,1.0);fill:none"/><path  d="M 2302 675
L 2302 670" style="stroke-width:1;stroke:rgba(110,112,121,1.0);fill:none"/><path  d="M 2350 675
L 2350 670" style="stroke-width:1;stroke:rgba(110,112,121,1.0);fill:none"/><path  d="M 79 670
L 2350 670" style="stroke-width:1;stroke:rgba(110,112,121,1.0);fill:none"/><text x="95" y="786" style="stroke-width:0;stroke:none;fill:rgba(70,70,70,1.0);font-size:12.8px;font-family:'Roboto Medium',sans-serif" transform="rotate(272.15,95,786)">AdaptiveSort</text><text x="142" y="786" style="stroke-width:0;stroke:none;fill:rgba(70,70,70,1.0);font-size:12.8px;font-family:'Roboto Medium',sans-serif" transform="rotate(272.15,142,786)">AmericanFlagSort</text><text x="189" y="786" style="stroke-width:0;stroke:none;fill:rgba(70,70,70,1.0);font-size:12.8px;font-family:'Roboto Medium',sans-serif" transform="rotate(272.15,189,786)">BeadSortInspired</text><text x="237" y="786" style="stroke-width:0;stroke:none;fill:rgba(70,70,70,1.0);font-size:12.8px;font-family:'Roboto Medium',sans-serif" transform="rotate(272.15,237,786)">BitonicSort</text><text x="284" y="786" style="stroke-width:0;stroke:none;fill:rgba(70,70,70,1.0);font-size:12.8px;font-family:'Roboto Medium',sans-serif" transform="rotate(272.15,284,786)">BitonicSortAny</text><text x="331" y="786" style="stroke-width:0;stroke:none;fill:rgba(70,70,70,1.0);font-size:12.8px;font-family:'Roboto Medium',sans-serif" transform="rotate(272.15,331,786)">BlockSort</text><text x="379" y="786" style="stroke-width:0;stroke:none;fill:rgba(70,70,70,1.0);font-size:12.8px;font-family:'Roboto Medium',sans-serif" transform="rotate(272.15,379,786)">BubbleSortEarly</text><text x="426" y="786" style="stroke-width:0;stroke:none;fill:rgba(70,70,70,1.0);font-size:12.8px;font-family:'Roboto Medium',sans-serif" transform="rotate(272.15,426,786)">BucketSort</text><text x="473" y="786" style="stroke-width:0;stroke:none;fill:rgba(70,70,70,1.0);font-size:12.8px;font-family:'Roboto Medium',sans-serif" transform="rotate(272.15,473,786)">BurstSort</text><text x="521" y="786" style="stroke-width:0;stroke:none;fill:rgba(70,70,70,1.0);font-size:12.8px;font-family:'Roboto Medium',sans-serif" transform="rotate(272.15,521,786)">CascadeSort</text><text x="567" y="786" style="stroke-width:0;stroke:none;fill:rgba(70,70,70,1.0);font-size:12.8px;font-family:'Roboto Medium',sans-serif" transform="rotate(272.15,567,786)">CocktailShakerSort</text><text x="615" y="786" style="stroke-width:0;stroke:none;fill:rgba(70,70,70,1.0);font-size:12.8px;font-family:'Roboto Medium',sans-serif" transform="rotate(272.15,615,786)">CombSort</text><text x="663" y="786" style="stroke-width:0;stroke:none;fill:rgba(70,70,70,1.0);font-size:12.8px;font-family:'Roboto Medium',sans-serif" transform="rotate(272.15,663,786)">CountingSort</text><text x="710" y="786" style="stroke-width:0;stroke:none;fill:rgba(70,70,70,1.0);font-size:12.8px;font-family:'Roboto Medium',sans-serif" transform="rotate(272.15,710,786)">CubeSort</text><text x="757" y="786" style="stroke-width:0;stroke:none;fill:rgba(70,70,70,1.0);font-size:12.8px;font-family:'Roboto Medium',sans-serif" transform="rotate(272.15,757,786)">CycleSortOpt</text><text x="805" y="786" style="stroke-width:0;stroke:none;fill:rgba(70,70,70,1.0);font-size:12.8px;font-family:'Roboto Medium',sans-serif" transform="rotate(272.15,805,786)">ExchangeSort</text><text x="852" y="786" style="stroke-width:0;stroke:none;fill:rgba(70,70,70,1.0);font-size:12.8px;font-family:'Roboto Medium',sans-serif" transform="rotate(272.15,852,786)">FlashSort</text><text x="899" y="786" style="stroke-width:0;stroke:none;fill:rgba(70,70,70,1.0);font-size:12.8px;font-family:'Roboto Medium',sans-serif" transform="rotate(272.15,899,786)">GallopingSort</text><text x="946" y="786" style="stroke-width:0;stroke:none;fill:rgba(70,70,70,1.0);font-size:12.8px;font-family:'Roboto Medium',sans-serif" transform="rotate(272.15,946,786)">GnomeSort</text><text x="995" y="786" style="stroke-width:0;stroke:none;fill:rgba(70,70,70,1.0);font-size:12.8px;font-family:'Roboto Medium',sans-serif" transform="rotate(272.15,995,786)">GrailSort</text><text x="1041" y="786" style="stroke-width:0;stroke:none;fill:rgba(70,70,70,1.0);font-size:12.8px;font-family:'Roboto Medium',sans-serif" transform="rotate(272.15,1041,786)">HeapSort</text><text x="1088" y="786" style="stroke-width:0;stroke:none;fill:rgba(70,70,70,1.0);font-size:12.8px;font-family:'Roboto Medium',sans-serif" transform="rotate(272.15,1088,786)">HybridSortSonnet</text><text x="1136" y="786" style="stroke-width:0;stroke:none;fill:rgba(70,70,70,1.0);font-size:12.8px;font-family:'Roboto Medium',sans-serif" transform="rotate(272.15,1136,786)">InsertionSort</text><text x="1184" y="786" style="stroke-width:0;stroke:none;fill:rgba(70,70,70,1.0);font-size:12.8px;font-family:'Roboto Medium',sans-serif" transform="rotate(272.15,1184,786)">IntroSort</text><text x="1230" y="786" style="stroke-width:0;stroke:none;fill:rgba(70,70,70,1.0);font-size:12.8px;font-family:'Roboto Medium',sans-serif" transform="rotate(272.15,1230,786)">JupiterSort</text><text x="1278" y="786" style="stroke-width:0;stroke:none;fill:rgba(70,70,70,1.0);font-size:12.8px;font-family:'Roboto Medium',sans-serif" transform="rotate(272.15,1278,786)">LibrarySort</text><text x="1325" y="786" style="stroke-width:0;stroke:none;fill:rgba(70,70,70,1.0);font-size:12.8px;font-family:'Roboto Medium',sans-serif" transform="rotate(272.15,1325,786)">MergeSort</text><text x="1372" y="786" style="stroke-width:0;stroke:none;fill:rgba(70,70,70,1.0);font-size:12.8px;font-family:'Roboto Medium',sans-serif" transform="rotate(272.15,1372,786)">OddEvenSort</text><text x="1420" y="786" style="stroke-width:0;stroke:none;fill:rgba(70,70,70,1.0);font-size:12.8px;font-family:'Roboto Medium',sans-serif" transform="rotate(272.15,1420,786)">PancakeSort</text><text x="1467" y="786" style="stroke-width:0;stroke:none;fill:rgba(70,70,70,1.0);font-size:12.8px;font-family:'Roboto Medium',sans-serif" transform="rotate(272.15,1467,786)">PatienceSort</text><text x="1514" y="786" style="stroke-width:0;stroke:none;fill:rgba(70,70,70,1.0);font-size:12.8px;font-family:'Roboto Medium',sans-serif" transform="rotate(272.15,1514,786)">PigeonholeSort</text><text x="1562" y="786" style="stroke-width:0;stroke:none;fill:rgba(70,70,70,1.0);font-size:12.8px;font-family:'Roboto Medium',sans-serif" transform="rotate(272.15,1562,786)">PostmanSort</text><text x="1609" y="786" style="stroke-width:0;stroke:none;fill:rgba(70,70,70,1.0);font-size:12.8px;font-family:'Roboto Medium',sans-serif" transform="rotate(272.15,1609,786)">QuickSort</text><text x="1656" y="786" style="stroke-width:0;stroke:none;fill:rgba(70,70,70,1.0);font-size:12.8px;font-family:'Roboto Medium',sans-serif" transform="rotate(272.15,1656,786)">RadixSortLSD</text><text x="1703" y="786" style="stroke-width:0;stroke:none;fill:rgba(70,70,70,1.0);font-size:12.8px;font-family:'Roboto Medium',sans-serif" transform="rotate(272.15,1703,786)">RadixSortMSD</text><text x="1751" y="786" style="stroke-width:0;stroke:none;fill:rgba(70,70,70,1.0);font-size:12.8px;font-family:'Roboto Medium',sans-serif" transform="rotate(272.15,1751,786)">SampleSort</text><text x="1798" y="786" style="stroke-width:0;stroke:none;fill:rgba(70,70,70,1.0);font-size:12.8px;font-family:'Roboto Medium',sans-serif" transform="rotate(272.15,1798,786)">SelectionSort</text><text x="1846" y="786" style="stroke-width:0;stroke:none;fill:rgba(70,70,70,1.0);font-size:12.8px;font-family:'Roboto Medium',sans-serif" transform="rotate(272.15,1846,786)">ShellSort</text><text x="1893" y="786" style="stroke-width:0;stroke:none;fill:rgba(70,70,70,1.0);font-size:12.8px;font-family:'Roboto Medium',sans-serif" transform="rotate(272.15,1893,786)">SmoothSort</text><text x="1940" y="786" style="stroke-width:0;stroke:none;fill:rgba(70,70,70,1.0);font-size:12.8px;font-family:'Roboto Medium',sans-serif" transform="rotate(272.15,1940,786)">SpreadSort</text><text x="1988" y="786" style="stroke-width:0;stroke:none;fill:rgba(70,70,70,1.0);font-size:12.8px;font-family:'Roboto Medium',sans-serif" transform="rotate(272.15,1988,786)">StdSort</text><text x="2035" y="786" style="stroke-width:0;stroke:none;fill:rgba(70,70,70,1.0);font-size:12.8px;font-family:'Roboto Medium',sans-serif" transform="rotate(272.15,2035,786)">StrandSort</text><text x="2083" y="786" style="stroke-width:0;stroke:none;fill:rgba(70,70,70,1.0);font-size:12.8px;font-family:'Roboto Medium',sans-serif" transform="rotate(272.15,2083,786)">TimSort</text><text x="2129" y="786" style="stroke-width:0;stroke:none;fill:rgba(70,70,70,1.0);font-size:12.8px;font-family:'Roboto Medium',sans-serif" transform="rotate(272.15,2129,786)">TournamentSort</text><text x="2178" y="786" style="stroke-width:0;stroke:none;fill:rgba(70,70,70,1.0);font-size:12.8px;font-family:'Roboto Medium',sans-serif" transform="rotate(272.15,2178,786)">TreeSort</text><text x="2224" y="786" style="stroke-width:0;stroke:none;fill:rgba(70,70,70,1.0);font-size:12.8px;font-family:'Roboto Medium',sans-serif" transform="rotate(272.15,2224,786)">TreeSortAVL</text><text x="2271" y="786" style="stroke-width:0;stroke:none;fill:rgba(70,70,70,1.0);font-size:12.8px;font-family:'Roboto Medium',sans-serif" transform="rotate(272.15,2271,786)">WeaveMergeSort</text><text x="2320" y="786" style="stroke-width:0;stroke:none;fill:rgba(70,70,70,1.0);font-size:12.8px;font-family:'Roboto Medium',sans-serif" transform="rotate(272.15,2320,786)">WikiSort</text><path  d="M 84 646
L 121 646
L 121 669
L 84 669
L 84 646" style="stroke-width:0;stroke:none;fill:rgba(84,112,198,1.0)"/><path  d="M 131 585
L 168 585
L 168 669
L 131 669
L 131 585" style="stroke-width:0;stroke:none;fill:rgba(84,112,198,1.0)"/><path  d="M 178 513
L 215 513
L 215 669
L 178 669
L 178 513" style="stroke-width:0;stroke:none;fill:rgba(84,112,198,1.0)"/><path  d="M 225 549
L 262 549
L 262 669
L 225 669
L 225 549" style="stroke-width:0;stroke:none;fill:rgba(84,112,198,1.0)"/><path  d="M 273 428
L 310 428
L 310 669
L 273 669
L 273 428" style="stroke-width:0;stroke:none;fill:rgba(84,112,198,1.0)"/><path  d="M 320 625
L 357 625
L 357 669
L 320 669
L 320 625" style="stroke-width:0;stroke:none;fill:rgba(84,112,198,1.0)"/><path  d="M 367 498
L 404 498
L 404 669
L 367 669
L 367 498" style="stroke-width:0;stroke:none;fill:rgba(84,112,198,1.0)"/><path  d="M 415 557
L 452 557
L 452 669
L 415 669
L 415 557" style="stroke-width:0;stroke:none;fill:rgba(84,112,198,1.0)"/><path  d="M 462 609
L 499 609
L 499 669
L 462 669
L 462 609" style="stroke-width:0;stroke:none;fill:rgba(84,112,198,1.0)"/><path  d="M 509 479
L 546 479
L 546 669
L 509 669
L 509 479" style="stroke-width:0;stroke:none;fill:rgba(84,112,198,1.0)"/><path  d="M 557 511
L 594 511
L 594 669
L 557 669
L 557 511" style="stroke-width:0;stroke:none;fill:rgba(84,112,198,1.0)"/><path  d="M 604 625
L 641 625
L 641 669
L 604 669
L 604 625" style="stroke-width:0;stroke:none;fill:rgba(84,112,198,1.0)"/><path  d="M 651 657
L 688 657
L 688 669
L 651 669
L 651 657" style="stroke-width:0;stroke:none;fill:rgba(84,112,198,1.0)"/><path  d="M 699 586
L 736 586
L 736 669
L 699 669
L 699 586" style="stroke-width:0;stroke:none;fill:rgba(84,112,198,1.0)"/><path  d="M 746 401
L 783 401
L 783 669
L 746 669
L 746 401" style="stroke-width:0;stroke:none;fill:rgba(84,112,198,1.0)"/><path  d="M 793 546
L 830 546
L 830 669
L 793 669
L 793 546" style="stroke-width:0;stroke:none;fill:rgba(84,112,198,1.0)"/><path  d="M 841 608
L 878 608
L 878 669
L 841 669
L 841 608" style="stroke-width:0;stroke:none;fill:rgba(84,112,198,1.0)"/><path  d="M 888 611
L 925 611
L 925 669
L 888 669
L 888 611" style="stroke-width:0;stroke:none;fill:rgba(84,112,198,1.0)"/><path  d="M 935 468
L 972 468
L 972 669
L 935 669
L 935 468" style="stroke-width:0;stroke:none;fill:rgba(84,112,198,1.0)"/><path  d="M 982 531
L 1019 531
L 1019 669
L 982 669
L 982 531" style="stroke-width:0;stroke:none;fill:rgba(84,112,198,1.0)"/><path  d="M 1030 580
L 1067 580
L 1067 669
L 1030 669
L 1030 580" style="stroke-width:0;stroke:none;fill:rgba(84,112,198,1.0)"/><path  d="M 1077 657
L 1114 657
L 1114 669
L 1077 669
L 1077 657" style="stroke-width:0;stroke:none;fill:rgba(84,112,198,1.0)"/><path  d="M 1124 621
L 1161 621
L 1161 669
L 1124 669
L 1124 621" style="stroke-width:0;stroke:none;fill:rgba(84,112,198,1.0)"/><path  d="M 1172 554
L 1209 554
L 1209 669
L 1172 669
L 1172 554" style="stroke-width:0;stroke:none;fill:rgba(84,112,198,1.0)"/><path  d="M 1219 621
L 1256 621
L 1256 669
L 1219 669
L 1219 621" style="stroke-width:0;stroke:none;fill:rgba(84,112,198,1.0)"/><path  d="M 1266 522
L 1303 522
L 1303 669
L 1266 669
L 1266 522" style="stroke-width:0;stroke:none;fill:rgba(84,112,198,1.0)"/><path  d="M 1314 347
L 1351 347
L 1351 669
L 1314 669
L 1314 347" style="stroke-width:0;stroke:none;fill:rgba(84,112,198,1.0)"/><path  d="M 1361 513
L 1398 513
L 1398 669
L 1361 669
L 1361 513" style="stroke-width:0;stroke:none;fill:rgba(84,112,198,1.0)"/><path  d="M 1408 465
L 1445 465
L 1445 669
L 1408 669
L 1408 465" style="stroke-width:0;stroke:none;fill:rgba(84,112,198,1.0)"/><path  d="M 1456 243
L 1493 243
L 1493 669
L 1456 669
L 1456 243" style="stroke-width:0;stroke:none;fill:rgba(84,112,198,1.0)"/><path  d="M 1503 505
L 1540 505
L 1540 669
L 1503 669
L 1503 505" style="stroke-width:0;stroke:none;fill:rgba(84,112,198,1.0)"/><path  d="M 1550 384
L 1587 384
L 1587 669
L 1550 669
L 1550 384" style="stroke-width:0;stroke:none;fill:rgba(84,112,198,1.0)"/><path  d="M 1598 546
L 1635 546
L 1635 669
L 1598 669
L 1598 546" style="stroke-width:0;stroke:none;fill:rgba(84,112,198,1.0)"/><path  d="M 1645 580
L 1682 580
L 1682 669
L 1645 669
L 1645 580" style="stroke-width:0;stroke:none;fill:rgba(84,112,198,1.0)"/><path  d="M 1692 558
L 1729 558
L 1729 669
L 1692 669
L 1692 558" style="stroke-width:0;stroke:none;fill:rgba(84,112,198,1.0)"/><path  d="M 1739 578
L 1776 578
L 1776 669
L 1739 669
L 1739 578" style="stroke-width:0;stroke:none;fill:rgba(84,112,198,1.0)"/><path  d="M 1787 472
L 1824 472
L 1824 669
L 1787 669
L 1787 472" style="stroke-width:0;stroke:none;fill:rgba(84,112,198,1.0)"/><path  d="M 1834 637
L 1871 637
L 1871 669
L 1834 669
L 1834 637" style="stroke-width:0;stroke:none;fill:rgba(84,112,198,1.0)"/><path  d="M 1881 518
L 1918 518
L 1918 669
L 1881 669
L 1881 518" style="stroke-width:0;stroke:none;fill:rgba(84,112,198,1.0)"/><path  d="M 1929 633
L 1966 633
L 1966 669
L 1929 669
L 1929 633" style="stroke-width:0;stroke:none;fill:rgba(84,112,198,1.0)"/><path  d="M 1976 614
L 2013 614
L 2013 669
L 1976 669
L 1976 614" style="stroke-width:0;stroke:none;fill:rgba(84,112,198,1.0)"/><path  d="M 2023 115
L 2060 115
L 2060 669
L 2023 669
L 2023 115" style="stroke-width:0;stroke:none;fill:rgba(84,112,198,1.0)"/><path  d="M 2071 643
L 2108 643
L 2108 669
L 2071 669
L 2071 643" style="stroke-width:0;stroke:none;fill:rgba(84,112,198,1.0)"/><path  d="M 2118 543
L 2155 543
L 2155 669
L 2118 669
L 2118 543" style="stroke-width:0;stroke:none;fill:rgba(84,112,198,1.0)"/><path  d="M 2165 243
L 2202 243
L 2202 669
L 2165 669
L 2165 243" style="stroke-width:0;stroke:none;fill:rgba(84,112,198,1.0)"/><path  d="M 2213 410
L 2250 410
L 2250 669
L 2213 669
L 2213 410" style="stroke-width:0;stroke:none;fill:rgba(84,112,198,1.0)"/><path  d="M 2260 630
L 2297 630
L 2297 669
L 2260 669
L 2260 630" style="stroke-width:0;stroke:none;fill:rgba(84,112,198,1.0)"/><path  d="M 2307 500
L 2344 500
L 2344 669
L 2307 669
L 2307 500" style="stroke-width:0;stroke:none;fill:rgba(84,112,198,1.0)"/><path  d="M 2038 107
A 15 15 330.00 1 1 2044 107
L 2041 93
Z" style="stroke-width:0;stroke:none;fill:rgba(84,112,198,1.0)"/><path  d="M 2026 93
Q2041,130 2056,93
Z" style="stroke-width:0;stroke:none;fill:rgba(84,112,198,1.0)"/><text x="2025" y="98" style="stroke-width:0;stroke:none;fill:rgba(238,238,238,1.0);font-size:10.2px;font-family:'Roboto Medium',sans-serif">19.44k</text><path  d="M 666 649
A 15 15 330.00 1 1 672 649
L 669 635
Z" style="stroke-width:0;stroke:none;fill:rgba(84,112,198,1.0)"/><path  d="M 654 635
Q669,672 684,635
Z" style="stroke-width:0;stroke:none;fill:rgba(84,112,198,1.0)"/><text x="653" y="640" style="stroke-width:0;stroke:none;fill:rgba(238,238,238,1.0);font-size:10.2px;font-family:'Roboto Medium',sans-serif">466.00</text><circle cx="82" cy="526" r="3" style="stroke-width:1;stroke:rgba(84,112,198,1.0);fill:rgba(84,112,198,1.0)"/><path stroke-dasharray="4.0, 2.0" d="" style="stroke-width:1;stroke:rgba(84,112,198,1.0);fill:rgba(84,112,198,1.0)"/><path stroke-dasharray="4.0, 2.0" d="M 88 526
L 2332 526" style="stroke-width:1;stroke:rgba(84,112,198,1.0);fill:rgba(84,112,198,1.0)"/><path stroke-dasharray="4.0, 2.0" d="M 2332 521
L 2348 526
L 2332 531
L 2337 526
L 2332 521" style="stroke-width:1;stroke:rgba(84,112,198,1.0);fill:rgba(84,112,198,1.0)"/><text x="2350" y="530" style="stroke-width:0;stroke:none;fill:rgba(70,70,70,1.0);font-size:12.8px;font-family:'Roboto Medium',sans-serif">5.04k</text></svg>