<svg xmlns="http://www.w3.org/2000/svg" xmlns:xlink="http://www.w3.org/1999/xlink" width="2400" height="800">\n<path  d="M 0 0
L 2400 0
L 2400 800
L 0 800
L 0 0" style="stroke-width:0;stroke:none;fill:rgba(255,255,255,1.0)"/><path  d="M 1181 44
L 1211 44" style="stroke-width:3;stroke:rgba(84,112,198,1.0);fill:rgba(84,112,198,1.0)"/><circle cx="1196" cy="44" r="5" style="stroke-width:3;stroke:rgba(84,112,198,1.0);fill:rgba(84,112,198,1.0)"/><path  d="" style="stroke-width:3;stroke:rgba(84,112,198,1.0);fill:rgba(84,112,198,1.0)"/><text x="1213" y="50" style="stroke-width:0;stroke:none;fill:rgba(70,70,70,1.0);font-size:15.3px;font-family:'Roboto Medium',sans-serif">10</text><text x="10" y="35" style="stroke-width:0;stroke:none;fill:rgba(70,70,70,1.0);font-size:25.6px;font-family:'Roboto Medium',sans-serif">PushMiddle</text><text x="10" y="77" style="stroke-width:0;stroke:none;fill:rgba(70,70,70,1.0);font-size:15.3px;font-family:'Roboto Medium',sans-serif">8.4k ns</text><text x="23" y="177" style="stroke-width:0;stroke:none;fill:rgba(70,70,70,1.0);font-size:15.3px;font-family:'Roboto Medium',sans-serif">7k ns</text><text x="10" y="277" style="stroke-width:0;stroke:none;fill:rgba(70,70,70,1.0);font-size:15.3px;font-family:'Roboto Medium',sans-serif">5.6k ns</text><text x="10" y="377" style="stroke-width:0;stroke:none;fill:rgba(70,70,70,1.0);font-size:15.3px;font-family:'Roboto Medium',sans-serif">4.2k ns</text><text x="10" y="477" style="stroke-width:0;stroke:none;fill:rgba(70,70,70,1.0);font-size:15.3px;font-family:'Roboto Medium',sans-serif">2.8k ns</text><text x="10" y="577" style="stroke-width:0;stroke:none;fill:rgba(70,70,70,1.0);font-size:15.3px;font-family:'Roboto Medium',sans-serif">1.4k ns</text><text x="31" y="677" style="stroke-width:0;stroke:none;fill:rgba(70,70,70,1.0);font-size:15.3px;font-family:'Roboto Medium',sans-serif">0 ns</text><path  d="M 70 70
L 2350 70" style="stroke-width:1;stroke:rgba(224,230,242,1.0);fill:none"/><path  d="M 70 170
L 2350 170" style="stroke-width:1;stroke:rgba(224,230,242,1.0);fill:none"/><path  d="M 70 270
L 2350 270" style="stroke-width:1;stroke:rgba(224,230,242,1.0);fill:none"/><path  d="M 70 370
L 2350 370" style="stroke-width:1;stroke:rgba(224,230,242,1.0);fill:none"/><path  d="M 70 470
L 2350 470" style="stroke-width:1;stroke:rgba(224,230,242,1.0);fill:none"/><path  d="M 70 570
L 2350 570" style="stroke-width:1;stroke:rgba(224,230,242,1.0);fill:none"/><path  d="M 70 675
L 70 670" style="stroke-width:1;stroke:rgba(110,112,121,1.0);fill:none"/><path  d="M 117 675
L 117 670" style="stroke-width:1;stroke:rgba(110,112,121,1.0);fill:none"/><path  d="M 165 675
L 165 670" style="stroke-width:1;stroke:rgba(110,112,121,1.0);fill:none"/><path  d="M 212 675
L 212 670" style="stroke-width:1;stroke:rgba(110,112,121,1.0);fill:none"/><path  d="M 260 675
L 260 670" style="stroke-width:1;stroke:rgba(110,112,121,1.0);fill:none"/><path  d="M 307 675
L 307 670" style="stroke-width:1;stroke:rgba(110,112,121,1.0);fill:none"/><path  d="M 355 675
L 355 670" style="stroke-width:1;stroke:rgba(110,112,121,1.0);fill:none"/><path  d="M 402 675
L 402 670" style="stroke-width:1;stroke:rgba(110,112,121,1.0);fill:none"/><path  d="M 450 675
L 450 670" style="stroke-width:1;stroke:rgba(110,112,121,1.0);fill:none"/><path  d="M 497 675
L 497 670" style="stroke-width:1;stroke:rgba(110,112,121,1.0);fill:none"/><path  d="M 545 675
L 545 670" style="stroke-width:1;stroke:rgba(110,112,121,1.0);fill:none"/><path  d="M 592 675
L 592 670" style="stroke-width:1;stroke:rgba(110,112,121,1.0);fill:none"/><path  d="M 640 675
L 640 670" style="stroke-width:1;stroke:rgba(110,112,121,1.0);fill:none"/><path  d="M 687 675
L 687 670" style="stroke-width:1;stroke:rgba(110,112,121,1.0);fill:none"/><path  d="M 735 675
L 735 670" style="stroke-width:1;stroke:rgba(110,112,121,1.0);fill:none"/><path  d="M 782 675
L 782 670" style="stroke-width:1;stroke:rgba(110,112,121,1.0);fill:none"/><path  d="M 830 675
L 830 670" style="stroke-width:1;stroke:rgba(110,112,121,1.0);fill:none"/><path  d="M 877 675
L 877 670" style="stroke-width:1;stroke:rgba(110,112,121,1.0);fill:none"/><path  d="M 925 675
L 925 670" style="stroke-width:1;stroke:rgba(110,112,121,1.0);fill:none"/><path  d="M 972 675
L 972 670" style="stroke-width:1;stroke:rgba(110,112,121,1.0);fill:none"/><path  d="M 1020 675
L 1020 670" style="stroke-width:1;stroke:rgba(110,112,121,1.0);fill:none"/><path  d="M 1067 675
L 1067 670" style="stroke-width:1;stroke:rgba(110,112,121,1.0);fill:none"/><path  d="M 1115 675
L 1115 670" style="stroke-width:1;stroke:rgba(110,112,121,1.0);fill:none"/><path  d="M 1162 675
L 1162 670" style="stroke-width:1;stroke:rgba(110,112,121,1.0);fill:none"/><path  d="M 1210 675
L 1210 670" style="stroke-width:1;stroke:rgba(110,112,121,1.0);fill:none"/><path  d="M 1257 675
L 1257 670" style="stroke-width:1;stroke:rgba(110,112,121,1.0);fill:none"/><path  d="M 1305 675
L 1305 670" style="stroke-width:1;stroke:rgba(110,112,121,1.0);fill:none"/><path  d="M 1352 675
L 1352 670" style="stroke-width:1;stroke:rgba(110,112,121,1.0);fill:none"/><path  d="M 1400 675
L 1400 670" style="stroke-width:1;stroke:rgba(110,112,121,1.0);fill:none"/><path  d="M 1447 675
L 1447 670" style="stroke-width:1;stroke:rgba(110,112,121,1.0);fill:none"/><path  d="M 1495 675
L 1495 670" style="stroke-width:1;stroke:rgba(110,112,121,1.0);fill:none"/><path  d="M 1542 675
L 1542 670" style="stroke-width:1;stroke:rgba(110,112,121,1.0);fill:none"/><path  d="M 1590 675
L 1590 670" style="stroke-width:1;stroke:rgba(110,112,121,1.0);fill:none"/><path  d="M 1637 675
L 1637 670" style="stroke-width:1;stroke:rgba(110,112,121,1.0);fill:none"/><path  d="M 1685 675
L 1685 670" style="stroke-width:1;stroke:rgba(110,112,121,1.0);fill:none"/><path  d="M 1732 675
L 1732 670" style="stroke-width:1;stroke:rgba(110,112,121,1.0);fill:none"/><path  d="M 1780 675
L 1780 670" style="stroke-width:1;stroke:rgba(110,112,121,1.0);fill:none"/><path  d="M 1827 675
L 1827 670" style="stroke-width:1;stroke:rgba(110,112,121,1.0);fill:none"/><path  d="M 1875 675
L 1875 670" style="stroke-width:1;stroke:rgba(110,112,121,1.0);fill:none"/><path  d="M 1922 675
L 1922 670" style="stroke-width:1;stroke:rgba(110,112,121,1.0);fill:none"/><path  d="M 1970 675
L 1970 670" style="stroke-width:1;stroke:rgba(110,112,121,1.0);fill:none"/><path  d="M 2017 675
L 2017 670" style="stroke-width:1;stroke:rgba(110,112,121,1.0);fill:none"/><path  d="M 2065 675
L 2065 670" style="stroke-width:1;stroke:rgba(110,112,121,1.0);fill:none"/><path  d="M 2112 675
L 2112 670" style="stroke-width:1;stroke:rgba(110,112,121,1.0);fill:none"/><path  d="M 2160 675
L 2160 670" style="stroke-width:1;stroke:rgba(110,112,121,1.0);fill:none"/><path  d="M 2207 675
L 2207 670" style="stroke-width:1;stroke:rgba(110,112,121,1.0);fill:none"/><path  d="M 2255 675
L 2255 670" style="stroke-width:1;stroke:rgba(110,112,121,1.0);fill:none"/><path  d="M 2302 675
L 2302 670" style="stroke-width:1;stroke:rgba(110,112,121,1.0);fill:none"/><path  d="M 2350 675
L 2350 670" style="stroke-width:1;stroke:rgba(110,112,121,1.0);fill:none"/><path  d="M 70 670
L 2350 670" style="stroke-width:1;stroke:rgba(110,112,121,1.0);fill:none"/><text x="86" y="786" style="stroke-width:0;stroke:none;fill:rgba(70,70,70,1.0);font-size:12.8px;font-family:'Roboto Medium',sans-serif" transform="rotate(272.15,86,786)">AdaptiveSort</text><text x="134" y="786" style="stroke-width:0;stroke:none;fill:rgba(70,70,70,1.0);font-size:12.8px;font-family:'Roboto Medium',sans-serif" transform="rotate(272.15,134,786)">AmericanFlagSort</text><text x="181" y="786" style="stroke-width:0;stroke:none;fill:rgba(70,70,70,1.0);font-size:12.8px;font-family:'Roboto Medium',sans-serif" transform="rotate(272.15,181,786)">BeadSortInspired</text><text x="229" y="786" style="stroke-width:0;stroke:none;fill:rgba(70,70,70,1.0);font-size:12.8px;font-family:'Roboto Medium',sans-serif" transform="rotate(272.15,229,786)">BitonicSort</text><text x="276" y="786" style="stroke-width:0;stroke:none;fill:rgba(70,70,70,1.0);font-size:12.8px;font-family:'Roboto Medium',sans-serif" transform="rotate(272.15,276,786)">BitonicSortAny</text><text x="324" y="786" style="stroke-width:0;stroke:none;fill:rgba(70,70,70,1.0);font-size:12.8px;font-family:'Roboto Medium',sans-serif" transform="rotate(272.15,324,786)">BlockSort</text><text x="371" y="786" style="stroke-width:0;stroke:none;fill:rgba(70,70,70,1.0);font-size:12.8px;font-family:'Roboto Medium',sans-serif" transform="rotate(272.15,371,786)">BubbleSortEarly</text><text x="419" y="786" style="stroke-width:0;stroke:none;fill:rgba(70,70,70,1.0);font-size:12.8px;font-family:'Roboto Medium',sans-serif" transform="rotate(272.15,419,786)">BucketSort</text><text x="466" y="786" style="stroke-width:0;stroke:none;fill:rgba(70,70,70,1.0);font-size:12.8px;font-family:'Roboto Medium',sans-serif" transform="rotate(272.15,466,786)">BurstSort</text><text x="514" y="786" style="stroke-width:0;stroke:none;fill:rgba(70,70,70,1.0);font-size:12.8px;font-family:'Roboto Medium',sans-serif" transform="rotate(272.15,514,786)">CascadeSort</text><text x="560" y="786" style="stroke-width:0;stroke:none;fill:rgba(70,70,70,1.0);font-size:12.8px;font-family:'Roboto Medium',sans-serif" transform="rotate(272.15,560,786)">CocktailShakerSort</text><text x="609" y="786" style="stroke-width:0;stroke:none;fill:rgba(70,70,70,1.0);font-size:12.8px;font-family:'Roboto Medium',sans-serif" transform="rotate(272.15,609,786)">CombSort</text><text x="656" y="786" style="stroke-width:0;stroke:none;fill:rgba(70,70,70,1.0);font-size:12.8px;font-family:'Roboto Medium',sans-serif" transform="rotate(272.15,656,786)">CountingSort</text><text x="704" y="786" style="stroke-width:0;stroke:none;fill:rgba(70,70,70,1.0);font-size:12.8px;font-family:'Roboto Medium',sans-serif" transform="rotate(272.15,704,786)">CubeSort</text><text x="751" y="786" style="stroke-width:0;stroke:none;fill:rgba(70,70,70,1.0);font-size:12.8px;font-family:'Roboto Medium',sans-serif" transform="rotate(272.15,751,786)">CycleSortOpt</text><text x="799" y="786" style="stroke-width:0;stroke:none;fill:rgba(70,70,70,1.0);font-size:12.8px;font-family:'Roboto Medium',sans-serif" transform="rotate(272.15,799,786)">ExchangeSort</text><text x="846" y="786" style="stroke-width:0;stroke:none;fill:rgba(70,70,70,1.0);font-size:12.8px;font-family:'Roboto Medium',sans-serif" transform="rotate(272.15,846,786)">FlashSort</text><text x="894" y="786" style="stroke-width:0;stroke:none;fill:rgba(70,70,70,1.0);font-size:12.8px;font-family:'Roboto Medium',sans-serif" transform="rotate(272.15,894,786)">GallopingSort</text><text x="941" y="786" style="stroke-width:0;stroke:none;fill:rgba(70,70,70,1.0);font-size:12.8px;font-family:'Roboto Medium',sans-serif" transform="rotate(272.15,941,786)">GnomeSort</text><text x="990" y="786" style="stroke-width:0;stroke:none;fill:rgba(70,70,70,1.0);font-size:12.8px;font-family:'Roboto Medium',sans-serif" transform="rotate(272.15,990,786)">GrailSort</text><text x="1036" y="786" style="stroke-width:0;stroke:none;fill:rgba(70,70,70,1.0);font-size:12.8px;font-family:'Roboto Medium',sans-serif" transform="rotate(272.15,1036,786)">HeapSort</text><text x="1084" y="786" style="stroke-width:0;stroke:none;fill:rgba(70,70,70,1.0);font-size:12.8px;font-family:'Roboto Medium',sans-serif" transform="rotate(272.15,1084,786)">HybridSortSonnet</text><text x="1131" y="786" style="stroke-width:0;stroke:none;fill:rgba(70,70,70,1.0);font-size:12.8px;font-family:'Roboto Medium',sans-serif" transform="rotate(272.15,1131,786)">InsertionSort</text><text x="1180" y="786" style="stroke-width:0;stroke:none;fill:rgba(70,70,70,1.0);font-size:12.8px;font-family:'Roboto Medium',sans-serif" transform="rotate(272.15,1180,786)">IntroSort</text><text x="1226" y="786" style="stroke-width:0;stroke:none;fill:rgba(70,70,70,1.0);font-size:12.8px;font-family:'Roboto Medium',sans-serif" transform="rotate(272.15,1226,786)">JupiterSort</text><text x="1274" y="786" style="stroke-width:0;stroke:none;fill:rgba(70,70,70,1.0);font-size:12.8px;font-family:'Roboto Medium',sans-serif" transform="rotate(272.15,1274,786)">LibrarySort</text><text x="1321" y="786" style="stroke-width:0;stroke:none;fill:rgba(70,70,70,1.0);font-size:12.8px;font-family:'Roboto Medium',sans-serif" transform="rotate(272.15,1321,786)">MergeSort</text><text x="1369" y="786" style="stroke-width:0;stroke:none;fill:rgba(70,70,70,1.0);font-size:12.8px;font-family:'Roboto Medium',sans-serif" transform="rotate(272.15,1369,786)">OddEvenSort</text><text x="1416" y="786" style="stroke-width:0;stroke:none;fill:rgba(70,70,70,1.0);font-size:12.8px;font-family:'Roboto Medium',sans-serif" transform="rotate(272.15,1416,786)">PancakeSort</text><text x="1464" y="786" style="stroke-width:0;stroke:none;fill:rgba(70,70,70,1.0);font-size:12.8px;font-family:'Roboto Medium',sans-serif" transform="rotate(272.15,1464,786)">PatienceSort</text><text x="1511" y="786" style="stroke-width:0;stroke:none;fill:rgba(70,70,70,1.0);font-size:12.8px;font-family:'Roboto Medium',sans-serif" transform="rotate(272.15,1511,786)">PigeonholeSort</text><text x="1559" y="786" style="stroke-width:0;stroke:none;fill:rgba(70,70,70,1.0);font-size:12.8px;font-family:'Roboto Medium',sans-serif" transform="rotate(272.15,1559,786)">PostmanSort</text><text x="1606" y="786" style="stroke-width:0;stroke:none;fill:rgba(70,70,70,1.0);font-size:12.8px;font-family:'Roboto Medium',sans-serif" transform="rotate(272.15,1606,786)">QuickSort</text><text x="1654" y="786" style="stroke-width:0;stroke:none;fill:rgba(70,70,70,1.0);font-size:12.8px;font-family:'Roboto Medium',sans-serif" transform="rotate(272.15,1654,786)">RadixSortLSD</text><text x="1701" y="786" style="stroke-width:0;stroke:none;fill:rgba(70,70,70,1.0);font-size:12.8px;font-family:'Roboto Medium',sans-serif" transform="rotate(272.15,1701,786)">RadixSortMSD</text><text x="1749" y="786" style="stroke-width:0;stroke:none;fill:rgba(70,70,70,1.0);font-size:12.8px;font-family:'Roboto Medium',sans-serif" transform="rotate(272.15,1749,786)">SampleSort</text><text x="1796" y="786" style="stroke-width:0;stroke:none;fill:rgba(70,70,70,1.0);font-size:12.8px;font-family:'Roboto Medium',sans-serif" transform="rotate(272.15,1796,786)">SelectionSort</text><text x="1845" y="786" style="stroke-width:0;stroke:none;fill:rgba(70,70,70,1.0);font-size:12.8px;font-family:'Roboto Medium',sans-serif" transform="rotate(272.15,1845,786)">ShellSort</text><text x="1891" y="786" style="stroke-width:0;stroke:none;fill:rgba(70,70,70,1.0);font-size:12.8px;font-family:'Roboto Medium',sans-serif" transform="rotate(272.15,1891,786)">SmoothSort</text><text x="1939" y="786" style="stroke-width:0;stroke:none;fill:rgba(70,70,70,1.0);font-size:12.8px;font-family:'Roboto Medium',sans-serif" transform="rotate(272.15,1939,786)">SpreadSort</text><text x="1987" y="786" style="stroke-width:0;stroke:none;fill:rgba(70,70,70,1.0);font-size:12.8px;font-family:'Roboto Medium',sans-serif" transform="rotate(272.15,1987,786)">StdSort</text><text x="2034" y="786" style="stroke-width:0;stroke:none;fill:rgba(70,70,70,1.0);font-size:12.8px;font-family:'Roboto Medium',sans-serif" transform="rotate(272.15,2034,786)">StrandSort</text><text x="2082" y="786" style="stroke-width:0;stroke:none;fill:rgba(70,70,70,1.0);font-size:12.8px;font-family:'Roboto Medium',sans-serif" transform="rotate(272.15,2082,786)">TimSort</text><text x="2129" y="786" style="stroke-width:0;stroke:none;fill:rgba(70,70,70,1.0);font-size:12.8px;font-family:'Roboto Medium',sans-serif" transform="rotate(272.15,2129,786)">TournamentSort</text><text x="2177" y="786" style="stroke-width:0;stroke:none;fill:rgba(70,70,70,1.0);font-size:12.8px;font-family:'Roboto Medium',sans-serif" transform="rotate(272.15,2177,786)">TreeSort</text><text x="2224" y="786" style="stroke-width:0;stroke:none;fill:rgba(70,70,70,1.0);font-size:12.8px;font-family:'Roboto Medium',sans-serif" transform="rotate(272.15,2224,786)">TreeSortAVL</text><text x="2271" y="786" style="stroke-width:0;stroke:none;fill:rgba(70,70,70,1.0);font-size:12.8px;font-family:'Roboto Medium',sans-serif" transform="rotate(272.15,2271,786)">WeaveMergeSort</text><text x="2320" y="786" style="stroke-width:0;stroke:none;fill:rgba(70,70,70,1.0);font-size:12.8px;font-family:'Roboto Medium',sans-serif" transform="rotate(272.15,2320,786)">WikiSort</text><path  d="M 75 627
L 112 627
L 112 669
L 75 669
L 75 627" style="stroke-width:0;stroke:none;fill:rgba(84,112,198,1.0)"/><path  d="M 122 515
L 159 515
L 159 669
L 122 669
L 122 515" style="stroke-width:0;stroke:none;fill:rgba(84,112,198,1.0)"/><path  d="M 170 642
L 207 642
L 207 669
L 170 669
L 170 642" style="stroke-width:0;stroke:none;fill:rgba(84,112,198,1.0)"/><path  d="M 217 646
L 254 646
L 254 669
L 217 669
L 217 646" style="stroke-width:0;stroke:none;fill:rgba(84,112,198,1.0)"/><path  d="M 265 611
L 302 611
L 302 669
L 265 669
L 265 611" style="stroke-width:0;stroke:none;fill:rgba(84,112,198,1.0)"/><path  d="M 312 641
L 349 641
L 349 669
L 312 669
L 312 641" style="stroke-width:0;stroke:none;fill:rgba(84,112,198,1.0)"/><path  d="M 360 658
L 397 658
L 397 669
L 360 669
L 360 658" style="stroke-width:0;stroke:none;fill:rgba(84,112,198,1.0)"/><path  d="M 407 442
L 444 442
L 444 669
L 407 669
L 407 442" style="stroke-width:0;stroke:none;fill:rgba(84,112,198,1.0)"/><path  d="M 455 643
L 492 643
L 492 669
L 455 669
L 455 643" style="stroke-width:0;stroke:none;fill:rgba(84,112,198,1.0)"/><path  d="M 502 627
L 539 627
L 539 669
L 502 669
L 502 627" style="stroke-width:0;stroke:none;fill:rgba(84,112,198,1.0)"/><path  d="M 550 656
L 587 656
L 587 669
L 550 669
L 550 656" style="stroke-width:0;stroke:none;fill:rgba(84,112,198,1.0)"/><path  d="M 597 656
L 634 656
L 634 669
L 597 669
L 597 656" style="stroke-width:0;stroke:none;fill:rgba(84,112,198,1.0)"/><path  d="M 645 653
L 682 653
L 682 669
L 645 669
L 645 653" style="stroke-width:0;stroke:none;fill:rgba(84,112,198,1.0)"/><path  d="M 692 661
L 729 661
L 729 669
L 692 669
L 692 661" style="stroke-width:0;stroke:none;fill:rgba(84,112,198,1.0)"/><path  d="M 740 394
L 777 394
L 777 669
L 740 669
L 740 394" style="stroke-width:0;stroke:none;fill:rgba(84,112,198,1.0)"/><path  d="M 787 657
L 824 657
L 824 669
L 787 669
L 787 657" style="stroke-width:0;stroke:none;fill:rgba(84,112,198,1.0)"/><path  d="M 835 629
L 872 629
L 872 669
L 835 669
L 835 629" style="stroke-width:0;stroke:none;fill:rgba(84,112,198,1.0)"/><path  d="M 882 653
L 919 653
L 919 669
L 882 669
L 882 653" style="stroke-width:0;stroke:none;fill:rgba(84,112,198,1.0)"/><path  d="M 930 659
L 967 659
L 967 669
L 930 669
L 930 659" style="stroke-width:0;stroke:none;fill:rgba(84,112,198,1.0)"/><path  d="M 977 658
L 1014 658
L 1014 669
L 977 669
L 977 658" style="stroke-width:0;stroke:none;fill:rgba(84,112,198,1.0)"/><path  d="M 1025 651
L 1062 651
L 1062 669
L 1025 669
L 1025 651" style="stroke-width:0;stroke:none;fill:rgba(84,112,198,1.0)"/><path  d="M 1072 658
L 1109 658
L 1109 669
L 1072 669
L 1072 658" style="stroke-width:0;stroke:none;fill:rgba(84,112,198,1.0)"/><path  d="M 1120 662
L 1157 662
L 1157 669
L 1120 669
L 1120 662" style="stroke-width:0;stroke:none;fill:rgba(84,112,198,1.0)"/><path  d="M 1167 659
L 1204 659
L 1204 669
L 1167 669
L 1167 659" style="stroke-width:0;stroke:none;fill:rgba(84,112,198,1.0)"/><path  d="M 1215 659
L 1252 659
L 1252 669
L 1215 669
L 1215 659" style="stroke-width:0;stroke:none;fill:rgba(84,112,198,1.0)"/><path  d="M 1262 630
L 1299 630
L 1299 669
L 1262 669
L 1262 630" style="stroke-width:0;stroke:none;fill:rgba(84,112,198,1.0)"/><path  d="M 1310 596
L 1347 596
L 1347 669
L 1310 669
L 1310 596" style="stroke-width:0;stroke:none;fill:rgba(84,112,198,1.0)"/><path  d="M 1357 658
L 1394 658
L 1394 669
L 1357 669
L 1357 658" style="stroke-width:0;stroke:none;fill:rgba(84,112,198,1.0)"/><path  d="M 1405 650
L 1442 650
L 1442 669
L 1405 669
L 1405 650" style="stroke-width:0;stroke:none;fill:rgba(84,112,198,1.0)"/><path  d="M 1452 565
L 1489 565
L 1489 669
L 1452 669
L 1452 565" style="stroke-width:0;stroke:none;fill:rgba(84,112,198,1.0)"/><path  d="M 1500 224
L 1537 224
L 1537 669
L 1500 669
L 1500 224" style="stroke-width:0;stroke:none;fill:rgba(84,112,198,1.0)"/><path  d="M 1547 126
L 1584 126
L 1584 669
L 1547 669
L 1547 126" style="stroke-width:0;stroke:none;fill:rgba(84,112,198,1.0)"/><path  d="M 1595 655
L 1632 655
L 1632 669
L 1595 669
L 1595 655" style="stroke-width:0;stroke:none;fill:rgba(84,112,198,1.0)"/><path  d="M 1642 486
L 1679 486
L 1679 669
L 1642 669
L 1642 486" style="stroke-width:0;stroke:none;fill:rgba(84,112,198,1.0)"/><path  d="M 1690 561
L 1727 561
L 1727 669
L 1690 669
L 1690 561" style="stroke-width:0;stroke:none;fill:rgba(84,112,198,1.0)"/><path  d="M 1737 561
L 1774 561
L 1774 669
L 1737 669
L 1737 561" style="stroke-width:0;stroke:none;fill:rgba(84,112,198,1.0)"/><path  d="M 1785 657
L 1822 657
L 1822 669
L 1785 669
L 1785 657" style="stroke-width:0;stroke:none;fill:rgba(84,112,198,1.0)"/><path  d="M 1832 658
L 1869 658
L 1869 669
L 1832 669
L 1832 658" style="stroke-width:0;stroke:none;fill:rgba(84,112,198,1.0)"/><path  d="M 1880 653
L 1917 653
L 1917 669
L 1880 669
L 1880 653" style="stroke-width:0;stroke:none;fill:rgba(84,112,198,1.0)"/><path  d="M 1927 655
L 1964 655
L 1964 669
L 1927 669
L 1927 655" style="stroke-width:0;stroke:none;fill:rgba(84,112,198,1.0)"/><path  d="M 1975 661
L 2012 661
L 2012 669
L 1975 669
L 1975 661" style="stroke-width:0;stroke:none;fill:rgba(84,112,198,1.0)"/><path  d="M 2022 646
L 2059 646
L 2059 669
L 2022 669
L 2022 646" style="stroke-width:0;stroke:none;fill:rgba(84,112,198,1.0)"/><path  d="M 2070 649
L 2107 649
L 2107 669
L 2070 669
L 2070 649" style="stroke-width:0;stroke:none;fill:rgba(84,112,198,1.0)"/><path  d="M 2117 587
L 2154 587
L 2154 669
L 2117 669
L 2117 587" style="stroke-width:0;stroke:none;fill:rgba(84,112,198,1.0)"/><path  d="M 2165 622
L 2202 622
L 2202 669
L 2165 669
L 2165 622" style="stroke-width:0;stroke:none;fill:rgba(84,112,198,1.0)"/><path  d="M 2212 593
L 2249 593
L 2249 669
L 2212 669
L 2212 593" style="stroke-width:0;stroke:none;fill:rgba(84,112,198,1.0)"/><path  d="M 2260 651
L 2297 651
L 2297 669
L 2260 669
L 2260 651" style="stroke-width:0;stroke:none;fill:rgba(84,112,198,1.0)"/><path  d="M 2307 582
L 2344 582
L 2344 669
L 2307 669
L 2307 582" style="stroke-width:0;stroke:none;fill:rgba(84,112,198,1.0)"/><path  d="M 1562 118
A 15 15 330.00 1 1 1568 118
L 1565 104
Z" style="stroke-width:0;stroke:none;fill:rgba(84,112,198,1.0)"/><path  d="M 1550 104
Q1565,141 1580,104
Z" style="stroke-width:0;stroke:none;fill:rgba(84,112,198,1.0)"/><text x="1552" y="109" style="stroke-width:0;stroke:none;fill:rgba(238,238,238,1.0);font-size:10.2px;font-family:'Roboto Medium',sans-serif">7.62k</text><path  d="M 1135 654
A 15 15 330.00 1 1 1141 654
L 1138 640
Z" style="stroke-width:0;stroke:none;fill:rgba(84,112,198,1.0)"/><path  d="M 1123 640
Q1138,677 1153,640
Z" style="stroke-width:0;stroke:none;fill:rgba(84,112,198,1.0)"/><text x="1122" y="645" style="stroke-width:0;stroke:none;fill:rgba(238,238,238,1.0);font-size:10.2px;font-family:'Roboto Medium',sans-serif">120.00</text><circle cx="73" cy="603" r="3" style="stroke-width:1;stroke:rgba(84,112,198,1.0);fill:rgba(84,112,198,1.0)"/><path stroke-dasharray="4.0, 2.0" d="" style="stroke-width:1;stroke:rgba(84,112,198,1.0);fill:rgba(84,112,198,1.0)"/><path stroke-dasharray="4.0, 2.0" d="M 79 603
L 2332 603" style="stroke-width:1;stroke:rgba(84,112,198,1.0);fill:rgba(84,112,198,1.0)"/><path stroke-dasharray="4.0, 2.0" d="M 2332 598
L 2348 603
L 2332 608
L 2337 603
L 2332 598" style="stroke-width:1;stroke:rgba(84,112,198,1.0);fill:rgba(84,112,198,1.0)"/><text x="2350" y="607" style="stroke-width:0;stroke:none;fill:rgba(70,70,70,1.0);font-size:12.8px;font-family:'Roboto Medium',sans-serif">944.05</text></svg>