<svg xmlns="http://www.w3.org/2000/svg" xmlns:xlink="http://www.w3.org/1999/xlink" width="2400" height="800">\n<path  d="M 0 0
L 2400 0
L 2400 800
L 0 800
L 0 0" style="stroke-width:0;stroke:none;fill:rgba(255,255,255,1.0)"/><path  d="M 1172 44
L 1202 44" style="stroke-width:3;stroke:rgba(84,112,198,1.0);fill:rgba(84,112,198,1.0)"/><circle cx="1187" cy="44" r="5" style="stroke-width:3;stroke:rgba(84,112,198,1.0);fill:rgba(84,112,198,1.0)"/><path  d="" style="stroke-width:3;stroke:rgba(84,112,198,1.0);fill:rgba(84,112,198,1.0)"/><text x="1204" y="50" style="stroke-width:0;stroke:none;fill:rgba(70,70,70,1.0);font-size:15.3px;font-family:'Roboto Medium',sans-serif">1000</text><text x="10" y="35" style="stroke-width:0;stroke:none;fill:rgba(70,70,70,1.0);font-size:25.6px;font-family:'Roboto Medium',sans-serif">RepeatedMod8</text><text x="10" y="77" style="stroke-width:0;stroke:none;fill:rgba(70,70,70,1.0);font-size:15.3px;font-family:'Roboto Medium',sans-serif">701.64k ns</text><text x="19" y="177" style="stroke-width:0;stroke:none;fill:rgba(70,70,70,1.0);font-size:15.3px;font-family:'Roboto Medium',sans-serif">584.7k ns</text><text x="10" y="277" style="stroke-width:0;stroke:none;fill:rgba(70,70,70,1.0);font-size:15.3px;font-family:'Roboto Medium',sans-serif">467.76k ns</text><text x="10" y="377" style="stroke-width:0;stroke:none;fill:rgba(70,70,70,1.0);font-size:15.3px;font-family:'Roboto Medium',sans-serif">350.82k ns</text><text x="10" y="477" style="stroke-width:0;stroke:none;fill:rgba(70,70,70,1.0);font-size:15.3px;font-family:'Roboto Medium',sans-serif">233.88k ns</text><text x="10" y="577" style="stroke-width:0;stroke:none;fill:rgba(70,70,70,1.0);font-size:15.3px;font-family:'Roboto Medium',sans-serif">116.94k ns</text><text x="58" y="677" style="stroke-width:0;stroke:none;fill:rgba(70,70,70,1.0);font-size:15.3px;font-family:'Roboto Medium',sans-serif">0 ns</text><path  d="M 97 70
L 2350 70" style="stroke-width:1;stroke:rgba(224,230,242,1.0);fill:none"/><path  d="M 97 170
L 2350 170" style="stroke-width:1;stroke:rgba(224,230,242,1.0);fill:none"/><path  d="M 97 270
L 2350 270" style="stroke-width:1;stroke:rgba(224,230,242,1.0);fill:none"/><path  d="M 97 370
L 2350 370" style="stroke-width:1;stroke:rgba(224,230,242,1.0);fill:none"/><path  d="M 97 470
L 2350 470" style="stroke-width:1;stroke:rgba(224,230,242,1.0);fill:none"/><path  d="M 97 570
L 2350 570" style="stroke-width:1;stroke:rgba(224,230,242,1.0);fill:none"/><path  d="M 97 675
L 97 670" style="stroke-width:1;stroke:rgba(110,112,121,1.0);fill:none"/><path  d="M 143 675
L 143 670" style="stroke-width:1;stroke:rgba(110,112,121,1.0);fill:none"/><path  d="M 190 675
L 190 670" style="stroke-width:1;stroke:rgba(110,112,121,1.0);fill:none"/><path  d="M 237 675
L 237 670" style="stroke-width:1;stroke:rgba(110,112,121,1.0);fill:none"/><path  d="M 284 675
L 284 670" style="stroke-width:1;stroke:rgba(110,112,121,1.0);fill:none"/><path  d="M 331 675
L 331 670" style="stroke-width:1;stroke:rgba(110,112,121,1.0);fill:none"/><path  d="M 378 675
L 378 670" style="stroke-width:1;stroke:rgba(110,112,121,1.0);fill:none"/><path  d="M 425 675
L 425 670" style="stroke-width:1;stroke:rgba(110,112,121,1.0);fill:none"/><path  d="M 472 675
L 472 670" style="stroke-width:1;stroke:rgba(110,112,121,1.0);fill:none"/><path  d="M 519 675
L 519 670" style="stroke-width:1;stroke:rgba(110,112,121,1.0);fill:none"/><path  d="M 566 675
L 566 670" style="stroke-width:1;stroke:rgba(110,112,121,1.0);fill:none"/><path  d="M 613 675
L 613 670" style="stroke-width:1;stroke:rgba(110,112,121,1.0);fill:none"/><path  d="M 660 675
L 660 670" style="stroke-width:1;stroke:rgba(110,112,121,1.0);fill:none"/><path  d="M 707 675
L 707 670" style="stroke-width:1;stroke:rgba(110,112,121,1.0);fill:none"/><path  d="M 754 675
L 754 670" style="stroke-width:1;stroke:rgba(110,112,121,1.0);fill:none"/><path  d="M 801 675
L 801 670" style="stroke-width:1;stroke:rgba(110,112,121,1.0);fill:none"/><path  d="M 848 675
L 848 670" style="stroke-width:1;stroke:rgba(110,112,121,1.0);fill:none"/><path  d="M 894 675
L 894 670" style="stroke-width:1;stroke:rgba(110,112,121,1.0);fill:none"/><path  d="M 941 675
L 941 670" style="stroke-width:1;stroke:rgba(110,112,121,1.0);fill:none"/><path  d="M 988 675
L 988 670" style="stroke-width:1;stroke:rgba(110,112,121,1.0);fill:none"/><path  d="M 1035 675
L 1035 670" style="stroke-width:1;stroke:rgba(110,112,121,1.0);fill:none"/><path  d="M 1082 675
L 1082 670" style="stroke-width:1;stroke:rgba(110,112,121,1.0);fill:none"/><path  d="M 1129 675
L 1129 670" style="stroke-width:1;stroke:rgba(110,112,121,1.0);fill:none"/><path  d="M 1176 675
L 1176 670" style="stroke-width:1;stroke:rgba(110,112,121,1.0);fill:none"/><path  d="M 1223 675
L 1223 670" style="stroke-width:1;stroke:rgba(110,112,121,1.0);fill:none"/><path  d="M 1270 675
L 1270 670" style="stroke-width:1;stroke:rgba(110,112,121,1.0);fill:none"/><path  d="M 1317 675
L 1317 670" style="stroke-width:1;stroke:rgba(110,112,121,1.0);fill:none"/><path  d="M 1364 675
L 1364 670" style="stroke-width:1;stroke:rgba(110,112,121,1.0);fill:none"/><path  d="M 1411 675
L 1411 670" style="stroke-width:1;stroke:rgba(110,112,121,1.0);fill:none"/><path  d="M 1458 675
L 1458 670" style="stroke-width:1;stroke:rgba(110,112,121,1.0);fill:none"/><path  d="M 1505 675
L 1505 670" style="stroke-width:1;stroke:rgba(110,112,121,1.0);fill:none"/><path  d="M 1552 675
L 1552 670" style="stroke-width:1;stroke:rgba(110,112,121,1.0);fill:none"/><path  d="M 1599 675
L 1599 670" style="stroke-width:1;stroke:rgba(110,112,121,1.0);fill:none"/><path  d="M 1645 675
L 1645 670" style="stroke-width:1;stroke:rgba(110,112,121,1.0);fill:none"/><path  d="M 1692 675
L 1692 670" style="stroke-width:1;stroke:rgba(110,112,121,1.0);fill:none"/><path  d="M 1739 675
L 1739 670" style="stroke-width:1;stroke:rgba(110,112,121,1.0);fill:none"/><path  d="M 1786 675
L 1786 670" style="stroke-width:1;stroke:rgba(110,112,121,1.0);fill:none"/><path  d="M 1833 675
L 1833 670" style="stroke-width:1;stroke:rgba(110,112,121,1.0);fill:none"/><path  d="M 1880 675
L 1880 670" style="stroke-width:1;stroke:rgba(110,112,121,1.0);fill:none"/><path  d="M 1927 675
L 1927 670" style="stroke-width:1;stroke:rgba(110,112,121,1.0);fill:none"/><path  d="M 1974 675
L 1974 670" style="stroke-width:1;stroke:rgba(110,112,121,1.0);fill:none"/><path  d="M 2021 675
L 2021 670" style="stroke-width:1;stroke:rgba(110,112,121,1.0);fill:none"/><path  d="M 2068 675
L 2068 670" style="stroke-width:1;stroke:rgba(110,112,121,1.0);fill:none"/><path  d="M 2115 675
L 2115 670" style="stroke-width:1;stroke:rgba(110,112,121,1.0);fill:none"/><path  d="M 2162 675
L 2162 670" style="stroke-width:1;stroke:rgba(110,112,121,1.0);fill:none"/><path  d="M 2209 675
L 2209 670" style="stroke-width:1;stroke:rgba(110,112,121,1.0);fill:none"/><path  d="M 2256 675
L 2256 670" style="stroke-width:1;stroke:rgba(110,112,121,1.0);fill:none"/><path  d="M 2303 675
L 2303 670" style="stroke-width:1;stroke:rgba(110,112,121,1.0);fill:none"/><path  d="M 2350 675
L 2350 670" style="stroke-width:1;stroke:rgba(110,112,121,1.0);fill:none"/><path  d="M 97 670
L 2350 670" style="stroke-width:1;stroke:rgba(110,112,121,1.0);fill:none"/><text x="113" y="786" style="stroke-width:0;stroke:none;fill:rgba(70,70,70,1.0);font-size:12.8px;font-family:'Roboto Medium',sans-serif" transform="rotate(272.15,113,786)">AdaptiveSort</text><text x="159" y="786" style="stroke-width:0;stroke:none;fill:rgba(70,70,70,1.0);font-size:12.8px;font-family:'Roboto Medium',sans-serif" transform="rotate(272.15,159,786)">AmericanFlagSort</text><text x="206" y="786" style="stroke-width:0;stroke:none;fill:rgba(70,70,70,1.0);font-size:12.8px;font-family:'Roboto Medium',sans-serif" transform="rotate(272.15,206,786)">BeadSortInspired</text><text x="253" y="786" style="stroke-width:0;stroke:none;fill:rgba(70,70,70,1.0);font-size:12.8px;font-family:'Roboto Medium',sans-serif" transform="rotate(272.15,253,786)">BitonicSort</text><text x="300" y="786" style="stroke-width:0;stroke:none;fill:rgba(70,70,70,1.0);font-size:12.8px;font-family:'Roboto Medium',sans-serif" transform="rotate(272.15,300,786)">BitonicSortAny</text><text x="347" y="786" style="stroke-width:0;stroke:none;fill:rgba(70,70,70,1.0);font-size:12.8px;font-family:'Roboto Medium',sans-serif" transform="rotate(272.15,347,786)">BlockSort</text><text x="394" y="786" style="stroke-width:0;stroke:none;fill:rgba(70,70,70,1.0);font-size:12.8px;font-family:'Roboto Medium',sans-serif" transform="rotate(272.15,394,786)">BubbleSortEarly</text><text x="441" y="786" style="stroke-width:0;stroke:none;fill:rgba(70,70,70,1.0);font-size:12.8px;font-family:'Roboto Medium',sans-serif" transform="rotate(272.15,441,786)">BucketSort</text><text x="488" y="786" style="stroke-width:0;stroke:none;fill:rgba(70,70,70,1.0);font-size:12.8px;font-family:'Roboto Medium',sans-serif" transform="rotate(272.15,488,786)">BurstSort</text><text x="535" y="786" style="stroke-width:0;stroke:none;fill:rgba(70,70,70,1.0);font-size:12.8px;font-family:'Roboto Medium',sans-serif" transform="rotate(272.15,535,786)">CascadeSort</text><text x="581" y="786" style="stroke-width:0;stroke:none;fill:rgba(70,70,70,1.0);font-size:12.8px;font-family:'Roboto Medium',sans-serif" transform="rotate(272.15,581,786)">CocktailShakerSort</text><text x="629" y="786" style="stroke-width:0;stroke:none;fill:rgba(70,70,70,1.0);font-size:12.8px;font-family:'Roboto Medium',sans-serif" transform="rotate(272.15,629,786)">CombSort</text><text x="676" y="786" style="stroke-width:0;stroke:none;fill:rgba(70,70,70,1.0);font-size:12.8px;font-family:'Roboto Medium',sans-serif" transform="rotate(272.15,676,786)">CountingSort</text><text x="723" y="786" style="stroke-width:0;stroke:none;fill:rgba(70,70,70,1.0);font-size:12.8px;font-family:'Roboto Medium',sans-serif" transform="rotate(272.15,723,786)">CubeSort</text><text x="770" y="786" style="stroke-width:0;stroke:none;fill:rgba(70,70,70,1.0);font-size:12.8px;font-family:'Roboto Medium',sans-serif" transform="rotate(272.15,770,786)">CycleSortOpt</text><text x="817" y="786" style="stroke-width:0;stroke:none;fill:rgba(70,70,70,1.0);font-size:12.8px;font-family:'Roboto Medium',sans-serif" transform="rotate(272.15,817,786)">ExchangeSort</text><text x="864" y="786" style="stroke-width:0;stroke:none;fill:rgba(70,70,70,1.0);font-size:12.8px;font-family:'Roboto Medium',sans-serif" transform="rotate(272.15,864,786)">FlashSort</text><text x="910" y="786" style="stroke-width:0;stroke:none;fill:rgba(70,70,70,1.0);font-size:12.8px;font-family:'Roboto Medium',sans-serif" transform="rotate(272.15,910,786)">GallopingSort</text><text x="957" y="786" style="stroke-width:0;stroke:none;fill:rgba(70,70,70,1.0);font-size:12.8px;font-family:'Roboto Medium',sans-serif" transform="rotate(272.15,957,786)">GnomeSort</text><text x="1005" y="786" style="stroke-width:0;stroke:none;fill:rgba(70,70,70,1.0);font-size:12.8px;font-family:'Roboto Medium',sans-serif" transform="rotate(272.15,1005,786)">GrailSort</text><text x="1051" y="786" style="stroke-width:0;stroke:none;fill:rgba(70,70,70,1.0);font-size:12.8px;font-family:'Roboto Medium',sans-serif" transform="rotate(272.15,1051,786)">HeapSort</text><text x="1098" y="786" style="stroke-width:0;stroke:none;fill:rgba(70,70,70,1.0);font-size:12.8px;font-family:'Roboto Medium',sans-serif" transform="rotate(272.15,1098,786)">HybridSortSonnet</text><text x="1145" y="786" style="stroke-width:0;stroke:none;fill:rgba(70,70,70,1.0);font-size:12.8px;font-family:'Roboto Medium',sans-serif" transform="rotate(272.15,1145,786)">InsertionSort</text><text x="1193" y="786" style="stroke-width:0;stroke:none;fill:rgba(70,70,70,1.0);font-size:12.8px;font-family:'Roboto Medium',sans-serif" transform="rotate(272.15,1193,786)">IntroSort</text><text x="1239" y="786" style="stroke-width:0;stroke:none;fill:rgba(70,70,70,1.0);font-size:12.8px;font-family:'Roboto Medium',sans-serif" transform="rotate(272.15,1239,786)">JupiterSort</text><text x="1286" y="786" style="stroke-width:0;stroke:none;fill:rgba(70,70,70,1.0);font-size:12.8px;font-family:'Roboto Medium',sans-serif" transform="rotate(272.15,1286,786)">LibrarySort</text><text x="1333" y="786" style="stroke-width:0;stroke:none;fill:rgba(70,70,70,1.0);font-size:12.8px;font-family:'Roboto Medium',sans-serif" transform="rotate(272.15,1333,786)">MergeSort</text><text x="1380" y="786" style="stroke-width:0;stroke:none;fill:rgba(70,70,70,1.0);font-size:12.8px;font-family:'Roboto Medium',sans-serif" transform="rotate(272.15,1380,786)">OddEvenSort</text><text x="1427" y="786" style="stroke-width:0;stroke:none;fill:rgba(70,70,70,1.0);font-size:12.8px;font-family:'Roboto Medium',sans-serif" transform="rotate(272.15,1427,786)">PancakeSort</text><text x="1474" y="786" style="stroke-width:0;stroke:none;fill:rgba(70,70,70,1.0);font-size:12.8px;font-family:'Roboto Medium',sans-serif" transform="rotate(272.15,1474,786)">PatienceSort</text><text x="1521" y="786" style="stroke-width:0;stroke:none;fill:rgba(70,70,70,1.0);font-size:12.8px;font-family:'Roboto Medium',sans-serif" transform="rotate(272.15,1521,786)">PigeonholeSort</text><text x="1568" y="786" style="stroke-width:0;stroke:none;fill:rgba(70,70,70,1.0);font-size:12.8px;font-family:'Roboto Medium',sans-serif" transform="rotate(272.15,1568,786)">PostmanSort</text><text x="1615" y="786" style="stroke-width:0;stroke:none;fill:rgba(70,70,70,1.0);font-size:12.8px;font-family:'Roboto Medium',sans-serif" transform="rotate(272.15,1615,786)">QuickSort</text><text x="1661" y="786" style="stroke-width:0;stroke:none;fill:rgba(70,70,70,1.0);font-size:12.8px;font-family:'Roboto Medium',sans-serif" transform="rotate(272.15,1661,786)">RadixSortLSD</text><text x="1708" y="786" style="stroke-width:0;stroke:none;fill:rgba(70,70,70,1.0);font-size:12.8px;font-family:'Roboto Medium',sans-serif" transform="rotate(272.15,1708,786)">RadixSortMSD</text><text x="1755" y="786" style="stroke-width:0;stroke:none;fill:rgba(70,70,70,1.0);font-size:12.8px;font-family:'Roboto Medium',sans-serif" transform="rotate(272.15,1755,786)">SampleSort</text><text x="1802" y="786" style="stroke-width:0;stroke:none;fill:rgba(70,70,70,1.0);font-size:12.8px;font-family:'Roboto Medium',sans-serif" transform="rotate(272.15,1802,786)">SelectionSort</text><text x="1850" y="786" style="stroke-width:0;stroke:none;fill:rgba(70,70,70,1.0);font-size:12.8px;font-family:'Roboto Medium',sans-serif" transform="rotate(272.15,1850,786)">ShellSort</text><text x="1896" y="786" style="stroke-width:0;stroke:none;fill:rgba(70,70,70,1.0);font-size:12.8px;font-family:'Roboto Medium',sans-serif" transform="rotate(272.15,1896,786)">SmoothSort</text><text x="1943" y="786" style="stroke-width:0;stroke:none;fill:rgba(70,70,70,1.0);font-size:12.8px;font-family:'Roboto Medium',sans-serif" transform="rotate(272.15,1943,786)">SpreadSort</text><text x="1991" y="786" style="stroke-width:0;stroke:none;fill:rgba(70,70,70,1.0);font-size:12.8px;font-family:'Roboto Medium',sans-serif" transform="rotate(272.15,1991,786)">StdSort</text><text x="2037" y="786" style="stroke-width:0;stroke:none;fill:rgba(70,70,70,1.0);font-size:12.8px;font-family:'Roboto Medium',sans-serif" transform="rotate(272.15,2037,786)">StrandSort</text><text x="2085" y="786" style="stroke-width:0;stroke:none;fill:rgba(70,70,70,1.0);font-size:12.8px;font-family:'Roboto Medium',sans-serif" transform="rotate(272.15,2085,786)">TimSort</text><text x="2131" y="786" style="stroke-width:0;stroke:none;fill:rgba(70,70,70,1.0);font-size:12.8px;font-family:'Roboto Medium',sans-serif" transform="rotate(272.15,2131,786)">TournamentSort</text><text x="2179" y="786" style="stroke-width:0;stroke:none;fill:rgba(70,70,70,1.0);font-size:12.8px;font-family:'Roboto Medium',sans-serif" transform="rotate(272.15,2179,786)">TreeSort</text><text x="2225" y="786" style="stroke-width:0;stroke:none;fill:rgba(70,70,70,1.0);font-size:12.8px;font-family:'Roboto Medium',sans-serif" transform="rotate(272.15,2225,786)">TreeSortAVL</text><text x="2272" y="786" style="stroke-width:0;stroke:none;fill:rgba(70,70,70,1.0);font-size:12.8px;font-family:'Roboto Medium',sans-serif" transform="rotate(272.15,2272,786)">WeaveMergeSort</text><text x="2320" y="786" style="stroke-width:0;stroke:none;fill:rgba(70,70,70,1.0);font-size:12.8px;font-family:'Roboto Medium',sans-serif" transform="rotate(272.15,2320,786)">WikiSort</text><path  d="M 102 654
L 138 654
L 138 669
L 102 669
L 102 654" style="stroke-width:0;stroke:none;fill:rgba(84,112,198,1.0)"/><path  d="M 148 664
L 184 664
L 184 669
L 148 669
L 148 664" style="stroke-width:0;stroke:none;fill:rgba(84,112,198,1.0)"/><path  d="M 195 664
L 231 664
L 231 669
L 195 669
L 195 664" style="stroke-width:0;stroke:none;fill:rgba(84,112,198,1.0)"/><path  d="M 242 606
L 278 606
L 278 669
L 242 669
L 242 606" style="stroke-width:0;stroke:none;fill:rgba(84,112,198,1.0)"/><path  d="M 289 595
L 325 595
L 325 669
L 289 669
L 289 595" style="stroke-width:0;stroke:none;fill:rgba(84,112,198,1.0)"/><path  d="M 336 654
L 372 654
L 372 669
L 336 669
L 336 654" style="stroke-width:0;stroke:none;fill:rgba(84,112,198,1.0)"/><path  d="M 383 289
L 419 289
L 419 669
L 383 669
L 383 289" style="stroke-width:0;stroke:none;fill:rgba(84,112,198,1.0)"/><path  d="M 430 579
L 466 579
L 466 669
L 430 669
L 430 579" style="stroke-width:0;stroke:none;fill:rgba(84,112,198,1.0)"/><path  d="M 477 649
L 513 649
L 513 669
L 477 669
L 477 649" style="stroke-width:0;stroke:none;fill:rgba(84,112,198,1.0)"/><path  d="M 524 654
L 560 654
L 560 669
L 524 669
L 524 654" style="stroke-width:0;stroke:none;fill:rgba(84,112,198,1.0)"/><path  d="M 571 385
L 607 385
L 607 669
L 571 669
L 571 385" style="stroke-width:0;stroke:none;fill:rgba(84,112,198,1.0)"/><path  d="M 618 656
L 654 656
L 654 669
L 618 669
L 618 656" style="stroke-width:0;stroke:none;fill:rgba(84,112,198,1.0)"/><path  d="M 665 669
L 701 669
L 701 669
L 665 669
L 665 669" style="stroke-width:0;stroke:none;fill:rgba(84,112,198,1.0)"/><path  d="M 712 642
L 748 642
L 748 669
L 712 669
L 712 642" style="stroke-width:0;stroke:none;fill:rgba(84,112,198,1.0)"/><path  d="M 759 591
L 795 591
L 795 669
L 759 669
L 759 591" style="stroke-width:0;stroke:none;fill:rgba(84,112,198,1.0)"/><path  d="M 806 440
L 842 440
L 842 669
L 806 669
L 806 440" style="stroke-width:0;stroke:none;fill:rgba(84,112,198,1.0)"/><path  d="M 853 655
L 889 655
L 889 669
L 853 669
L 853 655" style="stroke-width:0;stroke:none;fill:rgba(84,112,198,1.0)"/><path  d="M 899 631
L 935 631
L 935 669
L 899 669
L 899 631" style="stroke-width:0;stroke:none;fill:rgba(84,112,198,1.0)"/><path  d="M 946 172
L 982 172
L 982 669
L 946 669
L 946 172" style="stroke-width:0;stroke:none;fill:rgba(84,112,198,1.0)"/><path  d="M 993 652
L 1029 652
L 1029 669
L 993 669
L 993 652" style="stroke-width:0;stroke:none;fill:rgba(84,112,198,1.0)"/><path  d="M 1040 632
L 1076 632
L 1076 669
L 1040 669
L 1040 632" style="stroke-width:0;stroke:none;fill:rgba(84,112,198,1.0)"/><path  d="M 1087 668
L 1123 668
L 1123 669
L 1087 669
L 1087 668" style="stroke-width:0;stroke:none;fill:rgba(84,112,198,1.0)"/><path  d="M 1134 574
L 1170 574
L 1170 669
L 1134 669
L 1134 574" style="stroke-width:0;stroke:none;fill:rgba(84,112,198,1.0)"/><path  d="M 1181 654
L 1217 654
L 1217 669
L 1181 669
L 1181 654" style="stroke-width:0;stroke:none;fill:rgba(84,112,198,1.0)"/><path  d="M 1228 615
L 1264 615
L 1264 669
L 1228 669
L 1228 615" style="stroke-width:0;stroke:none;fill:rgba(84,112,198,1.0)"/><path  d="M 1275 478
L 1311 478
L 1311 669
L 1275 669
L 1275 478" style="stroke-width:0;stroke:none;fill:rgba(84,112,198,1.0)"/><path  d="M 1322 607
L 1358 607
L 1358 669
L 1322 669
L 1322 607" style="stroke-width:0;stroke:none;fill:rgba(84,112,198,1.0)"/><path  d="M 1369 399
L 1405 399
L 1405 669
L 1369 669
L 1369 399" style="stroke-width:0;stroke:none;fill:rgba(84,112,198,1.0)"/><path  d="M 1416 124
L 1452 124
L 1452 669
L 1416 669
L 1416 124" style="stroke-width:0;stroke:none;fill:rgba(84,112,198,1.0)"/><path  d="M 1463 656
L 1499 656
L 1499 669
L 1463 669
L 1463 656" style="stroke-width:0;stroke:none;fill:rgba(84,112,198,1.0)"/><path  d="M 1510 662
L 1546 662
L 1546 669
L 1510 669
L 1510 662" style="stroke-width:0;stroke:none;fill:rgba(84,112,198,1.0)"/><path  d="M 1557 660
L 1593 660
L 1593 669
L 1557 669
L 1557 660" style="stroke-width:0;stroke:none;fill:rgba(84,112,198,1.0)"/><path  d="M 1604 600
L 1640 600
L 1640 669
L 1604 669
L 1604 600" style="stroke-width:0;stroke:none;fill:rgba(84,112,198,1.0)"/><path  d="M 1650 663
L 1686 663
L 1686 669
L 1650 669
L 1650 663" style="stroke-width:0;stroke:none;fill:rgba(84,112,198,1.0)"/><path  d="M 1697 663
L 1733 663
L 1733 669
L 1697 669
L 1697 663" style="stroke-width:0;stroke:none;fill:rgba(84,112,198,1.0)"/><path  d="M 1744 663
L 1780 663
L 1780 669
L 1744 669
L 1744 663" style="stroke-width:0;stroke:none;fill:rgba(84,112,198,1.0)"/><path  d="M 1791 371
L 1827 371
L 1827 669
L 1791 669
L 1791 371" style="stroke-width:0;stroke:none;fill:rgba(84,112,198,1.0)"/><path  d="M 1838 661
L 1874 661
L 1874 669
L 1838 669
L 1838 661" style="stroke-width:0;stroke:none;fill:rgba(84,112,198,1.0)"/><path  d="M 1885 349
L 1921 349
L 1921 669
L 1885 669
L 1885 349" style="stroke-width:0;stroke:none;fill:rgba(84,112,198,1.0)"/><path  d="M 1932 667
L 1968 667
L 1968 669
L 1932 669
L 1932 667" style="stroke-width:0;stroke:none;fill:rgba(84,112,198,1.0)"/><path  d="M 1979 666
L 2015 666
L 2015 669
L 1979 669
L 1979 666" style="stroke-width:0;stroke:none;fill:rgba(84,112,198,1.0)"/><path  d="M 2026 654
L 2062 654
L 2062 669
L 2026 669
L 2026 654" style="stroke-width:0;stroke:none;fill:rgba(84,112,198,1.0)"/><path  d="M 2073 645
L 2109 645
L 2109 669
L 2073 669
L 2073 645" style="stroke-width:0;stroke:none;fill:rgba(84,112,198,1.0)"/><path  d="M 2120 619
L 2156 619
L 2156 669
L 2120 669
L 2120 619" style="stroke-width:0;stroke:none;fill:rgba(84,112,198,1.0)"/><path  d="M 2167 485
L 2203 485
L 2203 669
L 2167 669
L 2167 485" style="stroke-width:0;stroke:none;fill:rgba(84,112,198,1.0)"/><path  d="M 2214 572
L 2250 572
L 2250 669
L 2214 669
L 2214 572" style="stroke-width:0;stroke:none;fill:rgba(84,112,198,1.0)"/><path  d="M 2261 655
L 2297 655
L 2297 669
L 2261 669
L 2261 655" style="stroke-width:0;stroke:none;fill:rgba(84,112,198,1.0)"/><path  d="M 2308 652
L 2344 652
L 2344 669
L 2308 669
L 2308 652" style="stroke-width:0;stroke:none;fill:rgba(84,112,198,1.0)"/><path  d="M 1431 116
A 15 15 330.00 1 1 1437 116
L 1434 102
Z" style="stroke-width:0;stroke:none;fill:rgba(84,112,198,1.0)"/><path  d="M 1419 102
Q1434,139 1449,102
Z" style="stroke-width:0;stroke:none;fill:rgba(84,112,198,1.0)"/><text x="1415" y="107" style="stroke-width:0;stroke:none;fill:rgba(238,238,238,1.0);font-size:10.2px;font-family:'Roboto Medium',sans-serif">639.60k</text><path  d="M 680 661
A 15 15 330.00 1 1 686 661
L 683 647
Z" style="stroke-width:0;stroke:none;fill:rgba(84,112,198,1.0)"/><path  d="M 668 647
Q683,684 698,647
Z" style="stroke-width:0;stroke:none;fill:rgba(84,112,198,1.0)"/><text x="670" y="652" style="stroke-width:0;stroke:none;fill:rgba(238,238,238,1.0);font-size:10.2px;font-family:'Roboto Medium',sans-serif">2.18k</text><circle cx="100" cy="580" r="3" style="stroke-width:1;stroke:rgba(84,112,198,1.0);fill:rgba(84,112,198,1.0)"/><path stroke-dasharray="4.0, 2.0" d="" style="stroke-width:1;stroke:rgba(84,112,198,1.0);fill:rgba(84,112,198,1.0)"/><path stroke-dasharray="4.0, 2.0" d="M 106 580
L 2332 580" style="stroke-width:1;stroke:rgba(84,112,198,1.0);fill:rgba(84,112,198,1.0)"/><path stroke-dasharray="4.0, 2.0" d="M 2332 575
L 2348 580
L 2332 585
L 2337 580
L 2332 575" style="stroke-width:1;stroke:rgba(84,112,198,1.0);fill:rgba(84,112,198,1.0)"/><text x="2350" y="584" style="stroke-width:0;stroke:none;fill:rgba(70,70,70,1.0);font-size:12.8px;font-family:'Roboto Medium',sans-serif">106.38k</text></svg>