<svg xmlns="http://www.w3.org/2000/svg" xmlns:xlink="http://www.w3.org/1999/xlink" width="1200" height="800">\n<path  d="M 0 0
L 1200 0
L 1200 800
L 0 800
L 0 0" style="stroke-width:0;stroke:none;fill:rgba(255,255,255,1.0)"/><path  d="M 555 44
L 585 44" style="stroke-width:3;stroke:rgba(84,112,198,1.0);fill:rgba(84,112,198,1.0)"/><circle cx="570" cy="44" r="5" style="stroke-width:3;stroke:rgba(84,112,198,1.0);fill:rgba(84,112,198,1.0)"/><path  d="" style="stroke-width:3;stroke:rgba(84,112,198,1.0);fill:rgba(84,112,198,1.0)"/><text x="587" y="50" style="stroke-width:0;stroke:none;fill:rgba(70,70,70,1.0);font-size:15.3px;font-family:'Roboto Medium',sans-serif">10000000</text><text x="10" y="35" style="stroke-width:0;stroke:none;fill:rgba(70,70,70,1.0);font-size:25.6px;font-family:'Roboto Medium',sans-serif">RepeatedMod16</text><text x="10" y="77" style="stroke-width:0;stroke:none;fill:rgba(70,70,70,1.0);font-size:15.3px;font-family:'Roboto Medium',sans-serif">455.00M ns</text><text x="10" y="177" style="stroke-width:0;stroke:none;fill:rgba(70,70,70,1.0);font-size:15.3px;font-family:'Roboto Medium',sans-serif">379.16M ns</text><text x="10" y="277" style="stroke-width:0;stroke:none;fill:rgba(70,70,70,1.0);font-size:15.3px;font-family:'Roboto Medium',sans-serif">303.33M ns</text><text x="10" y="377" style="stroke-width:0;stroke:none;fill:rgba(70,70,70,1.0);font-size:15.3px;font-family:'Roboto Medium',sans-serif">227.50M ns</text><text x="10" y="477" style="stroke-width:0;stroke:none;fill:rgba(70,70,70,1.0);font-size:15.3px;font-family:'Roboto Medium',sans-serif">151.66M ns</text><text x="19" y="577" style="stroke-width:0;stroke:none;fill:rgba(70,70,70,1.0);font-size:15.3px;font-family:'Roboto Medium',sans-serif">75.83M ns</text><text x="63" y="677" style="stroke-width:0;stroke:none;fill:rgba(70,70,70,1.0);font-size:15.3px;font-family:'Roboto Medium',sans-serif">0 ns</text><path  d="M 102 70
L 1150 70" style="stroke-width:1;stroke:rgba(224,230,242,1.0);fill:none"/><path  d="M 102 170
L 1150 170" style="stroke-width:1;stroke:rgba(224,230,242,1.0);fill:none"/><path  d="M 102 270
L 1150 270" style="stroke-width:1;stroke:rgba(224,230,242,1.0);fill:none"/><path  d="M 102 370
L 1150 370" style="stroke-width:1;stroke:rgba(224,230,242,1.0);fill:none"/><path  d="M 102 470
L 1150 470" style="stroke-width:1;stroke:rgba(224,230,242,1.0);fill:none"/><path  d="M 102 570
L 1150 570" style="stroke-width:1;stroke:rgba(224,230,242,1.0);fill:none"/><path  d="M 102 675
L 102 670" style="stroke-width:1;stroke:rgba(110,112,121,1.0);fill:none"/><path  d="M 149 675
L 149 670" style="stroke-width:1;stroke:rgba(110,112,121,1.0);fill:none"/><path  d="M 197 675
L 197 670" style="stroke-width:1;stroke:rgba(110,112,121,1.0);fill:none"/><path  d="M 244 675
L 244 670" style="stroke-width:1;stroke:rgba(110,112,121,1.0);fill:none"/><path  d="M 292 675
L 292 670" style="stroke-width:1;stroke:rgba(110,112,121,1.0);fill:none"/><path  d="M 340 675
L 340 670" style="stroke-width:1;stroke:rgba(110,112,121,1.0);fill:none"/><path  d="M 387 675
L 387 670" style="stroke-width:1;stroke:rgba(110,112,121,1.0);fill:none"/><path  d="M 435 675
L 435 670" style="stroke-width:1;stroke:rgba(110,112,121,1.0);fill:none"/><path  d="M 483 675
L 483 670" style="stroke-width:1;stroke:rgba(110,112,121,1.0);fill:none"/><path  d="M 530 675
L 530 670" style="stroke-width:1;stroke:rgba(110,112,121,1.0);fill:none"/><path  d="M 578 675
L 578 670" style="stroke-width:1;stroke:rgba(110,112,121,1.0);fill:none"/><path  d="M 626 675
L 626 670" style="stroke-width:1;stroke:rgba(110,112,121,1.0);fill:none"/><path  d="M 673 675
L 673 670" style="stroke-width:1;stroke:rgba(110,112,121,1.0);fill:none"/><path  d="M 721 675
L 721 670" style="stroke-width:1;stroke:rgba(110,112,121,1.0);fill:none"/><path  d="M 768 675
L 768 670" style="stroke-width:1;stroke:rgba(110,112,121,1.0);fill:none"/><path  d="M 816 675
L 816 670" style="stroke-width:1;stroke:rgba(110,112,121,1.0);fill:none"/><path  d="M 864 675
L 864 670" style="stroke-width:1;stroke:rgba(110,112,121,1.0);fill:none"/><path  d="M 911 675
L 911 670" style="stroke-width:1;stroke:rgba(110,112,121,1.0);fill:none"/><path  d="M 959 675
L 959 670" style="stroke-width:1;stroke:rgba(110,112,121,1.0);fill:none"/><path  d="M 1007 675
L 1007 670" style="stroke-width:1;stroke:rgba(110,112,121,1.0);fill:none"/><path  d="M 1054 675
L 1054 670" style="stroke-width:1;stroke:rgba(110,112,121,1.0);fill:none"/><path  d="M 1102 675
L 1102 670" style="stroke-width:1;stroke:rgba(110,112,121,1.0);fill:none"/><path  d="M 1150 675
L 1150 670" style="stroke-width:1;stroke:rgba(110,112,121,1.0);fill:none"/><path  d="M 102 670
L 1150 670" style="stroke-width:1;stroke:rgba(110,112,121,1.0);fill:none"/><text x="118" y="779" style="stroke-width:0;stroke:none;fill:rgba(70,70,70,1.0);font-size:12.8px;font-family:'Roboto Medium',sans-serif" transform="rotate(272.15,118,779)">AdaptiveSort</text><text x="166" y="779" style="stroke-width:0;stroke:none;fill:rgba(70,70,70,1.0);font-size:12.8px;font-family:'Roboto Medium',sans-serif" transform="rotate(272.15,166,779)">AmericanFlagSort</text><text x="213" y="779" style="stroke-width:0;stroke:none;fill:rgba(70,70,70,1.0);font-size:12.8px;font-family:'Roboto Medium',sans-serif" transform="rotate(272.15,213,779)">BurstSort</text><text x="261" y="779" style="stroke-width:0;stroke:none;fill:rgba(70,70,70,1.0);font-size:12.8px;font-family:'Roboto Medium',sans-serif" transform="rotate(272.15,261,779)">CascadeSort</text><text x="309" y="779" style="stroke-width:0;stroke:none;fill:rgba(70,70,70,1.0);font-size:12.8px;font-family:'Roboto Medium',sans-serif" transform="rotate(272.15,309,779)">CombSort</text><text x="356" y="779" style="stroke-width:0;stroke:none;fill:rgba(70,70,70,1.0);font-size:12.8px;font-family:'Roboto Medium',sans-serif" transform="rotate(272.15,356,779)">CountingSort</text><text x="404" y="779" style="stroke-width:0;stroke:none;fill:rgba(70,70,70,1.0);font-size:12.8px;font-family:'Roboto Medium',sans-serif" transform="rotate(272.15,404,779)">FlashSort</text><text x="453" y="779" style="stroke-width:0;stroke:none;fill:rgba(70,70,70,1.0);font-size:12.8px;font-family:'Roboto Medium',sans-serif" transform="rotate(272.15,453,779)">GrailSort</text><text x="499" y="779" style="stroke-width:0;stroke:none;fill:rgba(70,70,70,1.0);font-size:12.8px;font-family:'Roboto Medium',sans-serif" transform="rotate(272.15,499,779)">HeapSort</text><text x="547" y="779" style="stroke-width:0;stroke:none;fill:rgba(70,70,70,1.0);font-size:12.8px;font-family:'Roboto Medium',sans-serif" transform="rotate(272.15,547,779)">HybridSortSonnet</text><text x="596" y="779" style="stroke-width:0;stroke:none;fill:rgba(70,70,70,1.0);font-size:12.8px;font-family:'Roboto Medium',sans-serif" transform="rotate(272.15,596,779)">IntroSort</text><text x="642" y="779" style="stroke-width:0;stroke:none;fill:rgba(70,70,70,1.0);font-size:12.8px;font-family:'Roboto Medium',sans-serif" transform="rotate(272.15,642,779)">MergeSort</text><text x="690" y="779" style="stroke-width:0;stroke:none;fill:rgba(70,70,70,1.0);font-size:12.8px;font-family:'Roboto Medium',sans-serif" transform="rotate(272.15,690,779)">PigeonholeSort</text><text x="737" y="779" style="stroke-width:0;stroke:none;fill:rgba(70,70,70,1.0);font-size:12.8px;font-family:'Roboto Medium',sans-serif" transform="rotate(272.15,737,779)">PostmanSort</text><text x="785" y="779" style="stroke-width:0;stroke:none;fill:rgba(70,70,70,1.0);font-size:12.8px;font-family:'Roboto Medium',sans-serif" transform="rotate(272.15,785,779)">RadixSortLSD</text><text x="833" y="779" style="stroke-width:0;stroke:none;fill:rgba(70,70,70,1.0);font-size:12.8px;font-family:'Roboto Medium',sans-serif" transform="rotate(272.15,833,779)">RadixSortMSD</text><text x="880" y="779" style="stroke-width:0;stroke:none;fill:rgba(70,70,70,1.0);font-size:12.8px;font-family:'Roboto Medium',sans-serif" transform="rotate(272.15,880,779)">SampleSort</text><text x="928" y="779" style="stroke-width:0;stroke:none;fill:rgba(70,70,70,1.0);font-size:12.8px;font-family:'Roboto Medium',sans-serif" transform="rotate(272.15,928,779)">SpreadSort</text><text x="977" y="779" style="stroke-width:0;stroke:none;fill:rgba(70,70,70,1.0);font-size:12.8px;font-family:'Roboto Medium',sans-serif" transform="rotate(272.15,977,779)">TimSort</text><text x="1023" y="779" style="stroke-width:0;stroke:none;fill:rgba(70,70,70,1.0);font-size:12.8px;font-family:'Roboto Medium',sans-serif" transform="rotate(272.15,1023,779)">TournamentSort</text><text x="1071" y="779" style="stroke-width:0;stroke:none;fill:rgba(70,70,70,1.0);font-size:12.8px;font-family:'Roboto Medium',sans-serif" transform="rotate(272.15,1071,779)">WeaveMergeSort</text><text x="1119" y="779" style="stroke-width:0;stroke:none;fill:rgba(70,70,70,1.0);font-size:12.8px;font-family:'Roboto Medium',sans-serif" transform="rotate(272.15,1119,779)">slices.Sort</text><path  d="M 107 70
L 144 70
L 144 669
L 107 669
L 107 70" style="stroke-width:0;stroke:none;fill:rgba(84,112,198,1.0)"/><path  d="M 154 592
L 191 592
L 191 669
L 154 669
L 154 592" style="stroke-width:0;stroke:none;fill:rgba(84,112,198,1.0)"/><path  d="M 202 603
L 239 603
L 239 669
L 202 669
L 202 603" style="stroke-width:0;stroke:none;fill:rgba(84,112,198,1.0)"/><path  d="M 249 425
L 286 425
L 286 669
L 249 669
L 249 425" style="stroke-width:0;stroke:none;fill:rgba(84,112,198,1.0)"/><path  d="M 297 600
L 334 600
L 334 669
L 297 669
L 297 600" style="stroke-width:0;stroke:none;fill:rgba(84,112,198,1.0)"/><path  d="M 122 62
A 15 15 330.00 1 1 128 62
L 125 48
Z" style="stroke-width:0;stroke:none;fill:rgba(84,112,198,1.0)"/><path  d="M 110 48
Q125,85 140,48
Z" style="stroke-width:0;stroke:none;fill:rgba(84,112,198,1.0)"/><text x="105" y="53" style="stroke-width:0;stroke:none;fill:rgba(238,238,238,1.0);font-size:10.2px;font-family:'Roboto Medium',sans-serif">455.74M</text><path  d="M 217 595
A 15 15 330.00 1 1 223 595
L 220 581
Z" style="stroke-width:0;stroke:none;fill:rgba(84,112,198,1.0)"/><path  d="M 205 581
Q220,618 235,581
Z" style="stroke-width:0;stroke:none;fill:rgba(84,112,198,1.0)"/><text x="202" y="586" style="stroke-width:0;stroke:none;fill:rgba(238,238,238,1.0);font-size:10.2px;font-family:'Roboto Medium',sans-serif">51.45M</text><circle cx="105" cy="458" r="3" style="stroke-width:1;stroke:rgba(84,112,198,1.0);fill:rgba(84,112,198,1.0)"/><path stroke-dasharray="4.0, 2.0" d="" style="stroke-width:1;stroke:rgba(84,112,198,1.0);fill:rgba(84,112,198,1.0)"/><path stroke-dasharray="4.0, 2.0" d="M 111 458
L 1132 458" style="stroke-width:1;stroke:rgba(84,112,198,1.0);fill:rgba(84,112,198,1.0)"/><path stroke-dasharray="4.0, 2.0" d="M 1132 453
L 1148 458
L 1132 463
L 1137 458
L 1132 453" style="stroke-width:1;stroke:rgba(84,112,198,1.0);fill:rgba(84,112,198,1.0)"/><text x="1150" y="462" style="stroke-width:0;stroke:none;fill:rgba(70,70,70,1.0);font-size:12.8px;font-family:'Roboto Medium',sans-serif">161.41M</text></svg>