<svg xmlns="http://www.w3.org/2000/svg" xmlns:xlink="http://www.w3.org/1999/xlink" width="1920" height="800">\n<path  d="M 0 0
L 1920 0
L 1920 800
L 0 800
L 0 0" style="stroke-width:0;stroke:none;fill:rgba(255,255,255,1.0)"/><path  d="M 941 44
L 971 44" style="stroke-width:3;stroke:rgba(84,112,198,1.0);fill:rgba(84,112,198,1.0)"/><circle cx="956" cy="44" r="5" style="stroke-width:3;stroke:rgba(84,112,198,1.0);fill:rgba(84,112,198,1.0)"/><path  d="" style="stroke-width:3;stroke:rgba(84,112,198,1.0);fill:rgba(84,112,198,1.0)"/><text x="973" y="50" style="stroke-width:0;stroke:none;fill:rgba(70,70,70,1.0);font-size:15.3px;font-family:'Roboto Medium',sans-serif">10</text><text x="10" y="35" style="stroke-width:0;stroke:none;fill:rgba(70,70,70,1.0);font-size:25.6px;font-family:'Roboto Medium',sans-serif">RepeatedMod8</text><text x="10" y="77" style="stroke-width:0;stroke:none;fill:rgba(70,70,70,1.0);font-size:15.3px;font-family:'Roboto Medium',sans-serif">1.2k ns</text><text x="23" y="177" style="stroke-width:0;stroke:none;fill:rgba(70,70,70,1.0);font-size:15.3px;font-family:'Roboto Medium',sans-serif">1k ns</text><text x="13" y="277" style="stroke-width:0;stroke:none;fill:rgba(70,70,70,1.0);font-size:15.3px;font-family:'Roboto Medium',sans-serif">800 ns</text><text x="13" y="377" style="stroke-width:0;stroke:none;fill:rgba(70,70,70,1.0);font-size:15.3px;font-family:'Roboto Medium',sans-serif">600 ns</text><text x="13" y="477" style="stroke-width:0;stroke:none;fill:rgba(70,70,70,1.0);font-size:15.3px;font-family:'Roboto Medium',sans-serif">400 ns</text><text x="13" y="577" style="stroke-width:0;stroke:none;fill:rgba(70,70,70,1.0);font-size:15.3px;font-family:'Roboto Medium',sans-serif">200 ns</text><text x="31" y="677" style="stroke-width:0;stroke:none;fill:rgba(70,70,70,1.0);font-size:15.3px;font-family:'Roboto Medium',sans-serif">0 ns</text><path  d="M 70 70
L 1870 70" style="stroke-width:1;stroke:rgba(224,230,242,1.0);fill:none"/><path  d="M 70 170
L 1870 170" style="stroke-width:1;stroke:rgba(224,230,242,1.0);fill:none"/><path  d="M 70 270
L 1870 270" style="stroke-width:1;stroke:rgba(224,230,242,1.0);fill:none"/><path  d="M 70 370
L 1870 370" style="stroke-width:1;stroke:rgba(224,230,242,1.0);fill:none"/><path  d="M 70 470
L 1870 470" style="stroke-width:1;stroke:rgba(224,230,242,1.0);fill:none"/><path  d="M 70 570
L 1870 570" style="stroke-width:1;stroke:rgba(224,230,242,1.0);fill:none"/><path  d="M 70 675
L 70 670" style="stroke-width:1;stroke:rgba(110,112,121,1.0);fill:none"/><path  d="M 106 675
L 106 670" style="stroke-width:1;stroke:rgba(110,112,121,1.0);fill:none"/><path  d="M 143 675
L 143 670" style="stroke-width:1;stroke:rgba(110,112,121,1.0);fill:none"/><path  d="M 180 675
L 180 670" style="stroke-width:1;stroke:rgba(110,112,121,1.0);fill:none"/><path  d="M 216 675
L 216 670" style="stroke-width:1;stroke:rgba(110,112,121,1.0);fill:none"/><path  d="M 253 675
L 253 670" style="stroke-width:1;stroke:rgba(110,112,121,1.0);fill:none"/><path  d="M 290 675
L 290 670" style="stroke-width:1;stroke:rgba(110,112,121,1.0);fill:none"/><path  d="M 327 675
L 327 670" style="stroke-width:1;stroke:rgba(110,112,121,1.0);fill:none"/><path  d="M 363 675
L 363 670" style="stroke-width:1;stroke:rgba(110,112,121,1.0);fill:none"/><path  d="M 400 675
L 400 670" style="stroke-width:1;stroke:rgba(110,112,121,1.0);fill:none"/><path  d="M 437 675
L 437 670" style="stroke-width:1;stroke:rgba(110,112,121,1.0);fill:none"/><path  d="M 474 675
L 474 670" style="stroke-width:1;stroke:rgba(110,112,121,1.0);fill:none"/><path  d="M 510 675
L 510 670" style="stroke-width:1;stroke:rgba(110,112,121,1.0);fill:none"/><path  d="M 547 675
L 547 670" style="stroke-width:1;stroke:rgba(110,112,121,1.0);fill:none"/><path  d="M 584 675
L 584 670" style="stroke-width:1;stroke:rgba(110,112,121,1.0);fill:none"/><path  d="M 621 675
L 621 670" style="stroke-width:1;stroke:rgba(110,112,121,1.0);fill:none"/><path  d="M 657 675
L 657 670" style="stroke-width:1;stroke:rgba(110,112,121,1.0);fill:none"/><path  d="M 694 675
L 694 670" style="stroke-width:1;stroke:rgba(110,112,121,1.0);fill:none"/><path  d="M 731 675
L 731 670" style="stroke-width:1;stroke:rgba(110,112,121,1.0);fill:none"/><path  d="M 767 675
L 767 670" style="stroke-width:1;stroke:rgba(110,112,121,1.0);fill:none"/><path  d="M 804 675
L 804 670" style="stroke-width:1;stroke:rgba(110,112,121,1.0);fill:none"/><path  d="M 841 675
L 841 670" style="stroke-width:1;stroke:rgba(110,112,121,1.0);fill:none"/><path  d="M 878 675
L 878 670" style="stroke-width:1;stroke:rgba(110,112,121,1.0);fill:none"/><path  d="M 914 675
L 914 670" style="stroke-width:1;stroke:rgba(110,112,121,1.0);fill:none"/><path  d="M 951 675
L 951 670" style="stroke-width:1;stroke:rgba(110,112,121,1.0);fill:none"/><path  d="M 988 675
L 988 670" style="stroke-width:1;stroke:rgba(110,112,121,1.0);fill:none"/><path  d="M 1025 675
L 1025 670" style="stroke-width:1;stroke:rgba(110,112,121,1.0);fill:none"/><path  d="M 1061 675
L 1061 670" style="stroke-width:1;stroke:rgba(110,112,121,1.0);fill:none"/><path  d="M 1098 675
L 1098 670" style="stroke-width:1;stroke:rgba(110,112,121,1.0);fill:none"/><path  d="M 1135 675
L 1135 670" style="stroke-width:1;stroke:rgba(110,112,121,1.0);fill:none"/><path  d="M 1172 675
L 1172 670" style="stroke-width:1;stroke:rgba(110,112,121,1.0);fill:none"/><path  d="M 1208 675
L 1208 670" style="stroke-width:1;stroke:rgba(110,112,121,1.0);fill:none"/><path  d="M 1245 675
L 1245 670" style="stroke-width:1;stroke:rgba(110,112,121,1.0);fill:none"/><path  d="M 1282 675
L 1282 670" style="stroke-width:1;stroke:rgba(110,112,121,1.0);fill:none"/><path  d="M 1318 675
L 1318 670" style="stroke-width:1;stroke:rgba(110,112,121,1.0);fill:none"/><path  d="M 1355 675
L 1355 670" style="stroke-width:1;stroke:rgba(110,112,121,1.0);fill:none"/><path  d="M 1392 675
L 1392 670" style="stroke-width:1;stroke:rgba(110,112,121,1.0);fill:none"/><path  d="M 1429 675
L 1429 670" style="stroke-width:1;stroke:rgba(110,112,121,1.0);fill:none"/><path  d="M 1465 675
L 1465 670" style="stroke-width:1;stroke:rgba(110,112,121,1.0);fill:none"/><path  d="M 1502 675
L 1502 670" style="stroke-width:1;stroke:rgba(110,112,121,1.0);fill:none"/><path  d="M 1539 675
L 1539 670" style="stroke-width:1;stroke:rgba(110,112,121,1.0);fill:none"/><path  d="M 1576 675
L 1576 670" style="stroke-width:1;stroke:rgba(110,112,121,1.0);fill:none"/><path  d="M 1612 675
L 1612 670" style="stroke-width:1;stroke:rgba(110,112,121,1.0);fill:none"/><path  d="M 1649 675
L 1649 670" style="stroke-width:1;stroke:rgba(110,112,121,1.0);fill:none"/><path  d="M 1686 675
L 1686 670" style="stroke-width:1;stroke:rgba(110,112,121,1.0);fill:none"/><path  d="M 1723 675
L 1723 670" style="stroke-width:1;stroke:rgba(110,112,121,1.0);fill:none"/><path  d="M 1759 675
L 1759 670" style="stroke-width:1;stroke:rgba(110,112,121,1.0);fill:none"/><path  d="M 1796 675
L 1796 670" style="stroke-width:1;stroke:rgba(110,112,121,1.0);fill:none"/><path  d="M 1833 675
L 1833 670" style="stroke-width:1;stroke:rgba(110,112,121,1.0);fill:none"/><path  d="M 1870 675
L 1870 670" style="stroke-width:1;stroke:rgba(110,112,121,1.0);fill:none"/><path  d="M 70 670
L 1870 670" style="stroke-width:1;stroke:rgba(110,112,121,1.0);fill:none"/><text x="81" y="788" style="stroke-width:0;stroke:none;fill:rgba(70,70,70,1.0);font-size:12.8px;font-family:'Roboto Medium',sans-serif" transform="rotate(272.15,81,788)">AdaptiveSort</text><text x="117" y="788" style="stroke-width:0;stroke:none;fill:rgba(70,70,70,1.0);font-size:12.8px;font-family:'Roboto Medium',sans-serif" transform="rotate(272.15,117,788)">AmericanFlagSort</text><text x="154" y="788" style="stroke-width:0;stroke:none;fill:rgba(70,70,70,1.0);font-size:12.8px;font-family:'Roboto Medium',sans-serif" transform="rotate(272.15,154,788)">BeadSortInspired</text><text x="191" y="788" style="stroke-width:0;stroke:none;fill:rgba(70,70,70,1.0);font-size:12.8px;font-family:'Roboto Medium',sans-serif" transform="rotate(272.15,191,788)">BitonicSort</text><text x="227" y="788" style="stroke-width:0;stroke:none;fill:rgba(70,70,70,1.0);font-size:12.8px;font-family:'Roboto Medium',sans-serif" transform="rotate(272.15,227,788)">BitonicSortAny</text><text x="264" y="788" style="stroke-width:0;stroke:none;fill:rgba(70,70,70,1.0);font-size:12.8px;font-family:'Roboto Medium',sans-serif" transform="rotate(272.15,264,788)">BlockSort</text><text x="301" y="788" style="stroke-width:0;stroke:none;fill:rgba(70,70,70,1.0);font-size:12.8px;font-family:'Roboto Medium',sans-serif" transform="rotate(272.15,301,788)">BubbleSortEarly</text><text x="338" y="788" style="stroke-width:0;stroke:none;fill:rgba(70,70,70,1.0);font-size:12.8px;font-family:'Roboto Medium',sans-serif" transform="rotate(272.15,338,788)">BucketSort</text><text x="374" y="788" style="stroke-width:0;stroke:none;fill:rgba(70,70,70,1.0);font-size:12.8px;font-family:'Roboto Medium',sans-serif" transform="rotate(272.15,374,788)">BurstSort</text><text x="411" y="788" style="stroke-width:0;stroke:none;fill:rgba(70,70,70,1.0);font-size:12.8px;font-family:'Roboto Medium',sans-serif" transform="rotate(272.15,411,788)">CascadeSort</text><text x="447" y="788" style="stroke-width:0;stroke:none;fill:rgba(70,70,70,1.0);font-size:12.8px;font-family:'Roboto Medium',sans-serif" transform="rotate(272.15,447,788)">CocktailShakerSort</text><text x="485" y="788" style="stroke-width:0;stroke:none;fill:rgba(70,70,70,1.0);font-size:12.8px;font-family:'Roboto Medium',sans-serif" transform="rotate(272.15,485,788)">CombSort</text><text x="521" y="788" style="stroke-width:0;stroke:none;fill:rgba(70,70,70,1.0);font-size:12.8px;font-family:'Roboto Medium',sans-serif" transform="rotate(272.15,521,788)">CountingSort</text><text x="558" y="788" style="stroke-width:0;stroke:none;fill:rgba(70,70,70,1.0);font-size:12.8px;font-family:'Roboto Medium',sans-serif" transform="rotate(272.15,558,788)">CubeSort</text><text x="595" y="788" style="stroke-width:0;stroke:none;fill:rgba(70,70,70,1.0);font-size:12.8px;font-family:'Roboto Medium',sans-serif" transform="rotate(272.15,595,788)">CycleSort</text><text x="632" y="788" style="stroke-width:0;stroke:none;fill:rgba(70,70,70,1.0);font-size:12.8px;font-family:'Roboto Medium',sans-serif" transform="rotate(272.15,632,788)">ExchangeSort</text><text x="668" y="788" style="stroke-width:0;stroke:none;fill:rgba(70,70,70,1.0);font-size:12.8px;font-family:'Roboto Medium',sans-serif" transform="rotate(272.15,668,788)">FlashSort</text><text x="705" y="788" style="stroke-width:0;stroke:none;fill:rgba(70,70,70,1.0);font-size:12.8px;font-family:'Roboto Medium',sans-serif" transform="rotate(272.15,705,788)">GallopingSort</text><text x="742" y="788" style="stroke-width:0;stroke:none;fill:rgba(70,70,70,1.0);font-size:12.8px;font-family:'Roboto Medium',sans-serif" transform="rotate(272.15,742,788)">GnomeSort</text><text x="779" y="788" style="stroke-width:0;stroke:none;fill:rgba(70,70,70,1.0);font-size:12.8px;font-family:'Roboto Medium',sans-serif" transform="rotate(272.15,779,788)">GrailSort</text><text x="815" y="788" style="stroke-width:0;stroke:none;fill:rgba(70,70,70,1.0);font-size:12.8px;font-family:'Roboto Medium',sans-serif" transform="rotate(272.15,815,788)">HeapSort</text><text x="852" y="788" style="stroke-width:0;stroke:none;fill:rgba(70,70,70,1.0);font-size:12.8px;font-family:'Roboto Medium',sans-serif" transform="rotate(272.15,852,788)">HybridSortSonnet</text><text x="889" y="788" style="stroke-width:0;stroke:none;fill:rgba(70,70,70,1.0);font-size:12.8px;font-family:'Roboto Medium',sans-serif" transform="rotate(272.15,889,788)">InsertionSort</text><text x="926" y="788" style="stroke-width:0;stroke:none;fill:rgba(70,70,70,1.0);font-size:12.8px;font-family:'Roboto Medium',sans-serif" transform="rotate(272.15,926,788)">IntroSort</text><text x="962" y="788" style="stroke-width:0;stroke:none;fill:rgba(70,70,70,1.0);font-size:12.8px;font-family:'Roboto Medium',sans-serif" transform="rotate(272.15,962,788)">JupiterSort</text><text x="999" y="788" style="stroke-width:0;stroke:none;fill:rgba(70,70,70,1.0);font-size:12.8px;font-family:'Roboto Medium',sans-serif" transform="rotate(272.15,999,788)">LibrarySort</text><text x="1036" y="788" style="stroke-width:0;stroke:none;fill:rgba(70,70,70,1.0);font-size:12.8px;font-family:'Roboto Medium',sans-serif" transform="rotate(272.15,1036,788)">MergeSort</text><text x="1072" y="788" style="stroke-width:0;stroke:none;fill:rgba(70,70,70,1.0);font-size:12.8px;font-family:'Roboto Medium',sans-serif" transform="rotate(272.15,1072,788)">OddEvenSort</text><text x="1109" y="788" style="stroke-width:0;stroke:none;fill:rgba(70,70,70,1.0);font-size:12.8px;font-family:'Roboto Medium',sans-serif" transform="rotate(272.15,1109,788)">PancakeSort</text><text x="1146" y="788" style="stroke-width:0;stroke:none;fill:rgba(70,70,70,1.0);font-size:12.8px;font-family:'Roboto Medium',sans-serif" transform="rotate(272.15,1146,788)">PatienceSort</text><text x="1183" y="788" style="stroke-width:0;stroke:none;fill:rgba(70,70,70,1.0);font-size:12.8px;font-family:'Roboto Medium',sans-serif" transform="rotate(272.15,1183,788)">PigeonholeSort</text><text x="1219" y="788" style="stroke-width:0;stroke:none;fill:rgba(70,70,70,1.0);font-size:12.8px;font-family:'Roboto Medium',sans-serif" transform="rotate(272.15,1219,788)">PostmanSort</text><text x="1256" y="788" style="stroke-width:0;stroke:none;fill:rgba(70,70,70,1.0);font-size:12.8px;font-family:'Roboto Medium',sans-serif" transform="rotate(272.15,1256,788)">QuantumSortO3</text><text x="1293" y="788" style="stroke-width:0;stroke:none;fill:rgba(70,70,70,1.0);font-size:12.8px;font-family:'Roboto Medium',sans-serif" transform="rotate(272.15,1293,788)">QuickSort</text><text x="1329" y="788" style="stroke-width:0;stroke:none;fill:rgba(70,70,70,1.0);font-size:12.8px;font-family:'Roboto Medium',sans-serif" transform="rotate(272.15,1329,788)">RadixSortLSD</text><text x="1366" y="788" style="stroke-width:0;stroke:none;fill:rgba(70,70,70,1.0);font-size:12.8px;font-family:'Roboto Medium',sans-serif" transform="rotate(272.15,1366,788)">RadixSortMSD</text><text x="1403" y="788" style="stroke-width:0;stroke:none;fill:rgba(70,70,70,1.0);font-size:12.8px;font-family:'Roboto Medium',sans-serif" transform="rotate(272.15,1403,788)">SampleSort</text><text x="1440" y="788" style="stroke-width:0;stroke:none;fill:rgba(70,70,70,1.0);font-size:12.8px;font-family:'Roboto Medium',sans-serif" transform="rotate(272.15,1440,788)">SelectionSort</text><text x="1477" y="788" style="stroke-width:0;stroke:none;fill:rgba(70,70,70,1.0);font-size:12.8px;font-family:'Roboto Medium',sans-serif" transform="rotate(272.15,1477,788)">ShellSort</text><text x="1512" y="788" style="stroke-width:0;stroke:none;fill:rgba(70,70,70,1.0);font-size:12.8px;font-family:'Roboto Medium',sans-serif" transform="rotate(272.15,1512,788)">SimplePancakeSort</text><text x="1550" y="788" style="stroke-width:0;stroke:none;fill:rgba(70,70,70,1.0);font-size:12.8px;font-family:'Roboto Medium',sans-serif" transform="rotate(272.15,1550,788)">SmoothSort</text><text x="1587" y="788" style="stroke-width:0;stroke:none;fill:rgba(70,70,70,1.0);font-size:12.8px;font-family:'Roboto Medium',sans-serif" transform="rotate(272.15,1587,788)">SpreadSort</text><text x="1624" y="788" style="stroke-width:0;stroke:none;fill:rgba(70,70,70,1.0);font-size:12.8px;font-family:'Roboto Medium',sans-serif" transform="rotate(272.15,1624,788)">StdSort</text><text x="1660" y="788" style="stroke-width:0;stroke:none;fill:rgba(70,70,70,1.0);font-size:12.8px;font-family:'Roboto Medium',sans-serif" transform="rotate(272.15,1660,788)">StrandSort</text><text x="1698" y="788" style="stroke-width:0;stroke:none;fill:rgba(70,70,70,1.0);font-size:12.8px;font-family:'Roboto Medium',sans-serif" transform="rotate(272.15,1698,788)">TimSort</text><text x="1734" y="788" style="stroke-width:0;stroke:none;fill:rgba(70,70,70,1.0);font-size:12.8px;font-family:'Roboto Medium',sans-serif" transform="rotate(272.15,1734,788)">TournamentSort</text><text x="1771" y="788" style="stroke-width:0;stroke:none;fill:rgba(70,70,70,1.0);font-size:12.8px;font-family:'Roboto Medium',sans-serif" transform="rotate(272.15,1771,788)">TreeSort</text><text x="1807" y="788" style="stroke-width:0;stroke:none;fill:rgba(70,70,70,1.0);font-size:12.8px;font-family:'Roboto Medium',sans-serif" transform="rotate(272.15,1807,788)">WeaveMergeSort</text><text x="1845" y="788" style="stroke-width:0;stroke:none;fill:rgba(70,70,70,1.0);font-size:12.8px;font-family:'Roboto Medium',sans-serif" transform="rotate(272.15,1845,788)">WikiSort</text><path  d="M 75 593
L 101 593
L 101 669
L 75 669
L 75 593" style="stroke-width:0;stroke:none;fill:rgba(84,112,198,1.0)"/><path  d="M 111 282
L 137 282
L 137 669
L 111 669
L 111 282" style="stroke-width:0;stroke:none;fill:rgba(84,112,198,1.0)"/><path  d="M 148 614
L 174 614
L 174 669
L 148 669
L 148 614" style="stroke-width:0;stroke:none;fill:rgba(84,112,198,1.0)"/><path  d="M 185 599
L 211 599
L 211 669
L 185 669
L 185 599" style="stroke-width:0;stroke:none;fill:rgba(84,112,198,1.0)"/><path  d="M 221 427
L 247 427
L 247 669
L 221 669
L 221 427" style="stroke-width:0;stroke:none;fill:rgba(84,112,198,1.0)"/><path  d="M 258 623
L 284 623
L 284 669
L 258 669
L 258 623" style="stroke-width:0;stroke:none;fill:rgba(84,112,198,1.0)"/><path  d="M 295 640
L 321 640
L 321 669
L 295 669
L 295 640" style="stroke-width:0;stroke:none;fill:rgba(84,112,198,1.0)"/><path  d="M 332 505
L 358 505
L 358 669
L 332 669
L 332 505" style="stroke-width:0;stroke:none;fill:rgba(84,112,198,1.0)"/><path  d="M 368 590
L 394 590
L 394 669
L 368 669
L 368 590" style="stroke-width:0;stroke:none;fill:rgba(84,112,198,1.0)"/><path  d="M 405 585
L 431 585
L 431 669
L 405 669
L 405 585" style="stroke-width:0;stroke:none;fill:rgba(84,112,198,1.0)"/><path  d="M 442 654
L 468 654
L 468 669
L 442 669
L 442 654" style="stroke-width:0;stroke:none;fill:rgba(84,112,198,1.0)"/><path  d="M 479 647
L 505 647
L 505 669
L 479 669
L 479 647" style="stroke-width:0;stroke:none;fill:rgba(84,112,198,1.0)"/><path  d="M 515 628
L 541 628
L 541 669
L 515 669
L 515 628" style="stroke-width:0;stroke:none;fill:rgba(84,112,198,1.0)"/><path  d="M 552 659
L 578 659
L 578 669
L 552 669
L 552 659" style="stroke-width:0;stroke:none;fill:rgba(84,112,198,1.0)"/><path  d="M 589 623
L 615 623
L 615 669
L 589 669
L 589 623" style="stroke-width:0;stroke:none;fill:rgba(84,112,198,1.0)"/><path  d="M 626 649
L 652 649
L 652 669
L 626 669
L 626 649" style="stroke-width:0;stroke:none;fill:rgba(84,112,198,1.0)"/><path  d="M 662 587
L 688 587
L 688 669
L 662 669
L 662 587" style="stroke-width:0;stroke:none;fill:rgba(84,112,198,1.0)"/><path  d="M 699 656
L 725 656
L 725 669
L 699 669
L 699 656" style="stroke-width:0;stroke:none;fill:rgba(84,112,198,1.0)"/><path  d="M 736 649
L 762 649
L 762 669
L 736 669
L 736 649" style="stroke-width:0;stroke:none;fill:rgba(84,112,198,1.0)"/><path  d="M 772 659
L 798 659
L 798 669
L 772 669
L 772 659" style="stroke-width:0;stroke:none;fill:rgba(84,112,198,1.0)"/><path  d="M 809 630
L 835 630
L 835 669
L 809 669
L 809 630" style="stroke-width:0;stroke:none;fill:rgba(84,112,198,1.0)"/><path  d="M 846 653
L 872 653
L 872 669
L 846 669
L 846 653" style="stroke-width:0;stroke:none;fill:rgba(84,112,198,1.0)"/><path  d="M 883 660
L 909 660
L 909 669
L 883 669
L 883 660" style="stroke-width:0;stroke:none;fill:rgba(84,112,198,1.0)"/><path  d="M 919 649
L 945 649
L 945 669
L 919 669
L 919 649" style="stroke-width:0;stroke:none;fill:rgba(84,112,198,1.0)"/><path  d="M 956 658
L 982 658
L 982 669
L 956 669
L 956 658" style="stroke-width:0;stroke:none;fill:rgba(84,112,198,1.0)"/><path  d="M 993 578
L 1019 578
L 1019 669
L 993 669
L 993 578" style="stroke-width:0;stroke:none;fill:rgba(84,112,198,1.0)"/><path  d="M 1030 439
L 1056 439
L 1056 669
L 1030 669
L 1030 439" style="stroke-width:0;stroke:none;fill:rgba(84,112,198,1.0)"/><path  d="M 1066 647
L 1092 647
L 1092 669
L 1066 669
L 1066 647" style="stroke-width:0;stroke:none;fill:rgba(84,112,198,1.0)"/><path  d="M 1103 636
L 1129 636
L 1129 669
L 1103 669
L 1103 636" style="stroke-width:0;stroke:none;fill:rgba(84,112,198,1.0)"/><path  d="M 1140 280
L 1166 280
L 1166 669
L 1140 669
L 1140 280" style="stroke-width:0;stroke:none;fill:rgba(84,112,198,1.0)"/><path  d="M 1177 479
L 1203 479
L 1203 669
L 1177 669
L 1177 479" style="stroke-width:0;stroke:none;fill:rgba(84,112,198,1.0)"/><path  d="M 1213 628
L 1239 628
L 1239 669
L 1213 669
L 1213 628" style="stroke-width:0;stroke:none;fill:rgba(84,112,198,1.0)"/><path  d="M 1250 625
L 1276 625
L 1276 669
L 1250 669
L 1250 625" style="stroke-width:0;stroke:none;fill:rgba(84,112,198,1.0)"/><path  d="M 1287 649
L 1313 649
L 1313 669
L 1287 669
L 1287 649" style="stroke-width:0;stroke:none;fill:rgba(84,112,198,1.0)"/><path  d="M 1323 144
L 1349 144
L 1349 669
L 1323 669
L 1323 144" style="stroke-width:0;stroke:none;fill:rgba(84,112,198,1.0)"/><path  d="M 1360 636
L 1386 636
L 1386 669
L 1360 669
L 1360 636" style="stroke-width:0;stroke:none;fill:rgba(84,112,198,1.0)"/><path  d="M 1397 657
L 1423 657
L 1423 669
L 1397 669
L 1397 657" style="stroke-width:0;stroke:none;fill:rgba(84,112,198,1.0)"/><path  d="M 1434 640
L 1460 640
L 1460 669
L 1434 669
L 1434 640" style="stroke-width:0;stroke:none;fill:rgba(84,112,198,1.0)"/><path  d="M 1470 655
L 1496 655
L 1496 669
L 1470 669
L 1470 655" style="stroke-width:0;stroke:none;fill:rgba(84,112,198,1.0)"/><path  d="M 1507 633
L 1533 633
L 1533 669
L 1507 669
L 1507 633" style="stroke-width:0;stroke:none;fill:rgba(84,112,198,1.0)"/><path  d="M 1544 616
L 1570 616
L 1570 669
L 1544 669
L 1544 616" style="stroke-width:0;stroke:none;fill:rgba(84,112,198,1.0)"/><path  d="M 1581 657
L 1607 657
L 1607 669
L 1581 669
L 1581 657" style="stroke-width:0;stroke:none;fill:rgba(84,112,198,1.0)"/><path  d="M 1617 658
L 1643 658
L 1643 669
L 1617 669
L 1617 658" style="stroke-width:0;stroke:none;fill:rgba(84,112,198,1.0)"/><path  d="M 1654 589
L 1680 589
L 1680 669
L 1654 669
L 1654 589" style="stroke-width:0;stroke:none;fill:rgba(84,112,198,1.0)"/><path  d="M 1691 634
L 1717 634
L 1717 669
L 1691 669
L 1691 634" style="stroke-width:0;stroke:none;fill:rgba(84,112,198,1.0)"/><path  d="M 1728 603
L 1754 603
L 1754 669
L 1728 669
L 1728 603" style="stroke-width:0;stroke:none;fill:rgba(84,112,198,1.0)"/><path  d="M 1764 416
L 1790 416
L 1790 669
L 1764 669
L 1764 416" style="stroke-width:0;stroke:none;fill:rgba(84,112,198,1.0)"/><path  d="M 1801 631
L 1827 631
L 1827 669
L 1801 669
L 1801 631" style="stroke-width:0;stroke:none;fill:rgba(84,112,198,1.0)"/><path  d="M 1838 518
L 1864 518
L 1864 669
L 1838 669
L 1838 518" style="stroke-width:0;stroke:none;fill:rgba(84,112,198,1.0)"/><path  d="M 1333 136
A 15 15 330.00 1 1 1339 136
L 1336 122
Z" style="stroke-width:0;stroke:none;fill:rgba(84,112,198,1.0)"/><path  d="M 1321 122
Q1336,159 1351,122
Z" style="stroke-width:0;stroke:none;fill:rgba(84,112,198,1.0)"/><text x="1323" y="127" style="stroke-width:0;stroke:none;fill:rgba(238,238,238,1.0);font-size:10.2px;font-family:'Roboto Medium',sans-serif">1.05k</text><path  d="M 893 652
A 15 15 330.00 1 1 899 652
L 896 638
Z" style="stroke-width:0;stroke:none;fill:rgba(84,112,198,1.0)"/><path  d="M 881 638
Q896,675 911,638
Z" style="stroke-width:0;stroke:none;fill:rgba(84,112,198,1.0)"/><text x="883" y="643" style="stroke-width:0;stroke:none;fill:rgba(238,238,238,1.0);font-size:10.2px;font-family:'Roboto Medium',sans-serif">21.84</text><circle cx="73" cy="587" r="3" style="stroke-width:1;stroke:rgba(84,112,198,1.0);fill:rgba(84,112,198,1.0)"/><path stroke-dasharray="4.0, 2.0" d="" style="stroke-width:1;stroke:rgba(84,112,198,1.0);fill:rgba(84,112,198,1.0)"/><path stroke-dasharray="4.0, 2.0" d="M 79 587
L 1852 587" style="stroke-width:1;stroke:rgba(84,112,198,1.0);fill:rgba(84,112,198,1.0)"/><path stroke-dasharray="4.0, 2.0" d="M 1852 582
L 1868 587
L 1852 592
L 1857 587
L 1852 582" style="stroke-width:1;stroke:rgba(84,112,198,1.0);fill:rgba(84,112,198,1.0)"/><text x="1870" y="591" style="stroke-width:0;stroke:none;fill:rgba(70,70,70,1.0);font-size:12.8px;font-family:'Roboto Medium',sans-serif">166.94</text></svg>