<svg xmlns="http://www.w3.org/2000/svg" xmlns:xlink="http://www.w3.org/1999/xlink" width="2400" height="800">\n<path  d="M 0 0
L 2400 0
L 2400 800
L 0 800
L 0 0" style="stroke-width:0;stroke:none;fill:rgba(255,255,255,1.0)"/><path  d="M 1172 44
L 1202 44" style="stroke-width:3;stroke:rgba(84,112,198,1.0);fill:rgba(84,112,198,1.0)"/><circle cx="1187" cy="44" r="5" style="stroke-width:3;stroke:rgba(84,112,198,1.0);fill:rgba(84,112,198,1.0)"/><path  d="" style="stroke-width:3;stroke:rgba(84,112,198,1.0);fill:rgba(84,112,198,1.0)"/><text x="1204" y="50" style="stroke-width:0;stroke:none;fill:rgba(70,70,70,1.0);font-size:15.3px;font-family:'Roboto Medium',sans-serif">1000</text><text x="10" y="35" style="stroke-width:0;stroke:none;fill:rgba(70,70,70,1.0);font-size:25.6px;font-family:'Roboto Medium',sans-serif">Reversed</text><text x="10" y="77" style="stroke-width:0;stroke:none;fill:rgba(70,70,70,1.0);font-size:15.3px;font-family:'Roboto Medium',sans-serif">3.70M ns</text><text x="10" y="177" style="stroke-width:0;stroke:none;fill:rgba(70,70,70,1.0);font-size:15.3px;font-family:'Roboto Medium',sans-serif">3.09M ns</text><text x="10" y="277" style="stroke-width:0;stroke:none;fill:rgba(70,70,70,1.0);font-size:15.3px;font-family:'Roboto Medium',sans-serif">2.47M ns</text><text x="10" y="377" style="stroke-width:0;stroke:none;fill:rgba(70,70,70,1.0);font-size:15.3px;font-family:'Roboto Medium',sans-serif">1.85M ns</text><text x="10" y="477" style="stroke-width:0;stroke:none;fill:rgba(70,70,70,1.0);font-size:15.3px;font-family:'Roboto Medium',sans-serif">1.23M ns</text><text x="20" y="577" style="stroke-width:0;stroke:none;fill:rgba(70,70,70,1.0);font-size:15.3px;font-family:'Roboto Medium',sans-serif">618k ns</text><text x="46" y="677" style="stroke-width:0;stroke:none;fill:rgba(70,70,70,1.0);font-size:15.3px;font-family:'Roboto Medium',sans-serif">0 ns</text><path  d="M 85 70
L 2350 70" style="stroke-width:1;stroke:rgba(224,230,242,1.0);fill:none"/><path  d="M 85 170
L 2350 170" style="stroke-width:1;stroke:rgba(224,230,242,1.0);fill:none"/><path  d="M 85 270
L 2350 270" style="stroke-width:1;stroke:rgba(224,230,242,1.0);fill:none"/><path  d="M 85 370
L 2350 370" style="stroke-width:1;stroke:rgba(224,230,242,1.0);fill:none"/><path  d="M 85 470
L 2350 470" style="stroke-width:1;stroke:rgba(224,230,242,1.0);fill:none"/><path  d="M 85 570
L 2350 570" style="stroke-width:1;stroke:rgba(224,230,242,1.0);fill:none"/><path  d="M 85 675
L 85 670" style="stroke-width:1;stroke:rgba(110,112,121,1.0);fill:none"/><path  d="M 132 675
L 132 670" style="stroke-width:1;stroke:rgba(110,112,121,1.0);fill:none"/><path  d="M 179 675
L 179 670" style="stroke-width:1;stroke:rgba(110,112,121,1.0);fill:none"/><path  d="M 226 675
L 226 670" style="stroke-width:1;stroke:rgba(110,112,121,1.0);fill:none"/><path  d="M 273 675
L 273 670" style="stroke-width:1;stroke:rgba(110,112,121,1.0);fill:none"/><path  d="M 320 675
L 320 670" style="stroke-width:1;stroke:rgba(110,112,121,1.0);fill:none"/><path  d="M 368 675
L 368 670" style="stroke-width:1;stroke:rgba(110,112,121,1.0);fill:none"/><path  d="M 415 675
L 415 670" style="stroke-width:1;stroke:rgba(110,112,121,1.0);fill:none"/><path  d="M 462 675
L 462 670" style="stroke-width:1;stroke:rgba(110,112,121,1.0);fill:none"/><path  d="M 509 675
L 509 670" style="stroke-width:1;stroke:rgba(110,112,121,1.0);fill:none"/><path  d="M 556 675
L 556 670" style="stroke-width:1;stroke:rgba(110,112,121,1.0);fill:none"/><path  d="M 604 675
L 604 670" style="stroke-width:1;stroke:rgba(110,112,121,1.0);fill:none"/><path  d="M 651 675
L 651 670" style="stroke-width:1;stroke:rgba(110,112,121,1.0);fill:none"/><path  d="M 698 675
L 698 670" style="stroke-width:1;stroke:rgba(110,112,121,1.0);fill:none"/><path  d="M 745 675
L 745 670" style="stroke-width:1;stroke:rgba(110,112,121,1.0);fill:none"/><path  d="M 792 675
L 792 670" style="stroke-width:1;stroke:rgba(110,112,121,1.0);fill:none"/><path  d="M 840 675
L 840 670" style="stroke-width:1;stroke:rgba(110,112,121,1.0);fill:none"/><path  d="M 887 675
L 887 670" style="stroke-width:1;stroke:rgba(110,112,121,1.0);fill:none"/><path  d="M 934 675
L 934 670" style="stroke-width:1;stroke:rgba(110,112,121,1.0);fill:none"/><path  d="M 981 675
L 981 670" style="stroke-width:1;stroke:rgba(110,112,121,1.0);fill:none"/><path  d="M 1028 675
L 1028 670" style="stroke-width:1;stroke:rgba(110,112,121,1.0);fill:none"/><path  d="M 1075 675
L 1075 670" style="stroke-width:1;stroke:rgba(110,112,121,1.0);fill:none"/><path  d="M 1123 675
L 1123 670" style="stroke-width:1;stroke:rgba(110,112,121,1.0);fill:none"/><path  d="M 1170 675
L 1170 670" style="stroke-width:1;stroke:rgba(110,112,121,1.0);fill:none"/><path  d="M 1217 675
L 1217 670" style="stroke-width:1;stroke:rgba(110,112,121,1.0);fill:none"/><path  d="M 1264 675
L 1264 670" style="stroke-width:1;stroke:rgba(110,112,121,1.0);fill:none"/><path  d="M 1311 675
L 1311 670" style="stroke-width:1;stroke:rgba(110,112,121,1.0);fill:none"/><path  d="M 1359 675
L 1359 670" style="stroke-width:1;stroke:rgba(110,112,121,1.0);fill:none"/><path  d="M 1406 675
L 1406 670" style="stroke-width:1;stroke:rgba(110,112,121,1.0);fill:none"/><path  d="M 1453 675
L 1453 670" style="stroke-width:1;stroke:rgba(110,112,121,1.0);fill:none"/><path  d="M 1500 675
L 1500 670" style="stroke-width:1;stroke:rgba(110,112,121,1.0);fill:none"/><path  d="M 1547 675
L 1547 670" style="stroke-width:1;stroke:rgba(110,112,121,1.0);fill:none"/><path  d="M 1595 675
L 1595 670" style="stroke-width:1;stroke:rgba(110,112,121,1.0);fill:none"/><path  d="M 1642 675
L 1642 670" style="stroke-width:1;stroke:rgba(110,112,121,1.0);fill:none"/><path  d="M 1689 675
L 1689 670" style="stroke-width:1;stroke:rgba(110,112,121,1.0);fill:none"/><path  d="M 1736 675
L 1736 670" style="stroke-width:1;stroke:rgba(110,112,121,1.0);fill:none"/><path  d="M 1783 675
L 1783 670" style="stroke-width:1;stroke:rgba(110,112,121,1.0);fill:none"/><path  d="M 1830 675
L 1830 670" style="stroke-width:1;stroke:rgba(110,112,121,1.0);fill:none"/><path  d="M 1878 675
L 1878 670" style="stroke-width:1;stroke:rgba(110,112,121,1.0);fill:none"/><path  d="M 1925 675
L 1925 670" style="stroke-width:1;stroke:rgba(110,112,121,1.0);fill:none"/><path  d="M 1972 675
L 1972 670" style="stroke-width:1;stroke:rgba(110,112,121,1.0);fill:none"/><path  d="M 2019 675
L 2019 670" style="stroke-width:1;stroke:rgba(110,112,121,1.0);fill:none"/><path  d="M 2066 675
L 2066 670" style="stroke-width:1;stroke:rgba(110,112,121,1.0);fill:none"/><path  d="M 2114 675
L 2114 670" style="stroke-width:1;stroke:rgba(110,112,121,1.0);fill:none"/><path  d="M 2161 675
L 2161 670" style="stroke-width:1;stroke:rgba(110,112,121,1.0);fill:none"/><path  d="M 2208 675
L 2208 670" style="stroke-width:1;stroke:rgba(110,112,121,1.0);fill:none"/><path  d="M 2255 675
L 2255 670" style="stroke-width:1;stroke:rgba(110,112,121,1.0);fill:none"/><path  d="M 2302 675
L 2302 670" style="stroke-width:1;stroke:rgba(110,112,121,1.0);fill:none"/><path  d="M 2350 675
L 2350 670" style="stroke-width:1;stroke:rgba(110,112,121,1.0);fill:none"/><path  d="M 85 670
L 2350 670" style="stroke-width:1;stroke:rgba(110,112,121,1.0);fill:none"/><text x="101" y="786" style="stroke-width:0;stroke:none;fill:rgba(70,70,70,1.0);font-size:12.8px;font-family:'Roboto Medium',sans-serif" transform="rotate(272.15,101,786)">AdaptiveSort</text><text x="148" y="786" style="stroke-width:0;stroke:none;fill:rgba(70,70,70,1.0);font-size:12.8px;font-family:'Roboto Medium',sans-serif" transform="rotate(272.15,148,786)">AmericanFlagSort</text><text x="195" y="786" style="stroke-width:0;stroke:none;fill:rgba(70,70,70,1.0);font-size:12.8px;font-family:'Roboto Medium',sans-serif" transform="rotate(272.15,195,786)">BeadSortInspired</text><text x="242" y="786" style="stroke-width:0;stroke:none;fill:rgba(70,70,70,1.0);font-size:12.8px;font-family:'Roboto Medium',sans-serif" transform="rotate(272.15,242,786)">BitonicSort</text><text x="289" y="786" style="stroke-width:0;stroke:none;fill:rgba(70,70,70,1.0);font-size:12.8px;font-family:'Roboto Medium',sans-serif" transform="rotate(272.15,289,786)">BitonicSortAny</text><text x="337" y="786" style="stroke-width:0;stroke:none;fill:rgba(70,70,70,1.0);font-size:12.8px;font-family:'Roboto Medium',sans-serif" transform="rotate(272.15,337,786)">BlockSort</text><text x="384" y="786" style="stroke-width:0;stroke:none;fill:rgba(70,70,70,1.0);font-size:12.8px;font-family:'Roboto Medium',sans-serif" transform="rotate(272.15,384,786)">BubbleSortEarly</text><text x="431" y="786" style="stroke-width:0;stroke:none;fill:rgba(70,70,70,1.0);font-size:12.8px;font-family:'Roboto Medium',sans-serif" transform="rotate(272.15,431,786)">BucketSort</text><text x="478" y="786" style="stroke-width:0;stroke:none;fill:rgba(70,70,70,1.0);font-size:12.8px;font-family:'Roboto Medium',sans-serif" transform="rotate(272.15,478,786)">BurstSort</text><text x="525" y="786" style="stroke-width:0;stroke:none;fill:rgba(70,70,70,1.0);font-size:12.8px;font-family:'Roboto Medium',sans-serif" transform="rotate(272.15,525,786)">CascadeSort</text><text x="572" y="786" style="stroke-width:0;stroke:none;fill:rgba(70,70,70,1.0);font-size:12.8px;font-family:'Roboto Medium',sans-serif" transform="rotate(272.15,572,786)">CocktailShakerSort</text><text x="620" y="786" style="stroke-width:0;stroke:none;fill:rgba(70,70,70,1.0);font-size:12.8px;font-family:'Roboto Medium',sans-serif" transform="rotate(272.15,620,786)">CombSort</text><text x="667" y="786" style="stroke-width:0;stroke:none;fill:rgba(70,70,70,1.0);font-size:12.8px;font-family:'Roboto Medium',sans-serif" transform="rotate(272.15,667,786)">CountingSort</text><text x="714" y="786" style="stroke-width:0;stroke:none;fill:rgba(70,70,70,1.0);font-size:12.8px;font-family:'Roboto Medium',sans-serif" transform="rotate(272.15,714,786)">CubeSort</text><text x="761" y="786" style="stroke-width:0;stroke:none;fill:rgba(70,70,70,1.0);font-size:12.8px;font-family:'Roboto Medium',sans-serif" transform="rotate(272.15,761,786)">CycleSortOpt</text><text x="809" y="786" style="stroke-width:0;stroke:none;fill:rgba(70,70,70,1.0);font-size:12.8px;font-family:'Roboto Medium',sans-serif" transform="rotate(272.15,809,786)">ExchangeSort</text><text x="856" y="786" style="stroke-width:0;stroke:none;fill:rgba(70,70,70,1.0);font-size:12.8px;font-family:'Roboto Medium',sans-serif" transform="rotate(272.15,856,786)">FlashSort</text><text x="903" y="786" style="stroke-width:0;stroke:none;fill:rgba(70,70,70,1.0);font-size:12.8px;font-family:'Roboto Medium',sans-serif" transform="rotate(272.15,903,786)">GallopingSort</text><text x="950" y="786" style="stroke-width:0;stroke:none;fill:rgba(70,70,70,1.0);font-size:12.8px;font-family:'Roboto Medium',sans-serif" transform="rotate(272.15,950,786)">GnomeSort</text><text x="998" y="786" style="stroke-width:0;stroke:none;fill:rgba(70,70,70,1.0);font-size:12.8px;font-family:'Roboto Medium',sans-serif" transform="rotate(272.15,998,786)">GrailSort</text><text x="1044" y="786" style="stroke-width:0;stroke:none;fill:rgba(70,70,70,1.0);font-size:12.8px;font-family:'Roboto Medium',sans-serif" transform="rotate(272.15,1044,786)">HeapSort</text><text x="1092" y="786" style="stroke-width:0;stroke:none;fill:rgba(70,70,70,1.0);font-size:12.8px;font-family:'Roboto Medium',sans-serif" transform="rotate(272.15,1092,786)">HybridSortSonnet</text><text x="1139" y="786" style="stroke-width:0;stroke:none;fill:rgba(70,70,70,1.0);font-size:12.8px;font-family:'Roboto Medium',sans-serif" transform="rotate(272.15,1139,786)">InsertionSort</text><text x="1187" y="786" style="stroke-width:0;stroke:none;fill:rgba(70,70,70,1.0);font-size:12.8px;font-family:'Roboto Medium',sans-serif" transform="rotate(272.15,1187,786)">IntroSort</text><text x="1233" y="786" style="stroke-width:0;stroke:none;fill:rgba(70,70,70,1.0);font-size:12.8px;font-family:'Roboto Medium',sans-serif" transform="rotate(272.15,1233,786)">JupiterSort</text><text x="1280" y="786" style="stroke-width:0;stroke:none;fill:rgba(70,70,70,1.0);font-size:12.8px;font-family:'Roboto Medium',sans-serif" transform="rotate(272.15,1280,786)">LibrarySort</text><text x="1328" y="786" style="stroke-width:0;stroke:none;fill:rgba(70,70,70,1.0);font-size:12.8px;font-family:'Roboto Medium',sans-serif" transform="rotate(272.15,1328,786)">MergeSort</text><text x="1375" y="786" style="stroke-width:0;stroke:none;fill:rgba(70,70,70,1.0);font-size:12.8px;font-family:'Roboto Medium',sans-serif" transform="rotate(272.15,1375,786)">OddEvenSort</text><text x="1422" y="786" style="stroke-width:0;stroke:none;fill:rgba(70,70,70,1.0);font-size:12.8px;font-family:'Roboto Medium',sans-serif" transform="rotate(272.15,1422,786)">PancakeSort</text><text x="1469" y="786" style="stroke-width:0;stroke:none;fill:rgba(70,70,70,1.0);font-size:12.8px;font-family:'Roboto Medium',sans-serif" transform="rotate(272.15,1469,786)">PatienceSort</text><text x="1516" y="786" style="stroke-width:0;stroke:none;fill:rgba(70,70,70,1.0);font-size:12.8px;font-family:'Roboto Medium',sans-serif" transform="rotate(272.15,1516,786)">PigeonholeSort</text><text x="1564" y="786" style="stroke-width:0;stroke:none;fill:rgba(70,70,70,1.0);font-size:12.8px;font-family:'Roboto Medium',sans-serif" transform="rotate(272.15,1564,786)">PostmanSort</text><text x="1611" y="786" style="stroke-width:0;stroke:none;fill:rgba(70,70,70,1.0);font-size:12.8px;font-family:'Roboto Medium',sans-serif" transform="rotate(272.15,1611,786)">QuickSort</text><text x="1658" y="786" style="stroke-width:0;stroke:none;fill:rgba(70,70,70,1.0);font-size:12.8px;font-family:'Roboto Medium',sans-serif" transform="rotate(272.15,1658,786)">RadixSortLSD</text><text x="1705" y="786" style="stroke-width:0;stroke:none;fill:rgba(70,70,70,1.0);font-size:12.8px;font-family:'Roboto Medium',sans-serif" transform="rotate(272.15,1705,786)">RadixSortMSD</text><text x="1752" y="786" style="stroke-width:0;stroke:none;fill:rgba(70,70,70,1.0);font-size:12.8px;font-family:'Roboto Medium',sans-serif" transform="rotate(272.15,1752,786)">SampleSort</text><text x="1799" y="786" style="stroke-width:0;stroke:none;fill:rgba(70,70,70,1.0);font-size:12.8px;font-family:'Roboto Medium',sans-serif" transform="rotate(272.15,1799,786)">SelectionSort</text><text x="1848" y="786" style="stroke-width:0;stroke:none;fill:rgba(70,70,70,1.0);font-size:12.8px;font-family:'Roboto Medium',sans-serif" transform="rotate(272.15,1848,786)">ShellSort</text><text x="1894" y="786" style="stroke-width:0;stroke:none;fill:rgba(70,70,70,1.0);font-size:12.8px;font-family:'Roboto Medium',sans-serif" transform="rotate(272.15,1894,786)">SmoothSort</text><text x="1941" y="786" style="stroke-width:0;stroke:none;fill:rgba(70,70,70,1.0);font-size:12.8px;font-family:'Roboto Medium',sans-serif" transform="rotate(272.15,1941,786)">SpreadSort</text><text x="1989" y="786" style="stroke-width:0;stroke:none;fill:rgba(70,70,70,1.0);font-size:12.8px;font-family:'Roboto Medium',sans-serif" transform="rotate(272.15,1989,786)">StdSort</text><text x="2035" y="786" style="stroke-width:0;stroke:none;fill:rgba(70,70,70,1.0);font-size:12.8px;font-family:'Roboto Medium',sans-serif" transform="rotate(272.15,2035,786)">StrandSort</text><text x="2084" y="786" style="stroke-width:0;stroke:none;fill:rgba(70,70,70,1.0);font-size:12.8px;font-family:'Roboto Medium',sans-serif" transform="rotate(272.15,2084,786)">TimSort</text><text x="2130" y="786" style="stroke-width:0;stroke:none;fill:rgba(70,70,70,1.0);font-size:12.8px;font-family:'Roboto Medium',sans-serif" transform="rotate(272.15,2130,786)">TournamentSort</text><text x="2177" y="786" style="stroke-width:0;stroke:none;fill:rgba(70,70,70,1.0);font-size:12.8px;font-family:'Roboto Medium',sans-serif" transform="rotate(272.15,2177,786)">TreeAVLSort</text><text x="2225" y="786" style="stroke-width:0;stroke:none;fill:rgba(70,70,70,1.0);font-size:12.8px;font-family:'Roboto Medium',sans-serif" transform="rotate(272.15,2225,786)">TreeSort</text><text x="2271" y="786" style="stroke-width:0;stroke:none;fill:rgba(70,70,70,1.0);font-size:12.8px;font-family:'Roboto Medium',sans-serif" transform="rotate(272.15,2271,786)">WeaveMergeSort</text><text x="2320" y="786" style="stroke-width:0;stroke:none;fill:rgba(70,70,70,1.0);font-size:12.8px;font-family:'Roboto Medium',sans-serif" transform="rotate(272.15,2320,786)">WikiSort</text><path  d="M 90 670
L 127 670
L 127 669
L 90 669
L 90 670" style="stroke-width:0;stroke:none;fill:rgba(84,112,198,1.0)"/><path  d="M 137 668
L 174 668
L 174 669
L 137 669
L 137 668" style="stroke-width:0;stroke:none;fill:rgba(84,112,198,1.0)"/><path  d="M 184 540
L 221 540
L 221 669
L 184 669
L 184 540" style="stroke-width:0;stroke:none;fill:rgba(84,112,198,1.0)"/><path  d="M 231 663
L 268 663
L 268 669
L 231 669
L 231 663" style="stroke-width:0;stroke:none;fill:rgba(84,112,198,1.0)"/><path  d="M 278 657
L 315 657
L 315 669
L 278 669
L 278 657" style="stroke-width:0;stroke:none;fill:rgba(84,112,198,1.0)"/><path  d="M 325 667
L 362 667
L 362 669
L 325 669
L 325 667" style="stroke-width:0;stroke:none;fill:rgba(84,112,198,1.0)"/><path  d="M 373 537
L 410 537
L 410 669
L 373 669
L 373 537" style="stroke-width:0;stroke:none;fill:rgba(84,112,198,1.0)"/><path  d="M 420 594
L 457 594
L 457 669
L 420 669
L 420 594" style="stroke-width:0;stroke:none;fill:rgba(84,112,198,1.0)"/><path  d="M 467 667
L 504 667
L 504 669
L 467 669
L 467 667" style="stroke-width:0;stroke:none;fill:rgba(84,112,198,1.0)"/><path  d="M 514 663
L 551 663
L 551 669
L 514 669
L 514 663" style="stroke-width:0;stroke:none;fill:rgba(84,112,198,1.0)"/><path  d="M 561 538
L 598 538
L 598 669
L 561 669
L 561 538" style="stroke-width:0;stroke:none;fill:rgba(84,112,198,1.0)"/><path  d="M 609 667
L 646 667
L 646 669
L 609 669
L 609 667" style="stroke-width:0;stroke:none;fill:rgba(84,112,198,1.0)"/><path  d="M 656 669
L 693 669
L 693 669
L 656 669
L 656 669" style="stroke-width:0;stroke:none;fill:rgba(84,112,198,1.0)"/><path  d="M 703 665
L 740 665
L 740 669
L 703 669
L 703 665" style="stroke-width:0;stroke:none;fill:rgba(84,112,198,1.0)"/><path  d="M 750 664
L 787 664
L 787 669
L 750 669
L 750 664" style="stroke-width:0;stroke:none;fill:rgba(84,112,198,1.0)"/><path  d="M 797 623
L 834 623
L 834 669
L 797 669
L 797 623" style="stroke-width:0;stroke:none;fill:rgba(84,112,198,1.0)"/><path  d="M 845 668
L 882 668
L 882 669
L 845 669
L 845 668" style="stroke-width:0;stroke:none;fill:rgba(84,112,198,1.0)"/><path  d="M 892 664
L 929 664
L 929 669
L 892 669
L 892 664" style="stroke-width:0;stroke:none;fill:rgba(84,112,198,1.0)"/><path  d="M 939 460
L 976 460
L 976 669
L 939 669
L 939 460" style="stroke-width:0;stroke:none;fill:rgba(84,112,198,1.0)"/><path  d="M 986 668
L 1023 668
L 1023 669
L 986 669
L 986 668" style="stroke-width:0;stroke:none;fill:rgba(84,112,198,1.0)"/><path  d="M 1033 663
L 1070 663
L 1070 669
L 1033 669
L 1033 663" style="stroke-width:0;stroke:none;fill:rgba(84,112,198,1.0)"/><path  d="M 1080 669
L 1117 669
L 1117 669
L 1080 669
L 1080 669" style="stroke-width:0;stroke:none;fill:rgba(84,112,198,1.0)"/><path  d="M 1128 631
L 1165 631
L 1165 669
L 1128 669
L 1128 631" style="stroke-width:0;stroke:none;fill:rgba(84,112,198,1.0)"/><path  d="M 1175 662
L 1212 662
L 1212 669
L 1175 669
L 1175 662" style="stroke-width:0;stroke:none;fill:rgba(84,112,198,1.0)"/><path  d="M 1222 611
L 1259 611
L 1259 669
L 1222 669
L 1222 611" style="stroke-width:0;stroke:none;fill:rgba(84,112,198,1.0)"/><path  d="M 1269 662
L 1306 662
L 1306 669
L 1269 669
L 1269 662" style="stroke-width:0;stroke:none;fill:rgba(84,112,198,1.0)"/><path  d="M 1316 660
L 1353 660
L 1353 669
L 1316 669
L 1316 660" style="stroke-width:0;stroke:none;fill:rgba(84,112,198,1.0)"/><path  d="M 1364 617
L 1401 617
L 1401 669
L 1364 669
L 1364 617" style="stroke-width:0;stroke:none;fill:rgba(84,112,198,1.0)"/><path  d="M 1411 613
L 1448 613
L 1448 669
L 1411 669
L 1411 613" style="stroke-width:0;stroke:none;fill:rgba(84,112,198,1.0)"/><path  d="M 1458 669
L 1495 669
L 1495 669
L 1458 669
L 1458 669" style="stroke-width:0;stroke:none;fill:rgba(84,112,198,1.0)"/><path  d="M 1505 664
L 1542 664
L 1542 669
L 1505 669
L 1505 664" style="stroke-width:0;stroke:none;fill:rgba(84,112,198,1.0)"/><path  d="M 1552 659
L 1589 659
L 1589 669
L 1552 669
L 1552 659" style="stroke-width:0;stroke:none;fill:rgba(84,112,198,1.0)"/><path  d="M 1600 590
L 1637 590
L 1637 669
L 1600 669
L 1600 590" style="stroke-width:0;stroke:none;fill:rgba(84,112,198,1.0)"/><path  d="M 1647 669
L 1684 669
L 1684 669
L 1647 669
L 1647 669" style="stroke-width:0;stroke:none;fill:rgba(84,112,198,1.0)"/><path  d="M 1694 668
L 1731 668
L 1731 669
L 1694 669
L 1694 668" style="stroke-width:0;stroke:none;fill:rgba(84,112,198,1.0)"/><path  d="M 1741 670
L 1778 670
L 1778 669
L 1741 669
L 1741 670" style="stroke-width:0;stroke:none;fill:rgba(84,112,198,1.0)"/><path  d="M 1788 603
L 1825 603
L 1825 669
L 1788 669
L 1788 603" style="stroke-width:0;stroke:none;fill:rgba(84,112,198,1.0)"/><path  d="M 1835 669
L 1872 669
L 1872 669
L 1835 669
L 1835 669" style="stroke-width:0;stroke:none;fill:rgba(84,112,198,1.0)"/><path  d="M 1883 540
L 1920 540
L 1920 669
L 1883 669
L 1883 540" style="stroke-width:0;stroke:none;fill:rgba(84,112,198,1.0)"/><path  d="M 1930 669
L 1967 669
L 1967 669
L 1930 669
L 1930 669" style="stroke-width:0;stroke:none;fill:rgba(84,112,198,1.0)"/><path  d="M 1977 670
L 2014 670
L 2014 669
L 1977 669
L 1977 670" style="stroke-width:0;stroke:none;fill:rgba(84,112,198,1.0)"/><path  d="M 2024 125
L 2061 125
L 2061 669
L 2024 669
L 2024 125" style="stroke-width:0;stroke:none;fill:rgba(84,112,198,1.0)"/><path  d="M 2071 670
L 2108 670
L 2108 669
L 2071 669
L 2071 670" style="stroke-width:0;stroke:none;fill:rgba(84,112,198,1.0)"/><path  d="M 2119 662
L 2156 662
L 2156 669
L 2119 669
L 2119 662" style="stroke-width:0;stroke:none;fill:rgba(84,112,198,1.0)"/><path  d="M 2166 651
L 2203 651
L 2203 669
L 2166 669
L 2166 651" style="stroke-width:0;stroke:none;fill:rgba(84,112,198,1.0)"/><path  d="M 2213 423
L 2250 423
L 2250 669
L 2213 669
L 2213 423" style="stroke-width:0;stroke:none;fill:rgba(84,112,198,1.0)"/><path  d="M 2260 667
L 2297 667
L 2297 669
L 2260 669
L 2260 667" style="stroke-width:0;stroke:none;fill:rgba(84,112,198,1.0)"/><path  d="M 2307 667
L 2344 667
L 2344 669
L 2307 669
L 2307 667" style="stroke-width:0;stroke:none;fill:rgba(84,112,198,1.0)"/><path  d="M 2039 117
A 15 15 330.00 1 1 2045 117
L 2042 103
Z" style="stroke-width:0;stroke:none;fill:rgba(84,112,198,1.0)"/><path  d="M 2027 103
Q2042,140 2057,103
Z" style="stroke-width:0;stroke:none;fill:rgba(84,112,198,1.0)"/><text x="2027" y="108" style="stroke-width:0;stroke:none;fill:rgba(238,238,238,1.0);font-size:10.2px;font-family:'Roboto Medium',sans-serif">3.37M</text><path  d="M 1992 662
A 15 15 330.00 1 1 1998 662
L 1995 648
Z" style="stroke-width:0;stroke:none;fill:rgba(84,112,198,1.0)"/><path  d="M 1980 648
Q1995,685 2010,648
Z" style="stroke-width:0;stroke:none;fill:rgba(84,112,198,1.0)"/><text x="1982" y="653" style="stroke-width:0;stroke:none;fill:rgba(238,238,238,1.0);font-size:10.2px;font-family:'Roboto Medium',sans-serif">1.13k</text><circle cx="88" cy="625" r="3" style="stroke-width:1;stroke:rgba(84,112,198,1.0);fill:rgba(84,112,198,1.0)"/><path stroke-dasharray="4.0, 2.0" d="" style="stroke-width:1;stroke:rgba(84,112,198,1.0);fill:rgba(84,112,198,1.0)"/><path stroke-dasharray="4.0, 2.0" d="M 94 625
L 2332 625" style="stroke-width:1;stroke:rgba(84,112,198,1.0);fill:rgba(84,112,198,1.0)"/><path stroke-dasharray="4.0, 2.0" d="M 2332 620
L 2348 625
L 2332 630
L 2337 625
L 2332 620" style="stroke-width:1;stroke:rgba(84,112,198,1.0);fill:rgba(84,112,198,1.0)"/><text x="2350" y="629" style="stroke-width:0;stroke:none;fill:rgba(70,70,70,1.0);font-size:12.8px;font-family:'Roboto Medium',sans-serif">280.49k</text></svg>