<svg xmlns="http://www.w3.org/2000/svg" xmlns:xlink="http://www.w3.org/1999/xlink" width="1200" height="800">\n<path  d="M 0 0
L 1200 0
L 1200 800
L 0 800
L 0 0" style="stroke-width:0;stroke:none;fill:rgba(255,255,255,1.0)"/><path  d="M 550 44
L 580 44" style="stroke-width:3;stroke:rgba(84,112,198,1.0);fill:rgba(84,112,198,1.0)"/><circle cx="565" cy="44" r="5" style="stroke-width:3;stroke:rgba(84,112,198,1.0);fill:rgba(84,112,198,1.0)"/><path  d="" style="stroke-width:3;stroke:rgba(84,112,198,1.0);fill:rgba(84,112,198,1.0)"/><text x="582" y="50" style="stroke-width:0;stroke:none;fill:rgba(70,70,70,1.0);font-size:15.3px;font-family:'Roboto Medium',sans-serif">100000000</text><text x="10" y="35" style="stroke-width:0;stroke:none;fill:rgba(70,70,70,1.0);font-size:25.6px;font-family:'Roboto Medium',sans-serif">Rotated</text><text x="10" y="77" style="stroke-width:0;stroke:none;fill:rgba(70,70,70,1.0);font-size:15.3px;font-family:'Roboto Medium',sans-serif">7.30G ns</text><text x="10" y="177" style="stroke-width:0;stroke:none;fill:rgba(70,70,70,1.0);font-size:15.3px;font-family:'Roboto Medium',sans-serif">6.09G ns</text><text x="10" y="277" style="stroke-width:0;stroke:none;fill:rgba(70,70,70,1.0);font-size:15.3px;font-family:'Roboto Medium',sans-serif">4.87G ns</text><text x="10" y="377" style="stroke-width:0;stroke:none;fill:rgba(70,70,70,1.0);font-size:15.3px;font-family:'Roboto Medium',sans-serif">3.65G ns</text><text x="10" y="477" style="stroke-width:0;stroke:none;fill:rgba(70,70,70,1.0);font-size:15.3px;font-family:'Roboto Medium',sans-serif">2.43G ns</text><text x="10" y="577" style="stroke-width:0;stroke:none;fill:rgba(70,70,70,1.0);font-size:15.3px;font-family:'Roboto Medium',sans-serif">1.21G ns</text><text x="43" y="677" style="stroke-width:0;stroke:none;fill:rgba(70,70,70,1.0);font-size:15.3px;font-family:'Roboto Medium',sans-serif">0 ns</text><path  d="M 82 70
L 1150 70" style="stroke-width:1;stroke:rgba(224,230,242,1.0);fill:none"/><path  d="M 82 170
L 1150 170" style="stroke-width:1;stroke:rgba(224,230,242,1.0);fill:none"/><path  d="M 82 270
L 1150 270" style="stroke-width:1;stroke:rgba(224,230,242,1.0);fill:none"/><path  d="M 82 370
L 1150 370" style="stroke-width:1;stroke:rgba(224,230,242,1.0);fill:none"/><path  d="M 82 470
L 1150 470" style="stroke-width:1;stroke:rgba(224,230,242,1.0);fill:none"/><path  d="M 82 570
L 1150 570" style="stroke-width:1;stroke:rgba(224,230,242,1.0);fill:none"/><path  d="M 82 675
L 82 670" style="stroke-width:1;stroke:rgba(110,112,121,1.0);fill:none"/><path  d="M 295 675
L 295 670" style="stroke-width:1;stroke:rgba(110,112,121,1.0);fill:none"/><path  d="M 509 675
L 509 670" style="stroke-width:1;stroke:rgba(110,112,121,1.0);fill:none"/><path  d="M 722 675
L 722 670" style="stroke-width:1;stroke:rgba(110,112,121,1.0);fill:none"/><path  d="M 936 675
L 936 670" style="stroke-width:1;stroke:rgba(110,112,121,1.0);fill:none"/><path  d="M 1150 675
L 1150 670" style="stroke-width:1;stroke:rgba(110,112,121,1.0);fill:none"/><path  d="M 82 670
L 1150 670" style="stroke-width:1;stroke:rgba(110,112,121,1.0);fill:none"/><text x="181" y="779" style="stroke-width:0;stroke:none;fill:rgba(70,70,70,1.0);font-size:12.8px;font-family:'Roboto Medium',sans-serif" transform="rotate(272.15,181,779)">AdaptiveSort</text><text x="395" y="779" style="stroke-width:0;stroke:none;fill:rgba(70,70,70,1.0);font-size:12.8px;font-family:'Roboto Medium',sans-serif" transform="rotate(272.15,395,779)">AmericanFlagSort</text><text x="608" y="779" style="stroke-width:0;stroke:none;fill:rgba(70,70,70,1.0);font-size:12.8px;font-family:'Roboto Medium',sans-serif" transform="rotate(272.15,608,779)">RadixSortMSD</text><text x="822" y="779" style="stroke-width:0;stroke:none;fill:rgba(70,70,70,1.0);font-size:12.8px;font-family:'Roboto Medium',sans-serif" transform="rotate(272.15,822,779)">SampleSort</text><text x="1036" y="779" style="stroke-width:0;stroke:none;fill:rgba(70,70,70,1.0);font-size:12.8px;font-family:'Roboto Medium',sans-serif" transform="rotate(272.15,1036,779)">slices.Sort</text><path  d="M 92 646
L 285 646
L 285 669
L 92 669
L 92 646" style="stroke-width:0;stroke:none;fill:rgba(84,112,198,1.0)"/><path  d="M 305 529
L 498 529
L 498 669
L 305 669
L 305 529" style="stroke-width:0;stroke:none;fill:rgba(84,112,198,1.0)"/><path  d="M 519 105
L 712 105
L 712 669
L 519 669
L 519 105" style="stroke-width:0;stroke:none;fill:rgba(84,112,198,1.0)"/><path  d="M 732 612
L 925 612
L 925 669
L 732 669
L 732 612" style="stroke-width:0;stroke:none;fill:rgba(84,112,198,1.0)"/><path  d="M 612 97
A 15 15 330.00 1 1 618 97
L 615 83
Z" style="stroke-width:0;stroke:none;fill:rgba(84,112,198,1.0)"/><path  d="M 600 83
Q615,120 630,83
Z" style="stroke-width:0;stroke:none;fill:rgba(84,112,198,1.0)"/><text x="601" y="88" style="stroke-width:0;stroke:none;fill:rgba(238,238,238,1.0);font-size:10.2px;font-family:'Roboto Medium',sans-serif">6.88G</text><path  d="M 185 638
A 15 15 330.00 1 1 191 638
L 188 624
Z" style="stroke-width:0;stroke:none;fill:rgba(84,112,198,1.0)"/><path  d="M 173 624
Q188,661 203,624
Z" style="stroke-width:0;stroke:none;fill:rgba(84,112,198,1.0)"/><text x="168" y="629" style="stroke-width:0;stroke:none;fill:rgba(238,238,238,1.0);font-size:10.2px;font-family:'Roboto Medium',sans-serif">294.49M</text><circle cx="85" cy="473" r="3" style="stroke-width:1;stroke:rgba(84,112,198,1.0);fill:rgba(84,112,198,1.0)"/><path stroke-dasharray="4.0, 2.0" d="" style="stroke-width:1;stroke:rgba(84,112,198,1.0);fill:rgba(84,112,198,1.0)"/><path stroke-dasharray="4.0, 2.0" d="M 91 473
L 1132 473" style="stroke-width:1;stroke:rgba(84,112,198,1.0);fill:rgba(84,112,198,1.0)"/><path stroke-dasharray="4.0, 2.0" d="M 1132 468
L 1148 473
L 1132 478
L 1137 473
L 1132 468" style="stroke-width:1;stroke:rgba(84,112,198,1.0);fill:rgba(84,112,198,1.0)"/><text x="1150" y="477" style="stroke-width:0;stroke:none;fill:rgba(70,70,70,1.0);font-size:12.8px;font-family:'Roboto Medium',sans-serif">2.40G</text></svg>