<?xml version="1.0" encoding="UTF-8"?>
<svg width="1060" height="800" xmlns="http://www.w3.org/2000/svg">
    <defs>
        <filter id="shadow" x="-20%" y="-20%" width="140%" height="140%">
            <feDropShadow dx="2" dy="2" stdDeviation="2" flood-opacity="0.1"/>
        </filter>
        <linearGradient id="barGradient" x1="0" x2="0" y1="0" y2="1">
            <stop offset="0%" stop-color="#1976D2"/>
            <stop offset="100%" stop-color="#2196F3"/>
        </linearGradient>
    </defs>
    <rect width="1060" height="800" fill="#fafafa"/>
    <line x1="80" y1="80" x2="980" y2="80" stroke="#e0e0e0" stroke-width="1"/>
    <line x1="80" y1="144" x2="980" y2="144" stroke="#e0e0e0" stroke-width="1"/>
    <line x1="80" y1="208" x2="980" y2="208" stroke="#e0e0e0" stroke-width="1"/>
    <line x1="80" y1="272" x2="980" y2="272" stroke="#e0e0e0" stroke-width="1"/>
    <line x1="80" y1="336" x2="980" y2="336" stroke="#e0e0e0" stroke-width="1"/>
    <line x1="80" y1="400" x2="980" y2="400" stroke="#e0e0e0" stroke-width="1"/>
    <line x1="80" y1="464" x2="980" y2="464" stroke="#e0e0e0" stroke-width="1"/>
    <line x1="80" y1="528" x2="980" y2="528" stroke="#e0e0e0" stroke-width="1"/>
    <line x1="80" y1="592" x2="980" y2="592" stroke="#e0e0e0" stroke-width="1"/>
    <line x1="80" y1="656" x2="980" y2="656" stroke="#e0e0e0" stroke-width="1"/>
    <line x1="80" y1="720" x2="980" y2="720" stroke="#e0e0e0" stroke-width="1"/>
    <rect x="80" y="-9223372036854775088" width="2" height="-9223372036854775808" fill="url(#barGradient)" filter="url(#shadow)"/>
    <rect x="83" y="-9223372036854775088" width="2" height="-9223372036854775808" fill="url(#barGradient)" filter="url(#shadow)"/>
    <rect x="86" y="-9223372036854775088" width="2" height="-9223372036854775808" fill="url(#barGradient)" filter="url(#shadow)"/>
    <rect x="89" y="-9223372036854775088" width="2" height="-9223372036854775808" fill="url(#barGradient)" filter="url(#shadow)"/>
    <rect x="92" y="-9223372036854775088" width="2" height="-9223372036854775808" fill="url(#barGradient)" filter="url(#shadow)"/>
    <rect x="95" y="-9223372036854775088" width="2" height="-9223372036854775808" fill="url(#barGradient)" filter="url(#shadow)"/>
    <rect x="98" y="-9223372036854775088" width="2" height="-9223372036854775808" fill="url(#barGradient)" filter="url(#shadow)"/>
    <rect x="101" y="-9223372036854775088" width="2" height="-9223372036854775808" fill="url(#barGradient)" filter="url(#shadow)"/>
    <rect x="104" y="-9223372036854775088" width="2" height="-9223372036854775808" fill="url(#barGradient)" filter="url(#shadow)"/>
    <rect x="107" y="-9223372036854775088" width="2" height="-9223372036854775808" fill="url(#barGradient)" filter="url(#shadow)"/>
    <rect x="110" y="-9223372036854775088" width="2" height="-9223372036854775808" fill="url(#barGradient)" filter="url(#shadow)"/>
    <rect x="113" y="-9223372036854775088" width="2" height="-9223372036854775808" fill="url(#barGradient)" filter="url(#shadow)"/>
    <rect x="116" y="-9223372036854775088" width="2" height="-9223372036854775808" fill="url(#barGradient)" filter="url(#shadow)"/>
    <rect x="119" y="-9223372036854775088" width="2" height="-9223372036854775808" fill="url(#barGradient)" filter="url(#shadow)"/>
    <rect x="122" y="-9223372036854775088" width="2" height="-9223372036854775808" fill="url(#barGradient)" filter="url(#shadow)"/>
    <rect x="125" y="-9223372036854775088" width="2" height="-9223372036854775808" fill="url(#barGradient)" filter="url(#shadow)"/>
    <rect x="128" y="-9223372036854775088" width="2" height="-9223372036854775808" fill="url(#barGradient)" filter="url(#shadow)"/>
    <rect x="131" y="-9223372036854775088" width="2" height="-9223372036854775808" fill="url(#barGradient)" filter="url(#shadow)"/>
    <rect x="134" y="-9223372036854775088" width="2" height="-9223372036854775808" fill="url(#barGradient)" filter="url(#shadow)"/>
    <rect x="137" y="-9223372036854775088" width="2" height="-9223372036854775808" fill="url(#barGradient)" filter="url(#shadow)"/>
    <rect x="140" y="-9223372036854775088" width="2" height="-9223372036854775808" fill="url(#barGradient)" filter="url(#shadow)"/>
    <rect x="143" y="-9223372036854775088" width="2" height="-9223372036854775808" fill="url(#barGradient)" filter="url(#shadow)"/>
    <rect x="146" y="-9223372036854775088" width="2" height="-9223372036854775808" fill="url(#barGradient)" filter="url(#shadow)"/>
    <rect x="149" y="-9223372036854775088" width="2" height="-9223372036854775808" fill="url(#barGradient)" filter="url(#shadow)"/>
    <rect x="152" y="-9223372036854775088" width="2" height="-9223372036854775808" fill="url(#barGradient)" filter="url(#shadow)"/>
    <rect x="155" y="-9223372036854775088" width="2" height="-9223372036854775808" fill="url(#barGradient)" filter="url(#shadow)"/>
    <rect x="158" y="-9223372036854775088" width="2" height="-9223372036854775808" fill="url(#barGradient)" filter="url(#shadow)"/>
    <rect x="161" y="-9223372036854775088" width="2" height="-9223372036854775808" fill="url(#barGradient)" filter="url(#shadow)"/>
    <rect x="164" y="-9223372036854775088" width="2" height="-9223372036854775808" fill="url(#barGradient)" filter="url(#shadow)"/>
    <rect x="167" y="-9223372036854775088" width="2" height="-9223372036854775808" fill="url(#barGradient)" filter="url(#shadow)"/>
    <rect x="170" y="-9223372036854775088" width="2" height="-9223372036854775808" fill="url(#barGradient)" filter="url(#shadow)"/>
    <rect x="173" y="-9223372036854775088" width="2" height="-9223372036854775808" fill="url(#barGradient)" filter="url(#shadow)"/>
    <rect x="176" y="-9223372036854775088" width="2" height="-9223372036854775808" fill="url(#barGradient)" filter="url(#shadow)"/>
    <rect x="179" y="-9223372036854775088" width="2" height="-9223372036854775808" fill="url(#barGradient)" filter="url(#shadow)"/>
    <rect x="182" y="-9223372036854775088" width="2" height="-9223372036854775808" fill="url(#barGradient)" filter="url(#shadow)"/>
    <rect x="185" y="-9223372036854775088" width="2" height="-9223372036854775808" fill="url(#barGradient)" filter="url(#shadow)"/>
    <rect x="188" y="-9223372036854775088" width="2" height="-9223372036854775808" fill="url(#barGradient)" filter="url(#shadow)"/>
    <rect x="191" y="-9223372036854775088" width="2" height="-9223372036854775808" fill="url(#barGradient)" filter="url(#shadow)"/>
    <rect x="194" y="-9223372036854775088" width="2" height="-9223372036854775808" fill="url(#barGradient)" filter="url(#shadow)"/>
    <rect x="197" y="-9223372036854775088" width="2" height="-9223372036854775808" fill="url(#barGradient)" filter="url(#shadow)"/>
    <rect x="200" y="-9223372036854775088" width="2" height="-9223372036854775808" fill="url(#barGradient)" filter="url(#shadow)"/>
    <rect x="203" y="-9223372036854775088" width="2" height="-9223372036854775808" fill="url(#barGradient)" filter="url(#shadow)"/>
    <rect x="206" y="-9223372036854775088" width="2" height="-9223372036854775808" fill="url(#barGradient)" filter="url(#shadow)"/>
    <rect x="209" y="-9223372036854775088" width="2" height="-9223372036854775808" fill="url(#barGradient)" filter="url(#shadow)"/>
    <rect x="212" y="-9223372036854775088" width="2" height="-9223372036854775808" fill="url(#barGradient)" filter="url(#shadow)"/>
    <rect x="215" y="-9223372036854775088" width="2" height="-9223372036854775808" fill="url(#barGradient)" filter="url(#shadow)"/>
    <rect x="218" y="-9223372036854775088" width="2" height="-9223372036854775808" fill="url(#barGradient)" filter="url(#shadow)"/>
    <rect x="221" y="-9223372036854775088" width="2" height="-9223372036854775808" fill="url(#barGradient)" filter="url(#shadow)"/>
    <rect x="224" y="-9223372036854775088" width="2" height="-9223372036854775808" fill="url(#barGradient)" filter="url(#shadow)"/>
    <rect x="227" y="-9223372036854775088" width="2" height="-9223372036854775808" fill="url(#barGradient)" filter="url(#shadow)"/>
    <rect x="230" y="-9223372036854775088" width="2" height="-9223372036854775808" fill="url(#barGradient)" filter="url(#shadow)"/>
    <rect x="233" y="-9223372036854775088" width="2" height="-9223372036854775808" fill="url(#barGradient)" filter="url(#shadow)"/>
    <rect x="236" y="-9223372036854775088" width="2" height="-9223372036854775808" fill="url(#barGradient)" filter="url(#shadow)"/>
    <rect x="239" y="-9223372036854775088" width="2" height="-9223372036854775808" fill="url(#barGradient)" filter="url(#shadow)"/>
    <rect x="242" y="-9223372036854775088" width="2" height="-9223372036854775808" fill="url(#barGradient)" filter="url(#shadow)"/>
    <rect x="245" y="-9223372036854775088" width="2" height="-9223372036854775808" fill="url(#barGradient)" filter="url(#shadow)"/>
    <rect x="248" y="-9223372036854775088" width="2" height="-9223372036854775808" fill="url(#barGradient)" filter="url(#shadow)"/>
    <rect x="251" y="-9223372036854775088" width="2" height="-9223372036854775808" fill="url(#barGradient)" filter="url(#shadow)"/>
    <rect x="254" y="-9223372036854775088" width="2" height="-9223372036854775808" fill="url(#barGradient)" filter="url(#shadow)"/>
    <rect x="257" y="-9223372036854775088" width="2" height="-9223372036854775808" fill="url(#barGradient)" filter="url(#shadow)"/>
    <rect x="260" y="-9223372036854775088" width="2" height="-9223372036854775808" fill="url(#barGradient)" filter="url(#shadow)"/>
    <rect x="263" y="-9223372036854775088" width="2" height="-9223372036854775808" fill="url(#barGradient)" filter="url(#shadow)"/>
    <rect x="266" y="-9223372036854775088" width="2" height="-9223372036854775808" fill="url(#barGradient)" filter="url(#shadow)"/>
    <rect x="269" y="-9223372036854775088" width="2" height="-9223372036854775808" fill="url(#barGradient)" filter="url(#shadow)"/>
    <rect x="272" y="-9223372036854775088" width="2" height="-9223372036854775808" fill="url(#barGradient)" filter="url(#shadow)"/>
    <rect x="275" y="-9223372036854775088" width="2" height="-9223372036854775808" fill="url(#barGradient)" filter="url(#shadow)"/>
    <rect x="278" y="-9223372036854775088" width="2" height="-9223372036854775808" fill="url(#barGradient)" filter="url(#shadow)"/>
    <rect x="281" y="-9223372036854775088" width="2" height="-9223372036854775808" fill="url(#barGradient)" filter="url(#shadow)"/>
    <rect x="284" y="-9223372036854775088" width="2" height="-9223372036854775808" fill="url(#barGradient)" filter="url(#shadow)"/>
    <rect x="287" y="-9223372036854775088" width="2" height="-9223372036854775808" fill="url(#barGradient)" filter="url(#shadow)"/>
    <rect x="290" y="-9223372036854775088" width="2" height="-9223372036854775808" fill="url(#barGradient)" filter="url(#shadow)"/>
    <rect x="293" y="-9223372036854775088" width="2" height="-9223372036854775808" fill="url(#barGradient)" filter="url(#shadow)"/>
    <rect x="296" y="-9223372036854775088" width="2" height="-9223372036854775808" fill="url(#barGradient)" filter="url(#shadow)"/>
    <rect x="299" y="-9223372036854775088" width="2" height="-9223372036854775808" fill="url(#barGradient)" filter="url(#shadow)"/>
    <rect x="302" y="-9223372036854775088" width="2" height="-9223372036854775808" fill="url(#barGradient)" filter="url(#shadow)"/>
    <rect x="305" y="-9223372036854775088" width="2" height="-9223372036854775808" fill="url(#barGradient)" filter="url(#shadow)"/>
    <rect x="308" y="-9223372036854775088" width="2" height="-9223372036854775808" fill="url(#barGradient)" filter="url(#shadow)"/>
    <rect x="311" y="-9223372036854775088" width="2" height="-9223372036854775808" fill="url(#barGradient)" filter="url(#shadow)"/>
    <rect x="314" y="-9223372036854775088" width="2" height="-9223372036854775808" fill="url(#barGradient)" filter="url(#shadow)"/>
    <rect x="317" y="-9223372036854775088" width="2" height="-9223372036854775808" fill="url(#barGradient)" filter="url(#shadow)"/>
    <rect x="320" y="-9223372036854775088" width="2" height="-9223372036854775808" fill="url(#barGradient)" filter="url(#shadow)"/>
    <rect x="323" y="-9223372036854775088" width="2" height="-9223372036854775808" fill="url(#barGradient)" filter="url(#shadow)"/>
    <rect x="326" y="-9223372036854775088" width="2" height="-9223372036854775808" fill="url(#barGradient)" filter="url(#shadow)"/>
    <rect x="329" y="-9223372036854775088" width="2" height="-9223372036854775808" fill="url(#barGradient)" filter="url(#shadow)"/>
    <rect x="332" y="-9223372036854775088" width="2" height="-9223372036854775808" fill="url(#barGradient)" filter="url(#shadow)"/>
    <rect x="335" y="-9223372036854775088" width="2" height="-9223372036854775808" fill="url(#barGradient)" filter="url(#shadow)"/>
    <rect x="338" y="-9223372036854775088" width="2" height="-9223372036854775808" fill="url(#barGradient)" filter="url(#shadow)"/>
    <rect x="341" y="-9223372036854775088" width="2" height="-9223372036854775808" fill="url(#barGradient)" filter="url(#shadow)"/>
    <rect x="344" y="-9223372036854775088" width="2" height="-9223372036854775808" fill="url(#barGradient)" filter="url(#shadow)"/>
    <rect x="347" y="-9223372036854775088" width="2" height="-9223372036854775808" fill="url(#barGradient)" filter="url(#shadow)"/>
    <rect x="350" y="-9223372036854775088" width="2" height="-9223372036854775808" fill="url(#barGradient)" filter="url(#shadow)"/>
    <rect x="353" y="-9223372036854775088" width="2" height="-9223372036854775808" fill="url(#barGradient)" filter="url(#shadow)"/>
    <rect x="356" y="-9223372036854775088" width="2" height="-9223372036854775808" fill="url(#barGradient)" filter="url(#shadow)"/>
    <rect x="359" y="-9223372036854775088" width="2" height="-9223372036854775808" fill="url(#barGradient)" filter="url(#shadow)"/>
    <rect x="362" y="-9223372036854775088" width="2" height="-9223372036854775808" fill="url(#barGradient)" filter="url(#shadow)"/>
    <rect x="365" y="-9223372036854775088" width="2" height="-9223372036854775808" fill="url(#barGradient)" filter="url(#shadow)"/>
    <rect x="368" y="-9223372036854775088" width="2" height="-9223372036854775808" fill="url(#barGradient)" filter="url(#shadow)"/>
    <rect x="371" y="-9223372036854775088" width="2" height="-9223372036854775808" fill="url(#barGradient)" filter="url(#shadow)"/>
    <rect x="374" y="-9223372036854775088" width="2" height="-9223372036854775808" fill="url(#barGradient)" filter="url(#shadow)"/>
    <rect x="377" y="-9223372036854775088" width="2" height="-9223372036854775808" fill="url(#barGradient)" filter="url(#shadow)"/>
    <rect x="380" y="-9223372036854775088" width="2" height="-9223372036854775808" fill="url(#barGradient)" filter="url(#shadow)"/>
    <rect x="383" y="-9223372036854775088" width="2" height="-9223372036854775808" fill="url(#barGradient)" filter="url(#shadow)"/>
    <rect x="386" y="-9223372036854775088" width="2" height="-9223372036854775808" fill="url(#barGradient)" filter="url(#shadow)"/>
    <rect x="389" y="-9223372036854775088" width="2" height="-9223372036854775808" fill="url(#barGradient)" filter="url(#shadow)"/>
    <rect x="392" y="-9223372036854775088" width="2" height="-9223372036854775808" fill="url(#barGradient)" filter="url(#shadow)"/>
    <rect x="395" y="-9223372036854775088" width="2" height="-9223372036854775808" fill="url(#barGradient)" filter="url(#shadow)"/>
    <rect x="398" y="-9223372036854775088" width="2" height="-9223372036854775808" fill="url(#barGradient)" filter="url(#shadow)"/>
    <rect x="401" y="-9223372036854775088" width="2" height="-9223372036854775808" fill="url(#barGradient)" filter="url(#shadow)"/>
    <rect x="404" y="-9223372036854775088" width="2" height="-9223372036854775808" fill="url(#barGradient)" filter="url(#shadow)"/>
    <rect x="407" y="-9223372036854775088" width="2" height="-9223372036854775808" fill="url(#barGradient)" filter="url(#shadow)"/>
    <rect x="410" y="-9223372036854775088" width="2" height="-9223372036854775808" fill="url(#barGradient)" filter="url(#shadow)"/>
    <rect x="413" y="-9223372036854775088" width="2" height="-9223372036854775808" fill="url(#barGradient)" filter="url(#shadow)"/>
    <rect x="416" y="-9223372036854775088" width="2" height="-9223372036854775808" fill="url(#barGradient)" filter="url(#shadow)"/>
    <rect x="419" y="-9223372036854775088" width="2" height="-9223372036854775808" fill="url(#barGradient)" filter="url(#shadow)"/>
    <rect x="422" y="-9223372036854775088" width="2" height="-9223372036854775808" fill="url(#barGradient)" filter="url(#shadow)"/>
    <rect x="425" y="-9223372036854775088" width="2" height="-9223372036854775808" fill="url(#barGradient)" filter="url(#shadow)"/>
    <rect x="428" y="-9223372036854775088" width="2" height="-9223372036854775808" fill="url(#barGradient)" filter="url(#shadow)"/>
    <rect x="431" y="-9223372036854775088" width="2" height="-9223372036854775808" fill="url(#barGradient)" filter="url(#shadow)"/>
    <rect x="434" y="-9223372036854775088" width="2" height="-9223372036854775808" fill="url(#barGradient)" filter="url(#shadow)"/>
    <rect x="437" y="-9223372036854775088" width="2" height="-9223372036854775808" fill="url(#barGradient)" filter="url(#shadow)"/>
    <rect x="440" y="-9223372036854775088" width="2" height="-9223372036854775808" fill="url(#barGradient)" filter="url(#shadow)"/>
    <rect x="443" y="-9223372036854775088" width="2" height="-9223372036854775808" fill="url(#barGradient)" filter="url(#shadow)"/>
    <rect x="446" y="-9223372036854775088" width="2" height="-9223372036854775808" fill="url(#barGradient)" filter="url(#shadow)"/>
    <rect x="449" y="-9223372036854775088" width="2" height="-9223372036854775808" fill="url(#barGradient)" filter="url(#shadow)"/>
    <rect x="452" y="-9223372036854775088" width="2" height="-9223372036854775808" fill="url(#barGradient)" filter="url(#shadow)"/>
    <rect x="455" y="-9223372036854775088" width="2" height="-9223372036854775808" fill="url(#barGradient)" filter="url(#shadow)"/>
    <rect x="458" y="-9223372036854775088" width="2" height="-9223372036854775808" fill="url(#barGradient)" filter="url(#shadow)"/>
    <rect x="461" y="-9223372036854775088" width="2" height="-9223372036854775808" fill="url(#barGradient)" filter="url(#shadow)"/>
    <rect x="464" y="-9223372036854775088" width="2" height="-9223372036854775808" fill="url(#barGradient)" filter="url(#shadow)"/>
    <rect x="467" y="-9223372036854775088" width="2" height="-9223372036854775808" fill="url(#barGradient)" filter="url(#shadow)"/>
    <rect x="470" y="-9223372036854775088" width="2" height="-9223372036854775808" fill="url(#barGradient)" filter="url(#shadow)"/>
    <rect x="473" y="-9223372036854775088" width="2" height="-9223372036854775808" fill="url(#barGradient)" filter="url(#shadow)"/>
    <rect x="476" y="-9223372036854775088" width="2" height="-9223372036854775808" fill="url(#barGradient)" filter="url(#shadow)"/>
    <rect x="479" y="-9223372036854775088" width="2" height="-9223372036854775808" fill="url(#barGradient)" filter="url(#shadow)"/>
    <rect x="482" y="-9223372036854775088" width="2" height="-9223372036854775808" fill="url(#barGradient)" filter="url(#shadow)"/>
    <rect x="485" y="-9223372036854775088" width="2" height="-9223372036854775808" fill="url(#barGradient)" filter="url(#shadow)"/>
    <rect x="488" y="-9223372036854775088" width="2" height="-9223372036854775808" fill="url(#barGradient)" filter="url(#shadow)"/>
    <rect x="491" y="-9223372036854775088" width="2" height="-9223372036854775808" fill="url(#barGradient)" filter="url(#shadow)"/>
    <rect x="494" y="-9223372036854775088" width="2" height="-9223372036854775808" fill="url(#barGradient)" filter="url(#shadow)"/>
    <rect x="497" y="-9223372036854775088" width="2" height="-9223372036854775808" fill="url(#barGradient)" filter="url(#shadow)"/>
    <rect x="500" y="-9223372036854775088" width="2" height="-9223372036854775808" fill="url(#barGradient)" filter="url(#shadow)"/>
    <rect x="503" y="-9223372036854775088" width="2" height="-9223372036854775808" fill="url(#barGradient)" filter="url(#shadow)"/>
    <rect x="506" y="-9223372036854775088" width="2" height="-9223372036854775808" fill="url(#barGradient)" filter="url(#shadow)"/>
    <rect x="509" y="-9223372036854775088" width="2" height="-9223372036854775808" fill="url(#barGradient)" filter="url(#shadow)"/>
    <rect x="512" y="-9223372036854775088" width="2" height="-9223372036854775808" fill="url(#barGradient)" filter="url(#shadow)"/>
    <rect x="515" y="-9223372036854775088" width="2" height="-9223372036854775808" fill="url(#barGradient)" filter="url(#shadow)"/>
    <rect x="518" y="-9223372036854775088" width="2" height="-9223372036854775808" fill="url(#barGradient)" filter="url(#shadow)"/>
    <rect x="521" y="-9223372036854775088" width="2" height="-9223372036854775808" fill="url(#barGradient)" filter="url(#shadow)"/>
    <rect x="524" y="-9223372036854775088" width="2" height="-9223372036854775808" fill="url(#barGradient)" filter="url(#shadow)"/>
    <rect x="527" y="-9223372036854775088" width="2" height="-9223372036854775808" fill="url(#barGradient)" filter="url(#shadow)"/>
    <rect x="530" y="-9223372036854775088" width="2" height="-9223372036854775808" fill="url(#barGradient)" filter="url(#shadow)"/>
    <rect x="533" y="-9223372036854775088" width="2" height="-9223372036854775808" fill="url(#barGradient)" filter="url(#shadow)"/>
    <rect x="536" y="-9223372036854775088" width="2" height="-9223372036854775808" fill="url(#barGradient)" filter="url(#shadow)"/>
    <rect x="539" y="-9223372036854775088" width="2" height="-9223372036854775808" fill="url(#barGradient)" filter="url(#shadow)"/>
    <rect x="542" y="-9223372036854775088" width="2" height="-9223372036854775808" fill="url(#barGradient)" filter="url(#shadow)"/>
    <rect x="545" y="-9223372036854775088" width="2" height="-9223372036854775808" fill="url(#barGradient)" filter="url(#shadow)"/>
    <rect x="548" y="-9223372036854775088" width="2" height="-9223372036854775808" fill="url(#barGradient)" filter="url(#shadow)"/>
    <rect x="551" y="-9223372036854775088" width="2" height="-9223372036854775808" fill="url(#barGradient)" filter="url(#shadow)"/>
    <rect x="554" y="-9223372036854775088" width="2" height="-9223372036854775808" fill="url(#barGradient)" filter="url(#shadow)"/>
    <rect x="557" y="-9223372036854775088" width="2" height="-9223372036854775808" fill="url(#barGradient)" filter="url(#shadow)"/>
    <rect x="560" y="-9223372036854775088" width="2" height="-9223372036854775808" fill="url(#barGradient)" filter="url(#shadow)"/>
    <rect x="563" y="-9223372036854775088" width="2" height="-9223372036854775808" fill="url(#barGradient)" filter="url(#shadow)"/>
    <rect x="566" y="-9223372036854775088" width="2" height="-9223372036854775808" fill="url(#barGradient)" filter="url(#shadow)"/>
    <rect x="569" y="-9223372036854775088" width="2" height="-9223372036854775808" fill="url(#barGradient)" filter="url(#shadow)"/>
    <rect x="572" y="-9223372036854775088" width="2" height="-9223372036854775808" fill="url(#barGradient)" filter="url(#shadow)"/>
    <rect x="575" y="-9223372036854775088" width="2" height="-9223372036854775808" fill="url(#barGradient)" filter="url(#shadow)"/>
    <rect x="578" y="-9223372036854775088" width="2" height="-9223372036854775808" fill="url(#barGradient)" filter="url(#shadow)"/>
    <rect x="581" y="-9223372036854775088" width="2" height="-9223372036854775808" fill="url(#barGradient)" filter="url(#shadow)"/>
    <rect x="584" y="-9223372036854775088" width="2" height="-9223372036854775808" fill="url(#barGradient)" filter="url(#shadow)"/>
    <rect x="587" y="-9223372036854775088" width="2" height="-9223372036854775808" fill="url(#barGradient)" filter="url(#shadow)"/>
    <rect x="590" y="-9223372036854775088" width="2" height="-9223372036854775808" fill="url(#barGradient)" filter="url(#shadow)"/>
    <rect x="593" y="-9223372036854775088" width="2" height="-9223372036854775808" fill="url(#barGradient)" filter="url(#shadow)"/>
    <rect x="596" y="-9223372036854775088" width="2" height="-9223372036854775808" fill="url(#barGradient)" filter="url(#shadow)"/>
    <rect x="599" y="-9223372036854775088" width="2" height="-9223372036854775808" fill="url(#barGradient)" filter="url(#shadow)"/>
    <rect x="602" y="-9223372036854775088" width="2" height="-9223372036854775808" fill="url(#barGradient)" filter="url(#shadow)"/>
    <rect x="605" y="-9223372036854775088" width="2" height="-9223372036854775808" fill="url(#barGradient)" filter="url(#shadow)"/>
    <rect x="608" y="-9223372036854775088" width="2" height="-9223372036854775808" fill="url(#barGradient)" filter="url(#shadow)"/>
    <rect x="611" y="-9223372036854775088" width="2" height="-9223372036854775808" fill="url(#barGradient)" filter="url(#shadow)"/>
    <rect x="614" y="-9223372036854775088" width="2" height="-9223372036854775808" fill="url(#barGradient)" filter="url(#shadow)"/>
    <rect x="617" y="-9223372036854775088" width="2" height="-9223372036854775808" fill="url(#barGradient)" filter="url(#shadow)"/>
    <rect x="620" y="-9223372036854775088" width="2" height="-9223372036854775808" fill="url(#barGradient)" filter="url(#shadow)"/>
    <rect x="623" y="-9223372036854775088" width="2" height="-9223372036854775808" fill="url(#barGradient)" filter="url(#shadow)"/>
    <rect x="626" y="-9223372036854775088" width="2" height="-9223372036854775808" fill="url(#barGradient)" filter="url(#shadow)"/>
    <rect x="629" y="-9223372036854775088" width="2" height="-9223372036854775808" fill="url(#barGradient)" filter="url(#shadow)"/>
    <rect x="632" y="-9223372036854775088" width="2" height="-9223372036854775808" fill="url(#barGradient)" filter="url(#shadow)"/>
    <rect x="635" y="-9223372036854775088" width="2" height="-9223372036854775808" fill="url(#barGradient)" filter="url(#shadow)"/>
    <rect x="638" y="-9223372036854775088" width="2" height="-9223372036854775808" fill="url(#barGradient)" filter="url(#shadow)"/>
    <rect x="641" y="-9223372036854775088" width="2" height="-9223372036854775808" fill="url(#barGradient)" filter="url(#shadow)"/>
    <rect x="644" y="-9223372036854775088" width="2" height="-9223372036854775808" fill="url(#barGradient)" filter="url(#shadow)"/>
    <rect x="647" y="-9223372036854775088" width="2" height="-9223372036854775808" fill="url(#barGradient)" filter="url(#shadow)"/>
    <rect x="650" y="-9223372036854775088" width="2" height="-9223372036854775808" fill="url(#barGradient)" filter="url(#shadow)"/>
    <rect x="653" y="-9223372036854775088" width="2" height="-9223372036854775808" fill="url(#barGradient)" filter="url(#shadow)"/>
    <rect x="656" y="-9223372036854775088" width="2" height="-9223372036854775808" fill="url(#barGradient)" filter="url(#shadow)"/>
    <rect x="659" y="-9223372036854775088" width="2" height="-9223372036854775808" fill="url(#barGradient)" filter="url(#shadow)"/>
    <rect x="662" y="-9223372036854775088" width="2" height="-9223372036854775808" fill="url(#barGradient)" filter="url(#shadow)"/>
    <rect x="665" y="-9223372036854775088" width="2" height="-9223372036854775808" fill="url(#barGradient)" filter="url(#shadow)"/>
    <rect x="668" y="-9223372036854775088" width="2" height="-9223372036854775808" fill="url(#barGradient)" filter="url(#shadow)"/>
    <rect x="671" y="-9223372036854775088" width="2" height="-9223372036854775808" fill="url(#barGradient)" filter="url(#shadow)"/>
    <rect x="674" y="-9223372036854775088" width="2" height="-9223372036854775808" fill="url(#barGradient)" filter="url(#shadow)"/>
    <rect x="677" y="-9223372036854775088" width="2" height="-9223372036854775808" fill="url(#barGradient)" filter="url(#shadow)"/>
    <rect x="680" y="-9223372036854775088" width="2" height="-9223372036854775808" fill="url(#barGradient)" filter="url(#shadow)"/>
    <rect x="683" y="-9223372036854775088" width="2" height="-9223372036854775808" fill="url(#barGradient)" filter="url(#shadow)"/>
    <rect x="686" y="-9223372036854775088" width="2" height="-9223372036854775808" fill="url(#barGradient)" filter="url(#shadow)"/>
    <rect x="689" y="-9223372036854775088" width="2" height="-9223372036854775808" fill="url(#barGradient)" filter="url(#shadow)"/>
    <rect x="692" y="-9223372036854775088" width="2" height="-9223372036854775808" fill="url(#barGradient)" filter="url(#shadow)"/>
    <rect x="695" y="-9223372036854775088" width="2" height="-9223372036854775808" fill="url(#barGradient)" filter="url(#shadow)"/>
    <rect x="698" y="-9223372036854775088" width="2" height="-9223372036854775808" fill="url(#barGradient)" filter="url(#shadow)"/>
    <rect x="701" y="-9223372036854775088" width="2" height="-9223372036854775808" fill="url(#barGradient)" filter="url(#shadow)"/>
    <rect x="704" y="-9223372036854775088" width="2" height="-9223372036854775808" fill="url(#barGradient)" filter="url(#shadow)"/>
    <rect x="707" y="-9223372036854775088" width="2" height="-9223372036854775808" fill="url(#barGradient)" filter="url(#shadow)"/>
    <rect x="710" y="-9223372036854775088" width="2" height="-9223372036854775808" fill="url(#barGradient)" filter="url(#shadow)"/>
    <rect x="713" y="-9223372036854775088" width="2" height="-9223372036854775808" fill="url(#barGradient)" filter="url(#shadow)"/>
    <rect x="716" y="-9223372036854775088" width="2" height="-9223372036854775808" fill="url(#barGradient)" filter="url(#shadow)"/>
    <rect x="719" y="-9223372036854775088" width="2" height="-9223372036854775808" fill="url(#barGradient)" filter="url(#shadow)"/>
    <rect x="722" y="-9223372036854775088" width="2" height="-9223372036854775808" fill="url(#barGradient)" filter="url(#shadow)"/>
    <rect x="725" y="-9223372036854775088" width="2" height="-9223372036854775808" fill="url(#barGradient)" filter="url(#shadow)"/>
    <rect x="728" y="-9223372036854775088" width="2" height="-9223372036854775808" fill="url(#barGradient)" filter="url(#shadow)"/>
    <rect x="731" y="-9223372036854775088" width="2" height="-9223372036854775808" fill="url(#barGradient)" filter="url(#shadow)"/>
    <rect x="734" y="-9223372036854775088" width="2" height="-9223372036854775808" fill="url(#barGradient)" filter="url(#shadow)"/>
    <rect x="737" y="-9223372036854775088" width="2" height="-9223372036854775808" fill="url(#barGradient)" filter="url(#shadow)"/>
    <rect x="740" y="-9223372036854775088" width="2" height="-9223372036854775808" fill="url(#barGradient)" filter="url(#shadow)"/>
    <rect x="743" y="-9223372036854775088" width="2" height="-9223372036854775808" fill="url(#barGradient)" filter="url(#shadow)"/>
    <rect x="746" y="-9223372036854775088" width="2" height="-9223372036854775808" fill="url(#barGradient)" filter="url(#shadow)"/>
    <rect x="749" y="-9223372036854775088" width="2" height="-9223372036854775808" fill="url(#barGradient)" filter="url(#shadow)"/>
    <rect x="752" y="-9223372036854775088" width="2" height="-9223372036854775808" fill="url(#barGradient)" filter="url(#shadow)"/>
    <rect x="755" y="-9223372036854775088" width="2" height="-9223372036854775808" fill="url(#barGradient)" filter="url(#shadow)"/>
    <rect x="758" y="-9223372036854775088" width="2" height="-9223372036854775808" fill="url(#barGradient)" filter="url(#shadow)"/>
    <rect x="761" y="-9223372036854775088" width="2" height="-9223372036854775808" fill="url(#barGradient)" filter="url(#shadow)"/>
    <rect x="764" y="-9223372036854775088" width="2" height="-9223372036854775808" fill="url(#barGradient)" filter="url(#shadow)"/>
    <rect x="767" y="-9223372036854775088" width="2" height="-9223372036854775808" fill="url(#barGradient)" filter="url(#shadow)"/>
    <rect x="770" y="-9223372036854775088" width="2" height="-9223372036854775808" fill="url(#barGradient)" filter="url(#shadow)"/>
    <rect x="773" y="-9223372036854775088" width="2" height="-9223372036854775808" fill="url(#barGradient)" filter="url(#shadow)"/>
    <rect x="776" y="-9223372036854775088" width="2" height="-9223372036854775808" fill="url(#barGradient)" filter="url(#shadow)"/>
    <rect x="779" y="-9223372036854775088" width="2" height="-9223372036854775808" fill="url(#barGradient)" filter="url(#shadow)"/>
    <rect x="782" y="-9223372036854775088" width="2" height="-9223372036854775808" fill="url(#barGradient)" filter="url(#shadow)"/>
    <rect x="785" y="-9223372036854775088" width="2" height="-9223372036854775808" fill="url(#barGradient)" filter="url(#shadow)"/>
    <rect x="788" y="-9223372036854775088" width="2" height="-9223372036854775808" fill="url(#barGradient)" filter="url(#shadow)"/>
    <rect x="791" y="-9223372036854775088" width="2" height="-9223372036854775808" fill="url(#barGradient)" filter="url(#shadow)"/>
    <rect x="794" y="-9223372036854775088" width="2" height="-9223372036854775808" fill="url(#barGradient)" filter="url(#shadow)"/>
    <rect x="797" y="-9223372036854775088" width="2" height="-9223372036854775808" fill="url(#barGradient)" filter="url(#shadow)"/>
    <rect x="800" y="-9223372036854775088" width="2" height="-9223372036854775808" fill="url(#barGradient)" filter="url(#shadow)"/>
    <rect x="803" y="-9223372036854775088" width="2" height="-9223372036854775808" fill="url(#barGradient)" filter="url(#shadow)"/>
    <rect x="806" y="-9223372036854775088" width="2" height="-9223372036854775808" fill="url(#barGradient)" filter="url(#shadow)"/>
    <rect x="809" y="-9223372036854775088" width="2" height="-9223372036854775808" fill="url(#barGradient)" filter="url(#shadow)"/>
    <rect x="812" y="-9223372036854775088" width="2" height="-9223372036854775808" fill="url(#barGradient)" filter="url(#shadow)"/>
    <rect x="815" y="-9223372036854775088" width="2" height="-9223372036854775808" fill="url(#barGradient)" filter="url(#shadow)"/>
    <rect x="818" y="-9223372036854775088" width="2" height="-9223372036854775808" fill="url(#barGradient)" filter="url(#shadow)"/>
    <rect x="821" y="-9223372036854775088" width="2" height="-9223372036854775808" fill="url(#barGradient)" filter="url(#shadow)"/>
    <rect x="824" y="-9223372036854775088" width="2" height="-9223372036854775808" fill="url(#barGradient)" filter="url(#shadow)"/>
    <rect x="827" y="-9223372036854775088" width="2" height="-9223372036854775808" fill="url(#barGradient)" filter="url(#shadow)"/>
    <rect x="830" y="-9223372036854775088" width="2" height="-9223372036854775808" fill="url(#barGradient)" filter="url(#shadow)"/>
    <rect x="833" y="-9223372036854775088" width="2" height="-9223372036854775808" fill="url(#barGradient)" filter="url(#shadow)"/>
    <rect x="836" y="-9223372036854775088" width="2" height="-9223372036854775808" fill="url(#barGradient)" filter="url(#shadow)"/>
    <rect x="839" y="-9223372036854775088" width="2" height="-9223372036854775808" fill="url(#barGradient)" filter="url(#shadow)"/>
    <rect x="842" y="-9223372036854775088" width="2" height="-9223372036854775808" fill="url(#barGradient)" filter="url(#shadow)"/>
    <rect x="845" y="-9223372036854775088" width="2" height="-9223372036854775808" fill="url(#barGradient)" filter="url(#shadow)"/>
    <rect x="848" y="-9223372036854775088" width="2" height="-9223372036854775808" fill="url(#barGradient)" filter="url(#shadow)"/>
    <rect x="851" y="-9223372036854775088" width="2" height="-9223372036854775808" fill="url(#barGradient)" filter="url(#shadow)"/>
    <rect x="854" y="-9223372036854775088" width="2" height="-9223372036854775808" fill="url(#barGradient)" filter="url(#shadow)"/>
    <rect x="857" y="-9223372036854775088" width="2" height="-9223372036854775808" fill="url(#barGradient)" filter="url(#shadow)"/>
    <rect x="860" y="-9223372036854775088" width="2" height="-9223372036854775808" fill="url(#barGradient)" filter="url(#shadow)"/>
    <rect x="863" y="-9223372036854775088" width="2" height="-9223372036854775808" fill="url(#barGradient)" filter="url(#shadow)"/>
    <rect x="866" y="-9223372036854775088" width="2" height="-9223372036854775808" fill="url(#barGradient)" filter="url(#shadow)"/>
    <rect x="869" y="-9223372036854775088" width="2" height="-9223372036854775808" fill="url(#barGradient)" filter="url(#shadow)"/>
    <rect x="872" y="-9223372036854775088" width="2" height="-9223372036854775808" fill="url(#barGradient)" filter="url(#shadow)"/>
    <rect x="875" y="-9223372036854775088" width="2" height="-9223372036854775808" fill="url(#barGradient)" filter="url(#shadow)"/>
    <rect x="878" y="-9223372036854775088" width="2" height="-9223372036854775808" fill="url(#barGradient)" filter="url(#shadow)"/>
    <rect x="881" y="-9223372036854775088" width="2" height="-9223372036854775808" fill="url(#barGradient)" filter="url(#shadow)"/>
    <rect x="884" y="-9223372036854775088" width="2" height="-9223372036854775808" fill="url(#barGradient)" filter="url(#shadow)"/>
    <rect x="887" y="-9223372036854775088" width="2" height="-9223372036854775808" fill="url(#barGradient)" filter="url(#shadow)"/>
    <rect x="890" y="-9223372036854775088" width="2" height="-9223372036854775808" fill="url(#barGradient)" filter="url(#shadow)"/>
    <rect x="893" y="-9223372036854775088" width="2" height="-9223372036854775808" fill="url(#barGradient)" filter="url(#shadow)"/>
    <rect x="896" y="-9223372036854775088" width="2" height="-9223372036854775808" fill="url(#barGradient)" filter="url(#shadow)"/>
    <rect x="899" y="-9223372036854775088" width="2" height="-9223372036854775808" fill="url(#barGradient)" filter="url(#shadow)"/>
    <rect x="902" y="-9223372036854775088" width="2" height="-9223372036854775808" fill="url(#barGradient)" filter="url(#shadow)"/>
    <rect x="905" y="-9223372036854775088" width="2" height="-9223372036854775808" fill="url(#barGradient)" filter="url(#shadow)"/>
    <rect x="908" y="-9223372036854775088" width="2" height="-9223372036854775808" fill="url(#barGradient)" filter="url(#shadow)"/>
    <rect x="911" y="-9223372036854775088" width="2" height="-9223372036854775808" fill="url(#barGradient)" filter="url(#shadow)"/>
    <rect x="914" y="-9223372036854775088" width="2" height="-9223372036854775808" fill="url(#barGradient)" filter="url(#shadow)"/>
    <rect x="917" y="-9223372036854775088" width="2" height="-9223372036854775808" fill="url(#barGradient)" filter="url(#shadow)"/>
    <rect x="920" y="-9223372036854775088" width="2" height="-9223372036854775808" fill="url(#barGradient)" filter="url(#shadow)"/>
    <rect x="923" y="-9223372036854775088" width="2" height="-9223372036854775808" fill="url(#barGradient)" filter="url(#shadow)"/>
    <rect x="926" y="-9223372036854775088" width="2" height="-9223372036854775808" fill="url(#barGradient)" filter="url(#shadow)"/>
    <rect x="929" y="-9223372036854775088" width="2" height="-9223372036854775808" fill="url(#barGradient)" filter="url(#shadow)"/>
    <rect x="932" y="-9223372036854775088" width="2" height="-9223372036854775808" fill="url(#barGradient)" filter="url(#shadow)"/>
    <rect x="935" y="-9223372036854775088" width="2" height="-9223372036854775808" fill="url(#barGradient)" filter="url(#shadow)"/>
    <rect x="938" y="-9223372036854775088" width="2" height="-9223372036854775808" fill="url(#barGradient)" filter="url(#shadow)"/>
    <rect x="941" y="-9223372036854775088" width="2" height="-9223372036854775808" fill="url(#barGradient)" filter="url(#shadow)"/>
    <rect x="944" y="-9223372036854775088" width="2" height="-9223372036854775808" fill="url(#barGradient)" filter="url(#shadow)"/>
    <rect x="947" y="-9223372036854775088" width="2" height="-9223372036854775808" fill="url(#barGradient)" filter="url(#shadow)"/>
    <rect x="950" y="-9223372036854775088" width="2" height="-9223372036854775808" fill="url(#barGradient)" filter="url(#shadow)"/>
    <rect x="953" y="-9223372036854775088" width="2" height="-9223372036854775808" fill="url(#barGradient)" filter="url(#shadow)"/>
    <rect x="956" y="-9223372036854775088" width="2" height="-9223372036854775808" fill="url(#barGradient)" filter="url(#shadow)"/>
    <rect x="959" y="-9223372036854775088" width="2" height="-9223372036854775808" fill="url(#barGradient)" filter="url(#shadow)"/>
    <rect x="962" y="-9223372036854775088" width="2" height="-9223372036854775808" fill="url(#barGradient)" filter="url(#shadow)"/>
    <rect x="965" y="-9223372036854775088" width="2" height="-9223372036854775808" fill="url(#barGradient)" filter="url(#shadow)"/>
    <rect x="968" y="-9223372036854775088" width="2" height="-9223372036854775808" fill="url(#barGradient)" filter="url(#shadow)"/>
    <rect x="971" y="-9223372036854775088" width="2" height="-9223372036854775808" fill="url(#barGradient)" filter="url(#shadow)"/>
    <rect x="974" y="-9223372036854775088" width="2" height="-9223372036854775808" fill="url(#barGradient)" filter="url(#shadow)"/>
    <rect x="977" y="-9223372036854775088" width="2" height="-9223372036854775808" fill="url(#barGradient)" filter="url(#shadow)"/>
        <text x="530" y="40" font-family="Arial" font-size="24" text-anchor="middle" fill="#212121">
            AllZero Distribution
        </text>
        <text x="530" y="790" font-family="Arial" font-size="14" text-anchor="middle" fill="#757575">
            Index
        </text>
        <text x="30" y="400" font-family="Arial" font-size="14" text-anchor="middle" 
            transform="rotate(-90,30,400)" fill="#757575">
            Value
        </text><rect x="760" y="10" width="150" height="90" fill="white" rx="5" filter="url(#shadow)"/><text x="780" y="35" font-family="Arial" font-size="12" fill="#757575">Minimum: 0</text><text x="780" y="55" font-family="Arial" font-size="12" fill="#757575">Maximum: 0</text><text x="780" y="75" font-family="Arial" font-size="12" fill="#757575">Average: 0</text></svg>