<?xml version="1.0" encoding="UTF-8"?>
<svg width="1060" height="800" viewBox="0 0 1060 800" xmlns="http://www.w3.org/2000/svg">
  <defs>
    <radialGradient id="bgGradient" cx="50%" cy="50%" r="75%">
      <stop offset="0%" stop-color="#ffffff"/>
      <stop offset="100%" stop-color="#e0e0e0"/>
    </radialGradient>
    <filter id="shadow" x="-20%" y="-20%" width="140%" height="140%">
      <feDropShadow dx="3" dy="3" stdDeviation="3" flood-color="#999" flood-opacity="0.4"/>
    </filter>
    <linearGradient id="barGradient" x1="0" x2="0" y1="0" y2="1">
      <stop offset="0%" stop-color="#1976D2"/>
      <stop offset="100%" stop-color="#2196F3"/>
    </linearGradient>
    <style type="text/css">
      <![CDATA[
        .axis { fill: none; stroke: #424242; stroke-width: 2; }
        .grid { stroke: #cfcfcf; stroke-width: 1; }
        .label { font-family: "Segoe UI", Arial, sans-serif; fill: #424242; }
        .title { font-size: 28px; font-weight: bold; }
        .tick { font-size: 12px; }
      ]]>
    </style>
  </defs>
  <rect width="100%" height="100%" fill="url(#bgGradient)" />

  <line x1="80" y1="80" x2="980" y2="80" class="grid" />
  <text x="70" y="80" class="label tick" text-anchor="end" dy="4">300</text>
  <line x1="80" y1="144" x2="980" y2="144" class="grid" />
  <text x="70" y="144" class="label tick" text-anchor="end" dy="4">270</text>
  <line x1="80" y1="208" x2="980" y2="208" class="grid" />
  <text x="70" y="208" class="label tick" text-anchor="end" dy="4">240</text>
  <line x1="80" y1="272" x2="980" y2="272" class="grid" />
  <text x="70" y="272" class="label tick" text-anchor="end" dy="4">210</text>
  <line x1="80" y1="336" x2="980" y2="336" class="grid" />
  <text x="70" y="336" class="label tick" text-anchor="end" dy="4">180</text>
  <line x1="80" y1="400" x2="980" y2="400" class="grid" />
  <text x="70" y="400" class="label tick" text-anchor="end" dy="4">150</text>
  <line x1="80" y1="464" x2="980" y2="464" class="grid" />
  <text x="70" y="464" class="label tick" text-anchor="end" dy="4">120</text>
  <line x1="80" y1="528" x2="980" y2="528" class="grid" />
  <text x="70" y="528" class="label tick" text-anchor="end" dy="4">90</text>
  <line x1="80" y1="592" x2="980" y2="592" class="grid" />
  <text x="70" y="592" class="label tick" text-anchor="end" dy="4">60</text>
  <line x1="80" y1="656" x2="980" y2="656" class="grid" />
  <text x="70" y="656" class="label tick" text-anchor="end" dy="4">30</text>
  <line x1="80" y1="720" x2="980" y2="720" class="grid" />
  <text x="70" y="720" class="label tick" text-anchor="end" dy="4">0</text>
  <line x1="80" y1="720" x2="80" y2="725" class="grid" />
  <text x="80" y="725" class="label tick" text-anchor="middle" dy="15">0</text>
  <line x1="170" y1="720" x2="170" y2="725" class="grid" />
  <text x="170" y="725" class="label tick" text-anchor="middle" dy="15">30</text>
  <line x1="260" y1="720" x2="260" y2="725" class="grid" />
  <text x="260" y="725" class="label tick" text-anchor="middle" dy="15">60</text>
  <line x1="350" y1="720" x2="350" y2="725" class="grid" />
  <text x="350" y="725" class="label tick" text-anchor="middle" dy="15">90</text>
  <line x1="440" y1="720" x2="440" y2="725" class="grid" />
  <text x="440" y="725" class="label tick" text-anchor="middle" dy="15">120</text>
  <line x1="530" y1="720" x2="530" y2="725" class="grid" />
  <text x="530" y="725" class="label tick" text-anchor="middle" dy="15">150</text>
  <line x1="620" y1="720" x2="620" y2="725" class="grid" />
  <text x="620" y="725" class="label tick" text-anchor="middle" dy="15">180</text>
  <line x1="710" y1="720" x2="710" y2="725" class="grid" />
  <text x="710" y="725" class="label tick" text-anchor="middle" dy="15">210</text>
  <line x1="800" y1="720" x2="800" y2="725" class="grid" />
  <text x="800" y="725" class="label tick" text-anchor="middle" dy="15">240</text>
  <line x1="890" y1="720" x2="890" y2="725" class="grid" />
  <text x="890" y="725" class="label tick" text-anchor="middle" dy="15">270</text>
  <line x1="980" y1="720" x2="980" y2="725" class="grid" />
  <text x="980" y="725" class="label tick" text-anchor="middle" dy="15">300</text>
  <line x1="80" y1="720" x2="980" y2="720" class="axis"/>
  <line x1="80" y1="80" x2="80" y2="720" class="axis"/>
  <rect x="80" y="80" width="2" height="640" fill="url(#barGradient)" filter="url(#shadow)" />
  <rect x="83" y="83" width="2" height="637" fill="url(#barGradient)" filter="url(#shadow)" />
  <rect x="86" y="85" width="2" height="635" fill="url(#barGradient)" filter="url(#shadow)" />
  <rect x="89" y="87" width="2" height="633" fill="url(#barGradient)" filter="url(#shadow)" />
  <rect x="92" y="89" width="2" height="631" fill="url(#barGradient)" filter="url(#shadow)" />
  <rect x="95" y="91" width="2" height="629" fill="url(#barGradient)" filter="url(#shadow)" />
  <rect x="98" y="93" width="2" height="627" fill="url(#barGradient)" filter="url(#shadow)" />
  <rect x="101" y="95" width="2" height="625" fill="url(#barGradient)" filter="url(#shadow)" />
  <rect x="104" y="360" width="2" height="360" fill="url(#barGradient)" filter="url(#shadow)" />
  <rect x="107" y="100" width="2" height="620" fill="url(#barGradient)" filter="url(#shadow)" />
  <rect x="110" y="102" width="2" height="618" fill="url(#barGradient)" filter="url(#shadow)" />
  <rect x="113" y="104" width="2" height="616" fill="url(#barGradient)" filter="url(#shadow)" />
  <rect x="116" y="106" width="2" height="614" fill="url(#barGradient)" filter="url(#shadow)" />
  <rect x="119" y="108" width="2" height="612" fill="url(#barGradient)" filter="url(#shadow)" />
  <rect x="122" y="110" width="2" height="610" fill="url(#barGradient)" filter="url(#shadow)" />
  <rect x="125" y="112" width="2" height="608" fill="url(#barGradient)" filter="url(#shadow)" />
  <rect x="128" y="115" width="2" height="605" fill="url(#barGradient)" filter="url(#shadow)" />
  <rect x="131" y="117" width="2" height="603" fill="url(#barGradient)" filter="url(#shadow)" />
  <rect x="134" y="119" width="2" height="601" fill="url(#barGradient)" filter="url(#shadow)" />
  <rect x="137" y="516" width="2" height="204" fill="url(#barGradient)" filter="url(#shadow)" />
  <rect x="140" y="159" width="2" height="561" fill="url(#barGradient)" filter="url(#shadow)" />
  <rect x="143" y="125" width="2" height="595" fill="url(#barGradient)" filter="url(#shadow)" />
  <rect x="146" y="127" width="2" height="593" fill="url(#barGradient)" filter="url(#shadow)" />
  <rect x="149" y="219" width="2" height="501" fill="url(#barGradient)" filter="url(#shadow)" />
  <rect x="152" y="168" width="2" height="552" fill="url(#barGradient)" filter="url(#shadow)" />
  <rect x="155" y="134" width="2" height="586" fill="url(#barGradient)" filter="url(#shadow)" />
  <rect x="158" y="136" width="2" height="584" fill="url(#barGradient)" filter="url(#shadow)" />
  <rect x="161" y="138" width="2" height="582" fill="url(#barGradient)" filter="url(#shadow)" />
  <rect x="164" y="140" width="2" height="580" fill="url(#barGradient)" filter="url(#shadow)" />
  <rect x="167" y="142" width="2" height="578" fill="url(#barGradient)" filter="url(#shadow)" />
  <rect x="170" y="144" width="2" height="576" fill="url(#barGradient)" filter="url(#shadow)" />
  <rect x="173" y="147" width="2" height="573" fill="url(#barGradient)" filter="url(#shadow)" />
  <rect x="176" y="149" width="2" height="571" fill="url(#barGradient)" filter="url(#shadow)" />
  <rect x="179" y="151" width="2" height="569" fill="url(#barGradient)" filter="url(#shadow)" />
  <rect x="182" y="153" width="2" height="567" fill="url(#barGradient)" filter="url(#shadow)" />
  <rect x="185" y="155" width="2" height="565" fill="url(#barGradient)" filter="url(#shadow)" />
  <rect x="188" y="157" width="2" height="563" fill="url(#barGradient)" filter="url(#shadow)" />
  <rect x="191" y="588" width="2" height="132" fill="url(#barGradient)" filter="url(#shadow)" />
  <rect x="194" y="162" width="2" height="558" fill="url(#barGradient)" filter="url(#shadow)" />
  <rect x="197" y="164" width="2" height="556" fill="url(#barGradient)" filter="url(#shadow)" />
  <rect x="200" y="166" width="2" height="554" fill="url(#barGradient)" filter="url(#shadow)" />
  <rect x="203" y="132" width="2" height="588" fill="url(#barGradient)" filter="url(#shadow)" />
  <rect x="206" y="170" width="2" height="550" fill="url(#barGradient)" filter="url(#shadow)" />
  <rect x="209" y="172" width="2" height="548" fill="url(#barGradient)" filter="url(#shadow)" />
  <rect x="212" y="174" width="2" height="546" fill="url(#barGradient)" filter="url(#shadow)" />
  <rect x="215" y="176" width="2" height="544" fill="url(#barGradient)" filter="url(#shadow)" />
  <rect x="218" y="179" width="2" height="541" fill="url(#barGradient)" filter="url(#shadow)" />
  <rect x="221" y="181" width="2" height="539" fill="url(#barGradient)" filter="url(#shadow)" />
  <rect x="224" y="183" width="2" height="537" fill="url(#barGradient)" filter="url(#shadow)" />
  <rect x="227" y="185" width="2" height="535" fill="url(#barGradient)" filter="url(#shadow)" />
  <rect x="230" y="187" width="2" height="533" fill="url(#barGradient)" filter="url(#shadow)" />
  <rect x="233" y="189" width="2" height="531" fill="url(#barGradient)" filter="url(#shadow)" />
  <rect x="236" y="191" width="2" height="529" fill="url(#barGradient)" filter="url(#shadow)" />
  <rect x="239" y="194" width="2" height="526" fill="url(#barGradient)" filter="url(#shadow)" />
  <rect x="242" y="701" width="2" height="19" fill="url(#barGradient)" filter="url(#shadow)" />
  <rect x="245" y="198" width="2" height="522" fill="url(#barGradient)" filter="url(#shadow)" />
  <rect x="248" y="200" width="2" height="520" fill="url(#barGradient)" filter="url(#shadow)" />
  <rect x="251" y="202" width="2" height="518" fill="url(#barGradient)" filter="url(#shadow)" />
  <rect x="254" y="204" width="2" height="516" fill="url(#barGradient)" filter="url(#shadow)" />
  <rect x="257" y="206" width="2" height="514" fill="url(#barGradient)" filter="url(#shadow)" />
  <rect x="260" y="208" width="2" height="512" fill="url(#barGradient)" filter="url(#shadow)" />
  <rect x="263" y="684" width="2" height="36" fill="url(#barGradient)" filter="url(#shadow)" />
  <rect x="266" y="213" width="2" height="507" fill="url(#barGradient)" filter="url(#shadow)" />
  <rect x="269" y="215" width="2" height="505" fill="url(#barGradient)" filter="url(#shadow)" />
  <rect x="272" y="217" width="2" height="503" fill="url(#barGradient)" filter="url(#shadow)" />
  <rect x="275" y="130" width="2" height="590" fill="url(#barGradient)" filter="url(#shadow)" />
  <rect x="278" y="221" width="2" height="499" fill="url(#barGradient)" filter="url(#shadow)" />
  <rect x="281" y="223" width="2" height="497" fill="url(#barGradient)" filter="url(#shadow)" />
  <rect x="284" y="226" width="2" height="494" fill="url(#barGradient)" filter="url(#shadow)" />
  <rect x="287" y="228" width="2" height="492" fill="url(#barGradient)" filter="url(#shadow)" />
  <rect x="290" y="230" width="2" height="490" fill="url(#barGradient)" filter="url(#shadow)" />
  <rect x="293" y="232" width="2" height="488" fill="url(#barGradient)" filter="url(#shadow)" />
  <rect x="296" y="234" width="2" height="486" fill="url(#barGradient)" filter="url(#shadow)" />
  <rect x="299" y="236" width="2" height="484" fill="url(#barGradient)" filter="url(#shadow)" />
  <rect x="302" y="238" width="2" height="482" fill="url(#barGradient)" filter="url(#shadow)" />
  <rect x="305" y="240" width="2" height="480" fill="url(#barGradient)" filter="url(#shadow)" />
  <rect x="308" y="243" width="2" height="477" fill="url(#barGradient)" filter="url(#shadow)" />
  <rect x="311" y="245" width="2" height="475" fill="url(#barGradient)" filter="url(#shadow)" />
  <rect x="314" y="247" width="2" height="473" fill="url(#barGradient)" filter="url(#shadow)" />
  <rect x="317" y="249" width="2" height="471" fill="url(#barGradient)" filter="url(#shadow)" />
  <rect x="320" y="251" width="2" height="469" fill="url(#barGradient)" filter="url(#shadow)" />
  <rect x="323" y="253" width="2" height="467" fill="url(#barGradient)" filter="url(#shadow)" />
  <rect x="326" y="255" width="2" height="465" fill="url(#barGradient)" filter="url(#shadow)" />
  <rect x="329" y="258" width="2" height="462" fill="url(#barGradient)" filter="url(#shadow)" />
  <rect x="332" y="260" width="2" height="460" fill="url(#barGradient)" filter="url(#shadow)" />
  <rect x="335" y="262" width="2" height="458" fill="url(#barGradient)" filter="url(#shadow)" />
  <rect x="338" y="264" width="2" height="456" fill="url(#barGradient)" filter="url(#shadow)" />
  <rect x="341" y="266" width="2" height="454" fill="url(#barGradient)" filter="url(#shadow)" />
  <rect x="344" y="268" width="2" height="452" fill="url(#barGradient)" filter="url(#shadow)" />
  <rect x="347" y="270" width="2" height="450" fill="url(#barGradient)" filter="url(#shadow)" />
  <rect x="350" y="272" width="2" height="448" fill="url(#barGradient)" filter="url(#shadow)" />
  <rect x="353" y="275" width="2" height="445" fill="url(#barGradient)" filter="url(#shadow)" />
  <rect x="356" y="277" width="2" height="443" fill="url(#barGradient)" filter="url(#shadow)" />
  <rect x="359" y="279" width="2" height="441" fill="url(#barGradient)" filter="url(#shadow)" />
  <rect x="362" y="281" width="2" height="439" fill="url(#barGradient)" filter="url(#shadow)" />
  <rect x="365" y="283" width="2" height="437" fill="url(#barGradient)" filter="url(#shadow)" />
  <rect x="368" y="285" width="2" height="435" fill="url(#barGradient)" filter="url(#shadow)" />
  <rect x="371" y="287" width="2" height="433" fill="url(#barGradient)" filter="url(#shadow)" />
  <rect x="374" y="290" width="2" height="430" fill="url(#barGradient)" filter="url(#shadow)" />
  <rect x="377" y="292" width="2" height="428" fill="url(#barGradient)" filter="url(#shadow)" />
  <rect x="380" y="671" width="2" height="49" fill="url(#barGradient)" filter="url(#shadow)" />
  <rect x="383" y="296" width="2" height="424" fill="url(#barGradient)" filter="url(#shadow)" />
  <rect x="386" y="298" width="2" height="422" fill="url(#barGradient)" filter="url(#shadow)" />
  <rect x="389" y="300" width="2" height="420" fill="url(#barGradient)" filter="url(#shadow)" />
  <rect x="392" y="302" width="2" height="418" fill="url(#barGradient)" filter="url(#shadow)" />
  <rect x="395" y="403" width="2" height="317" fill="url(#barGradient)" filter="url(#shadow)" />
  <rect x="398" y="307" width="2" height="413" fill="url(#barGradient)" filter="url(#shadow)" />
  <rect x="401" y="309" width="2" height="411" fill="url(#barGradient)" filter="url(#shadow)" />
  <rect x="404" y="422" width="2" height="298" fill="url(#barGradient)" filter="url(#shadow)" />
  <rect x="407" y="313" width="2" height="407" fill="url(#barGradient)" filter="url(#shadow)" />
  <rect x="410" y="315" width="2" height="405" fill="url(#barGradient)" filter="url(#shadow)" />
  <rect x="413" y="317" width="2" height="403" fill="url(#barGradient)" filter="url(#shadow)" />
  <rect x="416" y="319" width="2" height="401" fill="url(#barGradient)" filter="url(#shadow)" />
  <rect x="419" y="322" width="2" height="398" fill="url(#barGradient)" filter="url(#shadow)" />
  <rect x="422" y="324" width="2" height="396" fill="url(#barGradient)" filter="url(#shadow)" />
  <rect x="425" y="326" width="2" height="394" fill="url(#barGradient)" filter="url(#shadow)" />
  <rect x="428" y="328" width="2" height="392" fill="url(#barGradient)" filter="url(#shadow)" />
  <rect x="431" y="330" width="2" height="390" fill="url(#barGradient)" filter="url(#shadow)" />
  <rect x="434" y="332" width="2" height="388" fill="url(#barGradient)" filter="url(#shadow)" />
  <rect x="437" y="334" width="2" height="386" fill="url(#barGradient)" filter="url(#shadow)" />
  <rect x="440" y="336" width="2" height="384" fill="url(#barGradient)" filter="url(#shadow)" />
  <rect x="443" y="339" width="2" height="381" fill="url(#barGradient)" filter="url(#shadow)" />
  <rect x="446" y="341" width="2" height="379" fill="url(#barGradient)" filter="url(#shadow)" />
  <rect x="449" y="343" width="2" height="377" fill="url(#barGradient)" filter="url(#shadow)" />
  <rect x="452" y="345" width="2" height="375" fill="url(#barGradient)" filter="url(#shadow)" />
  <rect x="455" y="347" width="2" height="373" fill="url(#barGradient)" filter="url(#shadow)" />
  <rect x="458" y="349" width="2" height="371" fill="url(#barGradient)" filter="url(#shadow)" />
  <rect x="461" y="351" width="2" height="369" fill="url(#barGradient)" filter="url(#shadow)" />
  <rect x="464" y="354" width="2" height="366" fill="url(#barGradient)" filter="url(#shadow)" />
  <rect x="467" y="356" width="2" height="364" fill="url(#barGradient)" filter="url(#shadow)" />
  <rect x="470" y="358" width="2" height="362" fill="url(#barGradient)" filter="url(#shadow)" />
  <rect x="473" y="98" width="2" height="622" fill="url(#barGradient)" filter="url(#shadow)" />
  <rect x="476" y="362" width="2" height="358" fill="url(#barGradient)" filter="url(#shadow)" />
  <rect x="479" y="364" width="2" height="356" fill="url(#barGradient)" filter="url(#shadow)" />
  <rect x="482" y="366" width="2" height="354" fill="url(#barGradient)" filter="url(#shadow)" />
  <rect x="485" y="368" width="2" height="352" fill="url(#barGradient)" filter="url(#shadow)" />
  <rect x="488" y="371" width="2" height="349" fill="url(#barGradient)" filter="url(#shadow)" />
  <rect x="491" y="373" width="2" height="347" fill="url(#barGradient)" filter="url(#shadow)" />
  <rect x="494" y="375" width="2" height="345" fill="url(#barGradient)" filter="url(#shadow)" />
  <rect x="497" y="377" width="2" height="343" fill="url(#barGradient)" filter="url(#shadow)" />
  <rect x="500" y="379" width="2" height="341" fill="url(#barGradient)" filter="url(#shadow)" />
  <rect x="503" y="381" width="2" height="339" fill="url(#barGradient)" filter="url(#shadow)" />
  <rect x="506" y="383" width="2" height="337" fill="url(#barGradient)" filter="url(#shadow)" />
  <rect x="509" y="386" width="2" height="334" fill="url(#barGradient)" filter="url(#shadow)" />
  <rect x="512" y="388" width="2" height="332" fill="url(#barGradient)" filter="url(#shadow)" />
  <rect x="515" y="390" width="2" height="330" fill="url(#barGradient)" filter="url(#shadow)" />
  <rect x="518" y="392" width="2" height="328" fill="url(#barGradient)" filter="url(#shadow)" />
  <rect x="521" y="394" width="2" height="326" fill="url(#barGradient)" filter="url(#shadow)" />
  <rect x="524" y="396" width="2" height="324" fill="url(#barGradient)" filter="url(#shadow)" />
  <rect x="527" y="398" width="2" height="322" fill="url(#barGradient)" filter="url(#shadow)" />
  <rect x="530" y="400" width="2" height="320" fill="url(#barGradient)" filter="url(#shadow)" />
  <rect x="533" y="304" width="2" height="416" fill="url(#barGradient)" filter="url(#shadow)" />
  <rect x="536" y="405" width="2" height="315" fill="url(#barGradient)" filter="url(#shadow)" />
  <rect x="539" y="407" width="2" height="313" fill="url(#barGradient)" filter="url(#shadow)" />
  <rect x="542" y="409" width="2" height="311" fill="url(#barGradient)" filter="url(#shadow)" />
  <rect x="545" y="411" width="2" height="309" fill="url(#barGradient)" filter="url(#shadow)" />
  <rect x="548" y="413" width="2" height="307" fill="url(#barGradient)" filter="url(#shadow)" />
  <rect x="551" y="415" width="2" height="305" fill="url(#barGradient)" filter="url(#shadow)" />
  <rect x="554" y="418" width="2" height="302" fill="url(#barGradient)" filter="url(#shadow)" />
  <rect x="557" y="420" width="2" height="300" fill="url(#barGradient)" filter="url(#shadow)" />
  <rect x="560" y="311" width="2" height="409" fill="url(#barGradient)" filter="url(#shadow)" />
  <rect x="563" y="424" width="2" height="296" fill="url(#barGradient)" filter="url(#shadow)" />
  <rect x="566" y="426" width="2" height="294" fill="url(#barGradient)" filter="url(#shadow)" />
  <rect x="569" y="428" width="2" height="292" fill="url(#barGradient)" filter="url(#shadow)" />
  <rect x="572" y="430" width="2" height="290" fill="url(#barGradient)" filter="url(#shadow)" />
  <rect x="575" y="432" width="2" height="288" fill="url(#barGradient)" filter="url(#shadow)" />
  <rect x="578" y="435" width="2" height="285" fill="url(#barGradient)" filter="url(#shadow)" />
  <rect x="581" y="535" width="2" height="185" fill="url(#barGradient)" filter="url(#shadow)" />
  <rect x="584" y="439" width="2" height="281" fill="url(#barGradient)" filter="url(#shadow)" />
  <rect x="587" y="441" width="2" height="279" fill="url(#barGradient)" filter="url(#shadow)" />
  <rect x="590" y="443" width="2" height="277" fill="url(#barGradient)" filter="url(#shadow)" />
  <rect x="593" y="445" width="2" height="275" fill="url(#barGradient)" filter="url(#shadow)" />
  <rect x="596" y="447" width="2" height="273" fill="url(#barGradient)" filter="url(#shadow)" />
  <rect x="599" y="450" width="2" height="270" fill="url(#barGradient)" filter="url(#shadow)" />
  <rect x="602" y="452" width="2" height="268" fill="url(#barGradient)" filter="url(#shadow)" />
  <rect x="605" y="454" width="2" height="266" fill="url(#barGradient)" filter="url(#shadow)" />
  <rect x="608" y="456" width="2" height="264" fill="url(#barGradient)" filter="url(#shadow)" />
  <rect x="611" y="458" width="2" height="262" fill="url(#barGradient)" filter="url(#shadow)" />
  <rect x="614" y="460" width="2" height="260" fill="url(#barGradient)" filter="url(#shadow)" />
  <rect x="617" y="462" width="2" height="258" fill="url(#barGradient)" filter="url(#shadow)" />
  <rect x="620" y="464" width="2" height="256" fill="url(#barGradient)" filter="url(#shadow)" />
  <rect x="623" y="467" width="2" height="253" fill="url(#barGradient)" filter="url(#shadow)" />
  <rect x="626" y="469" width="2" height="251" fill="url(#barGradient)" filter="url(#shadow)" />
  <rect x="629" y="471" width="2" height="249" fill="url(#barGradient)" filter="url(#shadow)" />
  <rect x="632" y="473" width="2" height="247" fill="url(#barGradient)" filter="url(#shadow)" />
  <rect x="635" y="475" width="2" height="245" fill="url(#barGradient)" filter="url(#shadow)" />
  <rect x="638" y="477" width="2" height="243" fill="url(#barGradient)" filter="url(#shadow)" />
  <rect x="641" y="479" width="2" height="241" fill="url(#barGradient)" filter="url(#shadow)" />
  <rect x="644" y="482" width="2" height="238" fill="url(#barGradient)" filter="url(#shadow)" />
  <rect x="647" y="484" width="2" height="236" fill="url(#barGradient)" filter="url(#shadow)" />
  <rect x="650" y="486" width="2" height="234" fill="url(#barGradient)" filter="url(#shadow)" />
  <rect x="653" y="488" width="2" height="232" fill="url(#barGradient)" filter="url(#shadow)" />
  <rect x="656" y="490" width="2" height="230" fill="url(#barGradient)" filter="url(#shadow)" />
  <rect x="659" y="492" width="2" height="228" fill="url(#barGradient)" filter="url(#shadow)" />
  <rect x="662" y="494" width="2" height="226" fill="url(#barGradient)" filter="url(#shadow)" />
  <rect x="665" y="496" width="2" height="224" fill="url(#barGradient)" filter="url(#shadow)" />
  <rect x="668" y="499" width="2" height="221" fill="url(#barGradient)" filter="url(#shadow)" />
  <rect x="671" y="503" width="2" height="217" fill="url(#barGradient)" filter="url(#shadow)" />
  <rect x="674" y="501" width="2" height="219" fill="url(#barGradient)" filter="url(#shadow)" />
  <rect x="677" y="505" width="2" height="215" fill="url(#barGradient)" filter="url(#shadow)" />
  <rect x="680" y="507" width="2" height="213" fill="url(#barGradient)" filter="url(#shadow)" />
  <rect x="683" y="509" width="2" height="211" fill="url(#barGradient)" filter="url(#shadow)" />
  <rect x="686" y="511" width="2" height="209" fill="url(#barGradient)" filter="url(#shadow)" />
  <rect x="689" y="514" width="2" height="206" fill="url(#barGradient)" filter="url(#shadow)" />
  <rect x="692" y="121" width="2" height="599" fill="url(#barGradient)" filter="url(#shadow)" />
  <rect x="695" y="518" width="2" height="202" fill="url(#barGradient)" filter="url(#shadow)" />
  <rect x="698" y="520" width="2" height="200" fill="url(#barGradient)" filter="url(#shadow)" />
  <rect x="701" y="522" width="2" height="198" fill="url(#barGradient)" filter="url(#shadow)" />
  <rect x="704" y="524" width="2" height="196" fill="url(#barGradient)" filter="url(#shadow)" />
  <rect x="707" y="526" width="2" height="194" fill="url(#barGradient)" filter="url(#shadow)" />
  <rect x="710" y="528" width="2" height="192" fill="url(#barGradient)" filter="url(#shadow)" />
  <rect x="713" y="531" width="2" height="189" fill="url(#barGradient)" filter="url(#shadow)" />
  <rect x="716" y="533" width="2" height="187" fill="url(#barGradient)" filter="url(#shadow)" />
  <rect x="719" y="437" width="2" height="283" fill="url(#barGradient)" filter="url(#shadow)" />
  <rect x="722" y="537" width="2" height="183" fill="url(#barGradient)" filter="url(#shadow)" />
  <rect x="725" y="539" width="2" height="181" fill="url(#barGradient)" filter="url(#shadow)" />
  <rect x="728" y="541" width="2" height="179" fill="url(#barGradient)" filter="url(#shadow)" />
  <rect x="731" y="543" width="2" height="177" fill="url(#barGradient)" filter="url(#shadow)" />
  <rect x="734" y="546" width="2" height="174" fill="url(#barGradient)" filter="url(#shadow)" />
  <rect x="737" y="548" width="2" height="172" fill="url(#barGradient)" filter="url(#shadow)" />
  <rect x="740" y="550" width="2" height="170" fill="url(#barGradient)" filter="url(#shadow)" />
  <rect x="743" y="592" width="2" height="128" fill="url(#barGradient)" filter="url(#shadow)" />
  <rect x="746" y="554" width="2" height="166" fill="url(#barGradient)" filter="url(#shadow)" />
  <rect x="749" y="556" width="2" height="164" fill="url(#barGradient)" filter="url(#shadow)" />
  <rect x="752" y="558" width="2" height="162" fill="url(#barGradient)" filter="url(#shadow)" />
  <rect x="755" y="560" width="2" height="160" fill="url(#barGradient)" filter="url(#shadow)" />
  <rect x="758" y="563" width="2" height="157" fill="url(#barGradient)" filter="url(#shadow)" />
  <rect x="761" y="565" width="2" height="155" fill="url(#barGradient)" filter="url(#shadow)" />
  <rect x="764" y="567" width="2" height="153" fill="url(#barGradient)" filter="url(#shadow)" />
  <rect x="767" y="569" width="2" height="151" fill="url(#barGradient)" filter="url(#shadow)" />
  <rect x="770" y="571" width="2" height="149" fill="url(#barGradient)" filter="url(#shadow)" />
  <rect x="773" y="573" width="2" height="147" fill="url(#barGradient)" filter="url(#shadow)" />
  <rect x="776" y="575" width="2" height="145" fill="url(#barGradient)" filter="url(#shadow)" />
  <rect x="779" y="578" width="2" height="142" fill="url(#barGradient)" filter="url(#shadow)" />
  <rect x="782" y="580" width="2" height="140" fill="url(#barGradient)" filter="url(#shadow)" />
  <rect x="785" y="582" width="2" height="138" fill="url(#barGradient)" filter="url(#shadow)" />
  <rect x="788" y="584" width="2" height="136" fill="url(#barGradient)" filter="url(#shadow)" />
  <rect x="791" y="586" width="2" height="134" fill="url(#barGradient)" filter="url(#shadow)" />
  <rect x="794" y="123" width="2" height="597" fill="url(#barGradient)" filter="url(#shadow)" />
  <rect x="797" y="590" width="2" height="130" fill="url(#barGradient)" filter="url(#shadow)" />
  <rect x="800" y="552" width="2" height="168" fill="url(#barGradient)" filter="url(#shadow)" />
  <rect x="803" y="595" width="2" height="125" fill="url(#barGradient)" filter="url(#shadow)" />
  <rect x="806" y="597" width="2" height="123" fill="url(#barGradient)" filter="url(#shadow)" />
  <rect x="809" y="599" width="2" height="121" fill="url(#barGradient)" filter="url(#shadow)" />
  <rect x="812" y="601" width="2" height="119" fill="url(#barGradient)" filter="url(#shadow)" />
  <rect x="815" y="603" width="2" height="117" fill="url(#barGradient)" filter="url(#shadow)" />
  <rect x="818" y="605" width="2" height="115" fill="url(#barGradient)" filter="url(#shadow)" />
  <rect x="821" y="607" width="2" height="113" fill="url(#barGradient)" filter="url(#shadow)" />
  <rect x="824" y="610" width="2" height="110" fill="url(#barGradient)" filter="url(#shadow)" />
  <rect x="827" y="612" width="2" height="108" fill="url(#barGradient)" filter="url(#shadow)" />
  <rect x="830" y="614" width="2" height="106" fill="url(#barGradient)" filter="url(#shadow)" />
  <rect x="833" y="616" width="2" height="104" fill="url(#barGradient)" filter="url(#shadow)" />
  <rect x="836" y="618" width="2" height="102" fill="url(#barGradient)" filter="url(#shadow)" />
  <rect x="839" y="620" width="2" height="100" fill="url(#barGradient)" filter="url(#shadow)" />
  <rect x="842" y="622" width="2" height="98" fill="url(#barGradient)" filter="url(#shadow)" />
  <rect x="845" y="624" width="2" height="96" fill="url(#barGradient)" filter="url(#shadow)" />
  <rect x="848" y="627" width="2" height="93" fill="url(#barGradient)" filter="url(#shadow)" />
  <rect x="851" y="629" width="2" height="91" fill="url(#barGradient)" filter="url(#shadow)" />
  <rect x="854" y="631" width="2" height="89" fill="url(#barGradient)" filter="url(#shadow)" />
  <rect x="857" y="648" width="2" height="72" fill="url(#barGradient)" filter="url(#shadow)" />
  <rect x="860" y="635" width="2" height="85" fill="url(#barGradient)" filter="url(#shadow)" />
  <rect x="863" y="637" width="2" height="83" fill="url(#barGradient)" filter="url(#shadow)" />
  <rect x="866" y="639" width="2" height="81" fill="url(#barGradient)" filter="url(#shadow)" />
  <rect x="869" y="642" width="2" height="78" fill="url(#barGradient)" filter="url(#shadow)" />
  <rect x="872" y="644" width="2" height="76" fill="url(#barGradient)" filter="url(#shadow)" />
  <rect x="875" y="646" width="2" height="74" fill="url(#barGradient)" filter="url(#shadow)" />
  <rect x="878" y="633" width="2" height="87" fill="url(#barGradient)" filter="url(#shadow)" />
  <rect x="881" y="650" width="2" height="70" fill="url(#barGradient)" filter="url(#shadow)" />
  <rect x="884" y="652" width="2" height="68" fill="url(#barGradient)" filter="url(#shadow)" />
  <rect x="887" y="654" width="2" height="66" fill="url(#barGradient)" filter="url(#shadow)" />
  <rect x="890" y="656" width="2" height="64" fill="url(#barGradient)" filter="url(#shadow)" />
  <rect x="893" y="659" width="2" height="61" fill="url(#barGradient)" filter="url(#shadow)" />
  <rect x="896" y="661" width="2" height="59" fill="url(#barGradient)" filter="url(#shadow)" />
  <rect x="899" y="663" width="2" height="57" fill="url(#barGradient)" filter="url(#shadow)" />
  <rect x="902" y="665" width="2" height="55" fill="url(#barGradient)" filter="url(#shadow)" />
  <rect x="905" y="667" width="2" height="53" fill="url(#barGradient)" filter="url(#shadow)" />
  <rect x="908" y="669" width="2" height="51" fill="url(#barGradient)" filter="url(#shadow)" />
  <rect x="911" y="294" width="2" height="426" fill="url(#barGradient)" filter="url(#shadow)" />
  <rect x="914" y="674" width="2" height="46" fill="url(#barGradient)" filter="url(#shadow)" />
  <rect x="917" y="676" width="2" height="44" fill="url(#barGradient)" filter="url(#shadow)" />
  <rect x="920" y="678" width="2" height="42" fill="url(#barGradient)" filter="url(#shadow)" />
  <rect x="923" y="680" width="2" height="40" fill="url(#barGradient)" filter="url(#shadow)" />
  <rect x="926" y="682" width="2" height="38" fill="url(#barGradient)" filter="url(#shadow)" />
  <rect x="929" y="211" width="2" height="509" fill="url(#barGradient)" filter="url(#shadow)" />
  <rect x="932" y="686" width="2" height="34" fill="url(#barGradient)" filter="url(#shadow)" />
  <rect x="935" y="688" width="2" height="32" fill="url(#barGradient)" filter="url(#shadow)" />
  <rect x="938" y="691" width="2" height="29" fill="url(#barGradient)" filter="url(#shadow)" />
  <rect x="941" y="693" width="2" height="27" fill="url(#barGradient)" filter="url(#shadow)" />
  <rect x="944" y="695" width="2" height="25" fill="url(#barGradient)" filter="url(#shadow)" />
  <rect x="947" y="697" width="2" height="23" fill="url(#barGradient)" filter="url(#shadow)" />
  <rect x="950" y="699" width="2" height="21" fill="url(#barGradient)" filter="url(#shadow)" />
  <rect x="953" y="196" width="2" height="524" fill="url(#barGradient)" filter="url(#shadow)" />
  <rect x="956" y="703" width="2" height="17" fill="url(#barGradient)" filter="url(#shadow)" />
  <rect x="959" y="706" width="2" height="14" fill="url(#barGradient)" filter="url(#shadow)" />
  <rect x="962" y="708" width="2" height="12" fill="url(#barGradient)" filter="url(#shadow)" />
  <rect x="965" y="710" width="2" height="10" fill="url(#barGradient)" filter="url(#shadow)" />
  <rect x="968" y="712" width="2" height="8" fill="url(#barGradient)" filter="url(#shadow)" />
  <rect x="971" y="714" width="2" height="6" fill="url(#barGradient)" filter="url(#shadow)" />
  <rect x="974" y="716" width="2" height="4" fill="url(#barGradient)" filter="url(#shadow)" />
  <rect x="977" y="718" width="2" height="2" fill="url(#barGradient)" filter="url(#shadow)" />
  <text x="530" y="40" class="label title" text-anchor="middle">NearlyReversed Distribution</text>
  <text x="530" y="780" class="label" text-anchor="middle">Index</text>
  <text x="30" y="400" class="label" transform="rotate(-90,30,400)" text-anchor="middle">Value</text><rect x="760" y="10" rx="8" stroke="#b0b0b0" width="150" height="90" fill="white" filter="url(#shadow)"/><text x="780" y="35" font-family="Arial" font-size="12" fill="#757575">Minimum: 1</text><text x="780" y="55" font-family="Arial" font-size="12" fill="#757575">Maximum: 300</text><text x="780" y="75" font-family="Arial" font-size="12" fill="#757575">Average: 150</text></svg>