<?xml version="1.0" encoding="UTF-8"?>
<svg width="1060" height="800" xmlns="http://www.w3.org/2000/svg">
    <defs>
        <filter id="shadow" x="-20%" y="-20%" width="140%" height="140%">
            <feDropShadow dx="2" dy="2" stdDeviation="2" flood-opacity="0.1"/>
        </filter>
        <linearGradient id="barGradient" x1="0" x2="0" y1="0" y2="1">
            <stop offset="0%" stop-color="#1976D2"/>
            <stop offset="100%" stop-color="#2196F3"/>
        </linearGradient>
    </defs>
    <rect width="1060" height="800" fill="#fafafa"/>
    <line x1="80" y1="80" x2="980" y2="80" stroke="#e0e0e0" stroke-width="1"/>
    <line x1="80" y1="144" x2="980" y2="144" stroke="#e0e0e0" stroke-width="1"/>
    <line x1="80" y1="208" x2="980" y2="208" stroke="#e0e0e0" stroke-width="1"/>
    <line x1="80" y1="272" x2="980" y2="272" stroke="#e0e0e0" stroke-width="1"/>
    <line x1="80" y1="336" x2="980" y2="336" stroke="#e0e0e0" stroke-width="1"/>
    <line x1="80" y1="400" x2="980" y2="400" stroke="#e0e0e0" stroke-width="1"/>
    <line x1="80" y1="464" x2="980" y2="464" stroke="#e0e0e0" stroke-width="1"/>
    <line x1="80" y1="528" x2="980" y2="528" stroke="#e0e0e0" stroke-width="1"/>
    <line x1="80" y1="592" x2="980" y2="592" stroke="#e0e0e0" stroke-width="1"/>
    <line x1="80" y1="656" x2="980" y2="656" stroke="#e0e0e0" stroke-width="1"/>
    <line x1="80" y1="720" x2="980" y2="720" stroke="#e0e0e0" stroke-width="1"/>
    <rect x="80" y="720" width="2" height="0" fill="url(#barGradient)" filter="url(#shadow)"/>
    <rect x="83" y="718" width="2" height="2" fill="url(#barGradient)" filter="url(#shadow)"/>
    <rect x="86" y="716" width="2" height="4" fill="url(#barGradient)" filter="url(#shadow)"/>
    <rect x="89" y="714" width="2" height="6" fill="url(#barGradient)" filter="url(#shadow)"/>
    <rect x="92" y="712" width="2" height="8" fill="url(#barGradient)" filter="url(#shadow)"/>
    <rect x="95" y="710" width="2" height="10" fill="url(#barGradient)" filter="url(#shadow)"/>
    <rect x="98" y="708" width="2" height="12" fill="url(#barGradient)" filter="url(#shadow)"/>
    <rect x="101" y="705" width="2" height="15" fill="url(#barGradient)" filter="url(#shadow)"/>
    <rect x="104" y="703" width="2" height="17" fill="url(#barGradient)" filter="url(#shadow)"/>
    <rect x="107" y="701" width="2" height="19" fill="url(#barGradient)" filter="url(#shadow)"/>
    <rect x="110" y="699" width="2" height="21" fill="url(#barGradient)" filter="url(#shadow)"/>
    <rect x="113" y="697" width="2" height="23" fill="url(#barGradient)" filter="url(#shadow)"/>
    <rect x="116" y="695" width="2" height="25" fill="url(#barGradient)" filter="url(#shadow)"/>
    <rect x="119" y="693" width="2" height="27" fill="url(#barGradient)" filter="url(#shadow)"/>
    <rect x="122" y="690" width="2" height="30" fill="url(#barGradient)" filter="url(#shadow)"/>
    <rect x="125" y="688" width="2" height="32" fill="url(#barGradient)" filter="url(#shadow)"/>
    <rect x="128" y="686" width="2" height="34" fill="url(#barGradient)" filter="url(#shadow)"/>
    <rect x="131" y="684" width="2" height="36" fill="url(#barGradient)" filter="url(#shadow)"/>
    <rect x="134" y="682" width="2" height="38" fill="url(#barGradient)" filter="url(#shadow)"/>
    <rect x="137" y="680" width="2" height="40" fill="url(#barGradient)" filter="url(#shadow)"/>
    <rect x="140" y="678" width="2" height="42" fill="url(#barGradient)" filter="url(#shadow)"/>
    <rect x="143" y="675" width="2" height="45" fill="url(#barGradient)" filter="url(#shadow)"/>
    <rect x="146" y="673" width="2" height="47" fill="url(#barGradient)" filter="url(#shadow)"/>
    <rect x="149" y="671" width="2" height="49" fill="url(#barGradient)" filter="url(#shadow)"/>
    <rect x="152" y="669" width="2" height="51" fill="url(#barGradient)" filter="url(#shadow)"/>
    <rect x="155" y="667" width="2" height="53" fill="url(#barGradient)" filter="url(#shadow)"/>
    <rect x="158" y="665" width="2" height="55" fill="url(#barGradient)" filter="url(#shadow)"/>
    <rect x="161" y="663" width="2" height="57" fill="url(#barGradient)" filter="url(#shadow)"/>
    <rect x="164" y="660" width="2" height="60" fill="url(#barGradient)" filter="url(#shadow)"/>
    <rect x="167" y="658" width="2" height="62" fill="url(#barGradient)" filter="url(#shadow)"/>
    <rect x="170" y="656" width="2" height="64" fill="url(#barGradient)" filter="url(#shadow)"/>
    <rect x="173" y="654" width="2" height="66" fill="url(#barGradient)" filter="url(#shadow)"/>
    <rect x="176" y="652" width="2" height="68" fill="url(#barGradient)" filter="url(#shadow)"/>
    <rect x="179" y="650" width="2" height="70" fill="url(#barGradient)" filter="url(#shadow)"/>
    <rect x="182" y="647" width="2" height="73" fill="url(#barGradient)" filter="url(#shadow)"/>
    <rect x="185" y="645" width="2" height="75" fill="url(#barGradient)" filter="url(#shadow)"/>
    <rect x="188" y="643" width="2" height="77" fill="url(#barGradient)" filter="url(#shadow)"/>
    <rect x="191" y="641" width="2" height="79" fill="url(#barGradient)" filter="url(#shadow)"/>
    <rect x="194" y="639" width="2" height="81" fill="url(#barGradient)" filter="url(#shadow)"/>
    <rect x="197" y="637" width="2" height="83" fill="url(#barGradient)" filter="url(#shadow)"/>
    <rect x="200" y="635" width="2" height="85" fill="url(#barGradient)" filter="url(#shadow)"/>
    <rect x="203" y="632" width="2" height="88" fill="url(#barGradient)" filter="url(#shadow)"/>
    <rect x="206" y="630" width="2" height="90" fill="url(#barGradient)" filter="url(#shadow)"/>
    <rect x="209" y="628" width="2" height="92" fill="url(#barGradient)" filter="url(#shadow)"/>
    <rect x="212" y="626" width="2" height="94" fill="url(#barGradient)" filter="url(#shadow)"/>
    <rect x="215" y="624" width="2" height="96" fill="url(#barGradient)" filter="url(#shadow)"/>
    <rect x="218" y="622" width="2" height="98" fill="url(#barGradient)" filter="url(#shadow)"/>
    <rect x="221" y="620" width="2" height="100" fill="url(#barGradient)" filter="url(#shadow)"/>
    <rect x="224" y="617" width="2" height="103" fill="url(#barGradient)" filter="url(#shadow)"/>
    <rect x="227" y="615" width="2" height="105" fill="url(#barGradient)" filter="url(#shadow)"/>
    <rect x="230" y="613" width="2" height="107" fill="url(#barGradient)" filter="url(#shadow)"/>
    <rect x="233" y="611" width="2" height="109" fill="url(#barGradient)" filter="url(#shadow)"/>
    <rect x="236" y="609" width="2" height="111" fill="url(#barGradient)" filter="url(#shadow)"/>
    <rect x="239" y="607" width="2" height="113" fill="url(#barGradient)" filter="url(#shadow)"/>
    <rect x="242" y="605" width="2" height="115" fill="url(#barGradient)" filter="url(#shadow)"/>
    <rect x="245" y="602" width="2" height="118" fill="url(#barGradient)" filter="url(#shadow)"/>
    <rect x="248" y="600" width="2" height="120" fill="url(#barGradient)" filter="url(#shadow)"/>
    <rect x="251" y="598" width="2" height="122" fill="url(#barGradient)" filter="url(#shadow)"/>
    <rect x="254" y="596" width="2" height="124" fill="url(#barGradient)" filter="url(#shadow)"/>
    <rect x="257" y="594" width="2" height="126" fill="url(#barGradient)" filter="url(#shadow)"/>
    <rect x="260" y="592" width="2" height="128" fill="url(#barGradient)" filter="url(#shadow)"/>
    <rect x="263" y="589" width="2" height="131" fill="url(#barGradient)" filter="url(#shadow)"/>
    <rect x="266" y="587" width="2" height="133" fill="url(#barGradient)" filter="url(#shadow)"/>
    <rect x="269" y="585" width="2" height="135" fill="url(#barGradient)" filter="url(#shadow)"/>
    <rect x="272" y="583" width="2" height="137" fill="url(#barGradient)" filter="url(#shadow)"/>
    <rect x="275" y="581" width="2" height="139" fill="url(#barGradient)" filter="url(#shadow)"/>
    <rect x="278" y="579" width="2" height="141" fill="url(#barGradient)" filter="url(#shadow)"/>
    <rect x="281" y="577" width="2" height="143" fill="url(#barGradient)" filter="url(#shadow)"/>
    <rect x="284" y="574" width="2" height="146" fill="url(#barGradient)" filter="url(#shadow)"/>
    <rect x="287" y="572" width="2" height="148" fill="url(#barGradient)" filter="url(#shadow)"/>
    <rect x="290" y="570" width="2" height="150" fill="url(#barGradient)" filter="url(#shadow)"/>
    <rect x="293" y="568" width="2" height="152" fill="url(#barGradient)" filter="url(#shadow)"/>
    <rect x="296" y="566" width="2" height="154" fill="url(#barGradient)" filter="url(#shadow)"/>
    <rect x="299" y="564" width="2" height="156" fill="url(#barGradient)" filter="url(#shadow)"/>
    <rect x="302" y="562" width="2" height="158" fill="url(#barGradient)" filter="url(#shadow)"/>
    <rect x="305" y="559" width="2" height="161" fill="url(#barGradient)" filter="url(#shadow)"/>
    <rect x="308" y="557" width="2" height="163" fill="url(#barGradient)" filter="url(#shadow)"/>
    <rect x="311" y="555" width="2" height="165" fill="url(#barGradient)" filter="url(#shadow)"/>
    <rect x="314" y="553" width="2" height="167" fill="url(#barGradient)" filter="url(#shadow)"/>
    <rect x="317" y="551" width="2" height="169" fill="url(#barGradient)" filter="url(#shadow)"/>
    <rect x="320" y="549" width="2" height="171" fill="url(#barGradient)" filter="url(#shadow)"/>
    <rect x="323" y="547" width="2" height="173" fill="url(#barGradient)" filter="url(#shadow)"/>
    <rect x="326" y="544" width="2" height="176" fill="url(#barGradient)" filter="url(#shadow)"/>
    <rect x="329" y="542" width="2" height="178" fill="url(#barGradient)" filter="url(#shadow)"/>
    <rect x="332" y="540" width="2" height="180" fill="url(#barGradient)" filter="url(#shadow)"/>
    <rect x="335" y="538" width="2" height="182" fill="url(#barGradient)" filter="url(#shadow)"/>
    <rect x="338" y="536" width="2" height="184" fill="url(#barGradient)" filter="url(#shadow)"/>
    <rect x="341" y="534" width="2" height="186" fill="url(#barGradient)" filter="url(#shadow)"/>
    <rect x="344" y="532" width="2" height="188" fill="url(#barGradient)" filter="url(#shadow)"/>
    <rect x="347" y="529" width="2" height="191" fill="url(#barGradient)" filter="url(#shadow)"/>
    <rect x="350" y="527" width="2" height="193" fill="url(#barGradient)" filter="url(#shadow)"/>
    <rect x="353" y="525" width="2" height="195" fill="url(#barGradient)" filter="url(#shadow)"/>
    <rect x="356" y="523" width="2" height="197" fill="url(#barGradient)" filter="url(#shadow)"/>
    <rect x="359" y="521" width="2" height="199" fill="url(#barGradient)" filter="url(#shadow)"/>
    <rect x="362" y="519" width="2" height="201" fill="url(#barGradient)" filter="url(#shadow)"/>
    <rect x="365" y="516" width="2" height="204" fill="url(#barGradient)" filter="url(#shadow)"/>
    <rect x="368" y="514" width="2" height="206" fill="url(#barGradient)" filter="url(#shadow)"/>
    <rect x="371" y="512" width="2" height="208" fill="url(#barGradient)" filter="url(#shadow)"/>
    <rect x="374" y="510" width="2" height="210" fill="url(#barGradient)" filter="url(#shadow)"/>
    <rect x="377" y="508" width="2" height="212" fill="url(#barGradient)" filter="url(#shadow)"/>
    <rect x="380" y="506" width="2" height="214" fill="url(#barGradient)" filter="url(#shadow)"/>
    <rect x="383" y="504" width="2" height="216" fill="url(#barGradient)" filter="url(#shadow)"/>
    <rect x="386" y="501" width="2" height="219" fill="url(#barGradient)" filter="url(#shadow)"/>
    <rect x="389" y="499" width="2" height="221" fill="url(#barGradient)" filter="url(#shadow)"/>
    <rect x="392" y="497" width="2" height="223" fill="url(#barGradient)" filter="url(#shadow)"/>
    <rect x="395" y="495" width="2" height="225" fill="url(#barGradient)" filter="url(#shadow)"/>
    <rect x="398" y="493" width="2" height="227" fill="url(#barGradient)" filter="url(#shadow)"/>
    <rect x="401" y="491" width="2" height="229" fill="url(#barGradient)" filter="url(#shadow)"/>
    <rect x="404" y="489" width="2" height="231" fill="url(#barGradient)" filter="url(#shadow)"/>
    <rect x="407" y="486" width="2" height="234" fill="url(#barGradient)" filter="url(#shadow)"/>
    <rect x="410" y="484" width="2" height="236" fill="url(#barGradient)" filter="url(#shadow)"/>
    <rect x="413" y="482" width="2" height="238" fill="url(#barGradient)" filter="url(#shadow)"/>
    <rect x="416" y="480" width="2" height="240" fill="url(#barGradient)" filter="url(#shadow)"/>
    <rect x="419" y="478" width="2" height="242" fill="url(#barGradient)" filter="url(#shadow)"/>
    <rect x="422" y="476" width="2" height="244" fill="url(#barGradient)" filter="url(#shadow)"/>
    <rect x="425" y="474" width="2" height="246" fill="url(#barGradient)" filter="url(#shadow)"/>
    <rect x="428" y="471" width="2" height="249" fill="url(#barGradient)" filter="url(#shadow)"/>
    <rect x="431" y="469" width="2" height="251" fill="url(#barGradient)" filter="url(#shadow)"/>
    <rect x="434" y="467" width="2" height="253" fill="url(#barGradient)" filter="url(#shadow)"/>
    <rect x="437" y="465" width="2" height="255" fill="url(#barGradient)" filter="url(#shadow)"/>
    <rect x="440" y="463" width="2" height="257" fill="url(#barGradient)" filter="url(#shadow)"/>
    <rect x="443" y="461" width="2" height="259" fill="url(#barGradient)" filter="url(#shadow)"/>
    <rect x="446" y="458" width="2" height="262" fill="url(#barGradient)" filter="url(#shadow)"/>
    <rect x="449" y="456" width="2" height="264" fill="url(#barGradient)" filter="url(#shadow)"/>
    <rect x="452" y="454" width="2" height="266" fill="url(#barGradient)" filter="url(#shadow)"/>
    <rect x="455" y="452" width="2" height="268" fill="url(#barGradient)" filter="url(#shadow)"/>
    <rect x="458" y="450" width="2" height="270" fill="url(#barGradient)" filter="url(#shadow)"/>
    <rect x="461" y="448" width="2" height="272" fill="url(#barGradient)" filter="url(#shadow)"/>
    <rect x="464" y="446" width="2" height="274" fill="url(#barGradient)" filter="url(#shadow)"/>
    <rect x="467" y="443" width="2" height="277" fill="url(#barGradient)" filter="url(#shadow)"/>
    <rect x="470" y="441" width="2" height="279" fill="url(#barGradient)" filter="url(#shadow)"/>
    <rect x="473" y="439" width="2" height="281" fill="url(#barGradient)" filter="url(#shadow)"/>
    <rect x="476" y="437" width="2" height="283" fill="url(#barGradient)" filter="url(#shadow)"/>
    <rect x="479" y="435" width="2" height="285" fill="url(#barGradient)" filter="url(#shadow)"/>
    <rect x="482" y="433" width="2" height="287" fill="url(#barGradient)" filter="url(#shadow)"/>
    <rect x="485" y="431" width="2" height="289" fill="url(#barGradient)" filter="url(#shadow)"/>
    <rect x="488" y="428" width="2" height="292" fill="url(#barGradient)" filter="url(#shadow)"/>
    <rect x="491" y="426" width="2" height="294" fill="url(#barGradient)" filter="url(#shadow)"/>
    <rect x="494" y="424" width="2" height="296" fill="url(#barGradient)" filter="url(#shadow)"/>
    <rect x="497" y="422" width="2" height="298" fill="url(#barGradient)" filter="url(#shadow)"/>
    <rect x="500" y="420" width="2" height="300" fill="url(#barGradient)" filter="url(#shadow)"/>
    <rect x="503" y="418" width="2" height="302" fill="url(#barGradient)" filter="url(#shadow)"/>
    <rect x="506" y="416" width="2" height="304" fill="url(#barGradient)" filter="url(#shadow)"/>
    <rect x="509" y="413" width="2" height="307" fill="url(#barGradient)" filter="url(#shadow)"/>
    <rect x="512" y="411" width="2" height="309" fill="url(#barGradient)" filter="url(#shadow)"/>
    <rect x="515" y="409" width="2" height="311" fill="url(#barGradient)" filter="url(#shadow)"/>
    <rect x="518" y="407" width="2" height="313" fill="url(#barGradient)" filter="url(#shadow)"/>
    <rect x="521" y="405" width="2" height="315" fill="url(#barGradient)" filter="url(#shadow)"/>
    <rect x="524" y="403" width="2" height="317" fill="url(#barGradient)" filter="url(#shadow)"/>
    <rect x="527" y="400" width="2" height="320" fill="url(#barGradient)" filter="url(#shadow)"/>
    <rect x="530" y="398" width="2" height="322" fill="url(#barGradient)" filter="url(#shadow)"/>
    <rect x="533" y="396" width="2" height="324" fill="url(#barGradient)" filter="url(#shadow)"/>
    <rect x="536" y="394" width="2" height="326" fill="url(#barGradient)" filter="url(#shadow)"/>
    <rect x="539" y="392" width="2" height="328" fill="url(#barGradient)" filter="url(#shadow)"/>
    <rect x="542" y="390" width="2" height="330" fill="url(#barGradient)" filter="url(#shadow)"/>
    <rect x="545" y="388" width="2" height="332" fill="url(#barGradient)" filter="url(#shadow)"/>
    <rect x="548" y="385" width="2" height="335" fill="url(#barGradient)" filter="url(#shadow)"/>
    <rect x="551" y="383" width="2" height="337" fill="url(#barGradient)" filter="url(#shadow)"/>
    <rect x="554" y="381" width="2" height="339" fill="url(#barGradient)" filter="url(#shadow)"/>
    <rect x="557" y="379" width="2" height="341" fill="url(#barGradient)" filter="url(#shadow)"/>
    <rect x="560" y="377" width="2" height="343" fill="url(#barGradient)" filter="url(#shadow)"/>
    <rect x="563" y="375" width="2" height="345" fill="url(#barGradient)" filter="url(#shadow)"/>
    <rect x="566" y="373" width="2" height="347" fill="url(#barGradient)" filter="url(#shadow)"/>
    <rect x="569" y="370" width="2" height="350" fill="url(#barGradient)" filter="url(#shadow)"/>
    <rect x="572" y="368" width="2" height="352" fill="url(#barGradient)" filter="url(#shadow)"/>
    <rect x="575" y="366" width="2" height="354" fill="url(#barGradient)" filter="url(#shadow)"/>
    <rect x="578" y="364" width="2" height="356" fill="url(#barGradient)" filter="url(#shadow)"/>
    <rect x="581" y="362" width="2" height="358" fill="url(#barGradient)" filter="url(#shadow)"/>
    <rect x="584" y="360" width="2" height="360" fill="url(#barGradient)" filter="url(#shadow)"/>
    <rect x="587" y="358" width="2" height="362" fill="url(#barGradient)" filter="url(#shadow)"/>
    <rect x="590" y="355" width="2" height="365" fill="url(#barGradient)" filter="url(#shadow)"/>
    <rect x="593" y="353" width="2" height="367" fill="url(#barGradient)" filter="url(#shadow)"/>
    <rect x="596" y="351" width="2" height="369" fill="url(#barGradient)" filter="url(#shadow)"/>
    <rect x="599" y="349" width="2" height="371" fill="url(#barGradient)" filter="url(#shadow)"/>
    <rect x="602" y="347" width="2" height="373" fill="url(#barGradient)" filter="url(#shadow)"/>
    <rect x="605" y="345" width="2" height="375" fill="url(#barGradient)" filter="url(#shadow)"/>
    <rect x="608" y="343" width="2" height="377" fill="url(#barGradient)" filter="url(#shadow)"/>
    <rect x="611" y="340" width="2" height="380" fill="url(#barGradient)" filter="url(#shadow)"/>
    <rect x="614" y="338" width="2" height="382" fill="url(#barGradient)" filter="url(#shadow)"/>
    <rect x="617" y="336" width="2" height="384" fill="url(#barGradient)" filter="url(#shadow)"/>
    <rect x="620" y="334" width="2" height="386" fill="url(#barGradient)" filter="url(#shadow)"/>
    <rect x="623" y="332" width="2" height="388" fill="url(#barGradient)" filter="url(#shadow)"/>
    <rect x="626" y="330" width="2" height="390" fill="url(#barGradient)" filter="url(#shadow)"/>
    <rect x="629" y="327" width="2" height="393" fill="url(#barGradient)" filter="url(#shadow)"/>
    <rect x="632" y="325" width="2" height="395" fill="url(#barGradient)" filter="url(#shadow)"/>
    <rect x="635" y="323" width="2" height="397" fill="url(#barGradient)" filter="url(#shadow)"/>
    <rect x="638" y="321" width="2" height="399" fill="url(#barGradient)" filter="url(#shadow)"/>
    <rect x="641" y="319" width="2" height="401" fill="url(#barGradient)" filter="url(#shadow)"/>
    <rect x="644" y="317" width="2" height="403" fill="url(#barGradient)" filter="url(#shadow)"/>
    <rect x="647" y="315" width="2" height="405" fill="url(#barGradient)" filter="url(#shadow)"/>
    <rect x="650" y="312" width="2" height="408" fill="url(#barGradient)" filter="url(#shadow)"/>
    <rect x="653" y="310" width="2" height="410" fill="url(#barGradient)" filter="url(#shadow)"/>
    <rect x="656" y="308" width="2" height="412" fill="url(#barGradient)" filter="url(#shadow)"/>
    <rect x="659" y="306" width="2" height="414" fill="url(#barGradient)" filter="url(#shadow)"/>
    <rect x="662" y="304" width="2" height="416" fill="url(#barGradient)" filter="url(#shadow)"/>
    <rect x="665" y="302" width="2" height="418" fill="url(#barGradient)" filter="url(#shadow)"/>
    <rect x="668" y="300" width="2" height="420" fill="url(#barGradient)" filter="url(#shadow)"/>
    <rect x="671" y="297" width="2" height="423" fill="url(#barGradient)" filter="url(#shadow)"/>
    <rect x="674" y="295" width="2" height="425" fill="url(#barGradient)" filter="url(#shadow)"/>
    <rect x="677" y="293" width="2" height="427" fill="url(#barGradient)" filter="url(#shadow)"/>
    <rect x="680" y="291" width="2" height="429" fill="url(#barGradient)" filter="url(#shadow)"/>
    <rect x="683" y="289" width="2" height="431" fill="url(#barGradient)" filter="url(#shadow)"/>
    <rect x="686" y="287" width="2" height="433" fill="url(#barGradient)" filter="url(#shadow)"/>
    <rect x="689" y="285" width="2" height="435" fill="url(#barGradient)" filter="url(#shadow)"/>
    <rect x="692" y="282" width="2" height="438" fill="url(#barGradient)" filter="url(#shadow)"/>
    <rect x="695" y="280" width="2" height="440" fill="url(#barGradient)" filter="url(#shadow)"/>
    <rect x="698" y="278" width="2" height="442" fill="url(#barGradient)" filter="url(#shadow)"/>
    <rect x="701" y="276" width="2" height="444" fill="url(#barGradient)" filter="url(#shadow)"/>
    <rect x="704" y="274" width="2" height="446" fill="url(#barGradient)" filter="url(#shadow)"/>
    <rect x="707" y="272" width="2" height="448" fill="url(#barGradient)" filter="url(#shadow)"/>
    <rect x="710" y="269" width="2" height="451" fill="url(#barGradient)" filter="url(#shadow)"/>
    <rect x="713" y="267" width="2" height="453" fill="url(#barGradient)" filter="url(#shadow)"/>
    <rect x="716" y="265" width="2" height="455" fill="url(#barGradient)" filter="url(#shadow)"/>
    <rect x="719" y="263" width="2" height="457" fill="url(#barGradient)" filter="url(#shadow)"/>
    <rect x="722" y="261" width="2" height="459" fill="url(#barGradient)" filter="url(#shadow)"/>
    <rect x="725" y="259" width="2" height="461" fill="url(#barGradient)" filter="url(#shadow)"/>
    <rect x="728" y="257" width="2" height="463" fill="url(#barGradient)" filter="url(#shadow)"/>
    <rect x="731" y="254" width="2" height="466" fill="url(#barGradient)" filter="url(#shadow)"/>
    <rect x="734" y="252" width="2" height="468" fill="url(#barGradient)" filter="url(#shadow)"/>
    <rect x="737" y="250" width="2" height="470" fill="url(#barGradient)" filter="url(#shadow)"/>
    <rect x="740" y="248" width="2" height="472" fill="url(#barGradient)" filter="url(#shadow)"/>
    <rect x="743" y="246" width="2" height="474" fill="url(#barGradient)" filter="url(#shadow)"/>
    <rect x="746" y="244" width="2" height="476" fill="url(#barGradient)" filter="url(#shadow)"/>
    <rect x="749" y="242" width="2" height="478" fill="url(#barGradient)" filter="url(#shadow)"/>
    <rect x="752" y="239" width="2" height="481" fill="url(#barGradient)" filter="url(#shadow)"/>
    <rect x="755" y="237" width="2" height="483" fill="url(#barGradient)" filter="url(#shadow)"/>
    <rect x="758" y="235" width="2" height="485" fill="url(#barGradient)" filter="url(#shadow)"/>
    <rect x="761" y="233" width="2" height="487" fill="url(#barGradient)" filter="url(#shadow)"/>
    <rect x="764" y="231" width="2" height="489" fill="url(#barGradient)" filter="url(#shadow)"/>
    <rect x="767" y="229" width="2" height="491" fill="url(#barGradient)" filter="url(#shadow)"/>
    <rect x="770" y="227" width="2" height="493" fill="url(#barGradient)" filter="url(#shadow)"/>
    <rect x="773" y="224" width="2" height="496" fill="url(#barGradient)" filter="url(#shadow)"/>
    <rect x="776" y="222" width="2" height="498" fill="url(#barGradient)" filter="url(#shadow)"/>
    <rect x="779" y="220" width="2" height="500" fill="url(#barGradient)" filter="url(#shadow)"/>
    <rect x="782" y="218" width="2" height="502" fill="url(#barGradient)" filter="url(#shadow)"/>
    <rect x="785" y="216" width="2" height="504" fill="url(#barGradient)" filter="url(#shadow)"/>
    <rect x="788" y="214" width="2" height="506" fill="url(#barGradient)" filter="url(#shadow)"/>
    <rect x="791" y="212" width="2" height="508" fill="url(#barGradient)" filter="url(#shadow)"/>
    <rect x="794" y="209" width="2" height="511" fill="url(#barGradient)" filter="url(#shadow)"/>
    <rect x="797" y="207" width="2" height="513" fill="url(#barGradient)" filter="url(#shadow)"/>
    <rect x="800" y="205" width="2" height="515" fill="url(#barGradient)" filter="url(#shadow)"/>
    <rect x="803" y="203" width="2" height="517" fill="url(#barGradient)" filter="url(#shadow)"/>
    <rect x="806" y="201" width="2" height="519" fill="url(#barGradient)" filter="url(#shadow)"/>
    <rect x="809" y="199" width="2" height="521" fill="url(#barGradient)" filter="url(#shadow)"/>
    <rect x="812" y="196" width="2" height="524" fill="url(#barGradient)" filter="url(#shadow)"/>
    <rect x="815" y="194" width="2" height="526" fill="url(#barGradient)" filter="url(#shadow)"/>
    <rect x="818" y="192" width="2" height="528" fill="url(#barGradient)" filter="url(#shadow)"/>
    <rect x="821" y="190" width="2" height="530" fill="url(#barGradient)" filter="url(#shadow)"/>
    <rect x="824" y="188" width="2" height="532" fill="url(#barGradient)" filter="url(#shadow)"/>
    <rect x="827" y="186" width="2" height="534" fill="url(#barGradient)" filter="url(#shadow)"/>
    <rect x="830" y="184" width="2" height="536" fill="url(#barGradient)" filter="url(#shadow)"/>
    <rect x="833" y="181" width="2" height="539" fill="url(#barGradient)" filter="url(#shadow)"/>
    <rect x="836" y="179" width="2" height="541" fill="url(#barGradient)" filter="url(#shadow)"/>
    <rect x="839" y="177" width="2" height="543" fill="url(#barGradient)" filter="url(#shadow)"/>
    <rect x="842" y="175" width="2" height="545" fill="url(#barGradient)" filter="url(#shadow)"/>
    <rect x="845" y="173" width="2" height="547" fill="url(#barGradient)" filter="url(#shadow)"/>
    <rect x="848" y="171" width="2" height="549" fill="url(#barGradient)" filter="url(#shadow)"/>
    <rect x="851" y="169" width="2" height="551" fill="url(#barGradient)" filter="url(#shadow)"/>
    <rect x="854" y="166" width="2" height="554" fill="url(#barGradient)" filter="url(#shadow)"/>
    <rect x="857" y="164" width="2" height="556" fill="url(#barGradient)" filter="url(#shadow)"/>
    <rect x="860" y="162" width="2" height="558" fill="url(#barGradient)" filter="url(#shadow)"/>
    <rect x="863" y="160" width="2" height="560" fill="url(#barGradient)" filter="url(#shadow)"/>
    <rect x="866" y="158" width="2" height="562" fill="url(#barGradient)" filter="url(#shadow)"/>
    <rect x="869" y="156" width="2" height="564" fill="url(#barGradient)" filter="url(#shadow)"/>
    <rect x="872" y="154" width="2" height="566" fill="url(#barGradient)" filter="url(#shadow)"/>
    <rect x="875" y="151" width="2" height="569" fill="url(#barGradient)" filter="url(#shadow)"/>
    <rect x="878" y="149" width="2" height="571" fill="url(#barGradient)" filter="url(#shadow)"/>
    <rect x="881" y="147" width="2" height="573" fill="url(#barGradient)" filter="url(#shadow)"/>
    <rect x="884" y="145" width="2" height="575" fill="url(#barGradient)" filter="url(#shadow)"/>
    <rect x="887" y="143" width="2" height="577" fill="url(#barGradient)" filter="url(#shadow)"/>
    <rect x="890" y="141" width="2" height="579" fill="url(#barGradient)" filter="url(#shadow)"/>
    <rect x="893" y="138" width="2" height="582" fill="url(#barGradient)" filter="url(#shadow)"/>
    <rect x="896" y="136" width="2" height="584" fill="url(#barGradient)" filter="url(#shadow)"/>
    <rect x="899" y="134" width="2" height="586" fill="url(#barGradient)" filter="url(#shadow)"/>
    <rect x="902" y="132" width="2" height="588" fill="url(#barGradient)" filter="url(#shadow)"/>
    <rect x="905" y="130" width="2" height="590" fill="url(#barGradient)" filter="url(#shadow)"/>
    <rect x="908" y="128" width="2" height="592" fill="url(#barGradient)" filter="url(#shadow)"/>
    <rect x="911" y="126" width="2" height="594" fill="url(#barGradient)" filter="url(#shadow)"/>
    <rect x="914" y="123" width="2" height="597" fill="url(#barGradient)" filter="url(#shadow)"/>
    <rect x="917" y="121" width="2" height="599" fill="url(#barGradient)" filter="url(#shadow)"/>
    <rect x="920" y="119" width="2" height="601" fill="url(#barGradient)" filter="url(#shadow)"/>
    <rect x="923" y="117" width="2" height="603" fill="url(#barGradient)" filter="url(#shadow)"/>
    <rect x="926" y="115" width="2" height="605" fill="url(#barGradient)" filter="url(#shadow)"/>
    <rect x="929" y="113" width="2" height="607" fill="url(#barGradient)" filter="url(#shadow)"/>
    <rect x="932" y="111" width="2" height="609" fill="url(#barGradient)" filter="url(#shadow)"/>
    <rect x="935" y="108" width="2" height="612" fill="url(#barGradient)" filter="url(#shadow)"/>
    <rect x="938" y="106" width="2" height="614" fill="url(#barGradient)" filter="url(#shadow)"/>
    <rect x="941" y="104" width="2" height="616" fill="url(#barGradient)" filter="url(#shadow)"/>
    <rect x="944" y="102" width="2" height="618" fill="url(#barGradient)" filter="url(#shadow)"/>
    <rect x="947" y="100" width="2" height="620" fill="url(#barGradient)" filter="url(#shadow)"/>
    <rect x="950" y="98" width="2" height="622" fill="url(#barGradient)" filter="url(#shadow)"/>
    <rect x="953" y="96" width="2" height="624" fill="url(#barGradient)" filter="url(#shadow)"/>
    <rect x="956" y="93" width="2" height="627" fill="url(#barGradient)" filter="url(#shadow)"/>
    <rect x="959" y="91" width="2" height="629" fill="url(#barGradient)" filter="url(#shadow)"/>
    <rect x="962" y="89" width="2" height="631" fill="url(#barGradient)" filter="url(#shadow)"/>
    <rect x="965" y="87" width="2" height="633" fill="url(#barGradient)" filter="url(#shadow)"/>
    <rect x="968" y="85" width="2" height="635" fill="url(#barGradient)" filter="url(#shadow)"/>
    <rect x="971" y="83" width="2" height="637" fill="url(#barGradient)" filter="url(#shadow)"/>
    <rect x="974" y="80" width="2" height="640" fill="url(#barGradient)" filter="url(#shadow)"/>
    <rect x="977" y="398" width="2" height="322" fill="url(#barGradient)" filter="url(#shadow)"/>
        <text x="530" y="40" font-family="Arial" font-size="24" text-anchor="middle" fill="#212121">
            PushMiddle Distribution
        </text>
        <text x="530" y="790" font-family="Arial" font-size="14" text-anchor="middle" fill="#757575">
            Index
        </text>
        <text x="30" y="400" font-family="Arial" font-size="14" text-anchor="middle" 
            transform="rotate(-90,30,400)" fill="#757575">
            Value
        </text><rect x="760" y="10" width="150" height="90" fill="white" rx="5" filter="url(#shadow)"/><text x="780" y="35" font-family="Arial" font-size="12" fill="#757575">Minimum: 0</text><text x="780" y="55" font-family="Arial" font-size="12" fill="#757575">Maximum: 298</text><text x="780" y="75" font-family="Arial" font-size="12" fill="#757575">Average: 149</text></svg>