<?xml version="1.0" encoding="UTF-8"?>
<svg width="1060" height="800" viewBox="0 0 1060 800" xmlns="http://www.w3.org/2000/svg">
  <defs>
    <radialGradient id="bgGradient" cx="50%" cy="50%" r="75%">
      <stop offset="0%" stop-color="#ffffff"/>
      <stop offset="100%" stop-color="#e0e0e0"/>
    </radialGradient>
    <filter id="shadow" x="-20%" y="-20%" width="140%" height="140%">
      <feDropShadow dx="3" dy="3" stdDeviation="3" flood-color="#999" flood-opacity="0.4"/>
    </filter>
    <linearGradient id="barGradient" x1="0" x2="0" y1="0" y2="1">
      <stop offset="0%" stop-color="#1976D2"/>
      <stop offset="100%" stop-color="#2196F3"/>
    </linearGradient>
    <style type="text/css">
      <![CDATA[
        .axis { fill: none; stroke: #424242; stroke-width: 2; }
        .grid { stroke: #cfcfcf; stroke-width: 1; }
        .label { font-family: "Segoe UI", Arial, sans-serif; fill: #424242; }
        .title { font-size: 28px; font-weight: bold; }
        .tick { font-size: 12px; }
      ]]>
    </style>
  </defs>
  <rect width="100%" height="100%" fill="url(#bgGradient)" />

  <line x1="80" y1="80" x2="980" y2="80" class="grid" />
  <text x="70" y="80" class="label tick" text-anchor="end" dy="4">2141732610</text>
  <line x1="80" y1="144" x2="980" y2="144" class="grid" />
  <text x="70" y="144" class="label tick" text-anchor="end" dy="4">1927559349</text>
  <line x1="80" y1="208" x2="980" y2="208" class="grid" />
  <text x="70" y="208" class="label tick" text-anchor="end" dy="4">1713386088</text>
  <line x1="80" y1="272" x2="980" y2="272" class="grid" />
  <text x="70" y="272" class="label tick" text-anchor="end" dy="4">1499212827</text>
  <line x1="80" y1="336" x2="980" y2="336" class="grid" />
  <text x="70" y="336" class="label tick" text-anchor="end" dy="4">1285039566</text>
  <line x1="80" y1="400" x2="980" y2="400" class="grid" />
  <text x="70" y="400" class="label tick" text-anchor="end" dy="4">1070866305</text>
  <line x1="80" y1="464" x2="980" y2="464" class="grid" />
  <text x="70" y="464" class="label tick" text-anchor="end" dy="4">856693044</text>
  <line x1="80" y1="528" x2="980" y2="528" class="grid" />
  <text x="70" y="528" class="label tick" text-anchor="end" dy="4">642519783</text>
  <line x1="80" y1="592" x2="980" y2="592" class="grid" />
  <text x="70" y="592" class="label tick" text-anchor="end" dy="4">428346522</text>
  <line x1="80" y1="656" x2="980" y2="656" class="grid" />
  <text x="70" y="656" class="label tick" text-anchor="end" dy="4">214173261</text>
  <line x1="80" y1="720" x2="980" y2="720" class="grid" />
  <text x="70" y="720" class="label tick" text-anchor="end" dy="4">0</text>
  <line x1="80" y1="720" x2="80" y2="725" class="grid" />
  <text x="80" y="725" class="label tick" text-anchor="middle" dy="15">0</text>
  <line x1="170" y1="720" x2="170" y2="725" class="grid" />
  <text x="170" y="725" class="label tick" text-anchor="middle" dy="15">30</text>
  <line x1="260" y1="720" x2="260" y2="725" class="grid" />
  <text x="260" y="725" class="label tick" text-anchor="middle" dy="15">60</text>
  <line x1="350" y1="720" x2="350" y2="725" class="grid" />
  <text x="350" y="725" class="label tick" text-anchor="middle" dy="15">90</text>
  <line x1="440" y1="720" x2="440" y2="725" class="grid" />
  <text x="440" y="725" class="label tick" text-anchor="middle" dy="15">120</text>
  <line x1="530" y1="720" x2="530" y2="725" class="grid" />
  <text x="530" y="725" class="label tick" text-anchor="middle" dy="15">150</text>
  <line x1="620" y1="720" x2="620" y2="725" class="grid" />
  <text x="620" y="725" class="label tick" text-anchor="middle" dy="15">180</text>
  <line x1="710" y1="720" x2="710" y2="725" class="grid" />
  <text x="710" y="725" class="label tick" text-anchor="middle" dy="15">210</text>
  <line x1="800" y1="720" x2="800" y2="725" class="grid" />
  <text x="800" y="725" class="label tick" text-anchor="middle" dy="15">240</text>
  <line x1="890" y1="720" x2="890" y2="725" class="grid" />
  <text x="890" y="725" class="label tick" text-anchor="middle" dy="15">270</text>
  <line x1="980" y1="720" x2="980" y2="725" class="grid" />
  <text x="980" y="725" class="label tick" text-anchor="middle" dy="15">300</text>
  <line x1="80" y1="720" x2="980" y2="720" class="axis"/>
  <line x1="80" y1="80" x2="80" y2="720" class="axis"/>
  <rect x="80" y="481" width="2" height="239" fill="url(#barGradient)" filter="url(#shadow)" />
  <rect x="83" y="678" width="2" height="42" fill="url(#barGradient)" filter="url(#shadow)" />
  <rect x="86" y="333" width="2" height="387" fill="url(#barGradient)" filter="url(#shadow)" />
  <rect x="89" y="586" width="2" height="134" fill="url(#barGradient)" filter="url(#shadow)" />
  <rect x="92" y="692" width="2" height="28" fill="url(#barGradient)" filter="url(#shadow)" />
  <rect x="95" y="475" width="2" height="245" fill="url(#barGradient)" filter="url(#shadow)" />
  <rect x="98" y="199" width="2" height="521" fill="url(#barGradient)" filter="url(#shadow)" />
  <rect x="101" y="474" width="2" height="246" fill="url(#barGradient)" filter="url(#shadow)" />
  <rect x="104" y="475" width="2" height="245" fill="url(#barGradient)" filter="url(#shadow)" />
  <rect x="107" y="306" width="2" height="414" fill="url(#barGradient)" filter="url(#shadow)" />
  <rect x="110" y="248" width="2" height="472" fill="url(#barGradient)" filter="url(#shadow)" />
  <rect x="113" y="581" width="2" height="139" fill="url(#barGradient)" filter="url(#shadow)" />
  <rect x="116" y="488" width="2" height="232" fill="url(#barGradient)" filter="url(#shadow)" />
  <rect x="119" y="643" width="2" height="77" fill="url(#barGradient)" filter="url(#shadow)" />
  <rect x="122" y="294" width="2" height="426" fill="url(#barGradient)" filter="url(#shadow)" />
  <rect x="125" y="421" width="2" height="299" fill="url(#barGradient)" filter="url(#shadow)" />
  <rect x="128" y="263" width="2" height="457" fill="url(#barGradient)" filter="url(#shadow)" />
  <rect x="131" y="261" width="2" height="459" fill="url(#barGradient)" filter="url(#shadow)" />
  <rect x="134" y="116" width="2" height="604" fill="url(#barGradient)" filter="url(#shadow)" />
  <rect x="137" y="98" width="2" height="622" fill="url(#barGradient)" filter="url(#shadow)" />
  <rect x="140" y="644" width="2" height="76" fill="url(#barGradient)" filter="url(#shadow)" />
  <rect x="143" y="502" width="2" height="218" fill="url(#barGradient)" filter="url(#shadow)" />
  <rect x="146" y="537" width="2" height="183" fill="url(#barGradient)" filter="url(#shadow)" />
  <rect x="149" y="575" width="2" height="145" fill="url(#barGradient)" filter="url(#shadow)" />
  <rect x="152" y="302" width="2" height="418" fill="url(#barGradient)" filter="url(#shadow)" />
  <rect x="155" y="694" width="2" height="26" fill="url(#barGradient)" filter="url(#shadow)" />
  <rect x="158" y="126" width="2" height="594" fill="url(#barGradient)" filter="url(#shadow)" />
  <rect x="161" y="637" width="2" height="83" fill="url(#barGradient)" filter="url(#shadow)" />
  <rect x="164" y="431" width="2" height="289" fill="url(#barGradient)" filter="url(#shadow)" />
  <rect x="167" y="585" width="2" height="135" fill="url(#barGradient)" filter="url(#shadow)" />
  <rect x="170" y="485" width="2" height="235" fill="url(#barGradient)" filter="url(#shadow)" />
  <rect x="173" y="257" width="2" height="463" fill="url(#barGradient)" filter="url(#shadow)" />
  <rect x="176" y="148" width="2" height="572" fill="url(#barGradient)" filter="url(#shadow)" />
  <rect x="179" y="80" width="2" height="640" fill="url(#barGradient)" filter="url(#shadow)" />
  <rect x="182" y="675" width="2" height="45" fill="url(#barGradient)" filter="url(#shadow)" />
  <rect x="185" y="96" width="2" height="624" fill="url(#barGradient)" filter="url(#shadow)" />
  <rect x="188" y="119" width="2" height="601" fill="url(#barGradient)" filter="url(#shadow)" />
  <rect x="191" y="171" width="2" height="549" fill="url(#barGradient)" filter="url(#shadow)" />
  <rect x="194" y="623" width="2" height="97" fill="url(#barGradient)" filter="url(#shadow)" />
  <rect x="197" y="318" width="2" height="402" fill="url(#barGradient)" filter="url(#shadow)" />
  <rect x="200" y="244" width="2" height="476" fill="url(#barGradient)" filter="url(#shadow)" />
  <rect x="203" y="235" width="2" height="485" fill="url(#barGradient)" filter="url(#shadow)" />
  <rect x="206" y="557" width="2" height="163" fill="url(#barGradient)" filter="url(#shadow)" />
  <rect x="209" y="684" width="2" height="36" fill="url(#barGradient)" filter="url(#shadow)" />
  <rect x="212" y="268" width="2" height="452" fill="url(#barGradient)" filter="url(#shadow)" />
  <rect x="215" y="354" width="2" height="366" fill="url(#barGradient)" filter="url(#shadow)" />
  <rect x="218" y="185" width="2" height="535" fill="url(#barGradient)" filter="url(#shadow)" />
  <rect x="221" y="372" width="2" height="348" fill="url(#barGradient)" filter="url(#shadow)" />
  <rect x="224" y="363" width="2" height="357" fill="url(#barGradient)" filter="url(#shadow)" />
  <rect x="227" y="214" width="2" height="506" fill="url(#barGradient)" filter="url(#shadow)" />
  <rect x="230" y="601" width="2" height="119" fill="url(#barGradient)" filter="url(#shadow)" />
  <rect x="233" y="607" width="2" height="113" fill="url(#barGradient)" filter="url(#shadow)" />
  <rect x="236" y="118" width="2" height="602" fill="url(#barGradient)" filter="url(#shadow)" />
  <rect x="239" y="211" width="2" height="509" fill="url(#barGradient)" filter="url(#shadow)" />
  <rect x="242" y="379" width="2" height="341" fill="url(#barGradient)" filter="url(#shadow)" />
  <rect x="245" y="570" width="2" height="150" fill="url(#barGradient)" filter="url(#shadow)" />
  <rect x="248" y="430" width="2" height="290" fill="url(#barGradient)" filter="url(#shadow)" />
  <rect x="251" y="538" width="2" height="182" fill="url(#barGradient)" filter="url(#shadow)" />
  <rect x="254" y="695" width="2" height="25" fill="url(#barGradient)" filter="url(#shadow)" />
  <rect x="257" y="554" width="2" height="166" fill="url(#barGradient)" filter="url(#shadow)" />
  <rect x="260" y="134" width="2" height="586" fill="url(#barGradient)" filter="url(#shadow)" />
  <rect x="263" y="281" width="2" height="439" fill="url(#barGradient)" filter="url(#shadow)" />
  <rect x="266" y="613" width="2" height="107" fill="url(#barGradient)" filter="url(#shadow)" />
  <rect x="269" y="255" width="2" height="465" fill="url(#barGradient)" filter="url(#shadow)" />
  <rect x="272" y="682" width="2" height="38" fill="url(#barGradient)" filter="url(#shadow)" />
  <rect x="275" y="529" width="2" height="191" fill="url(#barGradient)" filter="url(#shadow)" />
  <rect x="278" y="525" width="2" height="195" fill="url(#barGradient)" filter="url(#shadow)" />
  <rect x="281" y="350" width="2" height="370" fill="url(#barGradient)" filter="url(#shadow)" />
  <rect x="284" y="144" width="2" height="576" fill="url(#barGradient)" filter="url(#shadow)" />
  <rect x="287" y="164" width="2" height="556" fill="url(#barGradient)" filter="url(#shadow)" />
  <rect x="290" y="558" width="2" height="162" fill="url(#barGradient)" filter="url(#shadow)" />
  <rect x="293" y="272" width="2" height="448" fill="url(#barGradient)" filter="url(#shadow)" />
  <rect x="296" y="429" width="2" height="291" fill="url(#barGradient)" filter="url(#shadow)" />
  <rect x="299" y="149" width="2" height="571" fill="url(#barGradient)" filter="url(#shadow)" />
  <rect x="302" y="311" width="2" height="409" fill="url(#barGradient)" filter="url(#shadow)" />
  <rect x="305" y="373" width="2" height="347" fill="url(#barGradient)" filter="url(#shadow)" />
  <rect x="308" y="433" width="2" height="287" fill="url(#barGradient)" filter="url(#shadow)" />
  <rect x="311" y="657" width="2" height="63" fill="url(#barGradient)" filter="url(#shadow)" />
  <rect x="314" y="412" width="2" height="308" fill="url(#barGradient)" filter="url(#shadow)" />
  <rect x="317" y="159" width="2" height="561" fill="url(#barGradient)" filter="url(#shadow)" />
  <rect x="320" y="134" width="2" height="586" fill="url(#barGradient)" filter="url(#shadow)" />
  <rect x="323" y="102" width="2" height="618" fill="url(#barGradient)" filter="url(#shadow)" />
  <rect x="326" y="545" width="2" height="175" fill="url(#barGradient)" filter="url(#shadow)" />
  <rect x="329" y="249" width="2" height="471" fill="url(#barGradient)" filter="url(#shadow)" />
  <rect x="332" y="436" width="2" height="284" fill="url(#barGradient)" filter="url(#shadow)" />
  <rect x="335" y="267" width="2" height="453" fill="url(#barGradient)" filter="url(#shadow)" />
  <rect x="338" y="195" width="2" height="525" fill="url(#barGradient)" filter="url(#shadow)" />
  <rect x="341" y="620" width="2" height="100" fill="url(#barGradient)" filter="url(#shadow)" />
  <rect x="344" y="583" width="2" height="137" fill="url(#barGradient)" filter="url(#shadow)" />
  <rect x="347" y="211" width="2" height="509" fill="url(#barGradient)" filter="url(#shadow)" />
  <rect x="350" y="545" width="2" height="175" fill="url(#barGradient)" filter="url(#shadow)" />
  <rect x="353" y="83" width="2" height="637" fill="url(#barGradient)" filter="url(#shadow)" />
  <rect x="356" y="173" width="2" height="547" fill="url(#barGradient)" filter="url(#shadow)" />
  <rect x="359" y="595" width="2" height="125" fill="url(#barGradient)" filter="url(#shadow)" />
  <rect x="362" y="289" width="2" height="431" fill="url(#barGradient)" filter="url(#shadow)" />
  <rect x="365" y="381" width="2" height="339" fill="url(#barGradient)" filter="url(#shadow)" />
  <rect x="368" y="508" width="2" height="212" fill="url(#barGradient)" filter="url(#shadow)" />
  <rect x="371" y="110" width="2" height="610" fill="url(#barGradient)" filter="url(#shadow)" />
  <rect x="374" y="455" width="2" height="265" fill="url(#barGradient)" filter="url(#shadow)" />
  <rect x="377" y="349" width="2" height="371" fill="url(#barGradient)" filter="url(#shadow)" />
  <rect x="380" y="712" width="2" height="8" fill="url(#barGradient)" filter="url(#shadow)" />
  <rect x="383" y="90" width="2" height="630" fill="url(#barGradient)" filter="url(#shadow)" />
  <rect x="386" y="500" width="2" height="220" fill="url(#barGradient)" filter="url(#shadow)" />
  <rect x="389" y="631" width="2" height="89" fill="url(#barGradient)" filter="url(#shadow)" />
  <rect x="392" y="130" width="2" height="590" fill="url(#barGradient)" filter="url(#shadow)" />
  <rect x="395" y="132" width="2" height="588" fill="url(#barGradient)" filter="url(#shadow)" />
  <rect x="398" y="381" width="2" height="339" fill="url(#barGradient)" filter="url(#shadow)" />
  <rect x="401" y="509" width="2" height="211" fill="url(#barGradient)" filter="url(#shadow)" />
  <rect x="404" y="245" width="2" height="475" fill="url(#barGradient)" filter="url(#shadow)" />
  <rect x="407" y="311" width="2" height="409" fill="url(#barGradient)" filter="url(#shadow)" />
  <rect x="410" y="483" width="2" height="237" fill="url(#barGradient)" filter="url(#shadow)" />
  <rect x="413" y="301" width="2" height="419" fill="url(#barGradient)" filter="url(#shadow)" />
  <rect x="416" y="622" width="2" height="98" fill="url(#barGradient)" filter="url(#shadow)" />
  <rect x="419" y="559" width="2" height="161" fill="url(#barGradient)" filter="url(#shadow)" />
  <rect x="422" y="191" width="2" height="529" fill="url(#barGradient)" filter="url(#shadow)" />
  <rect x="425" y="246" width="2" height="474" fill="url(#barGradient)" filter="url(#shadow)" />
  <rect x="428" y="512" width="2" height="208" fill="url(#barGradient)" filter="url(#shadow)" />
  <rect x="431" y="720" width="2" height="0" fill="url(#barGradient)" filter="url(#shadow)" />
  <rect x="434" y="650" width="2" height="70" fill="url(#barGradient)" filter="url(#shadow)" />
  <rect x="437" y="180" width="2" height="540" fill="url(#barGradient)" filter="url(#shadow)" />
  <rect x="440" y="604" width="2" height="116" fill="url(#barGradient)" filter="url(#shadow)" />
  <rect x="443" y="667" width="2" height="53" fill="url(#barGradient)" filter="url(#shadow)" />
  <rect x="446" y="141" width="2" height="579" fill="url(#barGradient)" filter="url(#shadow)" />
  <rect x="449" y="280" width="2" height="440" fill="url(#barGradient)" filter="url(#shadow)" />
  <rect x="452" y="582" width="2" height="138" fill="url(#barGradient)" filter="url(#shadow)" />
  <rect x="455" y="84" width="2" height="636" fill="url(#barGradient)" filter="url(#shadow)" />
  <rect x="458" y="679" width="2" height="41" fill="url(#barGradient)" filter="url(#shadow)" />
  <rect x="461" y="444" width="2" height="276" fill="url(#barGradient)" filter="url(#shadow)" />
  <rect x="464" y="649" width="2" height="71" fill="url(#barGradient)" filter="url(#shadow)" />
  <rect x="467" y="124" width="2" height="596" fill="url(#barGradient)" filter="url(#shadow)" />
  <rect x="470" y="367" width="2" height="353" fill="url(#barGradient)" filter="url(#shadow)" />
  <rect x="473" y="411" width="2" height="309" fill="url(#barGradient)" filter="url(#shadow)" />
  <rect x="476" y="628" width="2" height="92" fill="url(#barGradient)" filter="url(#shadow)" />
  <rect x="479" y="559" width="2" height="161" fill="url(#barGradient)" filter="url(#shadow)" />
  <rect x="482" y="125" width="2" height="595" fill="url(#barGradient)" filter="url(#shadow)" />
  <rect x="485" y="474" width="2" height="246" fill="url(#barGradient)" filter="url(#shadow)" />
  <rect x="488" y="567" width="2" height="153" fill="url(#barGradient)" filter="url(#shadow)" />
  <rect x="491" y="620" width="2" height="100" fill="url(#barGradient)" filter="url(#shadow)" />
  <rect x="494" y="248" width="2" height="472" fill="url(#barGradient)" filter="url(#shadow)" />
  <rect x="497" y="621" width="2" height="99" fill="url(#barGradient)" filter="url(#shadow)" />
  <rect x="500" y="300" width="2" height="420" fill="url(#barGradient)" filter="url(#shadow)" />
  <rect x="503" y="282" width="2" height="438" fill="url(#barGradient)" filter="url(#shadow)" />
  <rect x="506" y="356" width="2" height="364" fill="url(#barGradient)" filter="url(#shadow)" />
  <rect x="509" y="453" width="2" height="267" fill="url(#barGradient)" filter="url(#shadow)" />
  <rect x="512" y="704" width="2" height="16" fill="url(#barGradient)" filter="url(#shadow)" />
  <rect x="515" y="119" width="2" height="601" fill="url(#barGradient)" filter="url(#shadow)" />
  <rect x="518" y="269" width="2" height="451" fill="url(#barGradient)" filter="url(#shadow)" />
  <rect x="521" y="178" width="2" height="542" fill="url(#barGradient)" filter="url(#shadow)" />
  <rect x="524" y="214" width="2" height="506" fill="url(#barGradient)" filter="url(#shadow)" />
  <rect x="527" y="649" width="2" height="71" fill="url(#barGradient)" filter="url(#shadow)" />
  <rect x="530" y="122" width="2" height="598" fill="url(#barGradient)" filter="url(#shadow)" />
  <rect x="533" y="448" width="2" height="272" fill="url(#barGradient)" filter="url(#shadow)" />
  <rect x="536" y="619" width="2" height="101" fill="url(#barGradient)" filter="url(#shadow)" />
  <rect x="539" y="423" width="2" height="297" fill="url(#barGradient)" filter="url(#shadow)" />
  <rect x="542" y="511" width="2" height="209" fill="url(#barGradient)" filter="url(#shadow)" />
  <rect x="545" y="311" width="2" height="409" fill="url(#barGradient)" filter="url(#shadow)" />
  <rect x="548" y="509" width="2" height="211" fill="url(#barGradient)" filter="url(#shadow)" />
  <rect x="551" y="451" width="2" height="269" fill="url(#barGradient)" filter="url(#shadow)" />
  <rect x="554" y="161" width="2" height="559" fill="url(#barGradient)" filter="url(#shadow)" />
  <rect x="557" y="681" width="2" height="39" fill="url(#barGradient)" filter="url(#shadow)" />
  <rect x="560" y="395" width="2" height="325" fill="url(#barGradient)" filter="url(#shadow)" />
  <rect x="563" y="413" width="2" height="307" fill="url(#barGradient)" filter="url(#shadow)" />
  <rect x="566" y="152" width="2" height="568" fill="url(#barGradient)" filter="url(#shadow)" />
  <rect x="569" y="483" width="2" height="237" fill="url(#barGradient)" filter="url(#shadow)" />
  <rect x="572" y="135" width="2" height="585" fill="url(#barGradient)" filter="url(#shadow)" />
  <rect x="575" y="394" width="2" height="326" fill="url(#barGradient)" filter="url(#shadow)" />
  <rect x="578" y="416" width="2" height="304" fill="url(#barGradient)" filter="url(#shadow)" />
  <rect x="581" y="214" width="2" height="506" fill="url(#barGradient)" filter="url(#shadow)" />
  <rect x="584" y="329" width="2" height="391" fill="url(#barGradient)" filter="url(#shadow)" />
  <rect x="587" y="383" width="2" height="337" fill="url(#barGradient)" filter="url(#shadow)" />
  <rect x="590" y="518" width="2" height="202" fill="url(#barGradient)" filter="url(#shadow)" />
  <rect x="593" y="190" width="2" height="530" fill="url(#barGradient)" filter="url(#shadow)" />
  <rect x="596" y="356" width="2" height="364" fill="url(#barGradient)" filter="url(#shadow)" />
  <rect x="599" y="181" width="2" height="539" fill="url(#barGradient)" filter="url(#shadow)" />
  <rect x="602" y="252" width="2" height="468" fill="url(#barGradient)" filter="url(#shadow)" />
  <rect x="605" y="212" width="2" height="508" fill="url(#barGradient)" filter="url(#shadow)" />
  <rect x="608" y="453" width="2" height="267" fill="url(#barGradient)" filter="url(#shadow)" />
  <rect x="611" y="558" width="2" height="162" fill="url(#barGradient)" filter="url(#shadow)" />
  <rect x="614" y="378" width="2" height="342" fill="url(#barGradient)" filter="url(#shadow)" />
  <rect x="617" y="158" width="2" height="562" fill="url(#barGradient)" filter="url(#shadow)" />
  <rect x="620" y="251" width="2" height="469" fill="url(#barGradient)" filter="url(#shadow)" />
  <rect x="623" y="646" width="2" height="74" fill="url(#barGradient)" filter="url(#shadow)" />
  <rect x="626" y="519" width="2" height="201" fill="url(#barGradient)" filter="url(#shadow)" />
  <rect x="629" y="342" width="2" height="378" fill="url(#barGradient)" filter="url(#shadow)" />
  <rect x="632" y="491" width="2" height="229" fill="url(#barGradient)" filter="url(#shadow)" />
  <rect x="635" y="150" width="2" height="570" fill="url(#barGradient)" filter="url(#shadow)" />
  <rect x="638" y="637" width="2" height="83" fill="url(#barGradient)" filter="url(#shadow)" />
  <rect x="641" y="139" width="2" height="581" fill="url(#barGradient)" filter="url(#shadow)" />
  <rect x="644" y="646" width="2" height="74" fill="url(#barGradient)" filter="url(#shadow)" />
  <rect x="647" y="685" width="2" height="35" fill="url(#barGradient)" filter="url(#shadow)" />
  <rect x="650" y="603" width="2" height="117" fill="url(#barGradient)" filter="url(#shadow)" />
  <rect x="653" y="633" width="2" height="87" fill="url(#barGradient)" filter="url(#shadow)" />
  <rect x="656" y="584" width="2" height="136" fill="url(#barGradient)" filter="url(#shadow)" />
  <rect x="659" y="574" width="2" height="146" fill="url(#barGradient)" filter="url(#shadow)" />
  <rect x="662" y="532" width="2" height="188" fill="url(#barGradient)" filter="url(#shadow)" />
  <rect x="665" y="406" width="2" height="314" fill="url(#barGradient)" filter="url(#shadow)" />
  <rect x="668" y="90" width="2" height="630" fill="url(#barGradient)" filter="url(#shadow)" />
  <rect x="671" y="528" width="2" height="192" fill="url(#barGradient)" filter="url(#shadow)" />
  <rect x="674" y="464" width="2" height="256" fill="url(#barGradient)" filter="url(#shadow)" />
  <rect x="677" y="525" width="2" height="195" fill="url(#barGradient)" filter="url(#shadow)" />
  <rect x="680" y="707" width="2" height="13" fill="url(#barGradient)" filter="url(#shadow)" />
  <rect x="683" y="347" width="2" height="373" fill="url(#barGradient)" filter="url(#shadow)" />
  <rect x="686" y="587" width="2" height="133" fill="url(#barGradient)" filter="url(#shadow)" />
  <rect x="689" y="231" width="2" height="489" fill="url(#barGradient)" filter="url(#shadow)" />
  <rect x="692" y="243" width="2" height="477" fill="url(#barGradient)" filter="url(#shadow)" />
  <rect x="695" y="117" width="2" height="603" fill="url(#barGradient)" filter="url(#shadow)" />
  <rect x="698" y="348" width="2" height="372" fill="url(#barGradient)" filter="url(#shadow)" />
  <rect x="701" y="658" width="2" height="62" fill="url(#barGradient)" filter="url(#shadow)" />
  <rect x="704" y="269" width="2" height="451" fill="url(#barGradient)" filter="url(#shadow)" />
  <rect x="707" y="99" width="2" height="621" fill="url(#barGradient)" filter="url(#shadow)" />
  <rect x="710" y="293" width="2" height="427" fill="url(#barGradient)" filter="url(#shadow)" />
  <rect x="713" y="425" width="2" height="295" fill="url(#barGradient)" filter="url(#shadow)" />
  <rect x="716" y="109" width="2" height="611" fill="url(#barGradient)" filter="url(#shadow)" />
  <rect x="719" y="345" width="2" height="375" fill="url(#barGradient)" filter="url(#shadow)" />
  <rect x="722" y="523" width="2" height="197" fill="url(#barGradient)" filter="url(#shadow)" />
  <rect x="725" y="618" width="2" height="102" fill="url(#barGradient)" filter="url(#shadow)" />
  <rect x="728" y="175" width="2" height="545" fill="url(#barGradient)" filter="url(#shadow)" />
  <rect x="731" y="273" width="2" height="447" fill="url(#barGradient)" filter="url(#shadow)" />
  <rect x="734" y="607" width="2" height="113" fill="url(#barGradient)" filter="url(#shadow)" />
  <rect x="737" y="590" width="2" height="130" fill="url(#barGradient)" filter="url(#shadow)" />
  <rect x="740" y="543" width="2" height="177" fill="url(#barGradient)" filter="url(#shadow)" />
  <rect x="743" y="451" width="2" height="269" fill="url(#barGradient)" filter="url(#shadow)" />
  <rect x="746" y="158" width="2" height="562" fill="url(#barGradient)" filter="url(#shadow)" />
  <rect x="749" y="97" width="2" height="623" fill="url(#barGradient)" filter="url(#shadow)" />
  <rect x="752" y="529" width="2" height="191" fill="url(#barGradient)" filter="url(#shadow)" />
  <rect x="755" y="515" width="2" height="205" fill="url(#barGradient)" filter="url(#shadow)" />
  <rect x="758" y="209" width="2" height="511" fill="url(#barGradient)" filter="url(#shadow)" />
  <rect x="761" y="555" width="2" height="165" fill="url(#barGradient)" filter="url(#shadow)" />
  <rect x="764" y="695" width="2" height="25" fill="url(#barGradient)" filter="url(#shadow)" />
  <rect x="767" y="571" width="2" height="149" fill="url(#barGradient)" filter="url(#shadow)" />
  <rect x="770" y="462" width="2" height="258" fill="url(#barGradient)" filter="url(#shadow)" />
  <rect x="773" y="130" width="2" height="590" fill="url(#barGradient)" filter="url(#shadow)" />
  <rect x="776" y="183" width="2" height="537" fill="url(#barGradient)" filter="url(#shadow)" />
  <rect x="779" y="493" width="2" height="227" fill="url(#barGradient)" filter="url(#shadow)" />
  <rect x="782" y="666" width="2" height="54" fill="url(#barGradient)" filter="url(#shadow)" />
  <rect x="785" y="681" width="2" height="39" fill="url(#barGradient)" filter="url(#shadow)" />
  <rect x="788" y="647" width="2" height="73" fill="url(#barGradient)" filter="url(#shadow)" />
  <rect x="791" y="356" width="2" height="364" fill="url(#barGradient)" filter="url(#shadow)" />
  <rect x="794" y="682" width="2" height="38" fill="url(#barGradient)" filter="url(#shadow)" />
  <rect x="797" y="633" width="2" height="87" fill="url(#barGradient)" filter="url(#shadow)" />
  <rect x="800" y="391" width="2" height="329" fill="url(#barGradient)" filter="url(#shadow)" />
  <rect x="803" y="515" width="2" height="205" fill="url(#barGradient)" filter="url(#shadow)" />
  <rect x="806" y="574" width="2" height="146" fill="url(#barGradient)" filter="url(#shadow)" />
  <rect x="809" y="187" width="2" height="533" fill="url(#barGradient)" filter="url(#shadow)" />
  <rect x="812" y="158" width="2" height="562" fill="url(#barGradient)" filter="url(#shadow)" />
  <rect x="815" y="111" width="2" height="609" fill="url(#barGradient)" filter="url(#shadow)" />
  <rect x="818" y="170" width="2" height="550" fill="url(#barGradient)" filter="url(#shadow)" />
  <rect x="821" y="96" width="2" height="624" fill="url(#barGradient)" filter="url(#shadow)" />
  <rect x="824" y="289" width="2" height="431" fill="url(#barGradient)" filter="url(#shadow)" />
  <rect x="827" y="96" width="2" height="624" fill="url(#barGradient)" filter="url(#shadow)" />
  <rect x="830" y="409" width="2" height="311" fill="url(#barGradient)" filter="url(#shadow)" />
  <rect x="833" y="384" width="2" height="336" fill="url(#barGradient)" filter="url(#shadow)" />
  <rect x="836" y="94" width="2" height="626" fill="url(#barGradient)" filter="url(#shadow)" />
  <rect x="839" y="522" width="2" height="198" fill="url(#barGradient)" filter="url(#shadow)" />
  <rect x="842" y="188" width="2" height="532" fill="url(#barGradient)" filter="url(#shadow)" />
  <rect x="845" y="602" width="2" height="118" fill="url(#barGradient)" filter="url(#shadow)" />
  <rect x="848" y="599" width="2" height="121" fill="url(#barGradient)" filter="url(#shadow)" />
  <rect x="851" y="265" width="2" height="455" fill="url(#barGradient)" filter="url(#shadow)" />
  <rect x="854" y="489" width="2" height="231" fill="url(#barGradient)" filter="url(#shadow)" />
  <rect x="857" y="311" width="2" height="409" fill="url(#barGradient)" filter="url(#shadow)" />
  <rect x="860" y="110" width="2" height="610" fill="url(#barGradient)" filter="url(#shadow)" />
  <rect x="863" y="495" width="2" height="225" fill="url(#barGradient)" filter="url(#shadow)" />
  <rect x="866" y="707" width="2" height="13" fill="url(#barGradient)" filter="url(#shadow)" />
  <rect x="869" y="601" width="2" height="119" fill="url(#barGradient)" filter="url(#shadow)" />
  <rect x="872" y="263" width="2" height="457" fill="url(#barGradient)" filter="url(#shadow)" />
  <rect x="875" y="618" width="2" height="102" fill="url(#barGradient)" filter="url(#shadow)" />
  <rect x="878" y="697" width="2" height="23" fill="url(#barGradient)" filter="url(#shadow)" />
  <rect x="881" y="171" width="2" height="549" fill="url(#barGradient)" filter="url(#shadow)" />
  <rect x="884" y="594" width="2" height="126" fill="url(#barGradient)" filter="url(#shadow)" />
  <rect x="887" y="188" width="2" height="532" fill="url(#barGradient)" filter="url(#shadow)" />
  <rect x="890" y="612" width="2" height="108" fill="url(#barGradient)" filter="url(#shadow)" />
  <rect x="893" y="351" width="2" height="369" fill="url(#barGradient)" filter="url(#shadow)" />
  <rect x="896" y="498" width="2" height="222" fill="url(#barGradient)" filter="url(#shadow)" />
  <rect x="899" y="180" width="2" height="540" fill="url(#barGradient)" filter="url(#shadow)" />
  <rect x="902" y="572" width="2" height="148" fill="url(#barGradient)" filter="url(#shadow)" />
  <rect x="905" y="524" width="2" height="196" fill="url(#barGradient)" filter="url(#shadow)" />
  <rect x="908" y="434" width="2" height="286" fill="url(#barGradient)" filter="url(#shadow)" />
  <rect x="911" y="84" width="2" height="636" fill="url(#barGradient)" filter="url(#shadow)" />
  <rect x="914" y="634" width="2" height="86" fill="url(#barGradient)" filter="url(#shadow)" />
  <rect x="917" y="621" width="2" height="99" fill="url(#barGradient)" filter="url(#shadow)" />
  <rect x="920" y="632" width="2" height="88" fill="url(#barGradient)" filter="url(#shadow)" />
  <rect x="923" y="421" width="2" height="299" fill="url(#barGradient)" filter="url(#shadow)" />
  <rect x="926" y="245" width="2" height="475" fill="url(#barGradient)" filter="url(#shadow)" />
  <rect x="929" y="103" width="2" height="617" fill="url(#barGradient)" filter="url(#shadow)" />
  <rect x="932" y="537" width="2" height="183" fill="url(#barGradient)" filter="url(#shadow)" />
  <rect x="935" y="358" width="2" height="362" fill="url(#barGradient)" filter="url(#shadow)" />
  <rect x="938" y="258" width="2" height="462" fill="url(#barGradient)" filter="url(#shadow)" />
  <rect x="941" y="416" width="2" height="304" fill="url(#barGradient)" filter="url(#shadow)" />
  <rect x="944" y="535" width="2" height="185" fill="url(#barGradient)" filter="url(#shadow)" />
  <rect x="947" y="558" width="2" height="162" fill="url(#barGradient)" filter="url(#shadow)" />
  <rect x="950" y="531" width="2" height="189" fill="url(#barGradient)" filter="url(#shadow)" />
  <rect x="953" y="658" width="2" height="62" fill="url(#barGradient)" filter="url(#shadow)" />
  <rect x="956" y="682" width="2" height="38" fill="url(#barGradient)" filter="url(#shadow)" />
  <rect x="959" y="197" width="2" height="523" fill="url(#barGradient)" filter="url(#shadow)" />
  <rect x="962" y="544" width="2" height="176" fill="url(#barGradient)" filter="url(#shadow)" />
  <rect x="965" y="559" width="2" height="161" fill="url(#barGradient)" filter="url(#shadow)" />
  <rect x="968" y="341" width="2" height="379" fill="url(#barGradient)" filter="url(#shadow)" />
  <rect x="971" y="600" width="2" height="120" fill="url(#barGradient)" filter="url(#shadow)" />
  <rect x="974" y="129" width="2" height="591" fill="url(#barGradient)" filter="url(#shadow)" />
  <rect x="977" y="186" width="2" height="534" fill="url(#barGradient)" filter="url(#shadow)" />
  <text x="530" y="40" class="label title" text-anchor="middle">Random Distribution</text>
  <text x="530" y="780" class="label" text-anchor="middle">Index</text>
  <text x="30" y="400" class="label" transform="rotate(-90,30,400)" text-anchor="middle">Value</text><rect x="760" y="10" rx="8" stroke="#b0b0b0" width="150" height="90" fill="white" filter="url(#shadow)"/><text x="780" y="35" font-family="Arial" font-size="12" fill="#757575">Minimum: 3030043</text><text x="780" y="55" font-family="Arial" font-size="12" fill="#757575">Maximum: 2141732610</text><text x="780" y="75" font-family="Arial" font-size="12" fill="#757575">Average: 1072202836</text></svg>