<?xml version="1.0" encoding="UTF-8"?>
<svg width="1060" height="800" xmlns="http://www.w3.org/2000/svg">
    <defs>
        <filter id="shadow" x="-20%" y="-20%" width="140%" height="140%">
            <feDropShadow dx="2" dy="2" stdDeviation="2" flood-opacity="0.1"/>
        </filter>
        <linearGradient id="barGradient" x1="0" x2="0" y1="0" y2="1">
            <stop offset="0%" stop-color="#1976D2"/>
            <stop offset="100%" stop-color="#2196F3"/>
        </linearGradient>
    </defs>
    <rect width="1060" height="800" fill="#fafafa"/>
    <line x1="80" y1="80" x2="980" y2="80" stroke="#e0e0e0" stroke-width="1"/>
    <line x1="80" y1="144" x2="980" y2="144" stroke="#e0e0e0" stroke-width="1"/>
    <line x1="80" y1="208" x2="980" y2="208" stroke="#e0e0e0" stroke-width="1"/>
    <line x1="80" y1="272" x2="980" y2="272" stroke="#e0e0e0" stroke-width="1"/>
    <line x1="80" y1="336" x2="980" y2="336" stroke="#e0e0e0" stroke-width="1"/>
    <line x1="80" y1="400" x2="980" y2="400" stroke="#e0e0e0" stroke-width="1"/>
    <line x1="80" y1="464" x2="980" y2="464" stroke="#e0e0e0" stroke-width="1"/>
    <line x1="80" y1="528" x2="980" y2="528" stroke="#e0e0e0" stroke-width="1"/>
    <line x1="80" y1="592" x2="980" y2="592" stroke="#e0e0e0" stroke-width="1"/>
    <line x1="80" y1="656" x2="980" y2="656" stroke="#e0e0e0" stroke-width="1"/>
    <line x1="80" y1="720" x2="980" y2="720" stroke="#e0e0e0" stroke-width="1"/>
    <rect x="80" y="720" width="2" height="0" fill="url(#barGradient)" filter="url(#shadow)"/>
    <rect x="83" y="718" width="2" height="2" fill="url(#barGradient)" filter="url(#shadow)"/>
    <rect x="86" y="716" width="2" height="4" fill="url(#barGradient)" filter="url(#shadow)"/>
    <rect x="89" y="714" width="2" height="6" fill="url(#barGradient)" filter="url(#shadow)"/>
    <rect x="92" y="712" width="2" height="8" fill="url(#barGradient)" filter="url(#shadow)"/>
    <rect x="95" y="709" width="2" height="11" fill="url(#barGradient)" filter="url(#shadow)"/>
    <rect x="98" y="707" width="2" height="13" fill="url(#barGradient)" filter="url(#shadow)"/>
    <rect x="101" y="705" width="2" height="15" fill="url(#barGradient)" filter="url(#shadow)"/>
    <rect x="104" y="703" width="2" height="17" fill="url(#barGradient)" filter="url(#shadow)"/>
    <rect x="107" y="701" width="2" height="19" fill="url(#barGradient)" filter="url(#shadow)"/>
    <rect x="110" y="698" width="2" height="22" fill="url(#barGradient)" filter="url(#shadow)"/>
    <rect x="113" y="701" width="2" height="19" fill="url(#barGradient)" filter="url(#shadow)"/>
    <rect x="116" y="703" width="2" height="17" fill="url(#barGradient)" filter="url(#shadow)"/>
    <rect x="119" y="705" width="2" height="15" fill="url(#barGradient)" filter="url(#shadow)"/>
    <rect x="122" y="707" width="2" height="13" fill="url(#barGradient)" filter="url(#shadow)"/>
    <rect x="125" y="709" width="2" height="11" fill="url(#barGradient)" filter="url(#shadow)"/>
    <rect x="128" y="712" width="2" height="8" fill="url(#barGradient)" filter="url(#shadow)"/>
    <rect x="131" y="714" width="2" height="6" fill="url(#barGradient)" filter="url(#shadow)"/>
    <rect x="134" y="716" width="2" height="4" fill="url(#barGradient)" filter="url(#shadow)"/>
    <rect x="137" y="718" width="2" height="2" fill="url(#barGradient)" filter="url(#shadow)"/>
    <rect x="140" y="676" width="2" height="44" fill="url(#barGradient)" filter="url(#shadow)"/>
    <rect x="143" y="674" width="2" height="46" fill="url(#barGradient)" filter="url(#shadow)"/>
    <rect x="146" y="672" width="2" height="48" fill="url(#barGradient)" filter="url(#shadow)"/>
    <rect x="149" y="670" width="2" height="50" fill="url(#barGradient)" filter="url(#shadow)"/>
    <rect x="152" y="668" width="2" height="52" fill="url(#barGradient)" filter="url(#shadow)"/>
    <rect x="155" y="665" width="2" height="55" fill="url(#barGradient)" filter="url(#shadow)"/>
    <rect x="158" y="663" width="2" height="57" fill="url(#barGradient)" filter="url(#shadow)"/>
    <rect x="161" y="661" width="2" height="59" fill="url(#barGradient)" filter="url(#shadow)"/>
    <rect x="164" y="659" width="2" height="61" fill="url(#barGradient)" filter="url(#shadow)"/>
    <rect x="167" y="656" width="2" height="64" fill="url(#barGradient)" filter="url(#shadow)"/>
    <rect x="170" y="654" width="2" height="66" fill="url(#barGradient)" filter="url(#shadow)"/>
    <rect x="173" y="656" width="2" height="64" fill="url(#barGradient)" filter="url(#shadow)"/>
    <rect x="176" y="659" width="2" height="61" fill="url(#barGradient)" filter="url(#shadow)"/>
    <rect x="179" y="661" width="2" height="59" fill="url(#barGradient)" filter="url(#shadow)"/>
    <rect x="182" y="663" width="2" height="57" fill="url(#barGradient)" filter="url(#shadow)"/>
    <rect x="185" y="665" width="2" height="55" fill="url(#barGradient)" filter="url(#shadow)"/>
    <rect x="188" y="668" width="2" height="52" fill="url(#barGradient)" filter="url(#shadow)"/>
    <rect x="191" y="670" width="2" height="50" fill="url(#barGradient)" filter="url(#shadow)"/>
    <rect x="194" y="672" width="2" height="48" fill="url(#barGradient)" filter="url(#shadow)"/>
    <rect x="197" y="674" width="2" height="46" fill="url(#barGradient)" filter="url(#shadow)"/>
    <rect x="200" y="632" width="2" height="88" fill="url(#barGradient)" filter="url(#shadow)"/>
    <rect x="203" y="630" width="2" height="90" fill="url(#barGradient)" filter="url(#shadow)"/>
    <rect x="206" y="628" width="2" height="92" fill="url(#barGradient)" filter="url(#shadow)"/>
    <rect x="209" y="626" width="2" height="94" fill="url(#barGradient)" filter="url(#shadow)"/>
    <rect x="212" y="623" width="2" height="97" fill="url(#barGradient)" filter="url(#shadow)"/>
    <rect x="215" y="621" width="2" height="99" fill="url(#barGradient)" filter="url(#shadow)"/>
    <rect x="218" y="619" width="2" height="101" fill="url(#barGradient)" filter="url(#shadow)"/>
    <rect x="221" y="617" width="2" height="103" fill="url(#barGradient)" filter="url(#shadow)"/>
    <rect x="224" y="615" width="2" height="105" fill="url(#barGradient)" filter="url(#shadow)"/>
    <rect x="227" y="612" width="2" height="108" fill="url(#barGradient)" filter="url(#shadow)"/>
    <rect x="230" y="610" width="2" height="110" fill="url(#barGradient)" filter="url(#shadow)"/>
    <rect x="233" y="612" width="2" height="108" fill="url(#barGradient)" filter="url(#shadow)"/>
    <rect x="236" y="615" width="2" height="105" fill="url(#barGradient)" filter="url(#shadow)"/>
    <rect x="239" y="617" width="2" height="103" fill="url(#barGradient)" filter="url(#shadow)"/>
    <rect x="242" y="619" width="2" height="101" fill="url(#barGradient)" filter="url(#shadow)"/>
    <rect x="245" y="621" width="2" height="99" fill="url(#barGradient)" filter="url(#shadow)"/>
    <rect x="248" y="623" width="2" height="97" fill="url(#barGradient)" filter="url(#shadow)"/>
    <rect x="251" y="626" width="2" height="94" fill="url(#barGradient)" filter="url(#shadow)"/>
    <rect x="254" y="628" width="2" height="92" fill="url(#barGradient)" filter="url(#shadow)"/>
    <rect x="257" y="630" width="2" height="90" fill="url(#barGradient)" filter="url(#shadow)"/>
    <rect x="260" y="588" width="2" height="132" fill="url(#barGradient)" filter="url(#shadow)"/>
    <rect x="263" y="586" width="2" height="134" fill="url(#barGradient)" filter="url(#shadow)"/>
    <rect x="266" y="584" width="2" height="136" fill="url(#barGradient)" filter="url(#shadow)"/>
    <rect x="269" y="581" width="2" height="139" fill="url(#barGradient)" filter="url(#shadow)"/>
    <rect x="272" y="579" width="2" height="141" fill="url(#barGradient)" filter="url(#shadow)"/>
    <rect x="275" y="577" width="2" height="143" fill="url(#barGradient)" filter="url(#shadow)"/>
    <rect x="278" y="575" width="2" height="145" fill="url(#barGradient)" filter="url(#shadow)"/>
    <rect x="281" y="573" width="2" height="147" fill="url(#barGradient)" filter="url(#shadow)"/>
    <rect x="284" y="570" width="2" height="150" fill="url(#barGradient)" filter="url(#shadow)"/>
    <rect x="287" y="568" width="2" height="152" fill="url(#barGradient)" filter="url(#shadow)"/>
    <rect x="290" y="566" width="2" height="154" fill="url(#barGradient)" filter="url(#shadow)"/>
    <rect x="293" y="568" width="2" height="152" fill="url(#barGradient)" filter="url(#shadow)"/>
    <rect x="296" y="570" width="2" height="150" fill="url(#barGradient)" filter="url(#shadow)"/>
    <rect x="299" y="573" width="2" height="147" fill="url(#barGradient)" filter="url(#shadow)"/>
    <rect x="302" y="575" width="2" height="145" fill="url(#barGradient)" filter="url(#shadow)"/>
    <rect x="305" y="577" width="2" height="143" fill="url(#barGradient)" filter="url(#shadow)"/>
    <rect x="308" y="579" width="2" height="141" fill="url(#barGradient)" filter="url(#shadow)"/>
    <rect x="311" y="581" width="2" height="139" fill="url(#barGradient)" filter="url(#shadow)"/>
    <rect x="314" y="584" width="2" height="136" fill="url(#barGradient)" filter="url(#shadow)"/>
    <rect x="317" y="586" width="2" height="134" fill="url(#barGradient)" filter="url(#shadow)"/>
    <rect x="320" y="544" width="2" height="176" fill="url(#barGradient)" filter="url(#shadow)"/>
    <rect x="323" y="542" width="2" height="178" fill="url(#barGradient)" filter="url(#shadow)"/>
    <rect x="326" y="540" width="2" height="180" fill="url(#barGradient)" filter="url(#shadow)"/>
    <rect x="329" y="537" width="2" height="183" fill="url(#barGradient)" filter="url(#shadow)"/>
    <rect x="332" y="535" width="2" height="185" fill="url(#barGradient)" filter="url(#shadow)"/>
    <rect x="335" y="533" width="2" height="187" fill="url(#barGradient)" filter="url(#shadow)"/>
    <rect x="338" y="531" width="2" height="189" fill="url(#barGradient)" filter="url(#shadow)"/>
    <rect x="341" y="528" width="2" height="192" fill="url(#barGradient)" filter="url(#shadow)"/>
    <rect x="344" y="526" width="2" height="194" fill="url(#barGradient)" filter="url(#shadow)"/>
    <rect x="347" y="524" width="2" height="196" fill="url(#barGradient)" filter="url(#shadow)"/>
    <rect x="350" y="522" width="2" height="198" fill="url(#barGradient)" filter="url(#shadow)"/>
    <rect x="353" y="524" width="2" height="196" fill="url(#barGradient)" filter="url(#shadow)"/>
    <rect x="356" y="526" width="2" height="194" fill="url(#barGradient)" filter="url(#shadow)"/>
    <rect x="359" y="528" width="2" height="192" fill="url(#barGradient)" filter="url(#shadow)"/>
    <rect x="362" y="531" width="2" height="189" fill="url(#barGradient)" filter="url(#shadow)"/>
    <rect x="365" y="533" width="2" height="187" fill="url(#barGradient)" filter="url(#shadow)"/>
    <rect x="368" y="535" width="2" height="185" fill="url(#barGradient)" filter="url(#shadow)"/>
    <rect x="371" y="537" width="2" height="183" fill="url(#barGradient)" filter="url(#shadow)"/>
    <rect x="374" y="540" width="2" height="180" fill="url(#barGradient)" filter="url(#shadow)"/>
    <rect x="377" y="542" width="2" height="178" fill="url(#barGradient)" filter="url(#shadow)"/>
    <rect x="380" y="500" width="2" height="220" fill="url(#barGradient)" filter="url(#shadow)"/>
    <rect x="383" y="498" width="2" height="222" fill="url(#barGradient)" filter="url(#shadow)"/>
    <rect x="386" y="495" width="2" height="225" fill="url(#barGradient)" filter="url(#shadow)"/>
    <rect x="389" y="493" width="2" height="227" fill="url(#barGradient)" filter="url(#shadow)"/>
    <rect x="392" y="491" width="2" height="229" fill="url(#barGradient)" filter="url(#shadow)"/>
    <rect x="395" y="489" width="2" height="231" fill="url(#barGradient)" filter="url(#shadow)"/>
    <rect x="398" y="487" width="2" height="233" fill="url(#barGradient)" filter="url(#shadow)"/>
    <rect x="401" y="484" width="2" height="236" fill="url(#barGradient)" filter="url(#shadow)"/>
    <rect x="404" y="482" width="2" height="238" fill="url(#barGradient)" filter="url(#shadow)"/>
    <rect x="407" y="480" width="2" height="240" fill="url(#barGradient)" filter="url(#shadow)"/>
    <rect x="410" y="478" width="2" height="242" fill="url(#barGradient)" filter="url(#shadow)"/>
    <rect x="413" y="480" width="2" height="240" fill="url(#barGradient)" filter="url(#shadow)"/>
    <rect x="416" y="482" width="2" height="238" fill="url(#barGradient)" filter="url(#shadow)"/>
    <rect x="419" y="484" width="2" height="236" fill="url(#barGradient)" filter="url(#shadow)"/>
    <rect x="422" y="487" width="2" height="233" fill="url(#barGradient)" filter="url(#shadow)"/>
    <rect x="425" y="489" width="2" height="231" fill="url(#barGradient)" filter="url(#shadow)"/>
    <rect x="428" y="491" width="2" height="229" fill="url(#barGradient)" filter="url(#shadow)"/>
    <rect x="431" y="493" width="2" height="227" fill="url(#barGradient)" filter="url(#shadow)"/>
    <rect x="434" y="495" width="2" height="225" fill="url(#barGradient)" filter="url(#shadow)"/>
    <rect x="437" y="498" width="2" height="222" fill="url(#barGradient)" filter="url(#shadow)"/>
    <rect x="440" y="456" width="2" height="264" fill="url(#barGradient)" filter="url(#shadow)"/>
    <rect x="443" y="453" width="2" height="267" fill="url(#barGradient)" filter="url(#shadow)"/>
    <rect x="446" y="451" width="2" height="269" fill="url(#barGradient)" filter="url(#shadow)"/>
    <rect x="449" y="449" width="2" height="271" fill="url(#barGradient)" filter="url(#shadow)"/>
    <rect x="452" y="447" width="2" height="273" fill="url(#barGradient)" filter="url(#shadow)"/>
    <rect x="455" y="445" width="2" height="275" fill="url(#barGradient)" filter="url(#shadow)"/>
    <rect x="458" y="442" width="2" height="278" fill="url(#barGradient)" filter="url(#shadow)"/>
    <rect x="461" y="440" width="2" height="280" fill="url(#barGradient)" filter="url(#shadow)"/>
    <rect x="464" y="438" width="2" height="282" fill="url(#barGradient)" filter="url(#shadow)"/>
    <rect x="467" y="436" width="2" height="284" fill="url(#barGradient)" filter="url(#shadow)"/>
    <rect x="470" y="434" width="2" height="286" fill="url(#barGradient)" filter="url(#shadow)"/>
    <rect x="473" y="436" width="2" height="284" fill="url(#barGradient)" filter="url(#shadow)"/>
    <rect x="476" y="438" width="2" height="282" fill="url(#barGradient)" filter="url(#shadow)"/>
    <rect x="479" y="440" width="2" height="280" fill="url(#barGradient)" filter="url(#shadow)"/>
    <rect x="482" y="442" width="2" height="278" fill="url(#barGradient)" filter="url(#shadow)"/>
    <rect x="485" y="445" width="2" height="275" fill="url(#barGradient)" filter="url(#shadow)"/>
    <rect x="488" y="447" width="2" height="273" fill="url(#barGradient)" filter="url(#shadow)"/>
    <rect x="491" y="449" width="2" height="271" fill="url(#barGradient)" filter="url(#shadow)"/>
    <rect x="494" y="451" width="2" height="269" fill="url(#barGradient)" filter="url(#shadow)"/>
    <rect x="497" y="453" width="2" height="267" fill="url(#barGradient)" filter="url(#shadow)"/>
    <rect x="500" y="412" width="2" height="308" fill="url(#barGradient)" filter="url(#shadow)"/>
    <rect x="503" y="409" width="2" height="311" fill="url(#barGradient)" filter="url(#shadow)"/>
    <rect x="506" y="407" width="2" height="313" fill="url(#barGradient)" filter="url(#shadow)"/>
    <rect x="509" y="405" width="2" height="315" fill="url(#barGradient)" filter="url(#shadow)"/>
    <rect x="512" y="403" width="2" height="317" fill="url(#barGradient)" filter="url(#shadow)"/>
    <rect x="515" y="400" width="2" height="320" fill="url(#barGradient)" filter="url(#shadow)"/>
    <rect x="518" y="398" width="2" height="322" fill="url(#barGradient)" filter="url(#shadow)"/>
    <rect x="521" y="396" width="2" height="324" fill="url(#barGradient)" filter="url(#shadow)"/>
    <rect x="524" y="394" width="2" height="326" fill="url(#barGradient)" filter="url(#shadow)"/>
    <rect x="527" y="392" width="2" height="328" fill="url(#barGradient)" filter="url(#shadow)"/>
    <rect x="530" y="389" width="2" height="331" fill="url(#barGradient)" filter="url(#shadow)"/>
    <rect x="533" y="392" width="2" height="328" fill="url(#barGradient)" filter="url(#shadow)"/>
    <rect x="536" y="394" width="2" height="326" fill="url(#barGradient)" filter="url(#shadow)"/>
    <rect x="539" y="396" width="2" height="324" fill="url(#barGradient)" filter="url(#shadow)"/>
    <rect x="542" y="398" width="2" height="322" fill="url(#barGradient)" filter="url(#shadow)"/>
    <rect x="545" y="400" width="2" height="320" fill="url(#barGradient)" filter="url(#shadow)"/>
    <rect x="548" y="403" width="2" height="317" fill="url(#barGradient)" filter="url(#shadow)"/>
    <rect x="551" y="405" width="2" height="315" fill="url(#barGradient)" filter="url(#shadow)"/>
    <rect x="554" y="407" width="2" height="313" fill="url(#barGradient)" filter="url(#shadow)"/>
    <rect x="557" y="409" width="2" height="311" fill="url(#barGradient)" filter="url(#shadow)"/>
    <rect x="560" y="367" width="2" height="353" fill="url(#barGradient)" filter="url(#shadow)"/>
    <rect x="563" y="365" width="2" height="355" fill="url(#barGradient)" filter="url(#shadow)"/>
    <rect x="566" y="363" width="2" height="357" fill="url(#barGradient)" filter="url(#shadow)"/>
    <rect x="569" y="361" width="2" height="359" fill="url(#barGradient)" filter="url(#shadow)"/>
    <rect x="572" y="359" width="2" height="361" fill="url(#barGradient)" filter="url(#shadow)"/>
    <rect x="575" y="356" width="2" height="364" fill="url(#barGradient)" filter="url(#shadow)"/>
    <rect x="578" y="354" width="2" height="366" fill="url(#barGradient)" filter="url(#shadow)"/>
    <rect x="581" y="352" width="2" height="368" fill="url(#barGradient)" filter="url(#shadow)"/>
    <rect x="584" y="350" width="2" height="370" fill="url(#barGradient)" filter="url(#shadow)"/>
    <rect x="587" y="348" width="2" height="372" fill="url(#barGradient)" filter="url(#shadow)"/>
    <rect x="590" y="345" width="2" height="375" fill="url(#barGradient)" filter="url(#shadow)"/>
    <rect x="593" y="348" width="2" height="372" fill="url(#barGradient)" filter="url(#shadow)"/>
    <rect x="596" y="350" width="2" height="370" fill="url(#barGradient)" filter="url(#shadow)"/>
    <rect x="599" y="352" width="2" height="368" fill="url(#barGradient)" filter="url(#shadow)"/>
    <rect x="602" y="354" width="2" height="366" fill="url(#barGradient)" filter="url(#shadow)"/>
    <rect x="605" y="356" width="2" height="364" fill="url(#barGradient)" filter="url(#shadow)"/>
    <rect x="608" y="359" width="2" height="361" fill="url(#barGradient)" filter="url(#shadow)"/>
    <rect x="611" y="361" width="2" height="359" fill="url(#barGradient)" filter="url(#shadow)"/>
    <rect x="614" y="363" width="2" height="357" fill="url(#barGradient)" filter="url(#shadow)"/>
    <rect x="617" y="365" width="2" height="355" fill="url(#barGradient)" filter="url(#shadow)"/>
    <rect x="620" y="323" width="2" height="397" fill="url(#barGradient)" filter="url(#shadow)"/>
    <rect x="623" y="321" width="2" height="399" fill="url(#barGradient)" filter="url(#shadow)"/>
    <rect x="626" y="319" width="2" height="401" fill="url(#barGradient)" filter="url(#shadow)"/>
    <rect x="629" y="317" width="2" height="403" fill="url(#barGradient)" filter="url(#shadow)"/>
    <rect x="632" y="314" width="2" height="406" fill="url(#barGradient)" filter="url(#shadow)"/>
    <rect x="635" y="312" width="2" height="408" fill="url(#barGradient)" filter="url(#shadow)"/>
    <rect x="638" y="310" width="2" height="410" fill="url(#barGradient)" filter="url(#shadow)"/>
    <rect x="641" y="308" width="2" height="412" fill="url(#barGradient)" filter="url(#shadow)"/>
    <rect x="644" y="306" width="2" height="414" fill="url(#barGradient)" filter="url(#shadow)"/>
    <rect x="647" y="303" width="2" height="417" fill="url(#barGradient)" filter="url(#shadow)"/>
    <rect x="650" y="301" width="2" height="419" fill="url(#barGradient)" filter="url(#shadow)"/>
    <rect x="653" y="303" width="2" height="417" fill="url(#barGradient)" filter="url(#shadow)"/>
    <rect x="656" y="306" width="2" height="414" fill="url(#barGradient)" filter="url(#shadow)"/>
    <rect x="659" y="308" width="2" height="412" fill="url(#barGradient)" filter="url(#shadow)"/>
    <rect x="662" y="310" width="2" height="410" fill="url(#barGradient)" filter="url(#shadow)"/>
    <rect x="665" y="312" width="2" height="408" fill="url(#barGradient)" filter="url(#shadow)"/>
    <rect x="668" y="314" width="2" height="406" fill="url(#barGradient)" filter="url(#shadow)"/>
    <rect x="671" y="317" width="2" height="403" fill="url(#barGradient)" filter="url(#shadow)"/>
    <rect x="674" y="319" width="2" height="401" fill="url(#barGradient)" filter="url(#shadow)"/>
    <rect x="677" y="321" width="2" height="399" fill="url(#barGradient)" filter="url(#shadow)"/>
    <rect x="680" y="279" width="2" height="441" fill="url(#barGradient)" filter="url(#shadow)"/>
    <rect x="683" y="277" width="2" height="443" fill="url(#barGradient)" filter="url(#shadow)"/>
    <rect x="686" y="275" width="2" height="445" fill="url(#barGradient)" filter="url(#shadow)"/>
    <rect x="689" y="272" width="2" height="448" fill="url(#barGradient)" filter="url(#shadow)"/>
    <rect x="692" y="270" width="2" height="450" fill="url(#barGradient)" filter="url(#shadow)"/>
    <rect x="695" y="268" width="2" height="452" fill="url(#barGradient)" filter="url(#shadow)"/>
    <rect x="698" y="266" width="2" height="454" fill="url(#barGradient)" filter="url(#shadow)"/>
    <rect x="701" y="264" width="2" height="456" fill="url(#barGradient)" filter="url(#shadow)"/>
    <rect x="704" y="261" width="2" height="459" fill="url(#barGradient)" filter="url(#shadow)"/>
    <rect x="707" y="259" width="2" height="461" fill="url(#barGradient)" filter="url(#shadow)"/>
    <rect x="710" y="257" width="2" height="463" fill="url(#barGradient)" filter="url(#shadow)"/>
    <rect x="713" y="259" width="2" height="461" fill="url(#barGradient)" filter="url(#shadow)"/>
    <rect x="716" y="261" width="2" height="459" fill="url(#barGradient)" filter="url(#shadow)"/>
    <rect x="719" y="264" width="2" height="456" fill="url(#barGradient)" filter="url(#shadow)"/>
    <rect x="722" y="266" width="2" height="454" fill="url(#barGradient)" filter="url(#shadow)"/>
    <rect x="725" y="268" width="2" height="452" fill="url(#barGradient)" filter="url(#shadow)"/>
    <rect x="728" y="270" width="2" height="450" fill="url(#barGradient)" filter="url(#shadow)"/>
    <rect x="731" y="272" width="2" height="448" fill="url(#barGradient)" filter="url(#shadow)"/>
    <rect x="734" y="275" width="2" height="445" fill="url(#barGradient)" filter="url(#shadow)"/>
    <rect x="737" y="277" width="2" height="443" fill="url(#barGradient)" filter="url(#shadow)"/>
    <rect x="740" y="235" width="2" height="485" fill="url(#barGradient)" filter="url(#shadow)"/>
    <rect x="743" y="233" width="2" height="487" fill="url(#barGradient)" filter="url(#shadow)"/>
    <rect x="746" y="231" width="2" height="489" fill="url(#barGradient)" filter="url(#shadow)"/>
    <rect x="749" y="228" width="2" height="492" fill="url(#barGradient)" filter="url(#shadow)"/>
    <rect x="752" y="226" width="2" height="494" fill="url(#barGradient)" filter="url(#shadow)"/>
    <rect x="755" y="224" width="2" height="496" fill="url(#barGradient)" filter="url(#shadow)"/>
    <rect x="758" y="222" width="2" height="498" fill="url(#barGradient)" filter="url(#shadow)"/>
    <rect x="761" y="220" width="2" height="500" fill="url(#barGradient)" filter="url(#shadow)"/>
    <rect x="764" y="217" width="2" height="503" fill="url(#barGradient)" filter="url(#shadow)"/>
    <rect x="767" y="215" width="2" height="505" fill="url(#barGradient)" filter="url(#shadow)"/>
    <rect x="770" y="213" width="2" height="507" fill="url(#barGradient)" filter="url(#shadow)"/>
    <rect x="773" y="215" width="2" height="505" fill="url(#barGradient)" filter="url(#shadow)"/>
    <rect x="776" y="217" width="2" height="503" fill="url(#barGradient)" filter="url(#shadow)"/>
    <rect x="779" y="220" width="2" height="500" fill="url(#barGradient)" filter="url(#shadow)"/>
    <rect x="782" y="222" width="2" height="498" fill="url(#barGradient)" filter="url(#shadow)"/>
    <rect x="785" y="224" width="2" height="496" fill="url(#barGradient)" filter="url(#shadow)"/>
    <rect x="788" y="226" width="2" height="494" fill="url(#barGradient)" filter="url(#shadow)"/>
    <rect x="791" y="228" width="2" height="492" fill="url(#barGradient)" filter="url(#shadow)"/>
    <rect x="794" y="231" width="2" height="489" fill="url(#barGradient)" filter="url(#shadow)"/>
    <rect x="797" y="233" width="2" height="487" fill="url(#barGradient)" filter="url(#shadow)"/>
    <rect x="800" y="191" width="2" height="529" fill="url(#barGradient)" filter="url(#shadow)"/>
    <rect x="803" y="189" width="2" height="531" fill="url(#barGradient)" filter="url(#shadow)"/>
    <rect x="806" y="186" width="2" height="534" fill="url(#barGradient)" filter="url(#shadow)"/>
    <rect x="809" y="184" width="2" height="536" fill="url(#barGradient)" filter="url(#shadow)"/>
    <rect x="812" y="182" width="2" height="538" fill="url(#barGradient)" filter="url(#shadow)"/>
    <rect x="815" y="180" width="2" height="540" fill="url(#barGradient)" filter="url(#shadow)"/>
    <rect x="818" y="178" width="2" height="542" fill="url(#barGradient)" filter="url(#shadow)"/>
    <rect x="821" y="175" width="2" height="545" fill="url(#barGradient)" filter="url(#shadow)"/>
    <rect x="824" y="173" width="2" height="547" fill="url(#barGradient)" filter="url(#shadow)"/>
    <rect x="827" y="171" width="2" height="549" fill="url(#barGradient)" filter="url(#shadow)"/>
    <rect x="830" y="169" width="2" height="551" fill="url(#barGradient)" filter="url(#shadow)"/>
    <rect x="833" y="171" width="2" height="549" fill="url(#barGradient)" filter="url(#shadow)"/>
    <rect x="836" y="173" width="2" height="547" fill="url(#barGradient)" filter="url(#shadow)"/>
    <rect x="839" y="175" width="2" height="545" fill="url(#barGradient)" filter="url(#shadow)"/>
    <rect x="842" y="178" width="2" height="542" fill="url(#barGradient)" filter="url(#shadow)"/>
    <rect x="845" y="180" width="2" height="540" fill="url(#barGradient)" filter="url(#shadow)"/>
    <rect x="848" y="182" width="2" height="538" fill="url(#barGradient)" filter="url(#shadow)"/>
    <rect x="851" y="184" width="2" height="536" fill="url(#barGradient)" filter="url(#shadow)"/>
    <rect x="854" y="186" width="2" height="534" fill="url(#barGradient)" filter="url(#shadow)"/>
    <rect x="857" y="189" width="2" height="531" fill="url(#barGradient)" filter="url(#shadow)"/>
    <rect x="860" y="147" width="2" height="573" fill="url(#barGradient)" filter="url(#shadow)"/>
    <rect x="863" y="144" width="2" height="576" fill="url(#barGradient)" filter="url(#shadow)"/>
    <rect x="866" y="142" width="2" height="578" fill="url(#barGradient)" filter="url(#shadow)"/>
    <rect x="869" y="140" width="2" height="580" fill="url(#barGradient)" filter="url(#shadow)"/>
    <rect x="872" y="138" width="2" height="582" fill="url(#barGradient)" filter="url(#shadow)"/>
    <rect x="875" y="136" width="2" height="584" fill="url(#barGradient)" filter="url(#shadow)"/>
    <rect x="878" y="133" width="2" height="587" fill="url(#barGradient)" filter="url(#shadow)"/>
    <rect x="881" y="131" width="2" height="589" fill="url(#barGradient)" filter="url(#shadow)"/>
    <rect x="884" y="129" width="2" height="591" fill="url(#barGradient)" filter="url(#shadow)"/>
    <rect x="887" y="127" width="2" height="593" fill="url(#barGradient)" filter="url(#shadow)"/>
    <rect x="890" y="125" width="2" height="595" fill="url(#barGradient)" filter="url(#shadow)"/>
    <rect x="893" y="127" width="2" height="593" fill="url(#barGradient)" filter="url(#shadow)"/>
    <rect x="896" y="129" width="2" height="591" fill="url(#barGradient)" filter="url(#shadow)"/>
    <rect x="899" y="131" width="2" height="589" fill="url(#barGradient)" filter="url(#shadow)"/>
    <rect x="902" y="133" width="2" height="587" fill="url(#barGradient)" filter="url(#shadow)"/>
    <rect x="905" y="136" width="2" height="584" fill="url(#barGradient)" filter="url(#shadow)"/>
    <rect x="908" y="138" width="2" height="582" fill="url(#barGradient)" filter="url(#shadow)"/>
    <rect x="911" y="140" width="2" height="580" fill="url(#barGradient)" filter="url(#shadow)"/>
    <rect x="914" y="142" width="2" height="578" fill="url(#barGradient)" filter="url(#shadow)"/>
    <rect x="917" y="144" width="2" height="576" fill="url(#barGradient)" filter="url(#shadow)"/>
    <rect x="920" y="103" width="2" height="617" fill="url(#barGradient)" filter="url(#shadow)"/>
    <rect x="923" y="100" width="2" height="620" fill="url(#barGradient)" filter="url(#shadow)"/>
    <rect x="926" y="98" width="2" height="622" fill="url(#barGradient)" filter="url(#shadow)"/>
    <rect x="929" y="96" width="2" height="624" fill="url(#barGradient)" filter="url(#shadow)"/>
    <rect x="932" y="94" width="2" height="626" fill="url(#barGradient)" filter="url(#shadow)"/>
    <rect x="935" y="92" width="2" height="628" fill="url(#barGradient)" filter="url(#shadow)"/>
    <rect x="938" y="89" width="2" height="631" fill="url(#barGradient)" filter="url(#shadow)"/>
    <rect x="941" y="87" width="2" height="633" fill="url(#barGradient)" filter="url(#shadow)"/>
    <rect x="944" y="85" width="2" height="635" fill="url(#barGradient)" filter="url(#shadow)"/>
    <rect x="947" y="83" width="2" height="637" fill="url(#barGradient)" filter="url(#shadow)"/>
    <rect x="950" y="80" width="2" height="640" fill="url(#barGradient)" filter="url(#shadow)"/>
    <rect x="953" y="83" width="2" height="637" fill="url(#barGradient)" filter="url(#shadow)"/>
    <rect x="956" y="85" width="2" height="635" fill="url(#barGradient)" filter="url(#shadow)"/>
    <rect x="959" y="87" width="2" height="633" fill="url(#barGradient)" filter="url(#shadow)"/>
    <rect x="962" y="89" width="2" height="631" fill="url(#barGradient)" filter="url(#shadow)"/>
    <rect x="965" y="92" width="2" height="628" fill="url(#barGradient)" filter="url(#shadow)"/>
    <rect x="968" y="94" width="2" height="626" fill="url(#barGradient)" filter="url(#shadow)"/>
    <rect x="971" y="96" width="2" height="624" fill="url(#barGradient)" filter="url(#shadow)"/>
    <rect x="974" y="98" width="2" height="622" fill="url(#barGradient)" filter="url(#shadow)"/>
    <rect x="977" y="100" width="2" height="620" fill="url(#barGradient)" filter="url(#shadow)"/>
        <text x="530" y="40" font-family="Arial" font-size="24" text-anchor="middle" fill="#212121">
            SmallHills Distribution
        </text>
        <text x="530" y="790" font-family="Arial" font-size="14" text-anchor="middle" fill="#757575">
            Index
        </text>
        <text x="30" y="400" font-family="Arial" font-size="14" text-anchor="middle" 
            transform="rotate(-90,30,400)" fill="#757575">
            Value
        </text><rect x="760" y="10" width="150" height="90" fill="white" rx="5" filter="url(#shadow)"/><text x="780" y="35" font-family="Arial" font-size="12" fill="#757575">Minimum: 0</text><text x="780" y="55" font-family="Arial" font-size="12" fill="#757575">Maximum: 290</text><text x="780" y="75" font-family="Arial" font-size="12" fill="#757575">Average: 145</text></svg>