<?xml version="1.0" encoding="UTF-8"?>
<svg width="1060" height="800" viewBox="0 0 1060 800" xmlns="http://www.w3.org/2000/svg">
  <defs>
    <radialGradient id="bgGradient" cx="50%" cy="50%" r="75%">
      <stop offset="0%" stop-color="#ffffff"/>
      <stop offset="100%" stop-color="#e0e0e0"/>
    </radialGradient>
    <filter id="shadow" x="-20%" y="-20%" width="140%" height="140%">
      <feDropShadow dx="3" dy="3" stdDeviation="3" flood-color="#999" flood-opacity="0.4"/>
    </filter>
    <linearGradient id="barGradient" x1="0" x2="0" y1="0" y2="1">
      <stop offset="0%" stop-color="#1976D2"/>
      <stop offset="100%" stop-color="#2196F3"/>
    </linearGradient>
    <style type="text/css">
      <![CDATA[
        .axis { fill: none; stroke: #424242; stroke-width: 2; }
        .grid { stroke: #cfcfcf; stroke-width: 1; }
        .label { font-family: "Segoe UI", Arial, sans-serif; fill: #424242; }
        .title { font-size: 28px; font-weight: bold; }
        .tick { font-size: 12px; }
      ]]>
    </style>
  </defs>
  <rect width="100%" height="100%" fill="url(#bgGradient)" />

  <line x1="80" y1="80" x2="980" y2="80" class="grid" />
  <text x="70" y="80" class="label tick" text-anchor="end" dy="4">299</text>
  <line x1="80" y1="144" x2="980" y2="144" class="grid" />
  <text x="70" y="144" class="label tick" text-anchor="end" dy="4">270</text>
  <line x1="80" y1="208" x2="980" y2="208" class="grid" />
  <text x="70" y="208" class="label tick" text-anchor="end" dy="4">240</text>
  <line x1="80" y1="272" x2="980" y2="272" class="grid" />
  <text x="70" y="272" class="label tick" text-anchor="end" dy="4">210</text>
  <line x1="80" y1="336" x2="980" y2="336" class="grid" />
  <text x="70" y="336" class="label tick" text-anchor="end" dy="4">180</text>
  <line x1="80" y1="400" x2="980" y2="400" class="grid" />
  <text x="70" y="400" class="label tick" text-anchor="end" dy="4">150</text>
  <line x1="80" y1="464" x2="980" y2="464" class="grid" />
  <text x="70" y="464" class="label tick" text-anchor="end" dy="4">120</text>
  <line x1="80" y1="528" x2="980" y2="528" class="grid" />
  <text x="70" y="528" class="label tick" text-anchor="end" dy="4">90</text>
  <line x1="80" y1="592" x2="980" y2="592" class="grid" />
  <text x="70" y="592" class="label tick" text-anchor="end" dy="4">60</text>
  <line x1="80" y1="656" x2="980" y2="656" class="grid" />
  <text x="70" y="656" class="label tick" text-anchor="end" dy="4">30</text>
  <line x1="80" y1="720" x2="980" y2="720" class="grid" />
  <text x="70" y="720" class="label tick" text-anchor="end" dy="4">0</text>
  <line x1="80" y1="720" x2="80" y2="725" class="grid" />
  <text x="80" y="725" class="label tick" text-anchor="middle" dy="15">0</text>
  <line x1="170" y1="720" x2="170" y2="725" class="grid" />
  <text x="170" y="725" class="label tick" text-anchor="middle" dy="15">30</text>
  <line x1="260" y1="720" x2="260" y2="725" class="grid" />
  <text x="260" y="725" class="label tick" text-anchor="middle" dy="15">60</text>
  <line x1="350" y1="720" x2="350" y2="725" class="grid" />
  <text x="350" y="725" class="label tick" text-anchor="middle" dy="15">90</text>
  <line x1="440" y1="720" x2="440" y2="725" class="grid" />
  <text x="440" y="725" class="label tick" text-anchor="middle" dy="15">120</text>
  <line x1="530" y1="720" x2="530" y2="725" class="grid" />
  <text x="530" y="725" class="label tick" text-anchor="middle" dy="15">150</text>
  <line x1="620" y1="720" x2="620" y2="725" class="grid" />
  <text x="620" y="725" class="label tick" text-anchor="middle" dy="15">180</text>
  <line x1="710" y1="720" x2="710" y2="725" class="grid" />
  <text x="710" y="725" class="label tick" text-anchor="middle" dy="15">210</text>
  <line x1="800" y1="720" x2="800" y2="725" class="grid" />
  <text x="800" y="725" class="label tick" text-anchor="middle" dy="15">240</text>
  <line x1="890" y1="720" x2="890" y2="725" class="grid" />
  <text x="890" y="725" class="label tick" text-anchor="middle" dy="15">270</text>
  <line x1="980" y1="720" x2="980" y2="725" class="grid" />
  <text x="980" y="725" class="label tick" text-anchor="middle" dy="15">300</text>
  <line x1="80" y1="720" x2="980" y2="720" class="axis"/>
  <line x1="80" y1="80" x2="80" y2="720" class="axis"/>
  <rect x="80" y="720" width="2" height="0" fill="url(#barGradient)" filter="url(#shadow)" />
  <rect x="83" y="718" width="2" height="2" fill="url(#barGradient)" filter="url(#shadow)" />
  <rect x="86" y="716" width="2" height="4" fill="url(#barGradient)" filter="url(#shadow)" />
  <rect x="89" y="714" width="2" height="6" fill="url(#barGradient)" filter="url(#shadow)" />
  <rect x="92" y="712" width="2" height="8" fill="url(#barGradient)" filter="url(#shadow)" />
  <rect x="95" y="710" width="2" height="10" fill="url(#barGradient)" filter="url(#shadow)" />
  <rect x="98" y="708" width="2" height="12" fill="url(#barGradient)" filter="url(#shadow)" />
  <rect x="101" y="706" width="2" height="14" fill="url(#barGradient)" filter="url(#shadow)" />
  <rect x="104" y="703" width="2" height="17" fill="url(#barGradient)" filter="url(#shadow)" />
  <rect x="107" y="701" width="2" height="19" fill="url(#barGradient)" filter="url(#shadow)" />
  <rect x="110" y="699" width="2" height="21" fill="url(#barGradient)" filter="url(#shadow)" />
  <rect x="113" y="697" width="2" height="23" fill="url(#barGradient)" filter="url(#shadow)" />
  <rect x="116" y="695" width="2" height="25" fill="url(#barGradient)" filter="url(#shadow)" />
  <rect x="119" y="693" width="2" height="27" fill="url(#barGradient)" filter="url(#shadow)" />
  <rect x="122" y="691" width="2" height="29" fill="url(#barGradient)" filter="url(#shadow)" />
  <rect x="125" y="688" width="2" height="32" fill="url(#barGradient)" filter="url(#shadow)" />
  <rect x="128" y="686" width="2" height="34" fill="url(#barGradient)" filter="url(#shadow)" />
  <rect x="131" y="684" width="2" height="36" fill="url(#barGradient)" filter="url(#shadow)" />
  <rect x="134" y="682" width="2" height="38" fill="url(#barGradient)" filter="url(#shadow)" />
  <rect x="137" y="680" width="2" height="40" fill="url(#barGradient)" filter="url(#shadow)" />
  <rect x="140" y="678" width="2" height="42" fill="url(#barGradient)" filter="url(#shadow)" />
  <rect x="143" y="676" width="2" height="44" fill="url(#barGradient)" filter="url(#shadow)" />
  <rect x="146" y="673" width="2" height="47" fill="url(#barGradient)" filter="url(#shadow)" />
  <rect x="149" y="671" width="2" height="49" fill="url(#barGradient)" filter="url(#shadow)" />
  <rect x="152" y="669" width="2" height="51" fill="url(#barGradient)" filter="url(#shadow)" />
  <rect x="155" y="667" width="2" height="53" fill="url(#barGradient)" filter="url(#shadow)" />
  <rect x="158" y="665" width="2" height="55" fill="url(#barGradient)" filter="url(#shadow)" />
  <rect x="161" y="663" width="2" height="57" fill="url(#barGradient)" filter="url(#shadow)" />
  <rect x="164" y="661" width="2" height="59" fill="url(#barGradient)" filter="url(#shadow)" />
  <rect x="167" y="658" width="2" height="62" fill="url(#barGradient)" filter="url(#shadow)" />
  <rect x="170" y="656" width="2" height="64" fill="url(#barGradient)" filter="url(#shadow)" />
  <rect x="173" y="654" width="2" height="66" fill="url(#barGradient)" filter="url(#shadow)" />
  <rect x="176" y="652" width="2" height="68" fill="url(#barGradient)" filter="url(#shadow)" />
  <rect x="179" y="650" width="2" height="70" fill="url(#barGradient)" filter="url(#shadow)" />
  <rect x="182" y="648" width="2" height="72" fill="url(#barGradient)" filter="url(#shadow)" />
  <rect x="185" y="646" width="2" height="74" fill="url(#barGradient)" filter="url(#shadow)" />
  <rect x="188" y="643" width="2" height="77" fill="url(#barGradient)" filter="url(#shadow)" />
  <rect x="191" y="641" width="2" height="79" fill="url(#barGradient)" filter="url(#shadow)" />
  <rect x="194" y="639" width="2" height="81" fill="url(#barGradient)" filter="url(#shadow)" />
  <rect x="197" y="637" width="2" height="83" fill="url(#barGradient)" filter="url(#shadow)" />
  <rect x="200" y="635" width="2" height="85" fill="url(#barGradient)" filter="url(#shadow)" />
  <rect x="203" y="633" width="2" height="87" fill="url(#barGradient)" filter="url(#shadow)" />
  <rect x="206" y="631" width="2" height="89" fill="url(#barGradient)" filter="url(#shadow)" />
  <rect x="209" y="628" width="2" height="92" fill="url(#barGradient)" filter="url(#shadow)" />
  <rect x="212" y="626" width="2" height="94" fill="url(#barGradient)" filter="url(#shadow)" />
  <rect x="215" y="624" width="2" height="96" fill="url(#barGradient)" filter="url(#shadow)" />
  <rect x="218" y="622" width="2" height="98" fill="url(#barGradient)" filter="url(#shadow)" />
  <rect x="221" y="620" width="2" height="100" fill="url(#barGradient)" filter="url(#shadow)" />
  <rect x="224" y="618" width="2" height="102" fill="url(#barGradient)" filter="url(#shadow)" />
  <rect x="227" y="616" width="2" height="104" fill="url(#barGradient)" filter="url(#shadow)" />
  <rect x="230" y="613" width="2" height="107" fill="url(#barGradient)" filter="url(#shadow)" />
  <rect x="233" y="611" width="2" height="109" fill="url(#barGradient)" filter="url(#shadow)" />
  <rect x="236" y="609" width="2" height="111" fill="url(#barGradient)" filter="url(#shadow)" />
  <rect x="239" y="607" width="2" height="113" fill="url(#barGradient)" filter="url(#shadow)" />
  <rect x="242" y="605" width="2" height="115" fill="url(#barGradient)" filter="url(#shadow)" />
  <rect x="245" y="603" width="2" height="117" fill="url(#barGradient)" filter="url(#shadow)" />
  <rect x="248" y="601" width="2" height="119" fill="url(#barGradient)" filter="url(#shadow)" />
  <rect x="251" y="598" width="2" height="122" fill="url(#barGradient)" filter="url(#shadow)" />
  <rect x="254" y="596" width="2" height="124" fill="url(#barGradient)" filter="url(#shadow)" />
  <rect x="257" y="594" width="2" height="126" fill="url(#barGradient)" filter="url(#shadow)" />
  <rect x="260" y="592" width="2" height="128" fill="url(#barGradient)" filter="url(#shadow)" />
  <rect x="263" y="590" width="2" height="130" fill="url(#barGradient)" filter="url(#shadow)" />
  <rect x="266" y="588" width="2" height="132" fill="url(#barGradient)" filter="url(#shadow)" />
  <rect x="269" y="586" width="2" height="134" fill="url(#barGradient)" filter="url(#shadow)" />
  <rect x="272" y="584" width="2" height="136" fill="url(#barGradient)" filter="url(#shadow)" />
  <rect x="275" y="581" width="2" height="139" fill="url(#barGradient)" filter="url(#shadow)" />
  <rect x="278" y="579" width="2" height="141" fill="url(#barGradient)" filter="url(#shadow)" />
  <rect x="281" y="577" width="2" height="143" fill="url(#barGradient)" filter="url(#shadow)" />
  <rect x="284" y="575" width="2" height="145" fill="url(#barGradient)" filter="url(#shadow)" />
  <rect x="287" y="573" width="2" height="147" fill="url(#barGradient)" filter="url(#shadow)" />
  <rect x="290" y="571" width="2" height="149" fill="url(#barGradient)" filter="url(#shadow)" />
  <rect x="293" y="569" width="2" height="151" fill="url(#barGradient)" filter="url(#shadow)" />
  <rect x="296" y="566" width="2" height="154" fill="url(#barGradient)" filter="url(#shadow)" />
  <rect x="299" y="564" width="2" height="156" fill="url(#barGradient)" filter="url(#shadow)" />
  <rect x="302" y="562" width="2" height="158" fill="url(#barGradient)" filter="url(#shadow)" />
  <rect x="305" y="560" width="2" height="160" fill="url(#barGradient)" filter="url(#shadow)" />
  <rect x="308" y="558" width="2" height="162" fill="url(#barGradient)" filter="url(#shadow)" />
  <rect x="311" y="556" width="2" height="164" fill="url(#barGradient)" filter="url(#shadow)" />
  <rect x="314" y="554" width="2" height="166" fill="url(#barGradient)" filter="url(#shadow)" />
  <rect x="317" y="551" width="2" height="169" fill="url(#barGradient)" filter="url(#shadow)" />
  <rect x="320" y="549" width="2" height="171" fill="url(#barGradient)" filter="url(#shadow)" />
  <rect x="323" y="547" width="2" height="173" fill="url(#barGradient)" filter="url(#shadow)" />
  <rect x="326" y="545" width="2" height="175" fill="url(#barGradient)" filter="url(#shadow)" />
  <rect x="329" y="543" width="2" height="177" fill="url(#barGradient)" filter="url(#shadow)" />
  <rect x="332" y="541" width="2" height="179" fill="url(#barGradient)" filter="url(#shadow)" />
  <rect x="335" y="539" width="2" height="181" fill="url(#barGradient)" filter="url(#shadow)" />
  <rect x="338" y="536" width="2" height="184" fill="url(#barGradient)" filter="url(#shadow)" />
  <rect x="341" y="534" width="2" height="186" fill="url(#barGradient)" filter="url(#shadow)" />
  <rect x="344" y="532" width="2" height="188" fill="url(#barGradient)" filter="url(#shadow)" />
  <rect x="347" y="530" width="2" height="190" fill="url(#barGradient)" filter="url(#shadow)" />
  <rect x="350" y="528" width="2" height="192" fill="url(#barGradient)" filter="url(#shadow)" />
  <rect x="353" y="526" width="2" height="194" fill="url(#barGradient)" filter="url(#shadow)" />
  <rect x="356" y="524" width="2" height="196" fill="url(#barGradient)" filter="url(#shadow)" />
  <rect x="359" y="521" width="2" height="199" fill="url(#barGradient)" filter="url(#shadow)" />
  <rect x="362" y="519" width="2" height="201" fill="url(#barGradient)" filter="url(#shadow)" />
  <rect x="365" y="517" width="2" height="203" fill="url(#barGradient)" filter="url(#shadow)" />
  <rect x="368" y="515" width="2" height="205" fill="url(#barGradient)" filter="url(#shadow)" />
  <rect x="371" y="513" width="2" height="207" fill="url(#barGradient)" filter="url(#shadow)" />
  <rect x="374" y="511" width="2" height="209" fill="url(#barGradient)" filter="url(#shadow)" />
  <rect x="377" y="509" width="2" height="211" fill="url(#barGradient)" filter="url(#shadow)" />
  <rect x="380" y="506" width="2" height="214" fill="url(#barGradient)" filter="url(#shadow)" />
  <rect x="383" y="504" width="2" height="216" fill="url(#barGradient)" filter="url(#shadow)" />
  <rect x="386" y="502" width="2" height="218" fill="url(#barGradient)" filter="url(#shadow)" />
  <rect x="389" y="500" width="2" height="220" fill="url(#barGradient)" filter="url(#shadow)" />
  <rect x="392" y="498" width="2" height="222" fill="url(#barGradient)" filter="url(#shadow)" />
  <rect x="395" y="496" width="2" height="224" fill="url(#barGradient)" filter="url(#shadow)" />
  <rect x="398" y="494" width="2" height="226" fill="url(#barGradient)" filter="url(#shadow)" />
  <rect x="401" y="491" width="2" height="229" fill="url(#barGradient)" filter="url(#shadow)" />
  <rect x="404" y="489" width="2" height="231" fill="url(#barGradient)" filter="url(#shadow)" />
  <rect x="407" y="487" width="2" height="233" fill="url(#barGradient)" filter="url(#shadow)" />
  <rect x="410" y="485" width="2" height="235" fill="url(#barGradient)" filter="url(#shadow)" />
  <rect x="413" y="483" width="2" height="237" fill="url(#barGradient)" filter="url(#shadow)" />
  <rect x="416" y="481" width="2" height="239" fill="url(#barGradient)" filter="url(#shadow)" />
  <rect x="419" y="479" width="2" height="241" fill="url(#barGradient)" filter="url(#shadow)" />
  <rect x="422" y="476" width="2" height="244" fill="url(#barGradient)" filter="url(#shadow)" />
  <rect x="425" y="474" width="2" height="246" fill="url(#barGradient)" filter="url(#shadow)" />
  <rect x="428" y="472" width="2" height="248" fill="url(#barGradient)" filter="url(#shadow)" />
  <rect x="431" y="470" width="2" height="250" fill="url(#barGradient)" filter="url(#shadow)" />
  <rect x="434" y="468" width="2" height="252" fill="url(#barGradient)" filter="url(#shadow)" />
  <rect x="437" y="466" width="2" height="254" fill="url(#barGradient)" filter="url(#shadow)" />
  <rect x="440" y="464" width="2" height="256" fill="url(#barGradient)" filter="url(#shadow)" />
  <rect x="443" y="462" width="2" height="258" fill="url(#barGradient)" filter="url(#shadow)" />
  <rect x="446" y="459" width="2" height="261" fill="url(#barGradient)" filter="url(#shadow)" />
  <rect x="449" y="457" width="2" height="263" fill="url(#barGradient)" filter="url(#shadow)" />
  <rect x="452" y="455" width="2" height="265" fill="url(#barGradient)" filter="url(#shadow)" />
  <rect x="455" y="453" width="2" height="267" fill="url(#barGradient)" filter="url(#shadow)" />
  <rect x="458" y="451" width="2" height="269" fill="url(#barGradient)" filter="url(#shadow)" />
  <rect x="461" y="449" width="2" height="271" fill="url(#barGradient)" filter="url(#shadow)" />
  <rect x="464" y="447" width="2" height="273" fill="url(#barGradient)" filter="url(#shadow)" />
  <rect x="467" y="444" width="2" height="276" fill="url(#barGradient)" filter="url(#shadow)" />
  <rect x="470" y="442" width="2" height="278" fill="url(#barGradient)" filter="url(#shadow)" />
  <rect x="473" y="440" width="2" height="280" fill="url(#barGradient)" filter="url(#shadow)" />
  <rect x="476" y="438" width="2" height="282" fill="url(#barGradient)" filter="url(#shadow)" />
  <rect x="479" y="436" width="2" height="284" fill="url(#barGradient)" filter="url(#shadow)" />
  <rect x="482" y="434" width="2" height="286" fill="url(#barGradient)" filter="url(#shadow)" />
  <rect x="485" y="432" width="2" height="288" fill="url(#barGradient)" filter="url(#shadow)" />
  <rect x="488" y="429" width="2" height="291" fill="url(#barGradient)" filter="url(#shadow)" />
  <rect x="491" y="427" width="2" height="293" fill="url(#barGradient)" filter="url(#shadow)" />
  <rect x="494" y="425" width="2" height="295" fill="url(#barGradient)" filter="url(#shadow)" />
  <rect x="497" y="423" width="2" height="297" fill="url(#barGradient)" filter="url(#shadow)" />
  <rect x="500" y="421" width="2" height="299" fill="url(#barGradient)" filter="url(#shadow)" />
  <rect x="503" y="419" width="2" height="301" fill="url(#barGradient)" filter="url(#shadow)" />
  <rect x="506" y="417" width="2" height="303" fill="url(#barGradient)" filter="url(#shadow)" />
  <rect x="509" y="414" width="2" height="306" fill="url(#barGradient)" filter="url(#shadow)" />
  <rect x="512" y="412" width="2" height="308" fill="url(#barGradient)" filter="url(#shadow)" />
  <rect x="515" y="410" width="2" height="310" fill="url(#barGradient)" filter="url(#shadow)" />
  <rect x="518" y="408" width="2" height="312" fill="url(#barGradient)" filter="url(#shadow)" />
  <rect x="521" y="406" width="2" height="314" fill="url(#barGradient)" filter="url(#shadow)" />
  <rect x="524" y="404" width="2" height="316" fill="url(#barGradient)" filter="url(#shadow)" />
  <rect x="527" y="402" width="2" height="318" fill="url(#barGradient)" filter="url(#shadow)" />
  <rect x="530" y="399" width="2" height="321" fill="url(#barGradient)" filter="url(#shadow)" />
  <rect x="533" y="397" width="2" height="323" fill="url(#barGradient)" filter="url(#shadow)" />
  <rect x="536" y="395" width="2" height="325" fill="url(#barGradient)" filter="url(#shadow)" />
  <rect x="539" y="393" width="2" height="327" fill="url(#barGradient)" filter="url(#shadow)" />
  <rect x="542" y="391" width="2" height="329" fill="url(#barGradient)" filter="url(#shadow)" />
  <rect x="545" y="389" width="2" height="331" fill="url(#barGradient)" filter="url(#shadow)" />
  <rect x="548" y="387" width="2" height="333" fill="url(#barGradient)" filter="url(#shadow)" />
  <rect x="551" y="384" width="2" height="336" fill="url(#barGradient)" filter="url(#shadow)" />
  <rect x="554" y="382" width="2" height="338" fill="url(#barGradient)" filter="url(#shadow)" />
  <rect x="557" y="380" width="2" height="340" fill="url(#barGradient)" filter="url(#shadow)" />
  <rect x="560" y="378" width="2" height="342" fill="url(#barGradient)" filter="url(#shadow)" />
  <rect x="563" y="376" width="2" height="344" fill="url(#barGradient)" filter="url(#shadow)" />
  <rect x="566" y="374" width="2" height="346" fill="url(#barGradient)" filter="url(#shadow)" />
  <rect x="569" y="372" width="2" height="348" fill="url(#barGradient)" filter="url(#shadow)" />
  <rect x="572" y="369" width="2" height="351" fill="url(#barGradient)" filter="url(#shadow)" />
  <rect x="575" y="367" width="2" height="353" fill="url(#barGradient)" filter="url(#shadow)" />
  <rect x="578" y="365" width="2" height="355" fill="url(#barGradient)" filter="url(#shadow)" />
  <rect x="581" y="363" width="2" height="357" fill="url(#barGradient)" filter="url(#shadow)" />
  <rect x="584" y="361" width="2" height="359" fill="url(#barGradient)" filter="url(#shadow)" />
  <rect x="587" y="359" width="2" height="361" fill="url(#barGradient)" filter="url(#shadow)" />
  <rect x="590" y="357" width="2" height="363" fill="url(#barGradient)" filter="url(#shadow)" />
  <rect x="593" y="354" width="2" height="366" fill="url(#barGradient)" filter="url(#shadow)" />
  <rect x="596" y="352" width="2" height="368" fill="url(#barGradient)" filter="url(#shadow)" />
  <rect x="599" y="350" width="2" height="370" fill="url(#barGradient)" filter="url(#shadow)" />
  <rect x="602" y="348" width="2" height="372" fill="url(#barGradient)" filter="url(#shadow)" />
  <rect x="605" y="346" width="2" height="374" fill="url(#barGradient)" filter="url(#shadow)" />
  <rect x="608" y="344" width="2" height="376" fill="url(#barGradient)" filter="url(#shadow)" />
  <rect x="611" y="342" width="2" height="378" fill="url(#barGradient)" filter="url(#shadow)" />
  <rect x="614" y="339" width="2" height="381" fill="url(#barGradient)" filter="url(#shadow)" />
  <rect x="617" y="337" width="2" height="383" fill="url(#barGradient)" filter="url(#shadow)" />
  <rect x="620" y="335" width="2" height="385" fill="url(#barGradient)" filter="url(#shadow)" />
  <rect x="623" y="333" width="2" height="387" fill="url(#barGradient)" filter="url(#shadow)" />
  <rect x="626" y="331" width="2" height="389" fill="url(#barGradient)" filter="url(#shadow)" />
  <rect x="629" y="329" width="2" height="391" fill="url(#barGradient)" filter="url(#shadow)" />
  <rect x="632" y="327" width="2" height="393" fill="url(#barGradient)" filter="url(#shadow)" />
  <rect x="635" y="325" width="2" height="395" fill="url(#barGradient)" filter="url(#shadow)" />
  <rect x="638" y="322" width="2" height="398" fill="url(#barGradient)" filter="url(#shadow)" />
  <rect x="641" y="320" width="2" height="400" fill="url(#barGradient)" filter="url(#shadow)" />
  <rect x="644" y="318" width="2" height="402" fill="url(#barGradient)" filter="url(#shadow)" />
  <rect x="647" y="316" width="2" height="404" fill="url(#barGradient)" filter="url(#shadow)" />
  <rect x="650" y="314" width="2" height="406" fill="url(#barGradient)" filter="url(#shadow)" />
  <rect x="653" y="312" width="2" height="408" fill="url(#barGradient)" filter="url(#shadow)" />
  <rect x="656" y="310" width="2" height="410" fill="url(#barGradient)" filter="url(#shadow)" />
  <rect x="659" y="307" width="2" height="413" fill="url(#barGradient)" filter="url(#shadow)" />
  <rect x="662" y="305" width="2" height="415" fill="url(#barGradient)" filter="url(#shadow)" />
  <rect x="665" y="303" width="2" height="417" fill="url(#barGradient)" filter="url(#shadow)" />
  <rect x="668" y="301" width="2" height="419" fill="url(#barGradient)" filter="url(#shadow)" />
  <rect x="671" y="299" width="2" height="421" fill="url(#barGradient)" filter="url(#shadow)" />
  <rect x="674" y="297" width="2" height="423" fill="url(#barGradient)" filter="url(#shadow)" />
  <rect x="677" y="295" width="2" height="425" fill="url(#barGradient)" filter="url(#shadow)" />
  <rect x="680" y="292" width="2" height="428" fill="url(#barGradient)" filter="url(#shadow)" />
  <rect x="683" y="290" width="2" height="430" fill="url(#barGradient)" filter="url(#shadow)" />
  <rect x="686" y="288" width="2" height="432" fill="url(#barGradient)" filter="url(#shadow)" />
  <rect x="689" y="286" width="2" height="434" fill="url(#barGradient)" filter="url(#shadow)" />
  <rect x="692" y="284" width="2" height="436" fill="url(#barGradient)" filter="url(#shadow)" />
  <rect x="695" y="282" width="2" height="438" fill="url(#barGradient)" filter="url(#shadow)" />
  <rect x="698" y="280" width="2" height="440" fill="url(#barGradient)" filter="url(#shadow)" />
  <rect x="701" y="277" width="2" height="443" fill="url(#barGradient)" filter="url(#shadow)" />
  <rect x="704" y="275" width="2" height="445" fill="url(#barGradient)" filter="url(#shadow)" />
  <rect x="707" y="273" width="2" height="447" fill="url(#barGradient)" filter="url(#shadow)" />
  <rect x="710" y="271" width="2" height="449" fill="url(#barGradient)" filter="url(#shadow)" />
  <rect x="713" y="269" width="2" height="451" fill="url(#barGradient)" filter="url(#shadow)" />
  <rect x="716" y="267" width="2" height="453" fill="url(#barGradient)" filter="url(#shadow)" />
  <rect x="719" y="265" width="2" height="455" fill="url(#barGradient)" filter="url(#shadow)" />
  <rect x="722" y="262" width="2" height="458" fill="url(#barGradient)" filter="url(#shadow)" />
  <rect x="725" y="260" width="2" height="460" fill="url(#barGradient)" filter="url(#shadow)" />
  <rect x="728" y="258" width="2" height="462" fill="url(#barGradient)" filter="url(#shadow)" />
  <rect x="731" y="256" width="2" height="464" fill="url(#barGradient)" filter="url(#shadow)" />
  <rect x="734" y="254" width="2" height="466" fill="url(#barGradient)" filter="url(#shadow)" />
  <rect x="737" y="252" width="2" height="468" fill="url(#barGradient)" filter="url(#shadow)" />
  <rect x="740" y="250" width="2" height="470" fill="url(#barGradient)" filter="url(#shadow)" />
  <rect x="743" y="247" width="2" height="473" fill="url(#barGradient)" filter="url(#shadow)" />
  <rect x="746" y="245" width="2" height="475" fill="url(#barGradient)" filter="url(#shadow)" />
  <rect x="749" y="243" width="2" height="477" fill="url(#barGradient)" filter="url(#shadow)" />
  <rect x="752" y="241" width="2" height="479" fill="url(#barGradient)" filter="url(#shadow)" />
  <rect x="755" y="239" width="2" height="481" fill="url(#barGradient)" filter="url(#shadow)" />
  <rect x="758" y="237" width="2" height="483" fill="url(#barGradient)" filter="url(#shadow)" />
  <rect x="761" y="235" width="2" height="485" fill="url(#barGradient)" filter="url(#shadow)" />
  <rect x="764" y="232" width="2" height="488" fill="url(#barGradient)" filter="url(#shadow)" />
  <rect x="767" y="230" width="2" height="490" fill="url(#barGradient)" filter="url(#shadow)" />
  <rect x="770" y="228" width="2" height="492" fill="url(#barGradient)" filter="url(#shadow)" />
  <rect x="773" y="226" width="2" height="494" fill="url(#barGradient)" filter="url(#shadow)" />
  <rect x="776" y="224" width="2" height="496" fill="url(#barGradient)" filter="url(#shadow)" />
  <rect x="779" y="222" width="2" height="498" fill="url(#barGradient)" filter="url(#shadow)" />
  <rect x="782" y="220" width="2" height="500" fill="url(#barGradient)" filter="url(#shadow)" />
  <rect x="785" y="217" width="2" height="503" fill="url(#barGradient)" filter="url(#shadow)" />
  <rect x="788" y="215" width="2" height="505" fill="url(#barGradient)" filter="url(#shadow)" />
  <rect x="791" y="213" width="2" height="507" fill="url(#barGradient)" filter="url(#shadow)" />
  <rect x="794" y="211" width="2" height="509" fill="url(#barGradient)" filter="url(#shadow)" />
  <rect x="797" y="209" width="2" height="511" fill="url(#barGradient)" filter="url(#shadow)" />
  <rect x="800" y="207" width="2" height="513" fill="url(#barGradient)" filter="url(#shadow)" />
  <rect x="803" y="205" width="2" height="515" fill="url(#barGradient)" filter="url(#shadow)" />
  <rect x="806" y="203" width="2" height="517" fill="url(#barGradient)" filter="url(#shadow)" />
  <rect x="809" y="200" width="2" height="520" fill="url(#barGradient)" filter="url(#shadow)" />
  <rect x="812" y="198" width="2" height="522" fill="url(#barGradient)" filter="url(#shadow)" />
  <rect x="815" y="196" width="2" height="524" fill="url(#barGradient)" filter="url(#shadow)" />
  <rect x="818" y="194" width="2" height="526" fill="url(#barGradient)" filter="url(#shadow)" />
  <rect x="821" y="192" width="2" height="528" fill="url(#barGradient)" filter="url(#shadow)" />
  <rect x="824" y="190" width="2" height="530" fill="url(#barGradient)" filter="url(#shadow)" />
  <rect x="827" y="188" width="2" height="532" fill="url(#barGradient)" filter="url(#shadow)" />
  <rect x="830" y="185" width="2" height="535" fill="url(#barGradient)" filter="url(#shadow)" />
  <rect x="833" y="183" width="2" height="537" fill="url(#barGradient)" filter="url(#shadow)" />
  <rect x="836" y="181" width="2" height="539" fill="url(#barGradient)" filter="url(#shadow)" />
  <rect x="839" y="179" width="2" height="541" fill="url(#barGradient)" filter="url(#shadow)" />
  <rect x="842" y="177" width="2" height="543" fill="url(#barGradient)" filter="url(#shadow)" />
  <rect x="845" y="175" width="2" height="545" fill="url(#barGradient)" filter="url(#shadow)" />
  <rect x="848" y="173" width="2" height="547" fill="url(#barGradient)" filter="url(#shadow)" />
  <rect x="851" y="170" width="2" height="550" fill="url(#barGradient)" filter="url(#shadow)" />
  <rect x="854" y="168" width="2" height="552" fill="url(#barGradient)" filter="url(#shadow)" />
  <rect x="857" y="166" width="2" height="554" fill="url(#barGradient)" filter="url(#shadow)" />
  <rect x="860" y="164" width="2" height="556" fill="url(#barGradient)" filter="url(#shadow)" />
  <rect x="863" y="162" width="2" height="558" fill="url(#barGradient)" filter="url(#shadow)" />
  <rect x="866" y="160" width="2" height="560" fill="url(#barGradient)" filter="url(#shadow)" />
  <rect x="869" y="158" width="2" height="562" fill="url(#barGradient)" filter="url(#shadow)" />
  <rect x="872" y="155" width="2" height="565" fill="url(#barGradient)" filter="url(#shadow)" />
  <rect x="875" y="153" width="2" height="567" fill="url(#barGradient)" filter="url(#shadow)" />
  <rect x="878" y="151" width="2" height="569" fill="url(#barGradient)" filter="url(#shadow)" />
  <rect x="881" y="149" width="2" height="571" fill="url(#barGradient)" filter="url(#shadow)" />
  <rect x="884" y="147" width="2" height="573" fill="url(#barGradient)" filter="url(#shadow)" />
  <rect x="887" y="145" width="2" height="575" fill="url(#barGradient)" filter="url(#shadow)" />
  <rect x="890" y="143" width="2" height="577" fill="url(#barGradient)" filter="url(#shadow)" />
  <rect x="893" y="140" width="2" height="580" fill="url(#barGradient)" filter="url(#shadow)" />
  <rect x="896" y="138" width="2" height="582" fill="url(#barGradient)" filter="url(#shadow)" />
  <rect x="899" y="136" width="2" height="584" fill="url(#barGradient)" filter="url(#shadow)" />
  <rect x="902" y="134" width="2" height="586" fill="url(#barGradient)" filter="url(#shadow)" />
  <rect x="905" y="132" width="2" height="588" fill="url(#barGradient)" filter="url(#shadow)" />
  <rect x="908" y="130" width="2" height="590" fill="url(#barGradient)" filter="url(#shadow)" />
  <rect x="911" y="128" width="2" height="592" fill="url(#barGradient)" filter="url(#shadow)" />
  <rect x="914" y="125" width="2" height="595" fill="url(#barGradient)" filter="url(#shadow)" />
  <rect x="917" y="123" width="2" height="597" fill="url(#barGradient)" filter="url(#shadow)" />
  <rect x="920" y="121" width="2" height="599" fill="url(#barGradient)" filter="url(#shadow)" />
  <rect x="923" y="119" width="2" height="601" fill="url(#barGradient)" filter="url(#shadow)" />
  <rect x="926" y="117" width="2" height="603" fill="url(#barGradient)" filter="url(#shadow)" />
  <rect x="929" y="115" width="2" height="605" fill="url(#barGradient)" filter="url(#shadow)" />
  <rect x="932" y="113" width="2" height="607" fill="url(#barGradient)" filter="url(#shadow)" />
  <rect x="935" y="110" width="2" height="610" fill="url(#barGradient)" filter="url(#shadow)" />
  <rect x="938" y="108" width="2" height="612" fill="url(#barGradient)" filter="url(#shadow)" />
  <rect x="941" y="106" width="2" height="614" fill="url(#barGradient)" filter="url(#shadow)" />
  <rect x="944" y="104" width="2" height="616" fill="url(#barGradient)" filter="url(#shadow)" />
  <rect x="947" y="102" width="2" height="618" fill="url(#barGradient)" filter="url(#shadow)" />
  <rect x="950" y="100" width="2" height="620" fill="url(#barGradient)" filter="url(#shadow)" />
  <rect x="953" y="98" width="2" height="622" fill="url(#barGradient)" filter="url(#shadow)" />
  <rect x="956" y="95" width="2" height="625" fill="url(#barGradient)" filter="url(#shadow)" />
  <rect x="959" y="93" width="2" height="627" fill="url(#barGradient)" filter="url(#shadow)" />
  <rect x="962" y="91" width="2" height="629" fill="url(#barGradient)" filter="url(#shadow)" />
  <rect x="965" y="89" width="2" height="631" fill="url(#barGradient)" filter="url(#shadow)" />
  <rect x="968" y="87" width="2" height="633" fill="url(#barGradient)" filter="url(#shadow)" />
  <rect x="971" y="85" width="2" height="635" fill="url(#barGradient)" filter="url(#shadow)" />
  <rect x="974" y="83" width="2" height="637" fill="url(#barGradient)" filter="url(#shadow)" />
  <rect x="977" y="80" width="2" height="640" fill="url(#barGradient)" filter="url(#shadow)" />
  <text x="530" y="40" class="label title" text-anchor="middle">Sorted Distribution</text>
  <text x="530" y="780" class="label" text-anchor="middle">Index</text>
  <text x="30" y="400" class="label" transform="rotate(-90,30,400)" text-anchor="middle">Value</text><rect x="760" y="10" rx="8" stroke="#b0b0b0" width="150" height="90" fill="white" filter="url(#shadow)"/><text x="780" y="35" font-family="Arial" font-size="12" fill="#757575">Minimum: 0</text><text x="780" y="55" font-family="Arial" font-size="12" fill="#757575">Maximum: 299</text><text x="780" y="75" font-family="Arial" font-size="12" fill="#757575">Average: 149</text></svg>