<?xml version="1.0" encoding="UTF-8" standalone="no"?>
        <svg width="1200" height="800" xmlns="http://www.w3.org/2000/svg">
        <defs>
            <linearGradient id="barGradient" x1="0" x2="0" y1="0" y2="1">
                <stop offset="0%!"(MISSING) style="stop-color:#1976D2"/>
                <stop offset="100%!"(MISSING) style="stop-color:#2196F3"/>
            </linearGradient>
        </defs>
        <rect width="100%" height="100%" fill="#fafafa"/>
            <line x1="80" y1="80" x2="1120" y2="80" 
                stroke="#e0e0e0" stroke-width="1"/>
            <line x1="80" y1="144" x2="1120" y2="144" 
                stroke="#e0e0e0" stroke-width="1"/>
            <line x1="80" y1="208" x2="1120" y2="208" 
                stroke="#e0e0e0" stroke-width="1"/>
            <line x1="80" y1="272" x2="1120" y2="272" 
                stroke="#e0e0e0" stroke-width="1"/>
            <line x1="80" y1="336" x2="1120" y2="336" 
                stroke="#e0e0e0" stroke-width="1"/>
            <line x1="80" y1="400" x2="1120" y2="400" 
                stroke="#e0e0e0" stroke-width="1"/>
            <line x1="80" y1="464" x2="1120" y2="464" 
                stroke="#e0e0e0" stroke-width="1"/>
            <line x1="80" y1="528" x2="1120" y2="528" 
                stroke="#e0e0e0" stroke-width="1"/>
            <line x1="80" y1="592" x2="1120" y2="592" 
                stroke="#e0e0e0" stroke-width="1"/>
            <line x1="80" y1="656" x2="1120" y2="656" 
                stroke="#e0e0e0" stroke-width="1"/>
            <line x1="80" y1="720" x2="1120" y2="720" 
                stroke="#e0e0e0" stroke-width="1"/>
            <rect x="80" y="381" width="2" height="339" fill="url(#barGradient)"
                filter="url(#shadow)"/>
            <rect x="83" y="116" width="2" height="604" fill="url(#barGradient)"
                filter="url(#shadow)"/>
            <rect x="86" y="501" width="2" height="219" fill="url(#barGradient)"
                filter="url(#shadow)"/>
            <rect x="89" y="236" width="2" height="484" fill="url(#barGradient)"
                filter="url(#shadow)"/>
            <rect x="92" y="646" width="2" height="74" fill="url(#barGradient)"
                filter="url(#shadow)"/>
            <rect x="95" y="252" width="2" height="468" fill="url(#barGradient)"
                filter="url(#shadow)"/>
            <rect x="98" y="213" width="2" height="507" fill="url(#barGradient)"
                filter="url(#shadow)"/>
            <rect x="101" y="152" width="2" height="568" fill="url(#barGradient)"
                filter="url(#shadow)"/>
            <rect x="104" y="307" width="2" height="413" fill="url(#barGradient)"
                filter="url(#shadow)"/>
            <rect x="107" y="582" width="2" height="138" fill="url(#barGradient)"
                filter="url(#shadow)"/>
            <rect x="110" y="304" width="2" height="416" fill="url(#barGradient)"
                filter="url(#shadow)"/>
            <rect x="113" y="181" width="2" height="539" fill="url(#barGradient)"
                filter="url(#shadow)"/>
            <rect x="116" y="672" width="2" height="48" fill="url(#barGradient)"
                filter="url(#shadow)"/>
            <rect x="119" y="630" width="2" height="90" fill="url(#barGradient)"
                filter="url(#shadow)"/>
            <rect x="122" y="552" width="2" height="168" fill="url(#barGradient)"
                filter="url(#shadow)"/>
            <rect x="125" y="549" width="2" height="171" fill="url(#barGradient)"
                filter="url(#shadow)"/>
            <rect x="128" y="552" width="2" height="168" fill="url(#barGradient)"
                filter="url(#shadow)"/>
            <rect x="131" y="717" width="2" height="3" fill="url(#barGradient)"
                filter="url(#shadow)"/>
            <rect x="134" y="284" width="2" height="436" fill="url(#barGradient)"
                filter="url(#shadow)"/>
            <rect x="137" y="384" width="2" height="336" fill="url(#barGradient)"
                filter="url(#shadow)"/>
            <rect x="140" y="455" width="2" height="265" fill="url(#barGradient)"
                filter="url(#shadow)"/>
            <rect x="143" y="287" width="2" height="433" fill="url(#barGradient)"
                filter="url(#shadow)"/>
            <rect x="146" y="578" width="2" height="142" fill="url(#barGradient)"
                filter="url(#shadow)"/>
            <rect x="149" y="478" width="2" height="242" fill="url(#barGradient)"
                filter="url(#shadow)"/>
            <rect x="152" y="255" width="2" height="465" fill="url(#barGradient)"
                filter="url(#shadow)"/>
            <rect x="155" y="523" width="2" height="197" fill="url(#barGradient)"
                filter="url(#shadow)"/>
            <rect x="158" y="714" width="2" height="6" fill="url(#barGradient)"
                filter="url(#shadow)"/>
            <rect x="161" y="336" width="2" height="384" fill="url(#barGradient)"
                filter="url(#shadow)"/>
            <rect x="164" y="375" width="2" height="345" fill="url(#barGradient)"
                filter="url(#shadow)"/>
            <rect x="167" y="465" width="2" height="255" fill="url(#barGradient)"
                filter="url(#shadow)"/>
            <rect x="170" y="132" width="2" height="588" fill="url(#barGradient)"
                filter="url(#shadow)"/>
            <rect x="173" y="391" width="2" height="329" fill="url(#barGradient)"
                filter="url(#shadow)"/>
            <rect x="176" y="349" width="2" height="371" fill="url(#barGradient)"
                filter="url(#shadow)"/>
            <rect x="179" y="688" width="2" height="32" fill="url(#barGradient)"
                filter="url(#shadow)"/>
            <rect x="182" y="627" width="2" height="93" fill="url(#barGradient)"
                filter="url(#shadow)"/>
            <rect x="185" y="404" width="2" height="316" fill="url(#barGradient)"
                filter="url(#shadow)"/>
            <rect x="188" y="158" width="2" height="562" fill="url(#barGradient)"
                filter="url(#shadow)"/>
            <rect x="191" y="181" width="2" height="539" fill="url(#barGradient)"
                filter="url(#shadow)"/>
            <rect x="194" y="165" width="2" height="555" fill="url(#barGradient)"
                filter="url(#shadow)"/>
            <rect x="197" y="375" width="2" height="345" fill="url(#barGradient)"
                filter="url(#shadow)"/>
            <rect x="200" y="607" width="2" height="113" fill="url(#barGradient)"
                filter="url(#shadow)"/>
            <rect x="203" y="116" width="2" height="604" fill="url(#barGradient)"
                filter="url(#shadow)"/>
            <rect x="206" y="643" width="2" height="77" fill="url(#barGradient)"
                filter="url(#shadow)"/>
            <rect x="209" y="203" width="2" height="517" fill="url(#barGradient)"
                filter="url(#shadow)"/>
            <rect x="212" y="281" width="2" height="439" fill="url(#barGradient)"
                filter="url(#shadow)"/>
            <rect x="215" y="358" width="2" height="362" fill="url(#barGradient)"
                filter="url(#shadow)"/>
            <rect x="218" y="93" width="2" height="627" fill="url(#barGradient)"
                filter="url(#shadow)"/>
            <rect x="221" y="294" width="2" height="426" fill="url(#barGradient)"
                filter="url(#shadow)"/>
            <rect x="224" y="627" width="2" height="93" fill="url(#barGradient)"
                filter="url(#shadow)"/>
            <rect x="227" y="336" width="2" height="384" fill="url(#barGradient)"
                filter="url(#shadow)"/>
            <rect x="230" y="145" width="2" height="575" fill="url(#barGradient)"
                filter="url(#shadow)"/>
            <rect x="233" y="100" width="2" height="620" fill="url(#barGradient)"
                filter="url(#shadow)"/>
            <rect x="236" y="368" width="2" height="352" fill="url(#barGradient)"
                filter="url(#shadow)"/>
            <rect x="239" y="103" width="2" height="617" fill="url(#barGradient)"
                filter="url(#shadow)"/>
            <rect x="242" y="488" width="2" height="232" fill="url(#barGradient)"
                filter="url(#shadow)"/>
            <rect x="245" y="475" width="2" height="245" fill="url(#barGradient)"
                filter="url(#shadow)"/>
            <rect x="248" y="274" width="2" height="446" fill="url(#barGradient)"
                filter="url(#shadow)"/>
            <rect x="251" y="717" width="2" height="3" fill="url(#barGradient)"
                filter="url(#shadow)"/>
            <rect x="254" y="119" width="2" height="601" fill="url(#barGradient)"
                filter="url(#shadow)"/>
            <rect x="257" y="439" width="2" height="281" fill="url(#barGradient)"
                filter="url(#shadow)"/>
            <rect x="260" y="384" width="2" height="336" fill="url(#barGradient)"
                filter="url(#shadow)"/>
            <rect x="263" y="145" width="2" height="575" fill="url(#barGradient)"
                filter="url(#shadow)"/>
            <rect x="266" y="685" width="2" height="35" fill="url(#barGradient)"
                filter="url(#shadow)"/>
            <rect x="269" y="539" width="2" height="181" fill="url(#barGradient)"
                filter="url(#shadow)"/>
            <rect x="272" y="672" width="2" height="48" fill="url(#barGradient)"
                filter="url(#shadow)"/>
            <rect x="275" y="413" width="2" height="307" fill="url(#barGradient)"
                filter="url(#shadow)"/>
            <rect x="278" y="410" width="2" height="310" fill="url(#barGradient)"
                filter="url(#shadow)"/>
            <rect x="281" y="307" width="2" height="413" fill="url(#barGradient)"
                filter="url(#shadow)"/>
            <rect x="284" y="346" width="2" height="374" fill="url(#barGradient)"
                filter="url(#shadow)"/>
            <rect x="287" y="155" width="2" height="565" fill="url(#barGradient)"
                filter="url(#shadow)"/>
            <rect x="290" y="184" width="2" height="536" fill="url(#barGradient)"
                filter="url(#shadow)"/>
            <rect x="293" y="116" width="2" height="604" fill="url(#barGradient)"
                filter="url(#shadow)"/>
            <rect x="296" y="494" width="2" height="226" fill="url(#barGradient)"
                filter="url(#shadow)"/>
            <rect x="299" y="439" width="2" height="281" fill="url(#barGradient)"
                filter="url(#shadow)"/>
            <rect x="302" y="462" width="2" height="258" fill="url(#barGradient)"
                filter="url(#shadow)"/>
            <rect x="305" y="384" width="2" height="336" fill="url(#barGradient)"
                filter="url(#shadow)"/>
            <rect x="308" y="394" width="2" height="326" fill="url(#barGradient)"
                filter="url(#shadow)"/>
            <rect x="311" y="126" width="2" height="594" fill="url(#barGradient)"
                filter="url(#shadow)"/>
            <rect x="314" y="388" width="2" height="332" fill="url(#barGradient)"
                filter="url(#shadow)"/>
            <rect x="317" y="184" width="2" height="536" fill="url(#barGradient)"
                filter="url(#shadow)"/>
            <rect x="320" y="594" width="2" height="126" fill="url(#barGradient)"
                filter="url(#shadow)"/>
            <rect x="323" y="323" width="2" height="397" fill="url(#barGradient)"
                filter="url(#shadow)"/>
            <rect x="326" y="678" width="2" height="42" fill="url(#barGradient)"
                filter="url(#shadow)"/>
            <rect x="329" y="207" width="2" height="513" fill="url(#barGradient)"
                filter="url(#shadow)"/>
            <rect x="332" y="249" width="2" height="471" fill="url(#barGradient)"
                filter="url(#shadow)"/>
            <rect x="335" y="546" width="2" height="174" fill="url(#barGradient)"
                filter="url(#shadow)"/>
            <rect x="338" y="284" width="2" height="436" fill="url(#barGradient)"
                filter="url(#shadow)"/>
            <rect x="341" y="249" width="2" height="471" fill="url(#barGradient)"
                filter="url(#shadow)"/>
            <rect x="344" y="452" width="2" height="268" fill="url(#barGradient)"
                filter="url(#shadow)"/>
            <rect x="347" y="274" width="2" height="446" fill="url(#barGradient)"
                filter="url(#shadow)"/>
            <rect x="350" y="132" width="2" height="588" fill="url(#barGradient)"
                filter="url(#shadow)"/>
            <rect x="353" y="80" width="2" height="640" fill="url(#barGradient)"
                filter="url(#shadow)"/>
            <rect x="356" y="620" width="2" height="100" fill="url(#barGradient)"
                filter="url(#shadow)"/>
            <rect x="359" y="375" width="2" height="345" fill="url(#barGradient)"
                filter="url(#shadow)"/>
            <rect x="362" y="517" width="2" height="203" fill="url(#barGradient)"
                filter="url(#shadow)"/>
            <rect x="365" y="232" width="2" height="488" fill="url(#barGradient)"
                filter="url(#shadow)"/>
            <rect x="368" y="268" width="2" height="452" fill="url(#barGradient)"
                filter="url(#shadow)"/>
            <rect x="371" y="155" width="2" height="565" fill="url(#barGradient)"
                filter="url(#shadow)"/>
            <rect x="374" y="539" width="2" height="181" fill="url(#barGradient)"
                filter="url(#shadow)"/>
            <rect x="377" y="714" width="2" height="6" fill="url(#barGradient)"
                filter="url(#shadow)"/>
            <rect x="380" y="210" width="2" height="510" fill="url(#barGradient)"
                filter="url(#shadow)"/>
            <rect x="383" y="384" width="2" height="336" fill="url(#barGradient)"
                filter="url(#shadow)"/>
            <rect x="386" y="307" width="2" height="413" fill="url(#barGradient)"
                filter="url(#shadow)"/>
            <rect x="389" y="543" width="2" height="177" fill="url(#barGradient)"
                filter="url(#shadow)"/>
            <rect x="392" y="80" width="2" height="640" fill="url(#barGradient)"
                filter="url(#shadow)"/>
            <rect x="395" y="662" width="2" height="58" fill="url(#barGradient)"
                filter="url(#shadow)"/>
            <rect x="398" y="520" width="2" height="200" fill="url(#barGradient)"
                filter="url(#shadow)"/>
            <rect x="401" y="375" width="2" height="345" fill="url(#barGradient)"
                filter="url(#shadow)"/>
            <rect x="404" y="462" width="2" height="258" fill="url(#barGradient)"
                filter="url(#shadow)"/>
            <rect x="407" y="310" width="2" height="410" fill="url(#barGradient)"
                filter="url(#shadow)"/>
            <rect x="410" y="177" width="2" height="543" fill="url(#barGradient)"
                filter="url(#shadow)"/>
            <rect x="413" y="620" width="2" height="100" fill="url(#barGradient)"
                filter="url(#shadow)"/>
            <rect x="416" y="594" width="2" height="126" fill="url(#barGradient)"
                filter="url(#shadow)"/>
            <rect x="419" y="659" width="2" height="61" fill="url(#barGradient)"
                filter="url(#shadow)"/>
            <rect x="422" y="142" width="2" height="578" fill="url(#barGradient)"
                filter="url(#shadow)"/>
            <rect x="425" y="468" width="2" height="252" fill="url(#barGradient)"
                filter="url(#shadow)"/>
            <rect x="428" y="148" width="2" height="572" fill="url(#barGradient)"
                filter="url(#shadow)"/>
            <rect x="431" y="582" width="2" height="138" fill="url(#barGradient)"
                filter="url(#shadow)"/>
            <rect x="434" y="200" width="2" height="520" fill="url(#barGradient)"
                filter="url(#shadow)"/>
            <rect x="437" y="145" width="2" height="575" fill="url(#barGradient)"
                filter="url(#shadow)"/>
            <rect x="440" y="355" width="2" height="365" fill="url(#barGradient)"
                filter="url(#shadow)"/>
            <rect x="443" y="326" width="2" height="394" fill="url(#barGradient)"
                filter="url(#shadow)"/>
            <rect x="446" y="365" width="2" height="355" fill="url(#barGradient)"
                filter="url(#shadow)"/>
            <rect x="449" y="565" width="2" height="155" fill="url(#barGradient)"
                filter="url(#shadow)"/>
            <rect x="452" y="129" width="2" height="591" fill="url(#barGradient)"
                filter="url(#shadow)"/>
            <rect x="455" y="232" width="2" height="488" fill="url(#barGradient)"
                filter="url(#shadow)"/>
            <rect x="458" y="575" width="2" height="145" fill="url(#barGradient)"
                filter="url(#shadow)"/>
            <rect x="461" y="223" width="2" height="497" fill="url(#barGradient)"
                filter="url(#shadow)"/>
            <rect x="464" y="582" width="2" height="138" fill="url(#barGradient)"
                filter="url(#shadow)"/>
            <rect x="467" y="287" width="2" height="433" fill="url(#barGradient)"
                filter="url(#shadow)"/>
            <rect x="470" y="533" width="2" height="187" fill="url(#barGradient)"
                filter="url(#shadow)"/>
            <rect x="473" y="304" width="2" height="416" fill="url(#barGradient)"
                filter="url(#shadow)"/>
            <rect x="476" y="675" width="2" height="45" fill="url(#barGradient)"
                filter="url(#shadow)"/>
            <rect x="479" y="135" width="2" height="585" fill="url(#barGradient)"
                filter="url(#shadow)"/>
            <rect x="482" y="675" width="2" height="45" fill="url(#barGradient)"
                filter="url(#shadow)"/>
            <rect x="485" y="439" width="2" height="281" fill="url(#barGradient)"
                filter="url(#shadow)"/>
            <rect x="488" y="400" width="2" height="320" fill="url(#barGradient)"
                filter="url(#shadow)"/>
            <rect x="491" y="520" width="2" height="200" fill="url(#barGradient)"
                filter="url(#shadow)"/>
            <rect x="494" y="323" width="2" height="397" fill="url(#barGradient)"
                filter="url(#shadow)"/>
            <rect x="497" y="594" width="2" height="126" fill="url(#barGradient)"
                filter="url(#shadow)"/>
            <rect x="500" y="640" width="2" height="80" fill="url(#barGradient)"
                filter="url(#shadow)"/>
            <rect x="503" y="219" width="2" height="501" fill="url(#barGradient)"
                filter="url(#shadow)"/>
            <rect x="506" y="336" width="2" height="384" fill="url(#barGradient)"
                filter="url(#shadow)"/>
            <rect x="509" y="517" width="2" height="203" fill="url(#barGradient)"
                filter="url(#shadow)"/>
            <rect x="512" y="556" width="2" height="164" fill="url(#barGradient)"
                filter="url(#shadow)"/>
            <rect x="515" y="468" width="2" height="252" fill="url(#barGradient)"
                filter="url(#shadow)"/>
            <rect x="518" y="93" width="2" height="627" fill="url(#barGradient)"
                filter="url(#shadow)"/>
            <rect x="521" y="161" width="2" height="559" fill="url(#barGradient)"
                filter="url(#shadow)"/>
            <rect x="524" y="197" width="2" height="523" fill="url(#barGradient)"
                filter="url(#shadow)"/>
            <rect x="527" y="116" width="2" height="604" fill="url(#barGradient)"
                filter="url(#shadow)"/>
            <rect x="530" y="110" width="2" height="610" fill="url(#barGradient)"
                filter="url(#shadow)"/>
            <rect x="533" y="152" width="2" height="568" fill="url(#barGradient)"
                filter="url(#shadow)"/>
            <rect x="536" y="452" width="2" height="268" fill="url(#barGradient)"
                filter="url(#shadow)"/>
            <rect x="539" y="181" width="2" height="539" fill="url(#barGradient)"
                filter="url(#shadow)"/>
            <rect x="542" y="620" width="2" height="100" fill="url(#barGradient)"
                filter="url(#shadow)"/>
            <rect x="545" y="378" width="2" height="342" fill="url(#barGradient)"
                filter="url(#shadow)"/>
            <rect x="548" y="585" width="2" height="135" fill="url(#barGradient)"
                filter="url(#shadow)"/>
            <rect x="551" y="446" width="2" height="274" fill="url(#barGradient)"
                filter="url(#shadow)"/>
            <rect x="554" y="646" width="2" height="74" fill="url(#barGradient)"
                filter="url(#shadow)"/>
            <rect x="557" y="97" width="2" height="623" fill="url(#barGradient)"
                filter="url(#shadow)"/>
            <rect x="560" y="695" width="2" height="25" fill="url(#barGradient)"
                filter="url(#shadow)"/>
            <rect x="563" y="168" width="2" height="552" fill="url(#barGradient)"
                filter="url(#shadow)"/>
            <rect x="566" y="358" width="2" height="362" fill="url(#barGradient)"
                filter="url(#shadow)"/>
            <rect x="569" y="527" width="2" height="193" fill="url(#barGradient)"
                filter="url(#shadow)"/>
            <rect x="572" y="459" width="2" height="261" fill="url(#barGradient)"
                filter="url(#shadow)"/>
            <rect x="575" y="669" width="2" height="51" fill="url(#barGradient)"
                filter="url(#shadow)"/>
            <rect x="578" y="97" width="2" height="623" fill="url(#barGradient)"
                filter="url(#shadow)"/>
            <rect x="581" y="239" width="2" height="481" fill="url(#barGradient)"
                filter="url(#shadow)"/>
            <rect x="584" y="207" width="2" height="513" fill="url(#barGradient)"
                filter="url(#shadow)"/>
            <rect x="587" y="704" width="2" height="16" fill="url(#barGradient)"
                filter="url(#shadow)"/>
            <rect x="590" y="598" width="2" height="122" fill="url(#barGradient)"
                filter="url(#shadow)"/>
            <rect x="593" y="226" width="2" height="494" fill="url(#barGradient)"
                filter="url(#shadow)"/>
            <rect x="596" y="678" width="2" height="42" fill="url(#barGradient)"
                filter="url(#shadow)"/>
            <rect x="599" y="497" width="2" height="223" fill="url(#barGradient)"
                filter="url(#shadow)"/>
            <rect x="602" y="278" width="2" height="442" fill="url(#barGradient)"
                filter="url(#shadow)"/>
            <rect x="605" y="430" width="2" height="290" fill="url(#barGradient)"
                filter="url(#shadow)"/>
            <rect x="608" y="530" width="2" height="190" fill="url(#barGradient)"
                filter="url(#shadow)"/>
            <rect x="611" y="436" width="2" height="284" fill="url(#barGradient)"
                filter="url(#shadow)"/>
            <rect x="614" y="346" width="2" height="374" fill="url(#barGradient)"
                filter="url(#shadow)"/>
            <rect x="617" y="510" width="2" height="210" fill="url(#barGradient)"
                filter="url(#shadow)"/>
            <rect x="620" y="497" width="2" height="223" fill="url(#barGradient)"
                filter="url(#shadow)"/>
            <rect x="623" y="549" width="2" height="171" fill="url(#barGradient)"
                filter="url(#shadow)"/>
            <rect x="626" y="249" width="2" height="471" fill="url(#barGradient)"
                filter="url(#shadow)"/>
            <rect x="629" y="333" width="2" height="387" fill="url(#barGradient)"
                filter="url(#shadow)"/>
            <rect x="632" y="662" width="2" height="58" fill="url(#barGradient)"
                filter="url(#shadow)"/>
            <rect x="635" y="539" width="2" height="181" fill="url(#barGradient)"
                filter="url(#shadow)"/>
            <rect x="638" y="497" width="2" height="223" fill="url(#barGradient)"
                filter="url(#shadow)"/>
            <rect x="641" y="97" width="2" height="623" fill="url(#barGradient)"
                filter="url(#shadow)"/>
            <rect x="644" y="636" width="2" height="84" fill="url(#barGradient)"
                filter="url(#shadow)"/>
            <rect x="647" y="656" width="2" height="64" fill="url(#barGradient)"
                filter="url(#shadow)"/>
            <rect x="650" y="601" width="2" height="119" fill="url(#barGradient)"
                filter="url(#shadow)"/>
            <rect x="653" y="262" width="2" height="458" fill="url(#barGradient)"
                filter="url(#shadow)"/>
            <rect x="656" y="203" width="2" height="517" fill="url(#barGradient)"
                filter="url(#shadow)"/>
            <rect x="659" y="294" width="2" height="426" fill="url(#barGradient)"
                filter="url(#shadow)"/>
            <rect x="662" y="666" width="2" height="54" fill="url(#barGradient)"
                filter="url(#shadow)"/>
            <rect x="665" y="633" width="2" height="87" fill="url(#barGradient)"
                filter="url(#shadow)"/>
            <rect x="668" y="155" width="2" height="565" fill="url(#barGradient)"
                filter="url(#shadow)"/>
            <rect x="671" y="394" width="2" height="326" fill="url(#barGradient)"
                filter="url(#shadow)"/>
            <rect x="674" y="539" width="2" height="181" fill="url(#barGradient)"
                filter="url(#shadow)"/>
            <rect x="677" y="394" width="2" height="326" fill="url(#barGradient)"
                filter="url(#shadow)"/>
        <text x="600" y="40" font-family="Arial" font-size="24" text-anchor="middle" fill="#212121">
            Data Distribution Analysis
        </text>
        <text x="600" y="790" font-family="Arial" font-size="14" text-anchor="middle" fill="#757575">
            Index
        </text>
        <text x="30" y="400" font-family="Arial" font-size="14" text-anchor="middle" 
            transform="rotate(-90,30,400)" fill="#757575">
            Value
        </text>
        <rect x="920" y="20" width="200" height="80" fill="white" rx="5" 
            filter="url(#shadow)"/>
        <text x="940" y="45" font-family="Arial" font-size="12" fill="#757575">
            Maximum: 198
        </text>
        <text x="940" y="65" font-family="Arial" font-size="12" fill="#757575">
            Average: 102
        </text></svg>